<svg width="430" height="416" viewBox="0 0 430 416" fill="none" xmlns="http://www.w3.org/2000/svg">
<path d="M165.499 113.489C165.387 113.489 165.273 113.446 165.189 113.361L163.544 111.699C163.465 111.619 163.421 111.512 163.424 111.402C163.427 111.292 163.475 111.187 163.557 111.11L165.202 109.588C165.375 109.43 165.647 109.435 165.81 109.601C165.974 109.767 165.968 110.03 165.796 110.189L164.461 111.424L165.809 112.785C165.973 112.951 165.967 113.214 165.795 113.373C165.713 113.451 165.607 113.489 165.499 113.489Z" fill="#263238"/>
<path d="M223.614 201.958C236.049 201.958 246.129 192.206 246.129 180.175C246.129 168.145 236.049 158.393 223.614 158.393C211.179 158.393 201.098 168.145 201.098 180.175C201.098 192.206 211.179 201.958 223.614 201.958Z" fill="#E8505B"/>
<path d="M234.703 170.985C234.991 171.212 230.784 176.684 225.31 183.207C224.143 184.578 223.023 185.891 221.994 187.099L221.54 187.632L221.054 187.147C216.779 182.884 213.859 179.72 214.065 179.519C214.272 179.319 217.544 182.144 221.95 186.28L221.01 186.327C222.021 185.104 223.12 183.776 224.267 182.389C229.741 175.865 234.415 170.76 234.703 170.985Z" fill="white"/>
<path d="M255.597 171.4C254.93 169.112 251.855 169.334 251.855 169.334L251.94 170.926C253.716 170.63 254.821 172.644 254.821 172.644L255.597 171.4Z" fill="#E8505B"/>
<path d="M190.382 176.198C189.714 173.91 186.64 174.133 186.64 174.133L186.724 175.724C188.501 175.428 189.605 177.442 189.605 177.442L190.382 176.198Z" fill="#E0E0E0"/>
<path d="M226.302 144.547C229.868 145.592 232.086 141.613 232.086 141.613L229.918 140.417C228.857 142.854 225.296 142.572 225.296 142.572L226.302 144.547Z" fill="#E0E0E0"/>
<path d="M206.514 148.829C204.855 149 204.657 151.015 204.657 151.015L205.767 151.142C205.765 149.957 207.286 149.473 207.286 149.473L206.514 148.829Z" fill="#E8505B"/>
<path d="M274.915 163.567C275.156 161.97 273.188 161.284 273.188 161.284L272.784 162.293C273.971 162.585 274.079 164.13 274.079 164.13L274.915 163.567Z" fill="#E0E0E0"/>
<path d="M216.196 127.801C216.437 126.204 214.469 125.518 214.469 125.518L214.065 126.527C215.252 126.819 215.359 128.364 215.359 128.364L216.196 127.801Z" fill="#E8505B"/>
<path d="M175.193 153.569C174.895 156.073 178.324 156.68 178.324 156.68L178.944 155.041C176.886 154.861 176.589 152.516 176.589 152.516L175.193 153.569Z" fill="#E8505B"/>
<path d="M251.527 144.493C253.193 144.585 253.726 142.627 253.726 142.627L252.652 142.326C252.455 143.495 250.874 143.735 250.874 143.735L251.527 144.493Z" fill="#E8505B"/>
<path d="M260.629 151.065C260.629 151.136 260.013 151.194 259.254 151.194C258.494 151.194 257.878 151.136 257.878 151.065C257.878 150.993 258.494 150.935 259.254 150.935C260.013 150.935 260.629 150.993 260.629 151.065Z" fill="#E0E0E0"/>
<path d="M262.09 147.445C262.164 147.445 262.224 148.049 262.224 148.795C262.224 149.54 262.164 150.145 262.09 150.145C262.016 150.145 261.956 149.54 261.956 148.795C261.956 148.049 262.015 147.445 262.09 147.445Z" fill="#E0E0E0"/>
<path d="M263.646 150.978C263.646 150.907 264.262 150.848 265.021 150.848C265.781 150.848 266.397 150.907 266.397 150.978C266.397 151.05 265.781 151.108 265.021 151.108C264.262 151.108 263.646 151.05 263.646 150.978Z" fill="#E0E0E0"/>
<path d="M262.185 154.598C262.111 154.598 262.051 153.993 262.051 153.248C262.051 152.502 262.111 151.897 262.185 151.897C262.259 151.897 262.319 152.502 262.319 153.248C262.319 153.994 262.259 154.598 262.185 154.598Z" fill="#E0E0E0"/>
<path d="M264.409 153.046C264.352 153.091 264.086 152.875 263.816 152.562C263.546 152.249 263.373 151.958 263.43 151.912C263.487 151.867 263.752 152.083 264.023 152.396C264.293 152.709 264.466 153 264.409 153.046Z" fill="#E0E0E0"/>
<path d="M264.28 148.94C264.332 148.99 264.148 149.253 263.868 149.527C263.588 149.801 263.317 149.981 263.265 149.931C263.213 149.881 263.397 149.618 263.677 149.344C263.957 149.07 264.227 148.89 264.28 148.94Z" fill="#E0E0E0"/>
<path d="M261.127 149.986C261.08 150.041 260.824 149.912 260.558 149.697C260.29 149.482 260.113 149.262 260.16 149.207C260.208 149.153 260.463 149.282 260.73 149.497C260.996 149.712 261.174 149.93 261.127 149.986Z" fill="#E0E0E0"/>
<path d="M261.003 151.795C261.058 151.843 260.896 152.102 260.642 152.372C260.387 152.642 260.136 152.822 260.082 152.774C260.027 152.725 260.19 152.467 260.444 152.197C260.697 151.927 260.948 151.747 261.003 151.795Z" fill="#E0E0E0"/>
<path d="M185.71 143.648C185.71 143.72 185.094 143.778 184.335 143.778C183.575 143.778 182.959 143.72 182.959 143.648C182.959 143.577 183.575 143.518 184.335 143.518C185.094 143.518 185.71 143.577 185.71 143.648Z" fill="#E8505B"/>
<path d="M187.17 140.028C187.244 140.028 187.305 140.633 187.305 141.378C187.305 142.124 187.244 142.729 187.17 142.729C187.096 142.729 187.036 142.124 187.036 141.378C187.036 140.633 187.096 140.028 187.17 140.028Z" fill="#E8505B"/>
<path d="M188.727 143.562C188.727 143.49 189.343 143.432 190.102 143.432C190.862 143.432 191.478 143.49 191.478 143.562C191.478 143.633 190.862 143.691 190.102 143.691C189.343 143.691 188.727 143.633 188.727 143.562Z" fill="#E8505B"/>
<path d="M187.266 147.182C187.192 147.182 187.132 146.577 187.132 145.831C187.132 145.086 187.192 144.481 187.266 144.481C187.34 144.481 187.4 145.086 187.4 145.831C187.4 146.578 187.34 147.182 187.266 147.182Z" fill="#E8505B"/>
<path d="M189.489 145.629C189.432 145.675 189.166 145.458 188.897 145.146C188.627 144.833 188.454 144.542 188.511 144.496C188.568 144.45 188.833 144.666 189.103 144.979C189.374 145.292 189.546 145.583 189.489 145.629Z" fill="#E8505B"/>
<path d="M189.361 141.524C189.413 141.575 189.229 141.838 188.949 142.111C188.668 142.385 188.398 142.566 188.345 142.516C188.293 142.465 188.477 142.202 188.758 141.928C189.037 141.654 189.307 141.473 189.361 141.524Z" fill="#E8505B"/>
<path d="M186.207 142.57C186.16 142.625 185.904 142.496 185.638 142.28C185.37 142.066 185.193 141.846 185.241 141.791C185.288 141.736 185.543 141.865 185.81 142.081C186.076 142.295 186.255 142.514 186.207 142.57Z" fill="#E8505B"/>
<path d="M186.083 144.379C186.138 144.427 185.977 144.686 185.721 144.955C185.467 145.226 185.216 145.405 185.162 145.357C185.106 145.309 185.268 145.051 185.524 144.781C185.778 144.511 186.029 144.33 186.083 144.379Z" fill="#E8505B"/>
<path d="M280.89 109.033C280.89 109.153 278.17 109.249 274.816 109.249C271.461 109.249 268.742 109.152 268.742 109.033C268.742 108.914 271.461 108.816 274.816 108.816C278.169 108.816 280.89 108.913 280.89 109.033Z" fill="#263238"/>
<path d="M280.89 111.48C280.89 111.6 278.17 111.697 274.816 111.697C271.461 111.697 268.742 111.599 268.742 111.48C268.742 111.361 271.461 111.264 274.816 111.264C278.169 111.264 280.89 111.361 280.89 111.48Z" fill="#263238"/>
<path d="M280.89 113.929C280.89 114.049 278.17 114.145 274.816 114.145C271.461 114.145 268.742 114.048 268.742 113.929C268.742 113.81 271.461 113.713 274.816 113.713C278.169 113.713 280.89 113.809 280.89 113.929Z" fill="#263238"/>
</svg>
