<svg width="430" height="416" viewBox="0 0 430 416" fill="none" xmlns="http://www.w3.org/2000/svg">
<path d="M121.684 103.603L121.75 106.938C121.75 106.938 123.149 132.74 123.064 136.603C122.978 140.467 109.606 162.604 109.606 162.604L117.773 175.55L137.386 141.429L132.687 104.83L132.572 103.927" fill="#FFBE9D"/>
<path d="M131.637 99.6169C131.565 99.3457 128.957 90.2195 128.957 90.2195L118.594 96.0002C118.578 96.8389 121.684 103.603 121.684 103.603L123.474 105.395C123.474 105.395 132.437 104.479 132.631 104.391C132.825 104.303 131.637 99.6169 131.637 99.6169Z" fill="#FFBE9D"/>
<path d="M129.32 90.8869C129.341 90.8919 129.378 90.9626 129.425 91.0857C129.818 92.1033 130.965 96.6851 130.441 97.0237C129.854 97.4031 128.147 97.4489 127.875 96.8748C127.603 96.3016 126.612 91.0691 126.612 91.0691C126.612 91.0691 126.51 90.2321 127.864 89.6847C128.702 89.3469 129.32 90.8869 129.32 90.8869Z" fill="#FFBE9D"/>
<path d="M126.052 89.9517C126.073 89.9567 126.11 90.0274 126.157 90.1506C126.55 91.1681 127.697 95.7499 127.173 96.0885C126.586 96.4679 124.879 96.5137 124.607 95.9405C124.335 95.3672 123.344 90.1348 123.344 90.1348C123.344 90.1348 123.241 89.2978 124.596 88.7503C125.434 88.4117 126.052 89.9517 126.052 89.9517Z" fill="#FFBE9D"/>
<path d="M123.065 89.8235C123.087 89.8285 123.123 89.8993 123.17 90.0224C123.563 91.0399 124.71 95.6218 124.187 95.9604C123.6 96.3398 121.893 96.3855 121.621 95.8123C121.349 95.239 120.358 90.0066 120.358 90.0066C120.358 90.0066 120.255 89.1696 121.609 88.6221C122.447 88.2835 123.065 89.8235 123.065 89.8235Z" fill="#FFBE9D"/>
<path d="M120.106 89.7403C120.127 89.7453 120.164 89.816 120.211 89.9391C120.604 90.9567 121.751 95.5385 121.228 95.8771C120.641 96.2565 118.934 96.3023 118.662 95.729C118.39 95.1549 117.399 89.9233 117.399 89.9233C117.399 89.9233 117.296 89.0863 118.65 88.5389C119.488 88.2003 120.106 89.7403 120.106 89.7403Z" fill="#FFBE9D"/>
<path d="M127.498 95.5461C127.578 95.5195 127.412 94.5003 127.127 93.2697C126.842 92.0392 126.547 91.0633 126.467 91.0899C126.387 91.1165 126.554 92.1357 126.839 93.3671C127.124 94.5968 127.419 95.5727 127.498 95.5461Z" fill="#EB996E"/>
<path d="M124.721 96.2549C124.803 96.2374 124.544 94.7931 124.143 93.0301C123.741 91.2662 123.348 89.8518 123.266 89.8693C123.183 89.8868 123.442 91.3303 123.844 93.0941C124.245 94.8571 124.638 96.2724 124.721 96.2549Z" fill="#EB996E"/>
<g opacity="0.78">
<path d="M121.834 96.7341C121.917 96.7167 121.658 95.2723 121.257 93.5093C120.855 91.7455 120.462 90.3311 120.379 90.3485C120.297 90.366 120.556 91.8095 120.957 93.5734C121.359 95.3364 121.752 96.7516 121.834 96.7341Z" fill="#EB996E"/>
</g>
<path d="M124.072 102.688L120.938 100.238C119.568 99.1676 118.679 97.6259 118.456 95.9361L118.286 94.6448L127.698 92.8044C127.698 92.8044 127.744 96.204 125.034 96.2456L128.366 97.878L124.072 102.688Z" fill="#FFBE9D"/>
<path d="M127.95 98.5671C127.906 98.5929 127.701 98.1968 127.135 97.6877C126.581 97.1926 125.581 96.5803 124.258 96.5653L123.249 96.5536L124.198 96.2142C124.875 95.9721 125.612 95.7092 126.389 95.4313L126.346 95.4512C127.14 94.977 127.845 94.1009 127.709 93.0925C127.699 93.0168 127.682 92.9294 127.665 92.8787L127.931 93.0201C125.293 93.65 122.9 94.1841 121.152 94.4728C120.279 94.6209 119.569 94.7182 119.077 94.7707C118.585 94.8231 118.312 94.8347 118.308 94.8064C118.298 94.744 119.368 94.5469 121.091 94.1758C122.817 93.8122 125.185 93.2331 127.825 92.5991L128.03 92.55L128.09 92.7406C128.125 92.8471 128.138 92.9361 128.154 93.0368C128.229 93.6333 128.066 94.2315 127.751 94.7016C127.444 95.1808 127.007 95.5261 126.575 95.7965L126.554 95.8098L126.532 95.8173C125.748 96.0786 125.006 96.3265 124.323 96.5545L124.264 96.2042C125.717 96.2641 126.749 96.9771 127.286 97.5404C127.836 98.122 127.974 98.5596 127.95 98.5671Z" fill="#EB996E"/>
<path d="M127.376 94.3363C127.45 94.2913 127.608 94.7464 128.087 95.1674C128.324 95.3563 128.73 95.4936 129.028 95.2997C129.344 95.1042 129.491 94.6566 129.446 94.1665C129.335 93.1373 129.277 92.1672 129.176 91.5025C129.077 90.8285 128.968 90.4125 129.032 90.3917C129.084 90.3734 129.302 90.7586 129.486 91.4426C129.673 92.1348 129.778 93.0733 129.894 94.1432C129.946 94.689 129.769 95.3505 129.241 95.6425C128.682 95.9395 128.132 95.6541 127.873 95.3946C127.595 95.115 127.491 94.833 127.424 94.6474C127.362 94.4577 127.349 94.3479 127.376 94.3363Z" fill="#EB996E"/>
<path d="M95.2279 124.517C97.5189 124.388 99.6405 125.731 101.219 127.343C102.798 128.954 104.02 130.874 105.657 132.429C106.879 133.589 108.359 134.581 109.1 136.075C110.277 138.451 109.291 141.524 110.776 143.734C111.612 144.978 113.093 145.706 113.956 146.934C115.035 148.47 114.956 150.489 114.712 152.333C114.543 153.612 114.275 154.964 113.366 155.908C112.656 156.646 111.646 157.034 110.659 157.36C103.21 159.818 94.9724 159.989 87.4208 157.84" fill="#263238"/>
<path d="M79.4606 139.352C78.6359 132.981 83.3986 127.16 90.0851 126.543C96.3871 125.962 101.987 130.502 102.932 136.558C103.76 141.866 104.471 147.225 104.446 149.172C104.369 155.041 100.82 157.325 99.3808 158.012C99.0523 158.168 98.1467 158.346 97.7846 158.396C97.7623 158.399 97.7468 158.42 97.7511 158.442L99.0979 165.179C99.7085 169.593 97.1611 173.53 92.6066 174.173C88.0357 174.818 84.4632 171.428 83.7658 167.01L79.4606 139.352Z" fill="#FFBE9D"/>
<path d="M101.886 139.99C101.785 140.127 100.985 139.711 99.9579 139.858C98.9302 139.991 98.2534 140.609 98.1244 140.503C98.0616 140.457 98.1493 140.223 98.4426 139.946C98.7307 139.67 99.2484 139.368 99.8883 139.281C100.528 139.194 101.101 139.346 101.445 139.535C101.797 139.725 101.937 139.927 101.886 139.99Z" fill="#263238"/>
<path d="M92.7503 141.905C92.6496 142.042 91.8481 141.627 90.8221 141.774C89.7944 141.907 89.1176 142.525 88.9878 142.418C88.925 142.373 89.0118 142.138 89.306 141.861C89.5941 141.585 90.1118 141.283 90.7516 141.196C91.3915 141.11 91.9642 141.261 92.3091 141.451C92.6591 141.64 92.8001 141.843 92.7503 141.905Z" fill="#263238"/>
<path d="M96.3029 146.601C96.29 146.545 96.9118 146.349 97.9274 146.074C98.1854 146.011 98.4262 145.925 98.4443 145.746C98.4787 145.554 98.3273 145.296 98.1562 145.019C97.8173 144.44 97.4622 143.833 97.0898 143.197C95.5985 140.599 94.478 138.447 94.5872 138.39C94.6955 138.332 95.9933 140.392 97.4845 142.991C97.8457 143.632 98.1914 144.244 98.52 144.83C98.6627 145.103 98.8829 145.407 98.8063 145.806C98.7642 146.006 98.5922 146.171 98.4314 146.238C98.2706 146.311 98.1235 146.335 97.9954 146.36C96.9608 146.561 96.3158 146.657 96.3029 146.601Z" fill="#263238"/>
<path d="M97.7425 158.401C97.7425 158.401 93.8252 159.276 88.4313 157.091C88.4313 157.091 90.7601 161.941 98.1054 160.217L97.7425 158.401Z" fill="#EB996E"/>
<path d="M96.2298 149.056C95.7895 148.636 95.1032 148.468 94.4711 148.625C94.0325 148.734 93.6137 149.005 93.3961 149.395C93.1785 149.784 93.1966 150.291 93.4933 150.59C93.8269 150.928 94.4195 150.933 94.889 150.73C95.3586 150.526 95.7336 150.154 96.087 149.788C96.1851 149.686 96.2848 149.58 96.3364 149.452C96.388 149.324 96.3794 149.169 96.2788 149.083" fill="#EB996E"/>
<path d="M93.3849 147.714C93.5509 147.682 93.7152 148.759 94.785 149.39C95.8531 150.024 97.0227 149.735 97.0545 149.884C97.0803 149.95 96.8215 150.131 96.3218 150.214C95.8325 150.3 95.0912 150.248 94.4367 149.862C93.784 149.475 93.4391 148.884 93.335 148.447C93.2232 148.004 93.3075 147.718 93.3849 147.714Z" fill="#263238"/>
<path d="M92.0424 138.672C91.9822 138.956 90.9373 138.973 89.754 139.283C88.5637 139.57 87.6435 140.049 87.4475 139.829C87.3589 139.724 87.4896 139.446 87.8431 139.129C88.1931 138.813 88.777 138.477 89.4882 138.297C90.1995 138.118 90.8789 138.136 91.3433 138.247C91.812 138.357 92.0665 138.538 92.0424 138.672Z" fill="#263238"/>
<path d="M100.849 136.927C100.702 137.178 99.9596 137.044 99.1073 137.153C98.2508 137.232 97.5593 137.526 97.3581 137.313C97.2687 137.209 97.3478 136.967 97.6299 136.709C97.9076 136.453 98.4004 136.206 98.9878 136.14C99.5752 136.076 100.113 136.209 100.443 136.398C100.778 136.587 100.912 136.806 100.849 136.927Z" fill="#263238"/>
<path d="M104.123 135.242C102.867 137.096 98.8828 135.951 96.4765 134.677C93.9421 136.302 90.4204 135.597 88.6651 133.112C87.2883 134.809 84.4924 134.248 83.4724 132.336C82.4525 130.424 83.027 127.793 84.427 126.121C85.828 124.449 87.8765 123.604 89.8992 123.242C94.6954 122.385 99.9199 124.184 102.79 128.38C104.113 130.316 104.908 132.924 104.123 135.242Z" fill="#263238"/>
<path d="M84.7848 125.99C80.2733 125.156 75.9174 129.507 75.4659 132.622C74.6824 138.027 75.4375 138.701 74.4158 141.293C73.7528 142.977 71.4574 144.703 70.551 146.439C69.5766 148.306 69.5809 151.459 70.2577 153.445C70.8288 155.12 73.1568 159.796 73.1568 159.796C73.1568 159.796 79.8691 159.584 83.3022 158.735C84.1588 158.523 85.0712 158.213 85.7257 157.638C86.375 157.067 85.0308 155.084 85.1538 154.244C85.5055 151.847 87.3605 150.462 86.8299 148.098C86.1256 144.958 83.5731 144.797 83.629 141.585C83.6591 139.879 86.2855 137.431 86.5272 135.742C86.7697 134.05 87.7828 128.166 84.7848 125.99Z" fill="#263238"/>
<path d="M77.1498 159.989C77.1739 159.966 76.823 159.627 76.2571 158.961C75.6955 158.295 74.9207 157.285 74.2593 155.891C73.61 154.506 73.0768 152.693 73.2832 150.683C73.469 148.699 74.3832 146.491 76.2528 145.029C77.1816 144.299 78.2446 143.751 79.1493 143.017C80.079 142.308 80.7266 141.307 81.0284 140.305C81.3518 139.303 81.4601 138.321 81.5848 137.422C81.7061 136.522 81.8471 135.692 82.0982 134.971C82.5695 133.507 83.5964 132.626 84.3927 132.299C85.2037 131.958 85.7283 132.081 85.7232 132.029C85.7249 132.02 85.6028 131.987 85.3628 131.98C85.1246 131.971 84.7625 132.001 84.3343 132.161C83.482 132.456 82.3588 133.364 81.8334 134.882C81.5539 135.625 81.3948 136.475 81.2589 137.377C81.1196 138.278 80.9992 139.242 80.6801 140.196C80.3748 141.156 79.7892 142.051 78.8999 142.728C78.0339 143.426 76.9726 143.972 76.0017 144.731C74.0297 146.275 73.0915 148.593 72.9186 150.651C72.726 152.743 73.3091 154.607 74.0048 156.006C74.7134 157.417 75.5364 158.416 76.1393 159.058C76.4403 159.382 76.6914 159.617 76.8669 159.77C77.0432 159.924 77.1403 159.999 77.1498 159.989Z" fill="#455A64"/>
<path d="M109.969 157.163C109.981 157.17 110.039 157.089 110.138 156.929C110.243 156.772 110.366 156.524 110.517 156.2C110.796 155.547 111.1 154.535 111.102 153.253C111.108 151.982 110.791 150.421 109.839 148.978C109.373 148.249 108.734 147.613 108.143 146.925C107.552 146.241 107 145.481 106.799 144.577C106.398 142.754 107.015 140.917 106.888 139.223C106.824 137.533 106.336 136.032 105.648 134.939C104.966 133.836 104.148 133.134 103.549 132.731C103.246 132.529 103.004 132.386 102.829 132.305C102.658 132.219 102.566 132.18 102.559 132.191C102.539 132.226 102.894 132.413 103.456 132.85C104.016 133.282 104.779 133.994 105.406 135.074C106.04 136.146 106.481 137.597 106.523 139.236C106.557 140.056 106.456 140.909 106.358 141.814C106.267 142.713 106.181 143.683 106.413 144.663C106.634 145.654 107.241 146.475 107.846 147.166C108.454 147.864 109.084 148.485 109.532 149.17C110.457 150.534 110.792 152.028 110.821 153.257C110.855 154.497 110.603 155.491 110.372 156.147C110.132 156.804 109.936 157.145 109.969 157.163Z" fill="#455A64"/>
<path d="M90.8642 123.906C90.8693 123.987 91.9976 123.777 93.7744 124.064C95.5185 124.347 97.9747 125.227 99.803 127.201C101.59 129.205 102.402 131.578 102.699 133.272C102.998 134.993 102.769 136.079 102.847 136.086C102.87 136.09 102.945 135.825 103.011 135.332C103.07 134.84 103.09 134.116 102.976 133.232C102.741 131.483 101.96 129.035 100.099 126.947C98.1836 124.88 95.6165 124.017 93.8157 123.795C92.9015 123.679 92.1533 123.704 91.6451 123.76C91.1351 123.813 90.8607 123.884 90.8642 123.906Z" fill="#455A64"/>
<path d="M97.3494 132.532C97.3718 132.534 97.4234 132.301 97.4449 131.871C97.4681 131.442 97.432 130.813 97.2497 130.059C96.9091 128.572 95.7937 126.515 93.6454 125.279C91.486 124.06 89.0866 124.114 87.5755 124.547C86.8058 124.758 86.2193 125.032 85.8435 125.26C85.466 125.486 85.2802 125.644 85.2931 125.661C85.3318 125.73 86.1342 125.153 87.6452 124.809C89.1227 124.457 91.4051 124.457 93.4442 125.61C95.4738 126.776 96.5806 128.707 96.9788 130.128C97.401 131.573 97.2677 132.533 97.3494 132.532Z" fill="#455A64"/>
<path d="M77.8817 198.228C77.8817 198.228 80.8555 204.79 80.6844 207.893C80.5133 210.997 77.4456 221.077 77.4456 221.077L113.812 224.369L113.979 216.232L112.885 182.76L133.161 152.917L117.816 144.314L102.9 163.872L99.1245 162.456L82.8103 164.457V167.246L82.3433 167.301C82.3433 167.301 77.1575 168.213 72.1781 171.154C66.3026 174.624 63.2961 181.274 64.39 187.85C65.0539 191.84 66.3396 196.69 68.8164 199.493C73.5541 204.855 77.8817 198.228 77.8817 198.228Z" fill="#E8505B"/>
<path d="M72.7243 182.606C72.7243 182.606 70.8633 172.387 71.4025 171.652C72.044 170.779 79.686 167.6 79.8021 167.923L81.4808 179.156L72.7243 182.606Z" fill="#FAFAFA"/>
<path d="M103.718 183.174L102.848 202.769H110.496V183.174H103.718Z" fill="#FAFAFA"/>
<path d="M91.0638 192.972C91.0543 192.962 91.2022 192.952 91.4972 192.942C91.8404 192.932 92.2755 192.921 92.8139 192.907C94.042 192.888 95.7379 192.862 97.8423 192.83L97.9876 192.828L97.9894 192.972C98.0358 197.677 98.0659 204.706 98.0668 212.567V212.783H97.8432C97.703 212.783 97.5525 212.783 97.4003 212.783C94.8899 212.781 92.4596 212.778 90.1943 212.776H89.9673L89.9785 212.558C90.2691 206.908 90.5211 202.005 90.7043 198.452C90.8049 196.76 90.8858 195.394 90.9451 194.393C90.9761 193.96 91.001 193.607 91.0208 193.324C91.0406 193.083 91.0552 192.962 91.0638 192.972C91.0724 192.981 91.0758 193.119 91.0732 193.376C91.0672 193.671 91.0603 194.04 91.0517 194.492C91.0216 195.504 90.9812 196.889 90.9305 198.602C90.7998 202.121 90.6183 206.979 90.4102 212.577L90.1943 212.359C92.4596 212.356 94.8899 212.354 97.4003 212.351C97.5516 212.351 97.703 212.351 97.8432 212.351L97.6196 212.568C97.6204 204.708 97.6505 197.678 97.697 192.972L97.8432 193.114C95.7749 193.081 94.1082 193.056 92.9007 193.037C92.3495 193.023 91.904 193.012 91.5523 193.002C91.2409 192.991 91.0732 192.982 91.0638 192.972Z" fill="#FAFAFA"/>
<path d="M120.558 171.047L112.485 166.114L119.575 156.111L127.841 160.747L120.558 171.047Z" fill="#FAFAFA"/>
<g opacity="0.4">
<path d="M112.485 171.652H88.8105V179.08H112.485V171.652Z" fill="white"/>
</g>
<path d="M112.14 191.863C112.11 191.858 112.126 191.612 112.181 191.175C112.24 190.739 112.314 190.108 112.387 189.327C112.535 187.767 112.612 185.599 112.389 183.221C112.16 180.842 111.675 178.724 111.236 177.216C110.798 175.707 110.449 174.792 110.516 174.766C110.544 174.755 110.661 174.971 110.849 175.376C111.041 175.777 111.279 176.376 111.539 177.126C112.061 178.626 112.602 180.767 112.835 183.181C113.061 185.593 112.931 187.795 112.7 189.362C112.587 190.145 112.465 190.776 112.352 191.204C112.245 191.635 112.171 191.869 112.14 191.863Z" fill="#263238"/>
<path d="M123.621 147.568C123.667 147.608 123.135 148.261 122.238 149.287C121.341 150.312 120.079 151.709 118.665 153.234C118.135 153.799 117.625 154.344 117.147 154.855L117.021 154.989L116.869 154.889C115.57 154.036 114.46 153.289 113.682 152.744C112.903 152.2 112.457 151.858 112.485 151.818C112.512 151.778 113.01 152.045 113.83 152.529C114.649 153.013 115.79 153.714 117.105 154.545L116.828 154.579C117.301 154.064 117.806 153.515 118.331 152.944C119.746 151.42 121.045 150.055 122.002 149.083C122.959 148.109 123.575 147.528 123.621 147.568Z" fill="#FAFAFA"/>
<path d="M131.985 154.647C131.956 154.7 131.046 154.287 129.599 153.577C128.151 152.867 126.167 151.86 123.988 150.724C121.809 149.588 119.848 148.539 118.439 147.759C117.031 146.98 116.174 146.472 116.203 146.42C116.232 146.367 117.142 146.78 118.59 147.489C120.037 148.199 122.021 149.207 124.201 150.342C126.38 151.478 128.34 152.528 129.749 153.307C131.158 154.086 132.014 154.595 131.985 154.647Z" fill="#263238"/>
<path d="M50.1819 358.688L46.2836 375.735L39.1817 388.358C38.67 389.268 39.0613 390.407 40.0348 390.839C40.58 391.082 41.207 391.056 41.7256 390.765C45.0297 388.918 57.1488 382.066 57.3621 380.803C57.6089 379.34 62.7078 363.085 62.7078 363.085L50.1819 358.688Z" fill="#E8505B"/>
<g opacity="0.6">
<path d="M40.0348 390.839L57.6528 379.659L57.4704 380.377C57.313 380.998 56.9355 381.546 56.3997 381.92C54.9661 382.921 50.9448 385.602 41.7789 390.778C41.2457 391.08 40.5886 391.103 40.0348 390.839Z" fill="white"/>
</g>
<g opacity="0.6">
<path d="M55.4425 373.336C54.9291 373.526 54.6221 374.134 54.7967 374.638C54.9713 375.142 55.6085 375.449 56.1254 375.269C56.6422 375.088 57.0335 374.368 56.8013 373.886C56.5691 373.404 55.8012 373.083 55.3445 373.378" fill="white"/>
</g>
<path d="M45.9197 384.381C45.8088 384.405 45.6385 383.423 44.7174 382.697C43.8187 381.946 42.7902 381.955 42.7945 381.846C42.7902 381.801 43.0447 381.722 43.4696 381.762C43.891 381.801 44.4698 381.997 44.9729 382.404C45.4742 382.812 45.7752 383.329 45.887 383.723C46.0023 384.121 45.9662 384.378 45.9197 384.381Z" fill="#263238"/>
<path d="M44.0957 386.356C43.9933 386.409 43.5711 385.724 42.7283 385.258C41.8958 384.774 41.0719 384.751 41.0711 384.639C41.0427 384.54 41.9775 384.381 42.9295 384.927C43.8858 385.465 44.198 386.332 44.0957 386.356Z" fill="#263238"/>
<path d="M48.9813 382.023C48.879 382.084 48.234 381.028 46.9887 380.191C45.7572 379.335 44.5128 379.101 44.5377 378.988C44.5326 378.89 45.8939 378.964 47.2175 379.878C48.5505 380.778 49.0777 381.995 48.9813 382.023Z" fill="#263238"/>
<path d="M50.6137 376.937C50.5415 377.027 49.672 376.406 48.4233 376.063C47.1789 375.704 46.1013 375.776 46.0901 375.662C46.0626 375.567 47.1961 375.312 48.5334 375.695C49.8758 376.067 50.6894 376.871 50.6137 376.937Z" fill="#263238"/>
<path d="M51.889 371.96C51.8099 372.045 50.98 371.249 49.6341 370.992C48.2942 370.706 47.2037 371.114 47.1668 371.005C47.147 370.963 47.3921 370.796 47.8539 370.666C48.3123 370.534 48.9917 370.472 49.7149 370.617C50.4373 370.764 51.035 371.085 51.3997 371.383C51.7695 371.681 51.9243 371.929 51.889 371.96Z" fill="#263238"/>
<path d="M49.905 370.052C49.8826 370.047 49.9007 369.81 50.0434 369.405C50.1862 369.003 50.4631 368.428 50.9963 367.85C51.2655 367.579 51.5656 367.222 52.1109 367.114C52.3826 367.059 52.7344 367.189 52.8849 367.463C53.0354 367.73 53.0302 368.024 52.9683 368.294C52.6768 369.366 51.4581 370.18 50.1673 370.038C48.8773 369.873 47.9149 368.909 47.6526 367.861C47.6045 367.595 47.6045 367.282 47.8135 367.028C48.0207 366.771 48.406 366.74 48.6459 366.841C49.1473 367.04 49.4019 367.408 49.653 367.696C50.138 368.309 50.3866 368.891 50.5147 369.297C50.6437 369.705 50.6583 369.942 50.6351 369.946C50.562 369.976 50.4038 369.009 49.4337 367.865C49.1843 367.597 48.9031 367.264 48.5367 367.141C48.3587 367.08 48.1833 367.113 48.0826 367.24C47.9812 367.36 47.964 367.583 48.0104 367.794C48.2383 368.654 49.1198 369.534 50.2129 369.657C51.299 369.787 52.3697 369.07 52.6123 368.209C52.6673 368.001 52.6639 367.777 52.5796 367.627C52.497 367.478 52.3328 367.404 52.1556 367.429C51.7806 367.48 51.4616 367.782 51.1993 368.034C50.1475 369.105 49.9789 370.088 49.905 370.052Z" fill="#263238"/>
<g opacity="0.3">
<path d="M49.727 360.538L49.2032 362.967L61.644 366.495L62.7078 363.086L50.1819 358.688L49.727 360.538Z" fill="black"/>
</g>
<path d="M107.196 364.997L106.143 378.619C106.143 378.619 120.102 384.23 120.16 386.766L92.7854 385.738L93.5267 364.448L107.196 364.997Z" fill="#E8505B"/>
<g opacity="0.6">
<path d="M97.7244 377.154C97.1887 377.274 96.7999 377.837 96.9023 378.359C97.0046 378.882 97.592 379.269 98.1295 379.159C98.667 379.047 99.1555 378.386 98.9938 377.878C98.8321 377.37 98.1157 376.952 97.6212 377.184" fill="white"/>
</g>
<g opacity="0.6">
<path d="M92.7854 385.738L92.9471 383.595L119.133 385.381C119.133 385.381 120.331 385.94 120.16 386.766L92.7854 385.738Z" fill="white"/>
</g>
<path d="M106.592 378.501C106.582 378.63 105.912 378.664 105.237 379.055C104.552 379.429 104.191 379.976 104.07 379.92C103.947 379.89 104.178 379.125 105.003 378.665C105.824 378.199 106.625 378.383 106.592 378.501Z" fill="#263238"/>
<path d="M109.417 379.757C109.443 379.883 108.854 380.081 108.379 380.611C107.887 381.128 107.749 381.715 107.616 381.705C107.49 381.72 107.428 380.959 108.032 380.311C108.631 379.658 109.42 379.634 109.417 379.757Z" fill="#263238"/>
<path d="M110.914 383.143C110.792 383.167 110.631 382.513 111.004 381.818C111.37 381.12 112.012 380.864 112.064 380.974C112.135 381.083 111.714 381.448 111.418 382.023C111.108 382.592 111.048 383.135 110.914 383.143Z" fill="#263238"/>
<path d="M106.476 375.371C106.415 375.486 105.809 375.285 105.052 375.306C104.294 375.312 103.696 375.535 103.631 375.422C103.557 375.326 104.15 374.869 105.043 374.856C105.935 374.836 106.545 375.271 106.476 375.371Z" fill="#263238"/>
<g opacity="0.3">
<path d="M106.984 367.694L106.8 370.122L93.3505 369.499L93.4408 366.691L106.984 367.694Z" fill="black"/>
</g>
<path d="M106.637 372.619C106.636 372.672 106.104 372.733 105.266 372.56C104.849 372.475 104.359 372.322 103.848 372.08C103.594 371.959 103.334 371.815 103.078 371.647C102.955 371.564 102.809 371.479 102.676 371.32C102.534 371.179 102.463 370.833 102.643 370.629C102.792 370.431 103.043 370.352 103.24 370.356C103.443 370.356 103.604 370.402 103.752 370.444C104.054 370.527 104.336 370.635 104.593 370.759C105.108 371.009 105.52 371.316 105.826 371.609C106.438 372.203 106.635 372.693 106.588 372.717C106.527 372.757 106.233 372.341 105.605 371.847C105.292 371.601 104.891 371.344 104.409 371.134C104.168 371.031 103.908 370.94 103.632 370.87C103.345 370.785 103.099 370.774 103.019 370.896C102.989 370.942 102.985 370.96 103.043 371.045C103.102 371.123 103.216 371.202 103.338 371.284C103.573 371.446 103.812 371.588 104.046 371.712C104.515 371.959 104.965 372.133 105.352 372.253C106.127 372.494 106.642 372.549 106.637 372.619Z" fill="#263238"/>
<path d="M106.454 372.797C106.406 372.816 106.159 372.342 106.144 371.503C106.138 371.087 106.202 370.585 106.389 370.058C106.484 369.795 106.609 369.527 106.771 369.266C106.942 369.01 107.152 368.667 107.672 368.629C107.943 368.629 108.161 368.843 108.23 369.02C108.314 369.202 108.326 369.357 108.351 369.512C108.389 369.823 108.371 370.126 108.316 370.405C108.208 370.966 107.95 371.426 107.675 371.753C107.113 372.42 106.549 372.553 106.539 372.509C106.497 372.442 106.974 372.21 107.409 371.566C107.624 371.248 107.82 370.826 107.892 370.336C107.929 370.092 107.935 369.832 107.897 369.569C107.866 369.286 107.766 369.055 107.656 369.08C107.52 369.073 107.28 369.276 107.159 369.497C107.009 369.729 106.887 369.968 106.791 370.203C106.6 370.676 106.507 371.131 106.472 371.517C106.404 372.291 106.528 372.78 106.454 372.797Z" fill="#263238"/>
<path d="M72.5135 190.523L79.5973 190.902C80.0454 193.124 81.6003 196.521 81.6003 196.521C87.3021 186.946 91.7225 174.118 92.8198 168.962C92.6599 168.447 92.4707 167.877 92.2342 167.24C91.9616 166.506 92.1955 165.114 92.3245 164.341C92.5154 163.193 92.8474 161.648 92.9471 160.934C93.2507 158.756 93.6136 158.413 94.3988 158.66C95.4669 158.995 93.9611 164.778 94.8365 164.903C95.307 164.971 95.8823 162.99 96.0491 161.364C96.216 159.738 96.9762 154.738 97.5309 154.404C98.3453 153.916 99.0548 154.689 98.8493 156.308C98.6412 157.946 98.3789 162.832 99.2664 162.898C100.141 162.963 100.875 154.673 100.875 154.673C100.875 154.673 100.737 152.869 101.766 152.912C103.62 152.991 102.171 161.731 102.012 162.559C101.901 163.134 102.865 163.24 102.95 162.615C103.037 161.972 103.485 154.324 105.372 154.386C106.821 154.433 104.25 161.588 105.064 163.247C105.877 164.906 106.443 157.614 107.827 157.715C108.342 157.752 108.723 157.849 107.776 161.976C107.268 164.194 105.773 168.272 104.468 171.648C102.275 183.091 92.6513 219.695 77.5634 212.994C69.1208 209.245 65.1812 190.682 65.1812 190.682L72.5135 190.523Z" fill="#FFBE9D"/>
<path d="M104.467 171.652C104.46 171.65 104.484 171.565 104.539 171.402C104.604 171.217 104.687 170.98 104.792 170.681C105.028 170.022 105.358 169.097 105.779 167.919C106.2 166.718 106.716 165.247 107.23 163.519C107.493 162.656 107.706 161.722 107.905 160.718C108.001 160.218 108.099 159.702 108.16 159.172C108.185 158.909 108.214 158.638 108.198 158.379C108.178 158.106 108.134 157.884 107.912 157.88C107.682 157.82 107.528 158.003 107.371 158.235C107.227 158.467 107.114 158.735 107.013 159.008C106.811 159.557 106.653 160.143 106.496 160.741C106.339 161.34 106.194 161.956 106.006 162.583C105.893 162.9 105.843 163.206 105.574 163.546C105.523 163.587 105.478 163.643 105.376 163.662C105.265 163.689 105.182 163.648 105.105 163.603C105.001 163.514 104.951 163.424 104.905 163.34C104.825 163.163 104.775 162.983 104.753 162.807C104.624 161.407 104.954 160.053 105.18 158.648C105.304 157.948 105.435 157.239 105.53 156.521C105.575 156.162 105.615 155.8 105.619 155.444C105.633 155.114 105.573 154.666 105.423 154.604C105.239 154.536 104.905 154.739 104.728 155.035C104.53 155.326 104.382 155.671 104.256 156.024C104.006 156.734 103.842 157.491 103.701 158.256C103.564 159.024 103.456 159.807 103.369 160.601C103.328 160.998 103.288 161.398 103.247 161.799L103.193 162.405C103.178 162.568 103.178 162.911 102.907 163.108C102.657 163.29 102.321 163.31 102.054 163.141C101.92 163.057 101.815 162.902 101.795 162.744C101.778 162.664 101.792 162.59 101.798 162.52L101.825 162.371C101.889 161.966 101.953 161.56 102.018 161.152C102.136 160.333 102.239 159.504 102.322 158.669C102.403 157.834 102.463 156.99 102.476 156.144C102.478 155.306 102.471 154.429 102.222 153.661C102.141 153.428 102.007 153.217 101.858 153.156C101.705 153.103 101.484 153.157 101.372 153.307C101.122 153.647 101.08 154.206 101.1 154.662L101.101 154.684L101.1 154.697C100.946 156.337 100.761 157.948 100.518 159.532C100.392 160.324 100.258 161.107 100.052 161.882C100.001 162.076 99.9398 162.269 99.8693 162.463C99.7738 162.657 99.7472 162.853 99.4608 163.065C99.2122 163.18 99.0291 163.049 98.931 162.953C98.8252 162.846 98.7831 162.741 98.7341 162.638C98.6507 162.432 98.6094 162.234 98.5724 162.036C98.3436 160.463 98.4382 158.95 98.5294 157.466C98.5595 156.72 98.7478 155.982 98.6464 155.327C98.5973 155.002 98.4666 154.677 98.2439 154.532C98.1347 154.462 98.0091 154.446 97.8741 154.477C97.807 154.497 97.7391 154.521 97.6728 154.56C97.6075 154.612 97.6212 154.592 97.5714 154.68C97.291 155.25 97.1543 155.971 97.0029 156.623C96.861 157.29 96.7397 157.954 96.6297 158.61C96.5204 159.265 96.4224 159.913 96.3364 160.551C96.247 161.183 96.2014 161.825 96.0732 162.448C95.9503 163.069 95.8023 163.673 95.5684 164.252C95.5091 164.397 95.4411 164.54 95.3603 164.681C95.2597 164.812 95.2029 164.983 94.926 165.064C94.7686 165.107 94.6319 165.002 94.5605 164.916C94.5003 164.826 94.4702 164.74 94.447 164.658C94.41 164.496 94.3945 164.343 94.3885 164.193C94.373 163.004 94.5553 161.914 94.6164 160.861C94.6499 160.339 94.6749 159.822 94.6121 159.345C94.5794 159.122 94.5055 158.859 94.373 158.806C94.1804 158.731 93.9301 158.692 93.7856 158.794C93.4666 159.016 93.3556 159.527 93.2516 159.935C93.1492 160.366 93.1037 160.795 93.0211 161.207C92.721 162.857 92.4036 164.275 92.2497 165.433C92.1792 166.012 92.1508 166.535 92.2265 166.97C92.3271 167.392 92.4724 167.765 92.5567 168.059C92.6418 168.337 92.7098 168.559 92.764 168.733C92.8078 168.885 92.8276 168.964 92.8199 168.967C92.813 168.968 92.7794 168.893 92.7218 168.745C92.6582 168.575 92.5765 168.358 92.475 168.085C92.3752 167.788 92.2247 167.447 92.1009 166.992C92.0072 166.535 92.0244 166.003 92.0828 165.415C92.2136 164.236 92.5051 162.829 92.782 161.175C92.8586 160.764 92.8998 160.327 92.9987 159.883C93.0503 159.661 93.1002 159.434 93.1879 159.206C93.2791 158.987 93.3771 158.733 93.6394 158.567C93.9189 158.399 94.2285 158.459 94.4908 158.556C94.8288 158.743 94.8409 159.057 94.9002 159.303C94.9733 159.825 94.9509 160.346 94.9217 160.878C94.8692 161.937 94.6981 163.05 94.723 164.177C94.7291 164.316 94.7463 164.452 94.7746 164.576C94.8056 164.712 94.877 164.763 94.8624 164.738C94.8882 164.742 94.9974 164.622 95.0602 164.512C95.1281 164.392 95.1892 164.262 95.2433 164.127C95.4583 163.583 95.602 162.988 95.7172 162.383C95.8376 161.78 95.878 161.151 95.9657 160.503C96.0483 159.86 96.1429 159.21 96.2495 158.549C96.357 157.889 96.4749 157.22 96.6159 156.544C96.7759 155.864 96.8782 155.192 97.2196 154.485C97.2403 154.413 97.389 154.254 97.4725 154.216C97.5636 154.163 97.6668 154.124 97.776 154.094C97.9962 154.037 98.2654 154.068 98.4649 154.199C98.8622 154.469 98.9869 154.89 99.054 155.264C99.1142 155.648 99.0936 156.036 99.0488 156.404C99.0058 156.762 98.9757 157.126 98.9482 157.492C98.8605 158.952 98.7771 160.481 98.9981 161.961C99.0316 162.142 99.0729 162.323 99.1366 162.478C99.1692 162.55 99.2079 162.627 99.2441 162.659C99.2621 162.683 99.2742 162.682 99.2802 162.687L99.2828 162.687L99.2836 162.69C99.2716 162.854 99.2819 162.724 99.2785 162.757C99.2767 162.727 99.269 162.732 99.2492 162.697C99.2862 162.667 99.4014 162.475 99.4582 162.314C99.5218 162.139 99.5786 161.959 99.6276 161.772C99.8237 161.028 99.9561 160.249 100.08 159.465C100.32 157.895 100.502 156.285 100.654 154.657V154.691C100.646 154.154 100.636 153.592 101.02 153.036C101.244 152.762 101.648 152.614 102.026 152.752C102.401 152.921 102.54 153.246 102.645 153.515C102.932 154.408 102.921 155.283 102.924 156.147C102.91 157.011 102.848 157.864 102.766 158.706C102.682 159.55 102.577 160.384 102.456 161.208C102.39 161.621 102.325 162.031 102.259 162.44C102.206 162.7 102.219 162.708 102.299 162.785C102.386 162.848 102.552 162.839 102.634 162.771C102.726 162.712 102.737 162.59 102.756 162.364L102.812 161.758C102.853 161.355 102.896 160.952 102.937 160.553C103.028 159.753 103.138 158.962 103.28 158.182C103.426 157.403 103.594 156.634 103.859 155.888C103.994 155.516 104.149 155.149 104.383 154.806C104.503 154.637 104.642 154.468 104.846 154.343C105.055 154.227 105.284 154.122 105.596 154.238C105.892 154.395 105.943 154.66 105.99 154.853C106.021 155.056 106.035 155.255 106.028 155.447C106.021 155.831 105.979 156.202 105.931 156.569C105.831 157.301 105.695 158.012 105.568 158.712C105.333 160.102 105.008 161.485 105.12 162.756C105.138 162.912 105.181 163.055 105.236 163.182C105.268 163.245 105.305 163.297 105.329 163.321C105.332 163.313 105.323 163.308 105.311 163.351C105.304 163.408 105.312 163.339 105.304 163.348C105.276 163.305 105.297 163.317 105.308 163.301C105.46 163.121 105.567 162.771 105.661 162.483C105.849 161.875 105.999 161.258 106.161 160.657C106.323 160.057 106.487 159.466 106.701 158.898C106.809 158.614 106.927 158.334 107.094 158.069C107.185 157.939 107.275 157.806 107.423 157.7C107.488 157.643 107.585 157.602 107.68 157.576C107.792 157.56 107.883 157.562 107.957 157.576C108.126 157.583 108.356 157.726 108.413 157.899C108.482 158.062 108.498 158.215 108.505 158.361C108.52 158.656 108.486 158.93 108.458 159.204C108.391 159.747 108.286 160.266 108.184 160.769C107.974 161.772 107.746 162.72 107.47 163.584C106.931 165.315 106.39 166.778 105.943 167.972C105.495 169.166 105.13 170.086 104.877 170.709C104.755 171.001 104.658 171.233 104.583 171.414C104.513 171.576 104.475 171.655 104.467 171.652Z" fill="#EB996E"/>
<path d="M65.1003 191.316C66.4703 195.993 69.1475 203.22 72.0259 210.839C72.4422 211.941 74.0254 212.012 74.5431 210.953L81.5994 196.521C81.5994 196.521 79.9001 184.665 80.0446 185.082C80.189 185.501 65.4865 186.617 65.4865 186.617L65.1003 191.316Z" fill="#E8505B"/>
<path d="M84.1726 192.463C84.1425 192.493 83.9885 192.328 83.6333 192.229C83.3005 192.133 82.6779 192.134 82.2711 192.579L82.0845 192.784L81.9787 192.524C81.6012 191.596 81.1307 190.384 80.638 189.058C79.5002 185.994 78.672 183.479 78.789 183.438C78.9051 183.398 79.9216 185.848 81.0594 188.911C81.5521 190.238 81.9864 191.462 82.3055 192.411L82.0131 192.355C82.2935 192.075 82.6478 191.957 82.9471 191.934C83.2498 191.907 83.5095 191.971 83.7004 192.052C84.0891 192.227 84.1949 192.452 84.1726 192.463Z" fill="#263238"/>
<path d="M74.1715 206.196C74.1182 206.166 74.513 205.386 75.1941 204.15C75.8761 202.914 76.8444 201.221 77.9383 199.364C79.0323 197.506 80.0445 195.837 80.797 194.639C81.5495 193.441 82.0414 192.715 82.0947 192.745C82.148 192.775 81.7533 193.554 81.0722 194.791C80.3902 196.027 79.4218 197.721 78.3279 199.578C77.234 201.435 76.2218 203.104 75.4701 204.302C74.7176 205.5 74.2257 206.225 74.1715 206.196Z" fill="#263238"/>
<path d="M69.476 204.027C69.4562 203.995 69.9034 203.696 70.7066 203.198C71.5107 202.699 72.6709 202 74.0761 201.168L73.9996 201.393C73.2187 199.623 72.3054 197.552 71.3224 195.324C70.1012 192.513 69.0073 189.941 68.2101 188.015L68.4457 188.093C67.3303 188.679 66.4221 189.147 65.7883 189.461C65.1545 189.776 64.7959 189.936 64.7795 189.909C64.7632 189.881 65.0917 189.667 65.6971 189.305C66.3034 188.943 67.1867 188.433 68.2823 187.812L68.4414 187.722L68.5179 187.89C69.3814 189.79 70.5149 192.346 71.7361 195.156C72.6932 197.394 73.5825 199.474 74.3436 201.253L74.4064 201.4L74.267 201.478C72.8403 202.277 71.6526 202.93 70.8167 203.376C69.9799 203.821 69.4958 204.059 69.476 204.027Z" fill="#FAFAFA"/>
<path d="M107.739 368.428C110.352 368.35 112.473 366.366 112.633 363.843C114.107 340.813 120.729 236.057 119.399 232.769C117.904 229.073 113.979 216.233 113.979 216.233L78.8655 214.638C78.8655 214.638 70.1227 228 68.8645 233.114C67.7371 237.698 35.9239 334.669 31.9671 355.292C31.5612 357.41 32.8692 359.478 35.0012 360.099L107.739 368.428Z" fill="#263238"/>
<path d="M85.7962 215.382C85.7962 215.382 85.7498 215.509 85.6389 215.746C85.5176 215.999 85.3508 216.347 85.1366 216.793C84.6808 217.729 84.0238 219.078 83.1818 220.806C82.7966 221.696 82.3683 222.683 81.9005 223.762C81.4275 224.841 80.9106 226.011 80.4428 227.303C79.9603 228.589 79.4142 229.953 78.8887 231.417C78.3925 232.893 77.8688 234.452 77.3192 236.088C76.8239 237.742 76.3053 239.475 75.7652 241.279C75.2561 243.093 74.7728 244.992 74.2464 246.951C73.7752 248.924 73.2876 250.964 72.7853 253.065C72.3278 255.177 71.8195 257.342 71.3663 259.577C70.4229 264.039 69.4984 268.738 68.5128 273.604C67.5144 278.468 66.4892 283.507 65.2543 288.632C64.6729 291.203 63.9832 293.718 63.3442 296.206C62.6407 298.677 61.9631 301.118 61.2097 303.491C59.715 308.241 58.0828 312.764 56.4126 317.029C53.0466 325.551 49.5662 333.047 46.5226 339.28C43.4731 345.511 40.8741 350.492 39.0673 353.927C38.1626 355.626 37.4557 356.952 36.9655 357.872C36.7272 358.307 36.5423 358.646 36.4073 358.892C36.2792 359.121 36.2035 359.233 36.2035 359.233C36.2035 359.233 36.2517 359.108 36.3669 358.872C36.4925 358.621 36.6645 358.277 36.8855 357.832C37.3576 356.904 38.0387 355.565 38.9116 353.85C40.6703 350.393 43.2245 345.392 46.2363 339.149C49.242 332.904 52.688 325.402 56.0274 316.886C57.6837 312.625 59.3039 308.107 60.79 303.366C61.5391 300.998 62.2133 298.562 62.9134 296.095C63.5506 293.612 64.2378 291.102 64.8183 288.534C66.0515 283.417 67.0792 278.382 68.0828 273.521C69.0744 268.657 70.0075 263.959 70.963 259.496C71.4222 257.261 71.9374 255.094 72.4018 252.981C72.9117 250.879 73.4079 248.837 73.887 246.864C74.4219 244.903 74.9147 243.003 75.4332 241.188C75.9845 239.383 76.5125 237.65 77.0174 235.996C77.5789 234.359 78.1139 232.801 78.6204 231.326C79.157 229.862 79.7152 228.499 80.2097 227.215C80.6887 225.925 81.2185 224.756 81.7044 223.682C82.186 222.607 82.6263 221.622 83.0236 220.736C83.8827 218.997 84.5905 217.663 85.0566 216.754C85.288 216.316 85.4677 215.974 85.5984 215.726C85.7231 215.495 85.7962 215.382 85.7962 215.382Z" fill="#455A64"/>
<path d="M54.7915 362.124C54.7915 362.124 54.8147 361.992 54.8809 361.743C54.9549 361.475 55.0564 361.108 55.1871 360.636C55.4709 359.646 55.8803 358.22 56.4049 356.393C57.4678 352.689 58.996 347.362 60.8829 340.789C62.7577 334.197 64.9447 326.336 67.3165 317.593C68.4818 313.216 69.7056 308.621 70.9733 303.859C72.2065 299.087 73.4827 294.147 74.7899 289.088C76.0516 284.015 77.2831 279.063 78.4725 274.28C79.6266 269.489 80.7394 264.868 81.7998 260.465C83.8793 251.651 85.6999 243.703 87.1911 237.019C88.6626 230.348 89.8554 224.942 90.6845 221.183C91.0938 219.329 91.4129 217.882 91.6339 216.877C91.744 216.401 91.83 216.03 91.8919 215.76C91.9521 215.509 91.9951 215.382 91.9951 215.382C91.9951 215.382 91.9831 215.515 91.9375 215.769C91.8859 216.041 91.8145 216.415 91.7233 216.896C91.5212 217.904 91.2297 219.357 90.8556 221.218C90.4652 223.099 89.9896 225.391 89.4375 228.049C88.8673 230.711 88.218 233.74 87.5016 237.084C86.0499 243.777 84.2611 251.733 82.2031 260.554C81.1608 264.961 80.0781 269.59 78.9007 274.378C77.7139 279.163 76.485 284.117 75.2268 289.192C73.9162 294.252 72.6365 299.192 71.3998 303.964C70.1545 308.734 68.9007 313.321 67.7164 317.694C65.3222 326.434 63.1025 334.288 61.189 340.87C60.2241 344.157 59.3512 347.132 58.5832 349.748C57.8015 352.351 57.1264 354.596 56.5734 356.439C56.0144 358.257 55.5775 359.674 55.2748 360.66C55.126 361.126 55.0108 361.49 54.9265 361.754C54.844 362.001 54.7915 362.124 54.7915 362.124Z" fill="#455A64"/>
<path d="M96.6347 215.444C96.6347 215.444 96.664 215.574 96.7001 215.831C96.7354 216.107 96.7844 216.486 96.8472 216.974C96.9091 217.484 96.9839 218.105 97.0725 218.835C97.1602 219.571 97.1782 220.427 97.2427 221.387C97.2703 221.868 97.2986 222.375 97.3287 222.909C97.3305 223.444 97.3313 224.003 97.3331 224.588C97.3339 225.174 97.3339 225.786 97.3339 226.42C97.3279 227.056 97.2772 227.714 97.2488 228.397C97.2127 229.08 97.1757 229.787 97.137 230.516C97.0682 231.244 96.9968 231.994 96.9246 232.765C96.8076 234.313 96.5358 235.932 96.3217 237.64C95.7868 241.042 95.079 244.75 94.182 248.701C93.2782 252.65 92.2169 256.847 91.1135 261.264C90.0153 265.681 88.8758 270.321 87.9238 275.174C86.9907 280.03 86.1797 285.087 85.5003 290.287C84.8132 295.488 84.2344 300.578 83.6762 305.495C83.1224 310.412 82.5608 315.154 81.9735 319.665C81.6544 321.917 81.3439 324.115 81.0412 326.249C80.6843 328.375 80.3652 330.445 80.0058 332.437C79.6127 334.424 79.2722 336.35 78.8731 338.188C78.4492 340.021 78.0647 341.785 77.6562 343.459C77.2047 345.122 76.7748 346.707 76.368 348.206C75.9337 349.698 75.4521 351.085 75.0401 352.391C74.8243 353.042 74.6368 353.676 74.4183 354.275C74.1896 354.87 73.9703 355.442 73.7596 355.992C73.3382 357.087 72.9521 358.089 72.6046 358.992C71.8427 360.768 71.1856 362.122 70.7651 363.048C70.5544 363.495 70.3901 363.843 70.2714 364.096C70.1579 364.331 70.0891 364.446 70.0891 364.446C70.0891 364.446 70.1295 364.318 70.2293 364.076C70.3385 363.819 70.489 363.466 70.6825 363.012C71.0755 362.074 71.7059 360.712 72.4421 358.93C72.7783 358.024 73.1507 357.019 73.5583 355.921C73.763 355.371 73.9763 354.798 74.1982 354.202C74.4106 353.603 74.5921 352.968 74.8019 352.317C75.2018 351.009 75.6714 349.623 76.0936 348.131C76.4901 346.632 76.9089 345.049 77.3492 343.386C77.7268 341.708 78.1232 339.951 78.5352 338.121C78.9248 336.284 79.2559 334.36 79.6403 332.376C79.9912 330.385 80.3025 328.318 80.6516 326.193C80.9475 324.06 81.2519 321.865 81.5641 319.614C82.1403 315.106 82.6924 310.366 83.2402 305.448C83.7924 300.531 84.3686 295.438 85.0566 290.231C85.7368 285.026 86.5521 279.96 87.4929 275.094C88.4527 270.23 89.6034 265.586 90.7119 261.17C91.8256 256.754 92.8998 252.564 93.8182 248.624C94.7298 244.683 95.454 240.986 96.0078 237.596C96.2314 235.894 96.5126 234.28 96.6399 232.739C96.7182 231.97 96.7947 231.222 96.8687 230.497C96.9125 229.771 96.9555 229.067 96.9968 228.386C97.0312 227.705 97.0879 227.049 97.1 226.415C97.106 225.781 97.112 225.172 97.1172 224.588C97.1224 224.004 97.1275 223.446 97.1318 222.913C97.1086 222.381 97.0871 221.874 97.0656 221.394C97.0148 220.436 97.0106 219.581 96.9366 218.846C96.8652 218.115 96.8041 217.494 96.7543 216.984C96.7104 216.495 96.676 216.114 96.6511 215.837C96.6339 215.579 96.6347 215.444 96.6347 215.444Z" fill="#455A64"/>
<path d="M92.8018 367.436C92.8018 367.436 92.7631 367.308 92.7106 367.053C92.6564 366.779 92.5825 366.402 92.4879 365.919C92.3924 365.412 92.2763 364.795 92.1396 364.071C92.008 363.339 91.824 362.5 91.7328 361.538C91.6184 360.578 91.4911 359.512 91.3527 358.348C91.1893 357.183 91.1798 355.905 91.0775 354.538C91.0405 353.855 90.9863 353.146 90.9597 352.415C90.9545 351.683 90.9502 350.928 90.9442 350.151C90.939 349.374 90.9347 348.575 90.9287 347.753C90.9597 346.933 90.9915 346.092 91.0242 345.23C91.0594 344.368 91.0964 343.485 91.1334 342.583C91.2074 341.683 91.283 340.764 91.3604 339.825C91.4877 337.945 91.7311 336.001 91.9727 333.986C92.1903 331.967 92.5584 329.9 92.8594 327.759C93.2361 325.63 93.5835 323.431 94.029 321.193C95.7232 312.221 98.0762 302.459 100.218 292.156C102.353 281.848 103.842 271.927 104.737 262.861C105.662 253.797 106.02 245.595 106.137 238.708C106.177 235.265 106.166 232.149 106.123 229.412C106.068 226.677 106 224.32 105.915 222.395C105.856 220.469 105.752 218.977 105.713 217.962C105.692 217.471 105.677 217.087 105.666 216.809C105.657 216.549 105.665 216.415 105.665 216.415C105.665 216.415 105.688 216.547 105.711 216.806C105.734 217.084 105.764 217.466 105.803 217.956C105.871 218.969 106.004 220.461 106.09 222.387C106.201 224.311 106.294 226.668 106.373 229.406C106.441 232.145 106.474 235.263 106.453 238.712C106.376 245.605 106.052 253.82 105.147 262.899C104.274 271.979 102.795 281.919 100.657 292.24C98.5122 302.554 96.148 312.309 94.4341 321.264C93.9843 323.499 93.6308 325.692 93.2481 327.817C92.9411 329.953 92.5661 332.016 92.3408 334.029C92.0923 336.038 91.8395 337.978 91.7044 339.853C91.6227 340.789 91.5427 341.706 91.4636 342.603C91.4215 343.503 91.3802 344.383 91.3398 345.242C91.3019 346.102 91.265 346.941 91.2297 347.759C91.2297 348.578 91.2289 349.375 91.2289 350.15C91.228 350.925 91.2271 351.679 91.2271 352.408C91.2478 353.138 91.2959 353.844 91.3269 354.527C91.4172 355.89 91.4137 357.167 91.5642 358.33C91.6881 359.493 91.8025 360.558 91.9048 361.517C91.9822 362.478 92.1525 363.319 92.2703 364.051C92.3898 364.778 92.4922 365.396 92.5756 365.904C92.6522 366.39 92.7115 366.77 92.7545 367.045C92.7932 367.302 92.8018 367.436 92.8018 367.436Z" fill="#455A64"/>
<path d="M112.072 216.145C112.072 216.145 112.123 216.269 112.199 216.517C112.279 216.783 112.389 217.15 112.53 217.621C112.674 218.115 112.849 218.715 113.055 219.421C113.282 220.128 113.468 220.962 113.661 221.904C113.851 222.845 114.113 223.885 114.304 225.039C114.474 226.198 114.657 227.455 114.854 228.806C114.967 230.167 115.086 231.622 115.213 233.164C115.237 234.711 115.342 236.347 115.305 238.064C115.275 241.5 115.02 245.259 114.557 249.274C114.065 253.284 113.395 257.551 112.564 262.017C111.704 266.475 110.801 271.155 109.865 276.007C108.923 280.856 108.095 285.898 107.35 291.079C106.589 296.26 105.989 301.336 105.49 306.246C104.974 311.155 104.631 315.903 104.333 320.426C104.074 324.953 103.862 329.256 103.777 333.288C103.664 337.318 103.643 341.074 103.656 344.503C103.676 347.932 103.725 351.033 103.816 353.756C103.879 356.48 104.003 358.822 104.077 360.739C104.174 362.639 104.249 364.121 104.302 365.151C104.323 365.64 104.34 366.021 104.352 366.299C104.36 366.558 104.353 366.691 104.353 366.691C104.353 366.691 104.329 366.559 104.306 366.301C104.283 366.024 104.252 365.645 104.211 365.156C104.138 364.148 104.014 362.663 103.904 360.747C103.803 358.831 103.653 356.487 103.566 353.762C103.452 351.038 103.381 347.935 103.34 344.504C103.307 341.073 103.309 337.313 103.406 333.278C103.476 329.243 103.673 324.934 103.922 320.402C104.21 315.873 104.544 311.119 105.054 306.203C105.547 301.287 106.146 296.204 106.907 291.019C107.654 285.833 108.486 280.781 109.434 275.929C110.378 271.081 111.29 266.402 112.159 261.945C113.001 257.486 113.683 253.23 114.19 249.231C114.667 245.229 114.94 241.484 114.99 238.059C115.038 236.348 114.943 234.718 114.931 233.175C114.817 231.638 114.709 230.187 114.607 228.83C114.424 227.482 114.253 226.227 114.095 225.071C113.917 223.919 113.669 222.879 113.492 221.937C113.312 220.994 113.14 220.16 112.927 219.451C112.737 218.742 112.577 218.138 112.444 217.643C112.321 217.168 112.226 216.798 112.156 216.528C112.092 216.278 112.072 216.145 112.072 216.145Z" fill="#455A64"/>
</svg>
