<svg width="430" height="416" viewBox="0 0 430 416" fill="none" xmlns="http://www.w3.org/2000/svg">
<path d="M178.376 242.101C178.376 243.28 177.494 243.991 176.038 243.991H174.501V245.739H173.895V240.203H176.038C177.494 240.203 178.376 240.915 178.376 242.101ZM177.771 242.101C177.771 241.216 177.166 240.709 176.021 240.709H174.501V243.477H176.021C177.166 243.477 177.771 242.971 177.771 242.101Z" fill="#263238"/>
<path d="M183.52 241.58V245.74H182.964V244.981C182.661 245.486 182.106 245.78 181.419 245.78C180.323 245.78 179.604 245.186 179.604 243.992V241.58H180.185V243.937C180.185 244.823 180.659 245.274 181.476 245.274C182.376 245.274 182.94 244.712 182.94 243.763V241.58H183.52V241.58Z" fill="#263238"/>
<path d="M187.315 241.548V242.093C187.266 242.093 187.217 242.085 187.176 242.085C186.276 242.085 185.728 242.639 185.728 243.62V245.739H185.148V241.579H185.703V242.393C185.974 241.84 186.521 241.548 187.315 241.548Z" fill="#263238"/>
<path d="M187.888 243.659C187.888 242.418 188.819 241.548 190.103 241.548C190.831 241.548 191.444 241.824 191.787 242.37L191.353 242.655C191.059 242.236 190.601 242.038 190.103 242.038C189.163 242.038 188.476 242.687 188.476 243.659C188.476 244.64 189.163 245.28 190.103 245.28C190.602 245.28 191.059 245.091 191.353 244.672L191.787 244.957C191.444 245.494 190.831 245.779 190.103 245.779C188.819 245.779 187.888 244.901 187.888 243.659Z" fill="#263238"/>
<path d="M196.816 243.327V245.739H196.236V243.382C196.236 242.504 195.762 242.053 194.944 242.053C194.02 242.053 193.44 242.606 193.44 243.556V245.739H192.859V239.87H193.44V242.306C193.759 241.823 194.322 241.547 195.051 241.547C196.096 241.548 196.816 242.133 196.816 243.327Z" fill="#263238"/>
<path d="M201.64 243.161V245.739H201.084V245.091C200.823 245.518 200.316 245.779 199.604 245.779C198.632 245.779 198.035 245.289 198.035 244.569C198.035 243.928 198.46 243.391 199.695 243.391H201.059V243.137C201.059 242.426 200.642 242.038 199.841 242.038C199.285 242.038 198.762 242.228 198.41 242.529L198.148 242.109C198.582 241.753 199.22 241.548 199.898 241.548C201.01 241.548 201.64 242.085 201.64 243.161ZM201.06 244.49V243.81H199.712C198.878 243.81 198.608 244.126 198.608 244.553C198.608 245.036 199.009 245.336 199.695 245.336C200.348 245.336 200.832 245.036 201.06 244.49Z" fill="#263238"/>
<path d="M202.623 245.264L202.884 244.822C203.228 245.082 203.808 245.289 204.413 245.289C205.231 245.289 205.566 245.02 205.566 244.609C205.566 243.525 202.778 244.38 202.778 242.734C202.778 242.055 203.383 241.548 204.479 241.548C205.034 241.548 205.64 241.698 205.999 241.936L205.746 242.387C205.37 242.133 204.92 242.03 204.479 242.03C203.702 242.03 203.358 242.323 203.358 242.718C203.358 243.841 206.146 242.995 206.146 244.593C206.146 245.312 205.493 245.779 204.372 245.779C203.661 245.779 202.974 245.557 202.623 245.264Z" fill="#263238"/>
<path d="M210.962 243.833H207.365C207.43 244.704 208.117 245.28 209.057 245.28C209.58 245.28 210.046 245.099 210.373 244.735L210.7 245.1C210.316 245.542 209.719 245.779 209.04 245.779C207.699 245.779 206.784 244.893 206.784 243.659C206.784 242.426 207.675 241.548 208.885 241.548C210.095 241.548 210.969 242.41 210.969 243.659C210.971 243.706 210.962 243.769 210.962 243.833ZM207.365 243.414H210.414C210.341 242.6 209.727 242.03 208.885 242.03C208.051 242.03 207.439 242.599 207.365 243.414Z" fill="#263238"/>
<path d="M220.611 241.58L218.983 245.74H218.435L217.078 242.33L215.721 245.74H215.173L213.554 241.58H214.11L215.458 245.115L216.84 241.58H217.339L218.713 245.115L220.078 241.58H220.611Z" fill="#263238"/>
<path d="M224.602 243.161V245.739H224.045V245.091C223.784 245.518 223.277 245.779 222.565 245.779C221.593 245.779 220.996 245.289 220.996 244.569C220.996 243.928 221.422 243.391 222.656 243.391H224.021V243.137C224.021 242.426 223.605 242.038 222.804 242.038C222.248 242.038 221.724 242.228 221.373 242.529L221.111 242.109C221.545 241.753 222.182 241.548 222.86 241.548C223.972 241.548 224.602 242.085 224.602 243.161ZM224.021 244.49V243.81H222.673C221.839 243.81 221.57 244.126 221.57 244.553C221.57 245.036 221.97 245.336 222.657 245.336C223.31 245.336 223.793 245.036 224.021 244.49Z" fill="#263238"/>
<path d="M225.583 245.264L225.845 244.822C226.188 245.082 226.769 245.289 227.374 245.289C228.191 245.289 228.526 245.02 228.526 244.609C228.526 243.525 225.739 244.38 225.739 242.734C225.739 242.055 226.343 241.548 227.439 241.548C227.995 241.548 228.6 241.698 228.96 241.936L228.707 242.387C228.33 242.133 227.88 242.03 227.439 242.03C226.662 242.03 226.319 242.323 226.319 242.718C226.319 243.841 229.107 242.995 229.107 244.593C229.107 245.312 228.452 245.779 227.332 245.779C226.621 245.779 225.935 245.557 225.583 245.264Z" fill="#263238"/>
<path d="M231.725 245.264L231.988 244.822C232.33 245.082 232.911 245.289 233.516 245.289C234.333 245.289 234.668 245.02 234.668 244.609C234.668 243.525 231.881 244.38 231.881 242.734C231.881 242.055 232.486 241.548 233.581 241.548C234.138 241.548 234.742 241.698 235.102 241.936L234.849 242.387C234.472 242.133 234.022 242.03 233.581 242.03C232.805 242.03 232.461 242.323 232.461 242.718C232.461 243.841 235.249 242.995 235.249 244.593C235.249 245.312 234.594 245.779 233.475 245.779C232.763 245.779 232.077 245.557 231.725 245.264Z" fill="#263238"/>
<path d="M240.195 241.58V245.74H239.64V244.981C239.337 245.486 238.782 245.78 238.094 245.78C237 245.78 236.28 245.186 236.28 243.992V241.58H236.86V243.937C236.86 244.823 237.335 245.274 238.152 245.274C239.052 245.274 239.616 244.712 239.616 243.763V241.58H240.195V241.58Z" fill="#263238"/>
<path d="M241.39 243.659C241.39 242.418 242.322 241.548 243.605 241.548C244.333 241.548 244.946 241.824 245.289 242.37L244.856 242.655C244.562 242.236 244.104 242.038 243.605 242.038C242.664 242.038 241.978 242.687 241.978 243.659C241.978 244.64 242.664 245.28 243.605 245.28C244.104 245.28 244.562 245.091 244.856 244.672L245.289 244.957C244.945 245.494 244.333 245.779 243.605 245.779C242.322 245.779 241.39 244.901 241.39 243.659Z" fill="#263238"/>
<path d="M245.92 243.659C245.92 242.418 246.853 241.548 248.136 241.548C248.863 241.548 249.477 241.824 249.82 242.37L249.386 242.655C249.092 242.236 248.635 242.038 248.136 242.038C247.195 242.038 246.509 242.687 246.509 243.659C246.509 244.64 247.195 245.28 248.136 245.28C248.635 245.28 249.092 245.091 249.386 244.672L249.82 244.957C249.477 245.494 248.863 245.779 248.136 245.779C246.853 245.779 245.92 244.901 245.92 243.659Z" fill="#263238"/>
<path d="M254.628 243.833H251.031C251.096 244.704 251.782 245.28 252.723 245.28C253.246 245.28 253.712 245.099 254.039 244.735L254.367 245.1C253.982 245.542 253.384 245.779 252.706 245.779C251.365 245.779 250.45 244.893 250.45 243.659C250.45 242.426 251.341 241.548 252.551 241.548C253.76 241.548 254.636 242.41 254.636 243.659C254.637 243.706 254.628 243.769 254.628 243.833ZM251.031 243.414H254.08C254.006 242.6 253.393 242.03 252.552 242.03C251.718 242.03 251.105 242.599 251.031 243.414Z" fill="#263238"/>
<path d="M255.226 245.264L255.488 244.822C255.83 245.082 256.412 245.289 257.016 245.289C257.833 245.289 258.169 245.02 258.169 244.609C258.169 243.525 255.381 244.38 255.381 242.734C255.381 242.055 255.986 241.548 257.082 241.548C257.639 241.548 258.243 241.698 258.603 241.936L258.35 242.387C257.973 242.133 257.524 242.03 257.082 242.03C256.306 242.03 255.962 242.323 255.962 242.718C255.962 243.841 258.75 242.995 258.75 244.593C258.75 245.312 258.095 245.779 256.975 245.779C256.264 245.779 255.577 245.557 255.226 245.264Z" fill="#263238"/>
<path d="M259.224 245.264L259.486 244.822C259.828 245.082 260.41 245.289 261.014 245.289C261.831 245.289 262.167 245.02 262.167 244.609C262.167 243.525 259.379 244.38 259.379 242.734C259.379 242.055 259.984 241.548 261.081 241.548C261.636 241.548 262.242 241.698 262.601 241.936L262.348 242.387C261.972 242.133 261.522 242.03 261.081 242.03C260.304 242.03 259.96 242.323 259.96 242.718C259.96 243.841 262.748 242.995 262.748 244.593C262.748 245.312 262.094 245.779 260.974 245.779C260.262 245.779 259.576 245.557 259.224 245.264Z" fill="#263238"/>
<path d="M264.482 241.089V241.58H265.806V242.054H264.499V245.74H263.918V242.054H263.149V241.58H263.918V241.065C263.918 240.322 264.376 239.832 265.218 239.832C265.537 239.832 265.864 239.919 266.076 240.094L265.88 240.513C265.717 240.378 265.488 240.307 265.242 240.307C264.743 240.305 264.482 240.575 264.482 241.089Z" fill="#263238"/>
<path d="M270.467 241.58V245.74H269.911V244.981C269.608 245.486 269.053 245.78 268.366 245.78C267.27 245.78 266.551 245.186 266.551 243.992V241.58H267.131V243.937C267.131 244.823 267.606 245.274 268.423 245.274C269.323 245.274 269.887 244.712 269.887 243.763V241.58H270.467V241.58Z" fill="#263238"/>
<path d="M272.095 239.871H272.676V245.74H272.095V239.871Z" fill="#263238"/>
<path d="M181.878 219.494H178.246V217.828H187.545V219.494H183.914V228.43H181.878V219.494Z" fill="#E8505B"/>
<path d="M197.124 223.796V228.43H195.168V224.038C195.168 222.599 194.432 221.903 193.179 221.903C191.786 221.903 190.847 222.72 190.847 224.341V228.431H188.89V217.193H190.847V221.282C191.489 220.615 192.475 220.252 193.633 220.252C195.637 220.251 197.124 221.357 197.124 223.796Z" fill="#E8505B"/>
<path d="M206.61 223.689V228.43H204.763V227.445C204.293 228.142 203.385 228.535 202.132 228.535C200.222 228.535 199.017 227.521 199.017 226.113C199.017 224.765 199.956 223.704 202.493 223.704H204.653V223.583C204.653 222.477 203.964 221.826 202.571 221.826C201.632 221.826 200.661 222.129 200.035 222.629L199.268 221.25C200.161 220.584 201.459 220.251 202.806 220.251C205.217 220.251 206.61 221.357 206.61 223.689ZM204.652 225.901V224.961H202.632C201.302 224.961 200.942 225.446 200.942 226.037C200.942 226.718 201.537 227.158 202.539 227.158C203.494 227.158 204.324 226.733 204.652 225.901Z" fill="#E8505B"/>
<path d="M217.347 223.796V228.43H215.39V224.038C215.39 222.599 214.655 221.903 213.402 221.903C212.009 221.903 211.07 222.72 211.07 224.341V228.431H209.113V220.343H210.976V221.388C211.618 220.646 212.635 220.252 213.856 220.252C215.86 220.251 217.347 221.357 217.347 223.796Z" fill="#E8505B"/>
<path d="M223.247 224.961L221.791 226.294V228.429H219.835V217.191H221.791V223.976L225.846 220.341H228.194L224.703 223.733L228.522 228.429H226.142L223.247 224.961Z" fill="#E8505B"/>
<path d="M241.936 220.342L238.022 229.081C237.254 230.913 236.19 231.474 234.797 231.474C233.967 231.474 233.091 231.201 232.558 230.731L233.34 229.337C233.717 229.686 234.249 229.898 234.781 229.898C235.47 229.898 235.876 229.58 236.252 228.778L236.393 228.459L232.746 220.341H234.781L237.412 226.323L240.057 220.341H241.936V220.342Z" fill="#E8505B"/>
<path d="M242.231 224.386C242.231 221.963 244.11 220.251 246.677 220.251C249.276 220.251 251.14 221.963 251.14 224.386C251.14 226.809 249.277 228.535 246.677 228.535C244.109 228.535 242.231 226.809 242.231 224.386ZM249.166 224.386C249.166 222.842 248.102 221.857 246.676 221.857C245.268 221.857 244.203 222.842 244.203 224.386C244.203 225.93 245.268 226.916 246.676 226.916C248.102 226.916 249.166 225.93 249.166 224.386Z" fill="#E8505B"/>
<path d="M261.11 220.342V228.43H259.247V227.4C258.62 228.143 257.634 228.535 256.553 228.535C254.409 228.535 252.953 227.4 252.953 224.961V220.342H254.91V224.703C254.91 226.173 255.631 226.869 256.867 226.869C258.229 226.869 259.152 226.051 259.152 224.43V220.341H261.11V220.342Z" fill="#E8505B"/>
<path d="M263.315 227.355C263.315 226.703 263.847 226.188 264.583 226.188C265.303 226.188 265.82 226.703 265.82 227.355C265.82 228.005 265.303 228.535 264.583 228.535C263.847 228.535 263.315 228.005 263.315 227.355ZM263.424 217.828H265.741L265.35 224.916H263.8L263.424 217.828Z" fill="#E8505B"/>
</svg>
