<svg width="430" height="416" viewBox="0 0 430 416" fill="none" xmlns="http://www.w3.org/2000/svg">
<path d="M275.778 386.961L167.563 386.477C154.548 386.42 144.045 376.167 144.1 363.576L145.247 101.113C145.302 88.5148 155.906 78.3461 168.928 78.4043L277.143 78.8877C290.158 78.9459 300.661 89.1978 300.606 101.789L299.459 364.254C299.404 376.852 288.801 387.02 275.778 386.961Z" fill="#263238"/>
<path d="M276.093 86.2583L255.112 86.1643C252.299 86.1518 250.007 88.4489 249.995 91.2944L249.978 94.976C249.967 97.8214 247.675 100.119 244.862 100.106L203.965 99.923C201.152 99.9106 198.881 97.5934 198.893 94.748L198.909 91.0664C198.921 88.221 196.65 85.9038 193.836 85.8914L186.457 85.8581L168.094 85.7765C158.974 85.7358 151.547 92.8569 151.509 101.681L150.389 357.864C150.35 366.683 157.707 373.862 166.822 373.904L274.821 374.386C283.94 374.426 291.366 367.305 291.406 358.482L292.526 102.298C292.563 93.4784 285.208 86.299 276.093 86.2583Z" fill="#FAFAFA"/>
<path d="M400.257 385.843C400.257 385.962 317.308 386.059 215.009 386.059C112.675 386.059 29.744 385.962 29.744 385.843C29.744 385.724 112.675 385.626 215.009 385.626C317.307 385.625 400.257 385.723 400.257 385.843Z" fill="#263238"/>
<path d="M363.309 330.98C365.935 332.082 367.867 334.431 368.837 337.037C369.806 339.644 369.894 342.491 369.571 345.243C368.948 350.568 365.82 355.944 362.452 360.199C357.817 356.286 356.75 349.459 356.435 345.963C355.934 340.436 358.5 330.156 363.309 330.98Z" fill="#E8505B"/>
<path d="M367.839 368.988C367.097 365.978 368.392 362.676 370.78 360.618C373.168 358.559 376.504 357.688 379.693 357.925C381.167 358.034 382.761 358.45 383.605 359.624C384.394 360.723 384.306 362.255 383.665 363.44C383.024 364.626 381.916 365.512 380.745 366.222C376.73 368.661 372.381 370.307 367.839 368.988Z" fill="#E8505B"/>
<path d="M361.896 385.316C361.867 385.31 361.932 384.921 362.061 384.222C362.206 383.453 362.395 382.459 362.622 381.266C363.134 378.794 363.792 375.254 365.776 371.818C367.734 368.39 370.476 365.866 372.784 364.613C373.931 363.972 374.933 363.59 375.642 363.39C375.992 363.276 376.277 363.233 376.465 363.188C376.655 363.15 376.756 363.135 376.759 363.149C376.792 363.235 375.153 363.521 372.931 364.848C370.703 366.138 368.054 368.637 366.128 372.007C364.182 375.372 363.482 378.863 362.9 381.32C362.62 382.559 362.392 383.563 362.215 384.253C362.037 384.944 361.922 385.321 361.896 385.316Z" fill="#263238"/>
<path d="M362.069 338.975C362.083 338.975 362.102 339.139 362.126 339.453C362.148 339.807 362.176 340.262 362.21 340.825C362.277 342.018 362.349 343.744 362.419 345.877C362.562 350.144 362.674 356.042 362.647 362.556C362.616 369.073 362.451 374.97 362.271 379.236C362.18 381.369 362.093 383.094 362.016 384.285C361.977 384.847 361.945 385.303 361.92 385.656C361.934 385.657 361.893 385.97 361.92 385.656C361.981 385.179 361.839 385.967 361.839 385.653C361.844 385.298 361.851 384.842 361.86 384.278C361.891 383.037 361.934 381.323 361.988 379.226C362.096 374.961 362.216 369.067 362.246 362.554C362.273 356.044 362.207 350.151 362.137 345.883C362.103 343.786 362.075 342.072 362.055 340.83C362.051 340.266 362.048 339.81 362.046 339.455C362.048 339.141 362.056 338.976 362.069 338.975Z" fill="#263238"/>
<path d="M359.82 372.23C358.765 365.787 354.277 359.962 348.195 357.143C346.646 356.426 344.624 355.957 343.351 357.071C342.075 358.188 342.361 360.191 342.985 361.742C345.582 368.194 352.554 372.748 359.711 372.668" fill="#E8505B"/>
<path d="M348.947 362.194C348.959 362.17 349.307 362.318 349.931 362.61C350.244 362.753 350.625 362.93 351.042 363.183C351.458 363.434 351.961 363.68 352.456 364.041C352.962 364.387 353.526 364.755 354.075 365.22C354.651 365.655 355.211 366.179 355.797 366.735C356.94 367.873 358.088 369.232 359.071 370.803C360.037 372.384 360.738 374.006 361.228 375.521C361.448 376.286 361.66 377.012 361.772 377.711C361.928 378.402 361.987 379.057 362.05 379.654C362.135 380.249 362.106 380.794 362.127 381.268C362.149 381.744 362.118 382.152 362.089 382.486C362.038 383.153 361.998 383.519 361.971 383.518C361.88 383.514 362.038 382.037 361.768 379.681C361.688 379.095 361.614 378.45 361.445 377.773C361.321 377.087 361.099 376.376 360.874 375.625C360.374 374.141 359.676 372.555 358.727 371.002C357.762 369.459 356.642 368.117 355.533 366.983C354.962 366.43 354.42 365.904 353.861 365.466C353.329 364.996 352.782 364.621 352.293 364.265C350.302 362.884 348.906 362.269 348.947 362.194Z" fill="#263238"/>
</svg>
