<svg width="430" height="416" viewBox="0 0 430 416" fill="none" xmlns="http://www.w3.org/2000/svg">
<path d="M131.778 308.962L23.5632 308.477C10.548 308.42 0.0447847 298.167 0.0998247 285.577L1.24706 23.1132C1.3021 10.515 11.9059 0.346306 24.928 0.404546L133.143 0.887939C146.158 0.946179 156.661 11.1981 156.606 23.7896L155.459 286.254C155.404 298.852 144.801 309.02 131.778 308.962Z" fill="#263238"/>
<path d="M132.093 8.25876L111.112 8.16474C108.299 8.15226 106.007 10.4494 105.995 13.2949L105.978 16.9765C105.967 19.8219 103.675 22.119 100.862 22.1066L59.9652 21.9235C57.1522 21.911 54.8809 19.5939 54.8929 16.7485L54.9093 13.0669C54.9213 10.2214 52.6501 7.90433 49.8361 7.89185L42.4573 7.85857L24.0938 7.77703C14.9735 7.73626 7.54737 14.8573 7.50867 23.6815L6.38895 279.864C6.35025 288.684 13.7067 295.863 22.8218 295.904L130.821 296.386C139.94 296.427 147.366 289.306 147.406 280.483L148.525 24.2981C148.563 15.4789 141.208 8.29953 132.093 8.25876Z" fill="#FAFAFA"/>
<path d="M21.4992 35.4892C21.3866 35.4892 21.2731 35.446 21.1888 35.3611L19.5436 33.6988C19.4653 33.6189 19.4215 33.5124 19.4241 33.4026C19.4266 33.2919 19.4748 33.1871 19.5565 33.1105L21.2017 31.588C21.3745 31.4299 21.6472 31.4357 21.8097 31.6013C21.974 31.7677 21.9679 32.0306 21.7959 32.1895L20.4612 33.4242L21.8088 34.7853C21.9731 34.9509 21.9671 35.2147 21.7951 35.3736C21.7134 35.4509 21.6067 35.4892 21.4992 35.4892Z" fill="#263238"/>
<path d="M123.48 281.216H34.1988C26.5405 281.216 20.333 275.21 20.333 267.802V265.402C20.333 257.993 26.5413 251.988 34.1988 251.988H123.48C131.138 251.988 137.345 257.994 137.345 265.402V267.802C137.345 275.21 131.137 281.216 123.48 281.216Z" fill="#E8505B"/>
<path d="M64.9222 263.213H67.6416C69.7787 263.213 71.2192 264.543 71.2192 266.444C71.2192 268.345 69.7787 269.675 67.6416 269.675H64.9222V263.213ZM67.6029 269.083C69.377 269.083 70.5226 267.994 70.5226 266.443C70.5226 264.893 69.3779 263.803 67.6029 263.803H65.6283V269.083H67.6029Z" fill="#FAFAFA"/>
<path d="M72.2073 266.444C72.2073 264.561 73.6959 263.158 75.7178 263.158C77.7207 263.158 79.2189 264.553 79.2189 266.444C79.2189 268.336 77.7207 269.73 75.7178 269.73C73.6951 269.73 72.2073 268.327 72.2073 266.444ZM78.5128 266.444C78.5128 264.902 77.32 263.767 75.7178 263.767C74.1053 263.767 72.903 264.902 72.903 266.444C72.903 267.985 74.1053 269.121 75.7178 269.121C77.32 269.12 78.5128 267.985 78.5128 266.444Z" fill="#FAFAFA"/>
<path d="M86.3792 263.213V269.675H85.797L81.5048 264.432V269.675H80.7987V263.213H81.3809L85.6835 268.457V263.213H86.3792Z" fill="#FAFAFA"/>
<path d="M93.2747 269.083V269.674H88.5525V263.213H93.1311V263.803H89.2585V266.102H92.7123V266.684H89.2585V269.083H93.2747Z" fill="#FAFAFA"/>
<path d="M34.376 164.101C34.376 165.28 33.4936 165.992 32.0377 165.992H30.5008V167.74H29.8954V162.204H32.0377C33.4936 162.203 34.376 162.915 34.376 164.101ZM33.7714 164.101C33.7714 163.216 33.166 162.709 32.0213 162.709H30.5008V165.478H32.0213C33.166 165.478 33.7714 164.972 33.7714 164.101Z" fill="#263238"/>
<path d="M39.5197 163.58V167.74H38.9641V166.981C38.6614 167.486 38.1059 167.78 37.4187 167.78C36.3231 167.78 35.6041 167.186 35.6041 165.992V163.58H36.1846V165.937C36.1846 166.823 36.6593 167.274 37.4763 167.274C38.3759 167.274 38.9401 166.712 38.9401 165.763V163.58H39.5197V163.58Z" fill="#263238"/>
<path d="M43.3148 163.548V164.093C43.2658 164.093 43.2167 164.085 43.1755 164.085C42.2759 164.085 41.7281 164.639 41.7281 165.62V167.739H41.1476V163.579H41.7032V164.393C41.9741 163.84 42.521 163.548 43.3148 163.548Z" fill="#263238"/>
<path d="M43.8876 165.659C43.8876 164.418 44.819 163.548 46.1029 163.548C46.8305 163.548 47.4437 163.824 47.7868 164.37L47.3534 164.655C47.0593 164.236 46.6009 164.038 46.1029 164.038C45.163 164.038 44.4758 164.687 44.4758 165.659C44.4758 166.64 45.163 167.28 46.1029 167.28C46.6017 167.28 47.0593 167.091 47.3534 166.672L47.7868 166.957C47.4437 167.494 46.8305 167.779 46.1029 167.779C44.819 167.779 43.8876 166.901 43.8876 165.659Z" fill="#263238"/>
<path d="M52.8161 165.327V167.739H52.2356V165.382C52.2356 164.504 51.7617 164.053 50.9439 164.053C50.0202 164.053 49.4397 164.606 49.4397 165.555V167.739H48.8593V161.87H49.4397V164.306C49.7588 163.823 50.3221 163.547 51.0505 163.547C52.0963 163.548 52.8161 164.133 52.8161 165.327Z" fill="#263238"/>
<path d="M57.6398 165.161V167.739H57.0842V167.091C56.8228 167.518 56.3154 167.779 55.6042 167.779C54.6315 167.779 54.0347 167.289 54.0347 166.569C54.0347 165.928 54.4595 165.391 55.6945 165.391H57.0593V165.137C57.0593 164.426 56.6422 164.038 55.8407 164.038C55.2851 164.038 54.7622 164.228 54.4096 164.529L54.1482 164.109C54.5816 163.753 55.2198 163.548 55.8983 163.548C57.0103 163.548 57.6398 164.085 57.6398 165.161ZM57.0602 166.49V165.81H55.7117C54.8775 165.81 54.6083 166.126 54.6083 166.553C54.6083 167.036 55.009 167.336 55.6953 167.336C56.3481 167.336 56.8314 167.036 57.0602 166.49Z" fill="#263238"/>
<path d="M58.6228 167.264L58.8842 166.822C59.2274 167.082 59.8079 167.289 60.4133 167.289C61.2312 167.289 61.5657 167.02 61.5657 166.609C61.5657 165.525 58.7776 166.38 58.7776 164.734C58.7776 164.055 59.383 163.548 60.4787 163.548C61.0342 163.548 61.6397 163.698 61.9992 163.936L61.7455 164.387C61.3696 164.133 60.9199 164.03 60.4787 164.03C59.7021 164.03 59.3581 164.323 59.3581 164.718C59.3581 165.841 62.1462 164.995 62.1462 166.593C62.1462 167.312 61.4926 167.779 60.372 167.779C59.6608 167.779 58.9737 167.557 58.6228 167.264Z" fill="#263238"/>
<path d="M66.9623 165.833H63.3649C63.4303 166.704 64.1166 167.28 65.0574 167.28C65.5803 167.28 66.0464 167.099 66.3732 166.735L66.7 167.1C66.3156 167.542 65.7188 167.779 65.0402 167.779C63.6995 167.779 62.7836 166.893 62.7836 165.659C62.7836 164.426 63.6745 163.548 64.8846 163.548C66.0946 163.548 66.9692 164.41 66.9692 165.659C66.9709 165.706 66.9623 165.769 66.9623 165.833ZM63.3649 165.414H66.4145C66.3405 164.6 65.7273 164.03 64.8854 164.03C64.0512 164.03 63.4389 164.599 63.3649 165.414Z" fill="#263238"/>
<path d="M76.6106 163.58L74.9826 167.74H74.4348L73.0777 164.33L71.7207 167.74H71.1728L69.5543 163.58H70.1099L71.4584 167.115L72.8404 163.58H73.3392L74.7126 167.115L76.0783 163.58H76.6106Z" fill="#263238"/>
<path d="M80.6018 165.161V167.739H80.0454V167.091C79.784 167.518 79.2766 167.779 78.5654 167.779C77.5927 167.779 76.9958 167.289 76.9958 166.569C76.9958 165.928 77.4216 165.391 78.6557 165.391H80.0213V165.137C80.0213 164.426 79.6051 164.038 78.8036 164.038C78.248 164.038 77.7243 164.228 77.3725 164.529L77.1111 164.109C77.5445 163.753 78.1818 163.548 78.8604 163.548C79.9723 163.548 80.6018 164.085 80.6018 165.161ZM80.0213 166.49V165.81H78.6729C77.8387 165.81 77.5695 166.126 77.5695 166.553C77.5695 167.036 77.9703 167.336 78.6565 167.336C79.3101 167.336 79.7926 167.036 80.0213 166.49Z" fill="#263238"/>
<path d="M81.5831 167.264L81.8454 166.822C82.1877 167.082 82.7691 167.289 83.3737 167.289C84.1907 167.289 84.526 167.02 84.526 166.609C84.526 165.525 81.7388 166.38 81.7388 164.734C81.7388 164.055 82.3434 163.548 83.439 163.548C83.9954 163.548 84.6 163.698 84.9595 163.936L84.7066 164.387C84.33 164.133 83.8802 164.03 83.439 164.03C82.6624 164.03 82.3184 164.323 82.3184 164.718C82.3184 165.841 85.1066 164.995 85.1066 166.593C85.1066 167.312 84.4521 167.779 83.3324 167.779C82.6211 167.779 81.9349 167.557 81.5831 167.264Z" fill="#263238"/>
<path d="M87.7252 167.264L87.9875 166.822C88.3298 167.082 88.9112 167.289 89.5157 167.289C90.3327 167.289 90.6681 167.02 90.6681 166.609C90.6681 165.525 87.8809 166.38 87.8809 164.734C87.8809 164.055 88.4855 163.548 89.5811 163.548C90.1375 163.548 90.7421 163.698 91.1016 163.936L90.8487 164.387C90.472 164.133 90.0223 164.03 89.5811 164.03C88.8045 164.03 88.4605 164.323 88.4605 164.718C88.4605 165.841 91.2487 164.995 91.2487 166.593C91.2487 167.312 90.5942 167.779 89.4745 167.779C88.7632 167.779 88.077 167.557 87.7252 167.264Z" fill="#263238"/>
<path d="M96.1954 163.58V167.74H95.6398V166.981C95.3371 167.486 94.7815 167.78 94.0944 167.78C92.9996 167.78 92.2798 167.186 92.2798 165.992V163.58H92.8603V165.937C92.8603 166.823 93.335 167.274 94.152 167.274C95.0516 167.274 95.6157 166.712 95.6157 165.763V163.58H96.1954V163.58Z" fill="#263238"/>
<path d="M97.3899 165.659C97.3899 164.418 98.3221 163.548 99.6052 163.548C100.333 163.548 100.946 163.824 101.289 164.37L100.856 164.655C100.562 164.236 100.104 164.038 99.6052 164.038C98.6644 164.038 97.9781 164.687 97.9781 165.659C97.9781 166.64 98.6644 167.28 99.6052 167.28C100.104 167.28 100.562 167.091 100.856 166.672L101.289 166.957C100.945 167.494 100.333 167.779 99.6052 167.779C98.3221 167.779 97.3899 166.901 97.3899 165.659Z" fill="#263238"/>
<path d="M101.92 165.659C101.92 164.418 102.853 163.548 104.136 163.548C104.863 163.548 105.477 163.824 105.82 164.37L105.386 164.655C105.092 164.236 104.635 164.038 104.136 164.038C103.195 164.038 102.509 164.687 102.509 165.659C102.509 166.64 103.195 167.28 104.136 167.28C104.635 167.28 105.092 167.091 105.386 166.672L105.82 166.957C105.477 167.494 104.863 167.779 104.136 167.779C102.853 167.779 101.92 166.901 101.92 165.659Z" fill="#263238"/>
<path d="M110.628 165.833H107.031C107.096 166.704 107.782 167.28 108.723 167.28C109.246 167.28 109.712 167.099 110.039 166.735L110.367 167.1C109.982 167.542 109.384 167.779 108.706 167.779C107.365 167.779 106.45 166.893 106.45 165.659C106.45 164.426 107.341 163.548 108.551 163.548C109.76 163.548 110.636 164.41 110.636 165.659C110.637 165.706 110.628 165.769 110.628 165.833ZM107.031 165.414H110.08C110.006 164.6 109.393 164.03 108.552 164.03C107.718 164.03 107.105 164.599 107.031 165.414Z" fill="#263238"/>
<path d="M111.226 167.264L111.488 166.822C111.83 167.082 112.412 167.289 113.016 167.289C113.833 167.289 114.169 167.02 114.169 166.609C114.169 165.525 111.381 166.38 111.381 164.734C111.381 164.055 111.986 163.548 113.082 163.548C113.639 163.548 114.243 163.698 114.603 163.936L114.35 164.387C113.973 164.133 113.524 164.03 113.082 164.03C112.306 164.03 111.962 164.323 111.962 164.718C111.962 165.841 114.75 164.995 114.75 166.593C114.75 167.312 114.095 167.779 112.975 167.779C112.264 167.779 111.577 167.557 111.226 167.264Z" fill="#263238"/>
<path d="M115.224 167.264L115.486 166.822C115.828 167.082 116.41 167.289 117.014 167.289C117.831 167.289 118.167 167.02 118.167 166.609C118.167 165.525 115.379 166.38 115.379 164.734C115.379 164.055 115.984 163.548 117.08 163.548C117.636 163.548 118.241 163.698 118.601 163.936L118.348 164.387C117.971 164.133 117.522 164.03 117.08 164.03C116.304 164.03 115.96 164.323 115.96 164.718C115.96 165.841 118.748 164.995 118.748 166.593C118.748 167.312 118.094 167.779 116.974 167.779C116.262 167.779 115.576 167.557 115.224 167.264Z" fill="#263238"/>
<path d="M120.482 163.089V163.58H121.806V164.054H120.499V167.74H119.918V164.054H119.149V163.58H119.918V163.065C119.918 162.322 120.376 161.832 121.218 161.832C121.537 161.832 121.864 161.919 122.076 162.094L121.88 162.513C121.717 162.378 121.488 162.307 121.242 162.307C120.743 162.305 120.482 162.575 120.482 163.089Z" fill="#263238"/>
<path d="M126.467 163.58V167.74H125.911V166.981C125.608 167.486 125.053 167.78 124.366 167.78C123.27 167.78 122.551 167.186 122.551 165.992V163.58H123.131V165.937C123.131 166.823 123.606 167.274 124.423 167.274C125.323 167.274 125.887 166.712 125.887 165.763V163.58H126.467V163.58Z" fill="#263238"/>
<path d="M128.095 161.871H128.676V167.74H128.095V161.871Z" fill="#263238"/>
<path d="M37.8779 141.494H34.2461V139.829H43.5453V141.494H39.9135V150.43H37.8779V141.494Z" fill="#E8505B"/>
<path d="M53.1239 145.796V150.43H51.1674V146.038C51.1674 144.599 50.4321 143.903 49.1791 143.903C47.7859 143.903 46.8468 144.72 46.8468 146.341V150.431H44.8903V139.193H46.8468V143.282C47.4892 142.615 48.4747 142.252 49.6332 142.252C51.637 142.251 53.1239 143.357 53.1239 145.796Z" fill="#E8505B"/>
<path d="M62.6098 145.689V150.43H60.7625V149.445C60.2929 150.142 59.3848 150.536 58.1318 150.536C56.2217 150.536 55.0168 149.521 55.0168 148.113C55.0168 146.765 55.956 145.704 58.493 145.704H60.6533V145.583C60.6533 144.477 59.9644 143.826 58.5712 143.826C57.6321 143.826 56.6612 144.129 56.0351 144.629L55.268 143.251C56.1607 142.584 57.4593 142.251 58.806 142.251C61.2166 142.251 62.6098 143.357 62.6098 145.689ZM60.6524 147.901V146.961H58.6323C57.3019 146.961 56.9415 147.446 56.9415 148.037C56.9415 148.719 57.5366 149.158 58.5385 149.158C59.494 149.158 60.3239 148.734 60.6524 147.901Z" fill="#E8505B"/>
<path d="M73.3468 145.796V150.43H71.3903V146.038C71.3903 144.6 70.655 143.903 69.402 143.903C68.0088 143.903 67.0697 144.72 67.0697 146.342V150.431H65.1132V142.343H66.9759V143.388C67.6175 142.646 68.6349 142.252 69.8561 142.252C71.8599 142.252 73.3468 143.357 73.3468 145.796Z" fill="#E8505B"/>
<path d="M79.2465 146.961L77.7913 148.294V150.429H75.8348V139.191H77.7913V145.976L81.8462 142.341H84.1941L80.7025 145.733L84.5217 150.429H82.1421L79.2465 146.961Z" fill="#E8505B"/>
<path d="M97.9359 142.342L94.0221 151.081C93.2541 152.914 92.1903 153.474 90.7971 153.474C89.9672 153.474 89.0908 153.201 88.5576 152.731L89.3402 151.338C89.7169 151.686 90.2484 151.898 90.7807 151.898C91.4696 151.898 91.8764 151.581 92.2522 150.778L92.3932 150.459L88.746 142.341H90.7807L93.4115 148.323L96.0568 142.341H97.9359V142.342Z" fill="#E8505B"/>
<path d="M98.231 146.387C98.231 143.963 100.11 142.251 102.677 142.251C105.276 142.251 107.14 143.963 107.14 146.387C107.14 148.809 105.277 150.536 102.677 150.536C100.109 150.536 98.231 148.809 98.231 146.387ZM105.166 146.387C105.166 144.842 104.102 143.857 102.676 143.857C101.268 143.857 100.203 144.842 100.203 146.387C100.203 147.931 101.268 148.916 102.676 148.916C104.102 148.916 105.166 147.931 105.166 146.387Z" fill="#E8505B"/>
<path d="M117.11 142.342V150.43H115.247V149.4C114.62 150.143 113.634 150.536 112.553 150.536C110.409 150.536 108.953 149.4 108.953 146.961V142.342H110.91V146.703C110.91 148.174 111.631 148.869 112.866 148.869C114.229 148.869 115.152 148.051 115.152 146.431V142.341H117.11V142.342Z" fill="#E8505B"/>
<path d="M119.315 149.355C119.315 148.704 119.847 148.189 120.583 148.189C121.303 148.189 121.82 148.704 121.82 149.355C121.82 150.006 121.303 150.536 120.583 150.536C119.847 150.536 119.315 150.006 119.315 149.355ZM119.424 139.829H121.741L121.349 146.916H119.8L119.424 139.829Z" fill="#E8505B"/>
<path d="M79.6137 123.958C92.0487 123.958 102.129 114.206 102.129 102.176C102.129 90.1455 92.0487 80.3931 79.6137 80.3931C67.1786 80.3931 57.098 90.1455 57.098 102.176C57.098 114.206 67.1786 123.958 79.6137 123.958Z" fill="#E8505B"/>
<path d="M90.7025 92.9852C90.9906 93.2115 86.7844 98.6844 81.3096 105.207C80.1426 106.578 79.0228 107.891 77.9934 109.099L77.5402 109.632L77.0535 109.147C72.7784 104.884 69.8587 101.72 70.0651 101.519C70.2724 101.319 73.5438 104.144 77.9496 108.28L77.0096 108.327C78.021 107.104 79.12 105.776 80.2664 104.389C85.7412 97.8649 90.4144 92.7597 90.7025 92.9852Z" fill="white"/>
<path d="M111.597 93.4003C110.93 91.1123 107.855 91.3345 107.855 91.3345L107.939 92.9261C109.716 92.6299 110.821 94.6442 110.821 94.6442L111.597 93.4003Z" fill="#E8505B"/>
<path d="M46.3815 98.1987C45.7141 95.9107 42.6396 96.1328 42.6396 96.1328L42.7239 97.7244C44.5007 97.4282 45.6049 99.4425 45.6049 99.4425L46.3815 98.1987Z" fill="#E0E0E0"/>
<path d="M82.302 66.5467C85.8675 67.5917 88.0864 63.6131 88.0864 63.6131L85.9174 62.4175C84.8571 64.8544 81.2958 64.5724 81.2958 64.5724L82.302 66.5467Z" fill="#E0E0E0"/>
<path d="M62.5143 70.8291C60.8545 70.9997 60.6567 73.0148 60.6567 73.0148L61.767 73.1421C61.7653 71.9573 63.2858 71.4731 63.2858 71.4731L62.5143 70.8291Z" fill="#E8505B"/>
<path d="M130.915 85.5672C131.156 83.9698 129.188 83.2842 129.188 83.2842L128.784 84.2934C129.971 84.5854 130.078 86.1305 130.078 86.1305L130.915 85.5672Z" fill="#E0E0E0"/>
<path d="M72.1962 49.8011C72.437 48.2036 70.4684 47.5181 70.4684 47.5181L70.0651 48.5273C71.2519 48.8193 71.3594 50.3643 71.3594 50.3643L72.1962 49.8011Z" fill="#E8505B"/>
<path d="M31.1931 75.5689C30.8947 78.0733 34.3244 78.6798 34.3244 78.6798L34.9436 77.0407C32.8856 76.861 32.5889 74.5156 32.5889 74.5156L31.1931 75.5689Z" fill="#E8505B"/>
<path d="M107.527 66.4927C109.192 66.5851 109.726 64.6265 109.726 64.6265L108.652 64.3262C108.455 65.4951 106.874 65.7347 106.874 65.7347L107.527 66.4927Z" fill="#E8505B"/>
<path d="M116.629 73.0648C116.629 73.1364 116.013 73.1946 115.254 73.1946C114.494 73.1946 113.878 73.1364 113.878 73.0648C113.878 72.9933 114.494 72.9351 115.254 72.9351C116.013 72.9351 116.629 72.9933 116.629 73.0648Z" fill="#E0E0E0"/>
<path d="M118.09 69.4448C118.164 69.4448 118.224 70.0497 118.224 70.7952C118.224 71.5406 118.164 72.1455 118.09 72.1455C118.016 72.1455 117.956 71.5406 117.956 70.7952C117.956 70.0497 118.015 69.4448 118.09 69.4448Z" fill="#E0E0E0"/>
<path d="M119.646 72.9784C119.646 72.9069 120.262 72.8486 121.021 72.8486C121.781 72.8486 122.397 72.9069 122.397 72.9784C122.397 73.05 121.781 73.1082 121.021 73.1082C120.262 73.1082 119.646 73.05 119.646 72.9784Z" fill="#E0E0E0"/>
<path d="M118.185 76.5986C118.111 76.5986 118.051 75.9938 118.051 75.2483C118.051 74.5028 118.111 73.8979 118.185 73.8979C118.259 73.8979 118.319 74.5028 118.319 75.2483C118.319 75.9946 118.259 76.5986 118.185 76.5986Z" fill="#E0E0E0"/>
<path d="M120.409 75.046C120.352 75.0918 120.086 74.8755 119.816 74.5626C119.546 74.2498 119.373 73.9586 119.43 73.9128C119.487 73.8671 119.752 74.0834 120.023 74.3962C120.293 74.7091 120.465 75.0003 120.409 75.046Z" fill="#E0E0E0"/>
<path d="M120.28 70.9399C120.332 70.9907 120.148 71.2536 119.868 71.5273C119.587 71.801 119.317 71.9816 119.265 71.9317C119.212 71.8809 119.396 71.618 119.677 71.3443C119.957 71.0706 120.227 70.89 120.28 70.9399Z" fill="#E0E0E0"/>
<path d="M117.127 71.9867C117.08 72.0416 116.824 71.9127 116.558 71.6972C116.29 71.4825 116.113 71.2629 116.16 71.208C116.208 71.153 116.463 71.282 116.73 71.4975C116.996 71.7122 117.174 71.931 117.127 71.9867Z" fill="#E0E0E0"/>
<path d="M117.003 73.7954C117.058 73.8437 116.896 74.1024 116.642 74.372C116.387 74.6424 116.136 74.8221 116.082 74.7738C116.027 74.7256 116.19 74.4677 116.444 74.1973C116.697 73.9277 116.948 73.7471 117.003 73.7954Z" fill="#E0E0E0"/>
<path d="M41.71 65.6484C41.71 65.7199 41.0942 65.7781 40.3349 65.7781C39.5746 65.7781 38.9589 65.7199 38.9589 65.6484C38.9589 65.5768 39.5746 65.5186 40.3349 65.5186C41.0934 65.5186 41.71 65.5768 41.71 65.6484Z" fill="#E8505B"/>
<path d="M43.1703 62.0283C43.2443 62.0283 43.3045 62.6332 43.3045 63.3787C43.3045 64.1241 43.2443 64.729 43.1703 64.729C43.0963 64.729 43.0361 64.1241 43.0361 63.3787C43.0361 62.6332 43.0963 62.0283 43.1703 62.0283Z" fill="#E8505B"/>
<path d="M44.7269 65.5619C44.7269 65.4904 45.3427 65.4321 46.1021 65.4321C46.8623 65.4321 47.4781 65.4904 47.4781 65.5619C47.4781 65.6335 46.8623 65.6917 46.1021 65.6917C45.3427 65.6917 44.7269 65.6335 44.7269 65.5619Z" fill="#E8505B"/>
<path d="M43.2658 69.1821C43.1918 69.1821 43.1316 68.5773 43.1316 67.8318C43.1316 67.0863 43.1918 66.4814 43.2658 66.4814C43.3397 66.4814 43.3999 67.0863 43.3999 67.8318C43.3999 68.5781 43.3397 69.1821 43.2658 69.1821Z" fill="#E8505B"/>
<path d="M45.4888 67.6295C45.4321 67.6753 45.1663 67.459 44.8972 67.1461C44.6271 66.8333 44.4543 66.5421 44.511 66.4963C44.5678 66.4506 44.8327 66.6669 45.1027 66.9797C45.3736 67.2926 45.5456 67.5838 45.4888 67.6295Z" fill="#E8505B"/>
<path d="M45.3606 63.5242C45.4131 63.5749 45.2291 63.8378 44.9487 64.1116C44.6683 64.3853 44.3983 64.5658 44.345 64.5159C44.2925 64.4652 44.4766 64.2023 44.7578 63.9285C45.0373 63.654 45.3073 63.4734 45.3606 63.5242Z" fill="#E8505B"/>
<path d="M42.2071 64.5702C42.1598 64.6251 41.9044 64.4962 41.6378 64.2807C41.3703 64.066 41.1931 63.8464 41.2404 63.7915C41.2877 63.7365 41.5432 63.8655 41.8098 64.081C42.0764 64.2957 42.2552 64.5145 42.2071 64.5702Z" fill="#E8505B"/>
<path d="M42.0833 66.3789C42.1384 66.4272 41.9767 66.6859 41.7212 66.9555C41.4667 67.2259 41.2156 67.4056 41.1614 67.3573C41.1063 67.3091 41.268 67.0512 41.5234 66.7808C41.778 66.5112 42.0291 66.3306 42.0833 66.3789Z" fill="#E8505B"/>
<path d="M136.89 31.0327C136.89 31.1525 134.17 31.2491 130.816 31.2491C127.461 31.2491 124.742 31.1517 124.742 31.0327C124.742 30.9138 127.461 30.8164 130.816 30.8164C134.169 30.8156 136.89 30.9129 136.89 31.0327Z" fill="#263238"/>
<path d="M136.89 33.4805C136.89 33.6003 134.17 33.6968 130.816 33.6968C127.461 33.6968 124.742 33.5995 124.742 33.4805C124.742 33.3607 127.461 33.2642 130.816 33.2642C134.169 33.2642 136.89 33.3615 136.89 33.4805Z" fill="#263238"/>
<path d="M136.89 35.9292C136.89 36.049 134.17 36.1455 130.816 36.1455C127.461 36.1455 124.742 36.0482 124.742 35.9292C124.742 35.8102 127.461 35.7129 130.816 35.7129C134.169 35.7129 136.89 35.8094 136.89 35.9292Z" fill="#263238"/>
<path d="M65.7954 237.069L94.1161 237.283L94.3949 202.7L66.0742 202.486L65.7954 237.069Z" fill="#EBEBEB"/>
<path d="M83.3306 203.72L82.8275 237.205L78.3529 237.172L79.3118 203.689L83.3306 203.72Z" fill="#FAFAFA"/>
<path d="M49.8276 203.467L66.0756 203.59L94.3954 203.804L66.0446 207.413L65.8056 237.077L49.5645 236.954L49.8276 203.467Z" fill="#E0E0E0"/>
<path d="M58.6727 203.534L58.0277 237.018L53.2057 236.981L53.9943 203.498L58.6727 203.534Z" fill="#FAFAFA"/>
<path d="M71.5305 193.343C71.5374 193.553 71.0636 193.772 70.1932 193.979C69.3221 194.182 68.0527 194.383 66.4394 194.463C65.6327 194.501 64.7391 194.504 63.7708 194.434C63.2866 194.398 62.7843 194.35 62.2666 194.269C61.7394 194.186 61.2475 194.111 60.6086 193.929C60.2929 193.831 59.9567 193.712 59.5912 193.503C59.2334 193.3 58.8275 192.993 58.5162 192.527C58.1962 192.064 58.0561 191.479 58.0509 191.02C58.0397 190.552 58.1163 190.173 58.1868 189.856C58.456 188.753 58.7294 187.619 59.2738 186.387C59.549 185.778 59.8887 185.177 60.3093 184.619C60.5286 184.339 60.7436 184.086 61.0093 183.82C61.2802 183.554 61.5881 183.302 61.9527 183.082C62.3182 182.863 62.7491 182.677 63.235 182.583C63.7174 182.489 64.2506 182.508 64.7021 182.619C65.6146 182.852 66.1882 183.301 66.6406 183.657C68.3614 185.063 69.5775 186.646 70.3609 188.077C71.147 189.512 71.4979 190.789 71.6148 191.676C71.7232 192.572 71.6131 193.081 71.4084 193.127C70.9501 193.233 70.2853 191.469 68.4801 189.25C67.5763 188.15 66.3723 186.943 64.8458 185.881C64.4897 185.629 64.1689 185.479 64.0227 185.469C63.9488 185.462 63.9238 185.471 63.8671 185.486C63.8129 185.504 63.7286 185.54 63.6211 185.612C63.5136 185.685 63.3881 185.791 63.2625 185.921C63.1361 186.057 62.989 186.237 62.8617 186.406C62.6063 186.76 62.3801 187.162 62.178 187.608C61.7799 188.493 61.4875 189.55 61.2054 190.547C61.1469 190.759 61.122 190.913 61.1177 190.978L61.1142 191.011L61.1125 191.015C61.0945 191.017 61.048 191.028 61.0256 191.034C60.9259 191.059 60.8992 191.084 60.9663 191.045C60.9783 191.037 61.0428 190.995 61.0695 190.97C61.0695 190.97 61.0687 190.976 61.0755 190.984C61.0876 190.999 61.1108 191.026 61.1564 191.057C61.2389 191.119 61.3886 191.192 61.5588 191.26C61.8985 191.39 62.3922 191.522 62.8205 191.629C63.2591 191.742 63.6942 191.832 64.1182 191.916C64.9679 192.082 65.7797 192.2 66.5314 192.298C68.0355 192.491 69.2902 192.622 70.1623 192.785C71.0335 192.947 71.5237 193.131 71.5305 193.343Z" fill="#E0E0E0"/>
<path d="M70.9457 193.593C70.8674 193.159 72.9848 192.517 76.2915 191.578C77.9366 191.095 79.8691 190.509 81.8651 189.644C82.357 189.437 82.8068 189.208 83.0717 188.994C83.2024 188.892 83.2618 188.799 83.2446 188.807C83.2248 188.813 83.2101 188.931 83.2058 188.871C83.1947 188.818 83.1302 188.644 83.0029 188.391C82.8687 188.121 82.7328 187.849 82.597 187.575C82.3261 187.04 82.0449 186.54 81.7361 186.085C81.4248 185.633 81.0946 185.241 80.7273 184.92C80.5485 184.755 80.3498 184.613 80.1572 184.479C79.9809 184.363 79.8037 184.27 79.6403 184.209C79.3049 184.086 79.0667 184.07 78.8052 184.133C78.5352 184.197 78.1817 184.398 77.805 184.696C76.1805 186.013 74.8664 187.466 73.9342 188.764C72.0362 191.377 71.5348 193.418 71.0627 193.351C70.8563 193.324 70.7006 192.766 70.7737 191.759C70.8485 190.759 71.1848 189.312 71.9966 187.681C72.8067 186.044 74.0675 184.265 75.8804 182.576C76.3697 182.139 76.9958 181.644 77.8859 181.348C78.7794 181.04 79.8441 181.088 80.6886 181.387C81.1186 181.531 81.5091 181.725 81.8686 181.947C82.2048 182.162 82.529 182.39 82.8283 182.652C83.4355 183.167 83.9463 183.772 84.3746 184.396C84.7994 185.021 85.1391 185.651 85.4307 186.25C85.57 186.545 85.7093 186.839 85.8461 187.13C85.9845 187.439 86.1729 187.836 86.2649 188.386C86.3689 188.926 86.2709 189.675 85.9475 190.205C85.6388 190.744 85.2466 191.074 84.8975 191.324C84.1888 191.813 83.5404 192.051 82.9616 192.259C80.662 193.074 78.5309 193.468 76.7576 193.696C73.2032 194.116 71.0162 193.992 70.9457 193.593Z" fill="#EBEBEB"/>
<path d="M44.6643 203.421L86.2917 203.735L86.384 192.289L44.7566 191.975L44.6643 203.421Z" fill="#E0E0E0"/>
<path d="M59.9701 203.536L97.5977 203.82L97.6899 192.374L60.0624 192.09L59.9701 203.536Z" fill="#EBEBEB"/>
<path d="M86.1548 192.294L85.8891 203.794L81.5013 203.706L81.8075 192.261L86.1548 192.294Z" fill="#FAFAFA"/>
<path d="M54.9747 192.115L54.5507 203.512L49.7261 203.475L49.9849 192.021L54.9747 192.115Z" fill="#FAFAFA"/>
<path d="M96.473 236.44L112.521 236.562L112.679 216.965L96.631 216.843L96.473 236.44Z" fill="#EBEBEB"/>
<path d="M106.414 217.546L106.128 236.52L103.593 236.5L104.137 217.528L106.414 217.546Z" fill="#FAFAFA"/>
<path d="M87.4294 217.402L96.6357 217.472L112.683 217.593L96.6185 219.637L96.4835 236.447L87.2798 236.377L87.4294 217.402Z" fill="#E0E0E0"/>
<path d="M92.4415 217.44L92.076 236.414L89.3438 236.393L89.7901 217.42L92.4415 217.44Z" fill="#FAFAFA"/>
<path d="M99.7274 211.665C99.7308 211.951 98.6747 212.306 96.8361 212.452C95.8969 212.504 94.8254 212.518 93.4717 212.185C93.114 212.066 92.6014 211.912 92.1723 211.312C91.9667 211.016 91.8764 210.639 91.873 210.352C91.8661 210.058 91.9126 209.828 91.953 209.641C92.1044 209.008 92.2583 208.36 92.5773 207.637C92.7382 207.281 92.9394 206.926 93.1888 206.597C93.4382 206.28 93.7263 205.949 94.1821 205.673C94.6087 205.395 95.3207 205.229 95.9055 205.388C96.4766 205.536 96.8197 205.812 97.082 206.02C98.071 206.841 98.7607 207.765 99.1959 208.598C100.064 210.296 99.9364 211.499 99.6569 211.542C99.3378 211.613 98.9052 210.637 97.8655 209.428C97.3452 208.827 96.6632 208.17 95.8118 207.592C95.6166 207.457 95.4532 207.394 95.4239 207.404L95.4179 207.407L95.4214 207.364L95.4282 207.417C95.4282 207.421 95.4042 207.432 95.362 207.462C95.2777 207.516 95.1341 207.668 94.9939 207.86C94.8606 208.046 94.7402 208.26 94.631 208.501C94.416 208.978 94.2492 209.572 94.0883 210.129L94.0419 210.321C94.0755 210.322 93.9318 210.326 93.8983 210.334C93.8433 210.341 93.8045 210.348 93.7736 210.356C93.7168 210.37 93.7022 210.385 93.74 210.362C93.771 210.344 93.8218 210.306 93.8983 210.227L93.9439 210.178L93.9447 210.182C93.9482 210.185 93.9508 210.19 93.9594 210.196C93.986 210.221 94.0582 210.259 94.1442 210.296C95.0335 210.609 96.0801 210.793 96.9014 210.92C98.5948 211.164 99.7231 211.354 99.7274 211.665Z" fill="#E0E0E0"/>
<path d="M99.3955 211.807C99.3361 211.476 100.529 211.034 102.377 210.449C103.296 210.149 104.371 209.798 105.471 209.303C105.741 209.186 105.975 209.057 106.08 208.963C106.133 208.921 106.132 208.893 106.089 208.954C106.042 209.012 106.023 209.167 106.03 209.181C105.925 208.968 105.817 208.752 105.708 208.533C105.557 208.237 105.403 207.967 105.24 207.726C105.076 207.488 104.907 207.287 104.723 207.125C104.534 206.955 104.335 206.824 104.215 206.779C104.077 206.727 104.027 206.721 103.942 206.732C103.852 206.745 103.68 206.828 103.478 206.983C102.577 207.691 101.827 208.481 101.286 209.182C100.182 210.592 99.8169 211.716 99.4608 211.671C99.1529 211.661 98.8958 210.291 99.7919 208.347C100.238 207.385 100.948 206.344 101.994 205.348C102.283 205.087 102.666 204.776 103.234 204.585C103.805 204.386 104.492 204.416 105.022 204.603C105.293 204.693 105.537 204.813 105.759 204.95C105.963 205.081 106.16 205.219 106.342 205.377C106.711 205.688 107.018 206.052 107.272 206.423C107.525 206.794 107.723 207.165 107.891 207.511L108.127 208.017C108.206 208.197 108.326 208.445 108.387 208.808C108.456 209.162 108.388 209.676 108.171 210.03C107.963 210.391 107.706 210.603 107.486 210.76C107.039 211.064 106.652 211.2 106.315 211.319C104.981 211.775 103.753 211.979 102.735 212.083C100.698 212.267 99.4514 212.118 99.3955 211.807Z" fill="#E0E0E0"/>
<path d="M84.4985 217.372L108.087 217.55L108.14 211.064L84.5508 210.886L84.4985 217.372Z" fill="#E0E0E0"/>
<path d="M93.1711 217.439L114.493 217.6L114.545 211.114L93.2234 210.953L93.1711 217.439Z" fill="#EBEBEB"/>
<path d="M108.013 211.071L107.864 217.587L105.377 217.537L105.55 211.052L108.013 211.071Z" fill="#FAFAFA"/>
<path d="M90.3457 210.97L90.1058 217.427L87.3718 217.407L87.518 210.916L90.3457 210.97Z" fill="#FAFAFA"/>
</svg>
