<svg width="430" height="416" viewBox="0 0 430 416" fill="none" xmlns="http://www.w3.org/2000/svg">
<path d="M267.48 359.216H178.199C170.541 359.216 164.333 353.21 164.333 345.802V343.402C164.333 335.993 170.541 329.988 178.199 329.988H267.48C275.138 329.988 281.346 335.994 281.346 343.402V345.802C281.346 353.21 275.137 359.216 267.48 359.216Z" fill="#E8505B"/>
<path d="M208.922 341.213H211.642C213.779 341.213 215.219 342.543 215.219 344.444C215.219 346.345 213.779 347.674 211.642 347.674H208.922V341.213ZM211.603 347.083C213.377 347.083 214.523 345.994 214.523 344.443C214.523 342.893 213.378 341.803 211.603 341.803H209.628V347.083H211.603Z" fill="#FAFAFA"/>
<path d="M216.207 344.444C216.207 342.561 217.696 341.158 219.718 341.158C221.721 341.158 223.219 342.553 223.219 344.444C223.219 346.336 221.721 347.729 219.718 347.729C217.695 347.729 216.207 346.327 216.207 344.444ZM222.513 344.444C222.513 342.902 221.32 341.767 219.718 341.767C218.105 341.767 216.903 342.902 216.903 344.444C216.903 345.985 218.105 347.12 219.718 347.12C221.32 347.119 222.513 345.985 222.513 344.444Z" fill="#FAFAFA"/>
<path d="M230.379 341.213V347.674H229.797L225.505 342.432V347.674H224.799V341.213H225.381L229.684 346.456V341.213H230.379Z" fill="#FAFAFA"/>
<path d="M237.275 347.083V347.674H232.553V341.212H237.131V341.803H233.259V344.102H236.712V344.684H233.259V347.083H237.275Z" fill="#FAFAFA"/>
<path d="M209.796 315.069L238.116 315.283L238.395 280.7L210.074 280.486L209.796 315.069Z" fill="#EBEBEB"/>
<path d="M227.331 281.72L226.828 315.205L222.353 315.172L223.312 281.689L227.331 281.72Z" fill="#FAFAFA"/>
<path d="M193.828 281.467L210.076 281.59L238.396 281.804L210.045 285.413L209.806 315.077L193.565 314.954L193.828 281.467Z" fill="#E0E0E0"/>
<path d="M202.673 281.534L202.028 315.018L197.206 314.981L197.994 281.498L202.673 281.534Z" fill="#FAFAFA"/>
<path d="M215.531 271.343C215.538 271.553 215.064 271.772 214.193 271.978C213.322 272.181 212.053 272.383 210.439 272.463C209.633 272.501 208.739 272.503 207.771 272.434C207.287 272.398 206.784 272.349 206.267 272.269C205.74 272.185 205.248 272.111 204.609 271.928C204.293 271.831 203.957 271.712 203.591 271.503C203.234 271.299 202.828 270.993 202.516 270.526C202.196 270.064 202.056 269.479 202.051 269.02C202.04 268.551 202.116 268.173 202.187 267.856C202.456 266.752 202.73 265.618 203.274 264.386C203.549 263.778 203.889 263.177 204.309 262.619C204.529 262.339 204.744 262.086 205.009 261.82C205.28 261.554 205.588 261.302 205.953 261.082C206.318 260.863 206.749 260.676 207.235 260.583C207.718 260.489 208.251 260.507 208.702 260.619C209.615 260.852 210.188 261.301 210.641 261.656C212.362 263.063 213.578 264.646 214.361 266.077C215.147 267.512 215.498 268.788 215.615 269.676C215.723 270.571 215.613 271.081 215.409 271.126C214.95 271.233 214.285 269.469 212.48 267.25C211.576 266.149 210.372 264.943 208.846 263.88C208.49 263.628 208.169 263.479 208.023 263.469C207.949 263.462 207.924 263.471 207.867 263.486C207.813 263.504 207.729 263.54 207.621 263.612C207.514 263.685 207.388 263.791 207.263 263.921C207.136 264.057 206.989 264.237 206.862 264.405C206.606 264.76 206.38 265.162 206.178 265.608C205.78 266.493 205.488 267.55 205.206 268.547C205.147 268.758 205.122 268.912 205.118 268.978L205.114 269.011L205.113 269.015C205.095 269.017 205.048 269.028 205.026 269.034C204.926 269.059 204.899 269.084 204.966 269.045C204.978 269.036 205.043 268.995 205.07 268.97C205.07 268.97 205.069 268.976 205.076 268.984C205.088 268.999 205.111 269.026 205.156 269.056C205.239 269.119 205.389 269.192 205.559 269.259C205.899 269.39 206.392 269.521 206.821 269.629C207.259 269.742 207.694 269.832 208.118 269.916C208.968 270.081 209.78 270.199 210.531 270.298C212.036 270.491 213.29 270.622 214.162 270.785C215.034 270.947 215.524 271.13 215.531 271.343Z" fill="#E0E0E0"/>
<path d="M214.946 271.593C214.868 271.159 216.985 270.517 220.292 269.578C221.937 269.095 223.869 268.509 225.865 267.644C226.357 267.437 226.807 267.208 227.072 266.994C227.203 266.892 227.262 266.799 227.245 266.807C227.225 266.813 227.21 266.931 227.206 266.871C227.195 266.818 227.13 266.644 227.003 266.391C226.869 266.121 226.733 265.849 226.597 265.575C226.326 265.04 226.045 264.54 225.736 264.085C225.425 263.633 225.095 263.241 224.727 262.92C224.549 262.755 224.35 262.613 224.157 262.479C223.981 262.363 223.804 262.27 223.64 262.209C223.305 262.086 223.067 262.07 222.805 262.133C222.535 262.197 222.182 262.398 221.805 262.696C220.181 264.013 218.867 265.466 217.934 266.764C216.036 269.377 215.535 271.418 215.063 271.351C214.856 271.324 214.701 270.766 214.774 269.759C214.849 268.759 215.185 267.312 215.997 265.681C216.807 264.044 218.068 262.265 219.88 260.576C220.37 260.139 220.996 259.644 221.886 259.348C222.78 259.04 223.844 259.088 224.689 259.387C225.119 259.531 225.509 259.725 225.869 259.947C226.205 260.162 226.529 260.39 226.828 260.652C227.436 261.167 227.946 261.772 228.375 262.396C228.8 263.021 229.139 263.651 229.431 264.25C229.57 264.545 229.709 264.839 229.846 265.13C229.985 265.439 230.173 265.836 230.265 266.386C230.369 266.926 230.271 267.675 229.948 268.205C229.639 268.744 229.247 269.074 228.898 269.324C228.189 269.813 227.541 270.051 226.962 270.259C224.662 271.074 222.531 271.468 220.758 271.696C217.203 272.116 215.016 271.992 214.946 271.593Z" fill="#EBEBEB"/>
<path d="M188.664 281.421L230.292 281.735L230.384 270.288L188.757 269.974L188.664 281.421Z" fill="#E0E0E0"/>
<path d="M203.97 281.537L241.598 281.821L241.69 270.374L204.062 270.09L203.97 281.537Z" fill="#EBEBEB"/>
<path d="M230.155 270.294L229.889 281.794L225.501 281.706L225.808 270.261L230.155 270.294Z" fill="#FAFAFA"/>
<path d="M198.975 270.116L198.551 281.512L193.726 281.475L193.985 270.021L198.975 270.116Z" fill="#FAFAFA"/>
<path d="M240.473 314.44L256.521 314.562L256.679 294.965L240.631 294.843L240.473 314.44Z" fill="#EBEBEB"/>
<path d="M250.414 295.546L250.129 314.52L247.593 314.5L248.137 295.528L250.414 295.546Z" fill="#FAFAFA"/>
<path d="M231.43 295.402L240.636 295.472L256.683 295.593L240.619 297.637L240.484 314.447L231.28 314.377L231.43 295.402Z" fill="#E0E0E0"/>
<path d="M236.442 295.44L236.076 314.414L233.344 314.393L233.79 295.42L236.442 295.44Z" fill="#FAFAFA"/>
<path d="M243.727 289.665C243.731 289.951 242.675 290.306 240.836 290.452C239.897 290.504 238.826 290.518 237.472 290.185C237.114 290.066 236.602 289.912 236.172 289.312C235.967 289.016 235.877 288.639 235.873 288.352C235.866 288.058 235.913 287.828 235.953 287.641C236.104 287.008 236.258 286.36 236.577 285.637C236.738 285.281 236.94 284.926 237.189 284.597C237.438 284.28 237.726 283.949 238.182 283.673C238.609 283.395 239.321 283.229 239.906 283.388C240.477 283.536 240.82 283.812 241.082 284.02C242.071 284.841 242.761 285.765 243.196 286.598C244.064 288.296 243.936 289.499 243.657 289.542C243.338 289.613 242.905 288.637 241.866 287.428C241.345 286.827 240.663 286.17 239.812 285.592C239.617 285.457 239.453 285.394 239.424 285.404L239.418 285.407L239.421 285.364L239.428 285.417C239.428 285.421 239.404 285.432 239.362 285.462C239.278 285.516 239.134 285.668 238.994 285.86C238.861 286.046 238.74 286.26 238.631 286.501C238.416 286.978 238.249 287.572 238.088 288.129L238.042 288.321C238.076 288.322 237.932 288.326 237.898 288.334C237.843 288.341 237.805 288.348 237.774 288.356C237.717 288.37 237.702 288.385 237.74 288.362C237.771 288.344 237.822 288.306 237.898 288.227L237.944 288.178L237.945 288.182C237.948 288.185 237.951 288.19 237.959 288.196C237.986 288.221 238.058 288.259 238.144 288.296C239.034 288.609 240.08 288.793 240.902 288.92C242.595 289.164 243.723 289.354 243.727 289.665Z" fill="#E0E0E0"/>
<path d="M243.396 289.807C243.336 289.476 244.529 289.034 246.377 288.449C247.297 288.149 248.372 287.798 249.471 287.303C249.742 287.186 249.975 287.057 250.08 286.963C250.133 286.921 250.132 286.893 250.089 286.954C250.043 287.012 250.023 287.167 250.03 287.181C249.925 286.968 249.817 286.752 249.708 286.533C249.557 286.237 249.404 285.967 249.24 285.726C249.076 285.488 248.907 285.287 248.723 285.125C248.534 284.955 248.335 284.824 248.215 284.779C248.077 284.727 248.027 284.721 247.942 284.732C247.852 284.745 247.68 284.828 247.478 284.983C246.577 285.691 245.827 286.481 245.286 287.182C244.182 288.592 243.817 289.716 243.461 289.671C243.153 289.661 242.896 288.291 243.792 286.347C244.238 285.385 244.948 284.344 245.995 283.348C246.283 283.087 246.666 282.776 247.234 282.585C247.805 282.386 248.492 282.416 249.023 282.603C249.293 282.693 249.537 282.813 249.759 282.95C249.963 283.081 250.16 283.219 250.342 283.377C250.711 283.688 251.018 284.052 251.272 284.423C251.525 284.794 251.723 285.165 251.891 285.511L252.127 286.017C252.206 286.197 252.326 286.445 252.387 286.808C252.457 287.162 252.389 287.676 252.171 288.03C251.963 288.391 251.707 288.603 251.486 288.76C251.039 289.064 250.652 289.2 250.315 289.319C248.981 289.775 247.753 289.979 246.735 290.083C244.698 290.267 243.451 290.118 243.396 289.807Z" fill="#E0E0E0"/>
<path d="M228.499 295.372L252.088 295.55L252.14 289.064L228.551 288.886L228.499 295.372Z" fill="#E0E0E0"/>
<path d="M237.171 295.439L258.493 295.6L258.545 289.114L237.223 288.953L237.171 295.439Z" fill="#EBEBEB"/>
<path d="M252.014 289.071L251.864 295.587L249.377 295.537L249.551 289.052L252.014 289.071Z" fill="#FAFAFA"/>
<path d="M234.346 288.97L234.106 295.427L231.372 295.407L231.518 288.916L234.346 288.97Z" fill="#FAFAFA"/>
</svg>
