<svg width="430" height="416" viewBox="0 0 430 416" fill="none" xmlns="http://www.w3.org/2000/svg">
<path d="M90.684 15.603L90.7503 18.9377C90.7503 18.9377 92.1495 44.7405 92.0643 48.6035C91.9783 52.4673 78.6062 74.6043 78.6062 74.6043L86.7728 87.5502L106.386 53.4291L101.687 16.8302L101.572 15.9267" fill="#FFBE9D"/>
<path d="M100.637 11.6172C100.565 11.3459 97.9571 2.21973 97.9571 2.21973L87.5941 8.00047C87.5777 8.83912 90.684 15.6033 90.684 15.6033L92.4737 17.3954C92.4737 17.3954 101.437 16.4794 101.631 16.3912C101.825 16.303 100.637 11.6172 100.637 11.6172Z" fill="#FFBE9D"/>
<path d="M98.32 2.8869C98.3415 2.89189 98.3776 2.96261 98.4249 3.08574C98.8179 4.10328 99.9652 8.6851 99.4414 9.02373C98.8541 9.40312 97.147 9.44888 96.8752 8.8748C96.6034 8.30155 95.6119 3.06911 95.6119 3.06911C95.6119 3.06911 95.5095 2.23211 96.864 1.68466C97.7017 1.34687 98.32 2.8869 98.32 2.8869Z" fill="#FFBE9D"/>
<path d="M95.0519 1.95172C95.0734 1.95671 95.1096 2.02743 95.1569 2.15057C95.5499 3.1681 96.6971 7.74993 96.1734 8.08855C95.586 8.46794 93.8789 8.51371 93.6071 7.94046C93.3354 7.36721 92.3438 2.13476 92.3438 2.13476C92.3438 2.13476 92.2415 1.29777 93.596 0.750311C94.4336 0.411687 95.0519 1.95172 95.0519 1.95172Z" fill="#FFBE9D"/>
<path d="M92.0652 1.8233C92.0867 1.82829 92.1228 1.89901 92.1701 2.02215C92.5631 3.03968 93.7103 7.62151 93.1875 7.96013C92.6001 8.33952 90.893 8.38528 90.6212 7.81203C90.3495 7.23879 89.3579 2.00634 89.3579 2.00634C89.3579 2.00634 89.2547 1.16935 90.6092 0.621893C91.4468 0.283269 92.0652 1.8233 92.0652 1.8233Z" fill="#FFBE9D"/>
<path d="M89.1059 1.74029C89.1265 1.74528 89.1635 1.816 89.2108 1.93914C89.6038 2.95668 90.7511 7.5385 90.2282 7.87712C89.6408 8.25652 87.9337 8.30228 87.662 7.72903C87.3902 7.15495 86.3986 1.92333 86.3986 1.92333C86.3986 1.92333 86.2963 1.08634 87.6499 0.538885C88.4876 0.200261 89.1059 1.74029 89.1059 1.74029Z" fill="#FFBE9D"/>
<path d="M96.4984 7.54608C96.5776 7.51945 96.4116 6.50025 96.1269 5.26972C95.8423 4.0392 95.5473 3.06326 95.4673 3.08989C95.3873 3.11651 95.5542 4.13571 95.8388 5.36707C96.1243 6.59677 96.4193 7.5727 96.4984 7.54608Z" fill="#EB996E"/>
<path d="M93.7207 8.2549C93.8033 8.23743 93.5444 6.79308 93.1428 5.03007C92.7412 3.26623 92.3481 1.85183 92.2656 1.8693C92.183 1.88677 92.4419 3.33029 92.8435 5.09413C93.2451 6.85714 93.6381 8.27238 93.7207 8.2549Z" fill="#EB996E"/>
<g opacity="0.78">
<path d="M90.8345 8.7339C90.917 8.71643 90.6582 7.27208 90.2566 5.50907C89.8549 3.74523 89.4619 2.33083 89.3794 2.3483C89.2968 2.36578 89.5557 3.8093 89.9573 5.57314C90.3589 7.33614 90.7519 8.75137 90.8345 8.7339Z" fill="#EB996E"/>
</g>
<path d="M93.0722 14.688L89.9384 12.2386C88.5684 11.1678 87.6792 9.62613 87.4564 7.93634L87.2861 6.64507L96.698 4.80469C96.698 4.80469 96.7435 8.20424 94.0337 8.24584L97.3662 9.87822L93.0722 14.688Z" fill="#FFBE9D"/>
<path d="M96.95 10.5668C96.9061 10.5926 96.7015 10.1966 96.1347 9.68741C95.5809 9.19237 94.5807 8.58002 93.258 8.56504L92.2492 8.55339L93.1978 8.21393C93.8755 7.97182 94.6117 7.70891 95.3891 7.43102L95.3461 7.45099C96.1399 6.97675 96.8451 6.10065 96.7092 5.09227C96.6989 5.01656 96.6817 4.9292 96.6653 4.87845L96.9311 5.01989C94.2926 5.64971 91.9001 6.18386 90.1517 6.47256C89.2788 6.62066 88.5693 6.718 88.0774 6.77041C87.5855 6.82283 87.312 6.83447 87.3077 6.80619C87.2982 6.74379 88.3681 6.54661 90.0915 6.17553C91.8167 5.81195 94.1851 5.23288 96.8253 4.59889L97.03 4.5498L97.0902 4.74034C97.1246 4.84683 97.1383 4.93585 97.1538 5.03652C97.2286 5.63307 97.0661 6.23128 96.7513 6.70136C96.4443 7.18059 96.0074 7.52587 95.5749 7.79627L95.5542 7.80958L95.5319 7.81707C94.7484 8.07832 94.0062 8.32626 93.3234 8.55422L93.264 8.20395C94.7174 8.26385 95.7486 8.97688 96.2861 9.54014C96.8356 10.1217 96.9741 10.5593 96.95 10.5668Z" fill="#EB996E"/>
<path d="M96.3764 6.33625C96.4504 6.29133 96.6077 6.74643 97.0868 7.16742C97.3241 7.35629 97.73 7.49356 98.0285 7.29971C98.3441 7.10419 98.4911 6.65657 98.4464 6.16652C98.3346 5.13734 98.277 4.16722 98.1755 3.50246C98.0766 2.82854 97.9683 2.41254 98.0319 2.39174C98.0844 2.37343 98.3019 2.75865 98.486 3.44255C98.6735 4.13478 98.7775 5.07328 98.8936 6.14323C98.9461 6.68902 98.7689 7.35046 98.2409 7.64249C97.6819 7.93952 97.1323 7.65414 96.8735 7.39455C96.5948 7.115 96.4908 6.83296 96.4237 6.64742C96.3618 6.45773 96.3489 6.3479 96.3764 6.33625Z" fill="#EB996E"/>
<path d="M64.2279 36.5174C66.5189 36.3884 68.6405 37.7313 70.2195 39.3428C71.7976 40.9544 73.0196 42.8738 74.6571 44.4289C75.8791 45.5895 77.3592 46.5812 78.0997 48.0755C79.277 50.4517 78.2914 53.5243 79.7758 55.7341C80.6117 56.9787 82.0935 57.7059 82.9561 58.9339C84.0354 60.4706 83.9563 62.4891 83.712 64.3328C83.5426 65.6124 83.2751 66.9644 82.3661 67.9087C81.6558 68.6467 80.6461 69.0344 79.6588 69.3606C72.2095 71.8183 63.9724 71.9889 56.4208 69.8406" fill="#263238"/>
<path d="M48.4606 51.3519C47.6359 44.9813 52.3986 39.1598 59.0851 38.5432C65.3871 37.9625 70.9875 42.5019 71.9317 48.558C72.7599 53.8662 73.4711 59.2251 73.4462 61.172C73.3688 67.0409 69.8196 69.3256 68.3808 70.012C68.0523 70.1684 67.1467 70.3464 66.7846 70.3964C66.7623 70.3997 66.7468 70.4205 66.7511 70.4421L68.0979 77.1797C68.7085 81.5934 66.1611 85.5304 61.6066 86.1736C57.0357 86.8184 53.4632 83.428 52.7658 79.0101L48.4606 51.3519Z" fill="#FFBE9D"/>
<path d="M70.886 51.9902C70.7854 52.1275 69.9848 51.7115 68.9579 51.8587C67.9302 51.9918 67.2534 52.6092 67.1244 52.5035C67.0616 52.4578 67.1493 52.2231 67.4426 51.9461C67.7307 51.6707 68.2484 51.3687 68.8883 51.2813C69.5281 51.1948 70.1009 51.3462 70.4449 51.5359C70.7966 51.7256 70.9368 51.9278 70.886 51.9902Z" fill="#263238"/>
<path d="M61.7503 53.9052C61.6496 54.0425 60.8481 53.6273 59.8221 53.7746C58.7944 53.9077 58.1176 54.525 57.9878 54.4186C57.925 54.3728 58.0118 54.1382 58.306 53.8611C58.5941 53.5857 59.1118 53.2837 59.7516 53.1963C60.3915 53.1098 60.9642 53.2612 61.3091 53.4509C61.6591 53.6406 61.8001 53.8428 61.7503 53.9052Z" fill="#263238"/>
<path d="M65.3029 58.6013C65.29 58.5456 65.9118 58.3492 66.9274 58.0747C67.1854 58.0115 67.4262 57.9258 67.4443 57.7469C67.4787 57.5547 67.3273 57.2968 67.1562 57.0197C66.8173 56.4406 66.4622 55.8333 66.0898 55.1976C64.5985 52.5993 63.478 50.4477 63.5872 50.3903C63.6955 50.3329 64.9933 52.393 66.4845 54.9913C66.8457 55.6328 67.1914 56.2443 67.52 56.83C67.6627 57.1037 67.8829 57.4074 67.8063 57.8068C67.7642 58.0065 67.5922 58.1712 67.4314 58.2386C67.2706 58.3118 67.1235 58.3351 66.9954 58.3609C65.9608 58.5614 65.3158 58.6571 65.3029 58.6013Z" fill="#263238"/>
<path d="M66.7425 70.4012C66.7425 70.4012 62.8252 71.2757 57.4313 69.0908C57.4313 69.0908 59.7601 73.9405 67.1054 72.2166L66.7425 70.4012Z" fill="#EB996E"/>
<path d="M65.2298 61.0564C64.7895 60.6363 64.1032 60.4682 63.4711 60.6255C63.0325 60.7345 62.6137 61.0057 62.3961 61.3951C62.1785 61.7844 62.1966 62.2911 62.4933 62.5907C62.8269 62.9284 63.4195 62.9334 63.889 62.7304C64.3586 62.5266 64.7336 62.1547 65.087 61.7878C65.1851 61.6863 65.2848 61.5806 65.3364 61.4525C65.388 61.3244 65.3794 61.1688 65.2788 61.0831" fill="#EB996E"/>
<path d="M62.3849 59.7141C62.5509 59.6816 62.7152 60.7591 63.785 61.3897C64.8531 62.0237 66.0227 61.735 66.0545 61.884C66.0803 61.9497 65.8215 62.1311 65.3218 62.2143C64.8325 62.3 64.0912 62.2484 63.4367 61.8623C62.784 61.4746 62.4391 60.8839 62.335 60.4471C62.2232 60.0036 62.3075 59.7183 62.3849 59.7141Z" fill="#263238"/>
<path d="M61.0424 50.6722C60.9822 50.9567 59.9373 50.9734 58.754 51.2837C57.5637 51.5707 56.6435 52.0491 56.4475 51.8295C56.3589 51.7238 56.4896 51.4459 56.8431 51.1289C57.1931 50.8128 57.777 50.4775 58.4882 50.2969C59.1995 50.1181 59.8789 50.1364 60.3433 50.247C60.812 50.3569 61.0665 50.5382 61.0424 50.6722Z" fill="#263238"/>
<path d="M69.8488 48.9274C69.7018 49.1786 68.9596 49.0438 68.1073 49.1528C67.2508 49.2327 66.5593 49.5264 66.3581 49.3134C66.2687 49.2094 66.3478 48.9673 66.6299 48.7094C66.9076 48.4531 67.4004 48.206 67.9878 48.1403C68.5752 48.0762 69.1127 48.2094 69.4429 48.3982C69.7783 48.5871 69.9116 48.8059 69.8488 48.9274Z" fill="#263238"/>
<path d="M73.1228 47.2426C71.8672 49.0963 67.8828 47.9515 65.4765 46.6777C62.9421 48.3026 59.4204 47.597 57.6651 45.1127C56.2883 46.8091 53.4924 46.2484 52.4724 44.3364C51.4525 42.4245 52.027 39.7937 53.427 38.1214C54.828 36.4491 56.8765 35.6046 58.8992 35.2427C63.6954 34.3857 68.9199 36.1845 71.7898 40.3803C73.1133 42.3163 73.9079 44.9238 73.1228 47.2426Z" fill="#263238"/>
<path d="M53.7848 37.9899C49.2733 37.1562 44.9174 41.5076 44.4659 44.6218C43.6824 50.0273 44.4375 50.7012 43.4158 53.2937C42.7528 54.9768 40.4574 56.7032 39.551 58.4388C38.5766 60.3058 38.5809 63.4591 39.2577 65.4451C39.8288 67.1207 42.1568 71.7966 42.1568 71.7966C42.1568 71.7966 48.8691 71.5844 52.3022 70.7349C53.1588 70.5228 54.0712 70.2132 54.7257 69.6383C55.375 69.0676 54.0308 67.0841 54.1538 66.2438C54.5055 63.8476 56.3605 62.4623 55.8299 60.0978C55.1256 56.9578 52.5731 56.7972 52.629 53.5849C52.6591 51.8793 55.2855 49.4316 55.5272 47.7418C55.7697 46.0503 56.7828 40.1664 53.7848 37.9899Z" fill="#263238"/>
<path d="M46.1498 71.9898C46.1739 71.9665 45.823 71.627 45.2571 70.9614C44.6955 70.2958 43.9207 69.2858 43.2593 67.8913C42.61 66.5069 42.0768 64.694 42.2832 62.683C42.469 60.6995 43.3832 58.4914 45.2528 57.0296C46.1816 56.2999 47.2446 55.7516 48.1493 55.0178C49.079 54.3089 49.7266 53.3072 50.0284 52.3055C50.3518 51.3037 50.4601 50.3212 50.5848 49.4226C50.7061 48.5224 50.8471 47.692 51.0982 46.9715C51.5695 45.5072 52.5964 44.6261 53.3927 44.3C54.2037 43.958 54.7283 44.0812 54.7232 44.0296C54.7249 44.0204 54.6028 43.9871 54.3628 43.9805C54.1246 43.9713 53.7625 44.0013 53.3343 44.1619C52.482 44.4564 51.3588 45.3649 50.8334 46.8825C50.5539 47.6255 50.3948 48.4758 50.2589 49.3777C50.1196 50.2787 49.9992 51.2422 49.6801 52.1965C49.3748 53.1566 48.7892 54.051 47.8999 54.7283C47.0339 55.4263 45.9726 55.9721 45.0017 56.7317C43.0297 58.2759 42.0915 60.593 41.9186 62.6514C41.726 64.743 42.3091 66.6076 43.0048 68.0062C43.7134 69.4172 44.5364 70.4164 45.1393 71.0588C45.4403 71.3824 45.6914 71.6179 45.8669 71.7709C46.0432 71.924 46.1403 71.9997 46.1498 71.9898Z" fill="#455A64"/>
<path d="M78.9691 69.1631C78.9811 69.1698 79.0387 69.0891 79.1376 68.9293C79.2434 68.7721 79.3664 68.5241 79.5169 68.1997C79.7964 67.5465 80.1 66.5348 80.1017 65.2527C80.1077 63.9822 79.7912 62.4206 78.8392 60.9779C78.3731 60.2491 77.7341 59.6126 77.1433 58.9245C76.5525 58.2406 76.0004 57.481 75.7991 56.5766C75.3975 54.7537 76.015 52.9167 75.8877 51.2227C75.8241 49.5329 75.3364 48.032 74.6484 46.9387C73.9656 45.8363 73.1477 45.1341 72.5492 44.7306C72.2465 44.5293 72.0039 44.3861 71.8294 44.3054C71.6582 44.2189 71.5662 44.1798 71.5593 44.1915C71.5387 44.2256 71.8939 44.4128 72.4563 44.8496C73.0162 45.2822 73.779 45.9944 74.4059 47.0743C75.0397 48.146 75.4809 49.597 75.5231 51.236C75.5575 52.0555 75.456 52.9092 75.3579 53.8135C75.2668 54.7129 75.1808 55.683 75.413 56.6631C75.634 57.654 76.2412 58.4752 76.8457 59.1658C77.4538 59.8638 78.0841 60.4845 78.5322 61.1701C79.4567 62.5337 79.7921 64.028 79.8213 65.2569C79.8549 66.4966 79.6029 67.4908 79.3724 68.1472C79.1316 68.8037 78.9355 69.1448 78.9691 69.1631Z" fill="#455A64"/>
<path d="M59.8642 35.9058C59.8693 35.9874 60.9976 35.7777 62.7744 36.0639C64.5185 36.3468 66.9747 37.227 68.803 39.2014C70.5901 41.2048 71.4019 43.5785 71.6986 45.2725C71.9979 46.9931 71.7691 48.0797 71.8474 48.0863C71.8698 48.0905 71.9446 47.8251 72.0108 47.3325C72.0701 46.84 72.0899 46.1161 71.9755 45.2325C71.7408 43.4837 70.9599 41.0351 69.0988 38.9468C67.1836 36.8801 64.6165 36.0173 62.8157 35.7952C61.9015 35.6795 61.1533 35.7045 60.6451 35.7602C60.1351 35.8135 59.8607 35.8842 59.8642 35.9058Z" fill="#455A64"/>
<path d="M66.3494 44.5321C66.3718 44.5346 66.4234 44.3016 66.4449 43.8715C66.4681 43.4421 66.432 42.8132 66.2497 42.0594C65.9091 40.5717 64.7937 38.515 62.6454 37.2795C60.486 36.0606 58.0866 36.1139 56.5755 36.5474C55.8058 36.7587 55.2193 37.0324 54.8435 37.2604C54.466 37.4867 54.2802 37.6439 54.2931 37.6614C54.3318 37.7305 55.1342 37.1531 56.6452 36.8094C58.1227 36.4575 60.4051 36.4575 62.4442 37.6098C64.4738 38.7763 65.5806 40.7074 65.9788 42.1284C66.401 43.5736 66.2677 44.5329 66.3494 44.5321Z" fill="#455A64"/>
<path d="M46.8817 110.228C46.8817 110.228 49.8555 116.79 49.6844 119.893C49.5133 122.997 46.4456 133.077 46.4456 133.077L82.8116 136.369L82.9793 128.232L81.8845 94.7602L102.161 64.9164L86.8158 56.3135L71.8999 75.8721L68.1245 74.4561L51.8103 76.457V79.2459L51.3433 79.3008C51.3433 79.3008 46.1575 80.2127 41.1781 83.1538C35.3026 86.6241 32.2961 93.2743 33.39 99.8496C34.0539 103.84 35.3396 108.69 37.8164 111.493C42.5541 116.855 46.8817 110.228 46.8817 110.228Z" fill="#E8505B"/>
<path d="M41.7243 94.6055C41.7243 94.6055 39.8633 84.3869 40.4025 83.6522C41.044 82.7786 48.686 79.5995 48.8021 79.9223L50.4808 91.156L41.7243 94.6055Z" fill="#FAFAFA"/>
<path d="M72.7177 95.1738L71.8483 114.769H79.4962V95.1738H72.7177Z" fill="#FAFAFA"/>
<path d="M60.0638 104.972C60.0543 104.962 60.2022 104.952 60.4972 104.942C60.8404 104.932 61.2755 104.921 61.8139 104.907C63.042 104.888 64.7379 104.862 66.8423 104.83L66.9876 104.828L66.9894 104.972C67.0358 109.677 67.0659 116.706 67.0668 124.567V124.783H66.8432C66.703 124.783 66.5525 124.783 66.4003 124.783C63.8899 124.781 61.4596 124.778 59.1943 124.776H58.9673L58.9785 124.558C59.2691 118.908 59.5211 114.005 59.7043 110.452C59.8049 108.76 59.8858 107.394 59.9451 106.393C59.9761 105.96 60.001 105.607 60.0208 105.324C60.0406 105.083 60.0552 104.962 60.0638 104.972C60.0724 104.981 60.0758 105.119 60.0732 105.376C60.0672 105.671 60.0603 106.04 60.0517 106.492C60.0216 107.504 59.9812 108.889 59.9305 110.602C59.7998 114.121 59.6183 118.979 59.4102 124.577L59.1943 124.359C61.4596 124.356 63.8899 124.354 66.4003 124.351C66.5516 124.351 66.703 124.351 66.8432 124.351L66.6196 124.568C66.6204 116.708 66.6505 109.678 66.697 104.972L66.8432 105.114C64.7749 105.081 63.1082 105.056 61.9007 105.037C61.3495 105.023 60.904 105.012 60.5523 105.002C60.2409 104.991 60.0732 104.982 60.0638 104.972Z" fill="#FAFAFA"/>
<path d="M89.5583 83.0464L81.4846 78.1135L88.5753 68.1104L96.8408 72.7471L89.5583 83.0464Z" fill="#FAFAFA"/>
<g opacity="0.4">
<path d="M81.4846 83.6523H57.8105V91.0796H81.4846V83.6523Z" fill="white"/>
</g>
<path d="M81.1398 103.863C81.1097 103.857 81.126 103.612 81.1811 103.175C81.2404 102.739 81.3135 102.108 81.3866 101.327C81.5345 99.7672 81.6119 97.599 81.3892 95.2203C81.1604 92.8416 80.6754 90.7234 80.2359 89.2158C79.7982 87.7065 79.449 86.7921 79.5161 86.7655C79.5445 86.7547 79.6614 86.971 79.8489 87.3754C80.0407 87.7772 80.2789 88.3754 80.5386 89.1259C81.0607 90.626 81.6025 92.7668 81.8347 95.1804C82.0608 97.5932 81.931 99.7947 81.7005 101.361C81.587 102.145 81.4649 102.776 81.3522 103.204C81.2447 103.634 81.1707 103.869 81.1398 103.863Z" fill="#263238"/>
<path d="M92.6207 59.5674C92.6672 59.6073 92.1348 60.2613 91.2378 61.2871C90.3409 62.3121 89.0793 63.7091 87.6646 65.2333C87.1348 65.799 86.6248 66.344 86.1467 66.8548L86.0211 66.9888L85.8689 66.889C84.5703 66.0362 83.46 65.289 82.6817 64.7441C81.9034 64.1999 81.4571 63.858 81.4846 63.818C81.5121 63.7773 82.0101 64.0444 82.8296 64.5286C83.6492 65.0128 84.7904 65.7142 86.1054 66.5445L85.8276 66.5786C86.3014 66.0636 86.8063 65.5145 87.3309 64.9437C88.7456 63.4195 90.045 62.055 91.0022 61.0824C91.9594 60.109 92.5752 59.5274 92.6207 59.5674Z" fill="#FAFAFA"/>
<path d="M100.985 66.6471C100.956 66.6996 100.046 66.2869 98.5986 65.5772C97.1512 64.8675 95.1672 63.8599 92.988 62.7243C90.8087 61.5878 88.8479 60.5386 87.4392 59.759C86.0306 58.9803 85.174 58.4719 85.2032 58.4195C85.2325 58.3671 86.1424 58.7798 87.5897 59.4894C89.0371 60.1991 91.0211 61.2067 93.2012 62.3424C95.3796 63.4781 97.3404 64.528 98.7491 65.3068C100.158 66.0864 101.014 66.5947 100.985 66.6471Z" fill="#263238"/>
<path d="M19.1819 270.688L15.2836 287.735L8.18168 300.358C7.66998 301.268 8.06128 302.407 9.0348 302.839C9.58004 303.082 10.207 303.056 10.7256 302.765C14.0297 300.918 26.1488 294.066 26.3621 292.803C26.6089 291.34 31.7078 275.085 31.7078 275.085L19.1819 270.688Z" fill="#E8505B"/>
<g opacity="0.6">
<path d="M9.03479 302.839L26.6528 291.659L26.4704 292.377C26.313 292.998 25.9355 293.546 25.3997 293.92C23.9661 294.921 19.9448 297.602 10.7789 302.778C10.2457 303.08 9.58863 303.103 9.03479 302.839Z" fill="white"/>
</g>
<g opacity="0.6">
<path d="M24.4425 285.336C23.9291 285.526 23.6221 286.134 23.7967 286.638C23.9713 287.142 24.6085 287.449 25.1254 287.269C25.6422 287.088 26.0335 286.368 25.8013 285.886C25.5691 285.404 24.8012 285.083 24.3445 285.378" fill="white"/>
</g>
<path d="M14.9197 296.381C14.8088 296.405 14.6385 295.423 13.7174 294.697C12.8187 293.946 11.7902 293.955 11.7945 293.846C11.7902 293.801 12.0447 293.722 12.4696 293.762C12.891 293.801 13.4698 293.997 13.9729 294.404C14.4742 294.812 14.7752 295.329 14.887 295.723C15.0023 296.121 14.9662 296.378 14.9197 296.381Z" fill="#263238"/>
<path d="M13.0957 298.356C12.9933 298.409 12.5711 297.724 11.7283 297.258C10.8958 296.774 10.0719 296.751 10.0711 296.639C10.0427 296.54 10.9775 296.381 11.9295 296.927C12.8858 297.465 13.198 298.332 13.0957 298.356Z" fill="#263238"/>
<path d="M17.9813 294.023C17.879 294.084 17.234 293.028 15.9887 292.191C14.7572 291.335 13.5128 291.101 13.5377 290.988C13.5326 290.89 14.8939 290.964 16.2175 291.878C17.5505 292.778 18.0777 293.995 17.9813 294.023Z" fill="#263238"/>
<path d="M19.6137 288.937C19.5415 289.027 18.672 288.406 17.4233 288.063C16.1789 287.704 15.1013 287.776 15.0901 287.662C15.0626 287.567 16.1961 287.312 17.5334 287.695C18.8758 288.067 19.6894 288.871 19.6137 288.937Z" fill="#263238"/>
<path d="M20.889 283.96C20.8099 284.045 19.98 283.249 18.6341 282.992C17.2942 282.706 16.2037 283.114 16.1668 283.005C16.147 282.963 16.3921 282.796 16.8539 282.666C17.3123 282.534 17.9917 282.472 18.7149 282.617C19.4373 282.764 20.035 283.085 20.3997 283.383C20.7695 283.681 20.9243 283.929 20.889 283.96Z" fill="#263238"/>
<path d="M18.905 282.052C18.8826 282.047 18.9007 281.81 19.0434 281.405C19.1862 281.003 19.4631 280.428 19.9963 279.85C20.2655 279.579 20.5656 279.222 21.1109 279.114C21.3826 279.059 21.7344 279.189 21.8849 279.463C22.0354 279.73 22.0302 280.024 21.9683 280.294C21.6768 281.366 20.4581 282.18 19.1673 282.038C17.8773 281.873 16.9149 280.909 16.6526 279.861C16.6045 279.595 16.6045 279.282 16.8135 279.028C17.0207 278.771 17.406 278.74 17.6459 278.841C18.1473 279.04 18.4019 279.408 18.653 279.696C19.138 280.309 19.3866 280.891 19.5147 281.297C19.6437 281.705 19.6583 281.942 19.6351 281.946C19.562 281.976 19.4038 281.009 18.4337 279.865C18.1843 279.597 17.9031 279.264 17.5367 279.141C17.3587 279.08 17.1833 279.113 17.0826 279.24C16.9812 279.36 16.964 279.583 17.0104 279.794C17.2383 280.654 18.1198 281.534 19.2129 281.657C20.299 281.787 21.3697 281.07 21.6123 280.209C21.6673 280.001 21.6639 279.777 21.5796 279.627C21.497 279.478 21.3328 279.404 21.1556 279.429C20.7806 279.48 20.4616 279.782 20.1993 280.034C19.1475 281.105 18.9789 282.088 18.905 282.052Z" fill="#263238"/>
<g opacity="0.3">
<path d="M18.727 272.538L18.2032 274.967L30.644 278.495L31.7078 275.086L19.1819 270.688L18.727 272.538Z" fill="black"/>
</g>
<path d="M76.1964 276.997L75.1429 290.619C75.1429 290.619 89.1016 296.23 89.1601 298.766L61.7854 297.738L62.5267 276.448L76.1964 276.997Z" fill="#E8505B"/>
<g opacity="0.6">
<path d="M66.7244 289.154C66.1887 289.274 65.7999 289.837 65.9023 290.359C66.0046 290.882 66.592 291.269 67.1295 291.159C67.667 291.047 68.1555 290.386 67.9938 289.878C67.8321 289.37 67.1157 288.952 66.6212 289.184" fill="white"/>
</g>
<g opacity="0.6">
<path d="M61.7854 297.738L61.9471 295.595L88.1332 297.381C88.1332 297.381 89.3312 297.94 89.1601 298.766L61.7854 297.738Z" fill="white"/>
</g>
<path d="M75.5919 290.501C75.5824 290.63 74.9116 290.664 74.2374 291.055C73.552 291.429 73.1908 291.976 73.0695 291.92C72.9474 291.89 73.1779 291.125 74.0026 290.665C74.8239 290.199 75.6254 290.383 75.5919 290.501Z" fill="#263238"/>
<path d="M78.4169 291.757C78.4427 291.883 77.8545 292.081 77.3789 292.611C76.887 293.128 76.7485 293.715 76.6161 293.705C76.4897 293.72 76.4278 292.959 77.0323 292.311C77.6309 291.658 78.4195 291.634 78.4169 291.757Z" fill="#263238"/>
<path d="M79.9142 295.143C79.7921 295.167 79.6313 294.513 80.0037 293.818C80.37 293.12 81.0116 292.864 81.0641 292.974C81.1354 293.083 80.714 293.448 80.4182 294.023C80.1077 294.592 80.0475 295.135 79.9142 295.143Z" fill="#263238"/>
<path d="M75.4757 287.371C75.4147 287.486 74.8092 287.285 74.0516 287.306C73.2939 287.312 72.6962 287.535 72.6308 287.422C72.5569 287.326 73.1503 286.869 74.043 286.856C74.9348 286.836 75.5454 287.271 75.4757 287.371Z" fill="#263238"/>
<g opacity="0.3">
<path d="M75.984 279.694L75.8 282.122L62.3505 281.499L62.4408 278.691L75.984 279.694Z" fill="black"/>
</g>
<path d="M75.6366 284.619C75.6357 284.672 75.1043 284.733 74.2658 284.56C73.8487 284.475 73.3593 284.322 72.8485 284.08C72.5939 283.959 72.3342 283.815 72.0779 283.647C71.9549 283.564 71.8087 283.479 71.6763 283.32C71.5335 283.179 71.463 282.833 71.6427 282.629C71.7915 282.431 72.0426 282.352 72.2404 282.356C72.4425 282.356 72.6042 282.402 72.7522 282.444C73.054 282.527 73.3361 282.635 73.5932 282.759C74.1075 283.009 74.5203 283.316 74.8256 283.609C75.4379 284.203 75.6349 284.693 75.5884 284.717C75.5265 284.757 75.2332 284.341 74.6054 283.847C74.2924 283.601 73.8908 283.344 73.4092 283.134C73.1684 283.031 72.9078 282.94 72.6318 282.87C72.3445 282.785 72.0986 282.774 72.0186 282.896C71.9893 282.942 71.985 282.96 72.0427 283.045C72.102 283.123 72.2164 283.202 72.3376 283.284C72.5733 283.446 72.8124 283.588 73.0463 283.712C73.515 283.959 73.9648 284.133 74.3518 284.253C75.1266 284.494 75.6418 284.549 75.6366 284.619Z" fill="#263238"/>
<path d="M75.4543 284.797C75.4061 284.816 75.1593 284.342 75.1438 283.503C75.1378 283.087 75.2023 282.585 75.3889 282.058C75.4835 281.795 75.6091 281.527 75.7708 281.266C75.9419 281.01 76.1517 280.667 76.672 280.629C76.9429 280.629 77.1605 280.843 77.2302 281.02C77.3136 281.202 77.3256 281.357 77.3514 281.512C77.3893 281.823 77.3712 282.126 77.3162 282.405C77.2078 282.966 76.9498 283.426 76.6755 283.753C76.113 284.42 75.5489 284.553 75.5394 284.509C75.4973 284.442 75.9737 284.21 76.4089 283.566C76.6239 283.248 76.82 282.826 76.8922 282.336C76.9292 282.092 76.9352 281.832 76.8974 281.569C76.8655 281.286 76.7658 281.055 76.6557 281.08C76.5198 281.073 76.2799 281.276 76.1586 281.497C76.009 281.729 75.8869 281.968 75.7905 282.203C75.5996 282.676 75.5067 283.131 75.4723 283.517C75.4044 284.291 75.5282 284.78 75.4543 284.797Z" fill="#263238"/>
<path d="M41.5135 102.523L48.5973 102.902C49.0454 105.124 50.6003 108.521 50.6003 108.521C56.3021 98.9462 60.7225 86.1176 61.8198 80.9617C61.6599 80.4467 61.4707 79.8767 61.2342 79.2403C60.9616 78.5056 61.1955 77.1137 61.3245 76.3407C61.5154 75.1926 61.8474 73.6484 61.9471 72.9337C62.2507 70.7555 62.6136 70.4127 63.3988 70.6598C64.4669 70.9951 62.9611 76.7784 63.8365 76.9032C64.307 76.9706 64.8823 74.9896 65.0491 73.3638C65.216 71.7381 65.9762 66.7378 66.5309 66.4042C67.3453 65.9158 68.0548 66.6887 67.8493 68.3078C67.6412 69.946 67.3789 74.8323 68.2664 74.898C69.141 74.9629 69.8755 66.6729 69.8755 66.6729C69.8755 66.6729 69.737 64.8691 70.7656 64.9124C72.6197 64.9906 71.1715 73.7307 71.0124 74.5586C70.9014 75.1343 71.8646 75.24 71.9498 74.6152C72.0366 73.972 72.4847 66.3243 74.3724 66.3859C75.8215 66.4333 73.2501 73.5885 74.0637 75.2475C74.8772 76.9057 75.4431 69.614 76.8268 69.7147C77.342 69.7521 77.723 69.8495 76.7761 73.9762C76.2678 76.1943 74.7732 80.2719 73.4677 83.6482C71.2747 95.0907 61.6513 131.695 46.5634 124.994C38.1208 121.245 34.1812 102.682 34.1812 102.682L41.5135 102.523Z" fill="#FFBE9D"/>
<path d="M73.4668 83.6523C73.46 83.6498 73.484 83.5649 73.5391 83.4018C73.6036 83.2171 73.687 82.98 73.7919 82.6813C74.0276 82.0215 74.3578 81.0972 74.7792 79.9191C75.1997 78.7177 75.7157 77.2467 76.23 75.5186C76.4932 74.6558 76.7056 73.7215 76.9051 72.7181C77.0014 72.2181 77.0995 71.7022 77.1597 71.1723C77.1846 70.9094 77.2139 70.6381 77.1975 70.3785C77.1777 70.1065 77.1339 69.8843 76.912 69.8802C76.6824 69.8203 76.5284 70.0033 76.3711 70.2346C76.2266 70.4667 76.1139 70.7346 76.0133 71.0084C75.8112 71.5575 75.653 72.1432 75.4964 72.7414C75.3391 73.3405 75.1937 73.9561 75.0062 74.5835C74.8927 74.9004 74.8428 75.2058 74.5737 75.5461C74.5229 75.5869 74.4782 75.6426 74.3759 75.6617C74.2649 75.6892 74.1824 75.6484 74.105 75.6027C74.0009 75.5136 73.951 75.4238 73.9054 75.3398C73.8246 75.1634 73.7747 74.9828 73.7532 74.8073C73.6242 73.407 73.9545 72.0533 74.1798 70.6481C74.3036 69.9476 74.4352 69.2387 74.5298 68.5207C74.5754 68.1621 74.6149 67.8002 74.6192 67.4441C74.633 67.1138 74.5728 66.6662 74.4232 66.6038C74.2391 66.5364 73.9046 66.7385 73.7283 67.0347C73.5296 67.3259 73.3817 67.6712 73.2561 68.024C73.0059 68.7337 72.8425 69.4908 72.7014 70.2562C72.5638 71.0242 72.4563 71.8071 72.3686 72.6008C72.3282 72.9985 72.2878 73.3979 72.2474 73.7989L72.1932 74.4046C72.1777 74.5685 72.1777 74.9113 71.9068 75.1085C71.6565 75.2898 71.3211 75.3098 71.0537 75.1409C70.9195 75.0569 70.8146 74.9021 70.7948 74.744C70.7776 74.6642 70.7922 74.5901 70.7983 74.5202L70.8249 74.3713C70.8894 73.9661 70.9531 73.5601 71.0176 73.1516C71.1362 72.3329 71.2394 71.5042 71.322 70.6689C71.4028 69.8336 71.463 68.9899 71.4759 68.1438C71.4777 67.306 71.4708 66.429 71.2222 65.6611C71.1405 65.4281 71.0072 65.2168 70.8585 65.1561C70.7054 65.1028 70.4844 65.1569 70.3717 65.3067C70.1223 65.6469 70.0802 66.206 70.0999 66.662L70.1008 66.6845L70.0999 66.6969C69.946 68.3368 69.7611 69.9484 69.5177 71.5317C69.3922 72.3237 69.258 73.1075 69.0525 73.8821C69.0009 74.0759 68.9398 74.269 68.8693 74.4628C68.7738 74.6567 68.7472 74.853 68.4608 75.0652C68.2122 75.18 68.0291 75.0494 67.931 74.9529C67.8252 74.8464 67.7831 74.7407 67.7341 74.6375C67.6507 74.432 67.6094 74.234 67.5724 74.036C67.3436 72.4627 67.4382 70.9501 67.5294 69.4658C67.5595 68.7195 67.7478 67.9815 67.6464 67.3268C67.5973 67.0023 67.4666 66.677 67.2439 66.5322C67.1347 66.4623 67.0091 66.4465 66.8741 66.4773C66.807 66.4972 66.7391 66.5205 66.6728 66.5596C66.6075 66.6121 66.6212 66.5921 66.5714 66.6803C66.291 67.2502 66.1543 67.9707 66.0029 68.623C65.861 69.2903 65.7397 69.9542 65.6297 70.6098C65.5204 71.2654 65.4224 71.9127 65.3364 72.5509C65.247 73.1832 65.2014 73.8247 65.0732 74.4478C64.9503 75.0685 64.8023 75.6734 64.5684 76.2525C64.5091 76.3972 64.4411 76.5403 64.3603 76.6809C64.2597 76.8124 64.2029 76.983 63.926 77.0645C63.7686 77.1069 63.6319 77.0021 63.5605 76.9156C63.5003 76.8257 63.4702 76.74 63.447 76.6576C63.41 76.4962 63.3945 76.3431 63.3885 76.1934C63.373 75.0045 63.5553 73.9137 63.6164 72.8612C63.6499 72.3387 63.6749 71.822 63.6121 71.3453C63.5794 71.1215 63.5055 70.8586 63.373 70.8062C63.1804 70.7313 62.9301 70.6922 62.7856 70.7937C62.4666 71.0158 62.3556 71.5267 62.2516 71.9352C62.1492 72.3662 62.1037 72.7947 62.0211 73.2073C61.721 74.8572 61.4036 76.2749 61.2497 77.4331C61.1792 78.0121 61.1508 78.5346 61.2265 78.9698C61.3271 79.3924 61.4724 79.7652 61.5567 80.0589C61.6418 80.3367 61.7098 80.5589 61.764 80.7328C61.8078 80.885 61.8276 80.9641 61.8199 80.9666C61.813 80.9682 61.7794 80.8933 61.7218 80.7453C61.6582 80.5747 61.5765 80.3575 61.475 80.0846C61.3752 79.7876 61.2247 79.4473 61.1009 78.9922C61.0072 78.5355 61.0244 78.003 61.0828 77.4148C61.2136 76.2358 61.5051 74.8289 61.782 73.1749C61.8586 72.7639 61.8998 72.3271 61.9987 71.8828C62.0503 71.6606 62.1002 71.4343 62.1879 71.2064C62.2791 70.9867 62.3771 70.733 62.6394 70.5666C62.9189 70.3985 63.2285 70.4592 63.4908 70.5558C63.8288 70.743 63.8409 71.0566 63.9002 71.3029C63.9733 71.8245 63.9509 72.3462 63.9217 72.8779C63.8692 73.937 63.6981 75.0502 63.723 76.1767C63.7291 76.3157 63.7463 76.4521 63.7746 76.5761C63.8056 76.7117 63.877 76.7633 63.8624 76.7375C63.8882 76.7425 63.9974 76.6219 64.0602 76.512C64.1281 76.3922 64.1892 76.2624 64.2433 76.1268C64.4583 75.5827 64.602 74.9878 64.7172 74.3829C64.8376 73.7797 64.878 73.1508 64.9657 72.5035C65.0483 71.8603 65.1429 71.2097 65.2495 70.5491C65.357 69.8893 65.4749 69.2204 65.6159 68.544C65.7759 67.8642 65.8782 67.192 66.2196 66.4848C66.2403 66.4132 66.389 66.2543 66.4725 66.216C66.5636 66.1628 66.6668 66.1237 66.776 66.0937C66.9962 66.0372 67.2654 66.0679 67.4649 66.1986C67.8622 66.469 67.9869 66.89 68.054 67.2644C68.1142 67.6479 68.0936 68.0356 68.0488 68.4042C68.0058 68.7619 67.9757 69.1264 67.9482 69.4925C67.8605 70.9518 67.7771 72.481 67.9981 73.9611C68.0316 74.1417 68.0729 74.323 68.1366 74.4778C68.1692 74.5502 68.2079 74.6267 68.2441 74.6592C68.2621 74.6833 68.2742 74.6825 68.2802 74.6866L68.2828 74.6875L68.2836 74.69C68.2716 74.8539 68.2819 74.7241 68.2785 74.7565C68.2767 74.7266 68.269 74.7316 68.2492 74.6966C68.2862 74.6675 68.4014 74.4753 68.4582 74.3139C68.5218 74.1392 68.5786 73.9586 68.6276 73.7723C68.8237 73.0276 68.9561 72.2489 69.08 71.4651C69.3199 69.8951 69.5022 68.2852 69.6545 66.657V66.6911C69.6459 66.1545 69.6364 65.592 70.02 65.0363C70.2436 64.7617 70.6478 64.6136 71.0262 64.7517C71.4011 64.9214 71.5396 65.2459 71.6454 65.5155C71.9317 66.4082 71.9214 67.2835 71.924 68.1471C71.9102 69.0107 71.8483 69.8635 71.7658 70.7063C71.6823 71.55 71.5774 72.3836 71.4562 73.2082C71.3899 73.6208 71.3246 74.031 71.2592 74.4404C71.2059 74.6999 71.2188 74.7083 71.2988 74.7848C71.3856 74.848 71.5525 74.8389 71.6342 74.7715C71.7262 74.7116 71.7365 74.5901 71.7563 74.3638L71.8122 73.7581C71.8535 73.3546 71.8956 72.9519 71.9369 72.5525C72.0281 71.753 72.1381 70.9618 72.28 70.1822C72.4262 69.4034 72.5939 68.6338 72.8588 67.8884C72.9938 67.5164 73.1486 67.1487 73.3834 66.8059C73.503 66.637 73.6423 66.4681 73.8461 66.3433C74.0551 66.2269 74.2838 66.122 74.596 66.2385C74.8919 66.3949 74.9426 66.6603 74.9899 66.8533C75.0209 67.0564 75.0346 67.2552 75.0277 67.4466C75.0209 67.831 74.9787 68.202 74.9306 68.5689C74.8308 69.3011 74.6949 70.0116 74.5676 70.7122C74.3329 72.1024 74.0078 73.4852 74.1204 74.7557C74.1376 74.9121 74.1806 75.0552 74.2357 75.1817C74.2684 75.2449 74.3053 75.2973 74.3286 75.3206C74.332 75.3131 74.3225 75.3081 74.3105 75.3514C74.3045 75.408 74.3122 75.3389 74.3036 75.3481C74.2761 75.3048 74.2967 75.3173 74.3079 75.3015C74.4601 75.1209 74.5668 74.7707 74.6614 74.4828C74.8489 73.8746 74.9985 73.2581 75.161 72.6574C75.3227 72.0567 75.487 71.466 75.7011 70.8977C75.8086 70.614 75.9273 70.3344 76.0941 70.069C76.1853 69.9392 76.2747 69.8061 76.4227 69.6996C76.488 69.643 76.5852 69.6023 76.6798 69.5765C76.7925 69.5598 76.8828 69.5623 76.9567 69.5756C77.1261 69.5831 77.3558 69.7262 77.4125 69.8993C77.4822 70.0624 77.4977 70.2155 77.5054 70.3611C77.52 70.6556 77.4865 70.9301 77.4581 71.2039C77.391 71.7472 77.2861 72.2655 77.1838 72.7689C76.9739 73.7723 76.746 74.7199 76.47 75.5835C75.9307 77.3149 75.3898 78.7784 74.9435 79.9723C74.4945 81.1662 74.1299 82.0864 73.8771 82.7088C73.7549 83.0008 73.6578 83.2329 73.5829 83.4143C73.5133 83.5757 73.4746 83.6548 73.4668 83.6523Z" fill="#EB996E"/>
<path d="M34.1003 103.316C35.4703 107.993 38.1475 115.22 41.0259 122.84C41.4422 123.941 43.0254 124.013 43.5431 122.953L50.5994 108.521C50.5994 108.521 48.9001 96.6649 49.0446 97.0826C49.189 97.5011 34.4865 98.6168 34.4865 98.6168L34.1003 103.316Z" fill="#E8505B"/>
<path d="M53.1726 104.463C53.1425 104.493 52.9885 104.328 52.6333 104.229C52.3005 104.133 51.6779 104.134 51.2711 104.579L51.0845 104.784L50.9787 104.524C50.6012 103.596 50.1307 102.384 49.638 101.058C48.5002 97.9944 47.672 95.4793 47.789 95.4385C47.9051 95.3977 48.9216 97.848 50.0594 100.911C50.5521 102.238 50.9864 103.462 51.3055 104.411L51.0131 104.355C51.2935 104.075 51.6478 103.957 51.9471 103.934C52.2498 103.907 52.5095 103.971 52.7004 104.052C53.0891 104.227 53.1949 104.452 53.1726 104.463Z" fill="#263238"/>
<path d="M43.1715 118.196C43.1182 118.166 43.513 117.386 44.1941 116.15C44.8761 114.914 45.8444 113.221 46.9383 111.364C48.0323 109.506 49.0445 107.837 49.797 106.639C50.5495 105.441 51.0414 104.715 51.0947 104.745C51.148 104.775 50.7533 105.554 50.0722 106.791C49.3902 108.027 48.4218 109.721 47.3279 111.578C46.234 113.435 45.2218 115.104 44.4701 116.302C43.7176 117.5 43.2257 118.225 43.1715 118.196Z" fill="#263238"/>
<path d="M38.476 116.027C38.4562 115.994 38.9034 115.696 39.7066 115.197C40.5107 114.699 41.6709 114 43.0761 113.168L42.9996 113.393C42.2187 111.622 41.3054 109.551 40.3224 107.324C39.1012 104.513 38.0073 101.941 37.2101 100.015L37.4457 100.093C36.3303 100.679 35.4221 101.147 34.7883 101.461C34.1545 101.776 33.7959 101.936 33.7795 101.909C33.7632 101.88 34.0917 101.667 34.6971 101.305C35.3034 100.943 36.1867 100.433 37.2823 99.812L37.4414 99.7222L37.5179 99.8902C38.3814 101.79 39.5149 104.346 40.7361 107.156C41.6932 109.394 42.5825 111.474 43.3436 113.253L43.4064 113.399L43.267 113.478C41.8403 114.276 40.6526 114.929 39.8167 115.375C38.9799 115.821 38.4958 116.058 38.476 116.027Z" fill="#FAFAFA"/>
<path d="M76.7391 280.428C79.3518 280.35 81.4725 278.366 81.6334 275.843C83.1074 252.813 89.7294 148.058 88.399 144.769C86.9043 141.073 82.9793 128.233 82.9793 128.233L47.8655 126.639C47.8655 126.639 39.1227 140 37.8645 145.114C36.7371 149.698 4.92394 246.67 0.967083 267.292C0.561163 269.41 1.86922 271.478 4.00116 272.099L76.7391 280.428Z" fill="#263238"/>
<path d="M54.7962 127.382C54.7962 127.382 54.7498 127.509 54.6389 127.746C54.5176 127.999 54.3508 128.347 54.1366 128.793C53.6808 129.729 53.0238 131.078 52.1818 132.806C51.7966 133.696 51.3683 134.683 50.9005 135.762C50.4275 136.841 49.9106 138.011 49.4428 139.303C48.9603 140.589 48.4142 141.953 47.8887 143.417C47.3925 144.893 46.8688 146.452 46.3192 148.088C45.8239 149.742 45.3053 151.475 44.7652 153.279C44.2561 155.093 43.7728 156.992 43.2464 158.951C42.7752 160.924 42.2876 162.964 41.7853 165.065C41.3278 167.177 40.8195 169.342 40.3663 171.577C39.4229 176.039 38.4984 180.738 37.5128 185.604C36.5144 190.468 35.4892 195.507 34.2543 200.632C33.6729 203.203 32.9832 205.718 32.3442 208.206C31.6407 210.677 30.9631 213.118 30.2097 215.491C28.715 220.241 27.0828 224.764 25.4126 229.029C22.0466 237.551 18.5662 245.047 15.5226 251.28C12.4731 257.511 9.87415 262.492 8.06729 265.927C7.16257 267.626 6.45565 268.952 5.96545 269.872C5.72723 270.307 5.54233 270.646 5.40731 270.892C5.27917 271.121 5.20349 271.233 5.20349 271.233C5.20349 271.233 5.25165 271.108 5.36689 270.872C5.49245 270.621 5.66445 270.277 5.88547 269.832C6.35761 268.904 7.03873 267.565 7.91163 265.85C9.67033 262.393 12.2245 257.392 15.2363 251.149C18.242 244.904 21.688 237.402 25.0274 228.886C26.6837 224.625 28.3039 220.107 29.79 215.366C30.5391 212.998 31.2133 210.562 31.9134 208.095C32.5506 205.612 33.2378 203.102 33.8183 200.534C35.0515 195.417 36.0792 190.382 37.0828 185.521C38.0744 180.657 39.0075 175.959 39.963 171.496C40.4222 169.261 40.9374 167.094 41.4018 164.981C41.9117 162.879 42.4079 160.837 42.887 158.864C43.4219 156.903 43.9147 155.003 44.4332 153.188C44.9845 151.383 45.5125 149.65 46.0174 147.996C46.5789 146.359 47.1139 144.801 47.6204 143.326C48.157 141.862 48.7152 140.499 49.2097 139.215C49.6887 137.925 50.2185 136.756 50.7044 135.682C51.186 134.607 51.6263 133.622 52.0236 132.736C52.8827 130.997 53.5905 129.663 54.0566 128.754C54.288 128.316 54.4677 127.974 54.5984 127.726C54.7231 127.495 54.7962 127.382 54.7962 127.382Z" fill="#455A64"/>
<path d="M23.7915 274.124C23.7915 274.124 23.8147 273.992 23.8809 273.743C23.9549 273.475 24.0564 273.108 24.1871 272.636C24.4709 271.646 24.8803 270.22 25.4049 268.393C26.4678 264.689 27.996 259.362 29.8829 252.789C31.7577 246.197 33.9447 238.336 36.3165 229.593C37.4818 225.216 38.7056 220.621 39.9733 215.859C41.2065 211.087 42.4827 206.147 43.7899 201.088C45.0516 196.015 46.2831 191.063 47.4725 186.28C48.6266 181.489 49.7394 176.868 50.7998 172.465C52.8793 163.651 54.6999 155.703 56.1911 149.019C57.6626 142.348 58.8554 136.942 59.6845 133.183C60.0938 131.329 60.4129 129.882 60.6339 128.877C60.744 128.401 60.83 128.03 60.8919 127.76C60.9521 127.509 60.9951 127.382 60.9951 127.382C60.9951 127.382 60.9831 127.515 60.9375 127.769C60.8859 128.041 60.8145 128.415 60.7233 128.896C60.5212 129.904 60.2297 131.357 59.8556 133.218C59.4652 135.099 58.9896 137.391 58.4375 140.049C57.8673 142.711 57.218 145.74 56.5016 149.084C55.0499 155.777 53.2611 163.733 51.2031 172.554C50.1608 176.961 49.0781 181.59 47.9007 186.378C46.7139 191.163 45.485 196.117 44.2268 201.192C42.9162 206.252 41.6365 211.192 40.3998 215.964C39.1545 220.734 37.9007 225.321 36.7164 229.694C34.3222 238.434 32.1025 246.288 30.189 252.87C29.2241 256.157 28.3512 259.132 27.5832 261.748C26.8015 264.351 26.1264 266.596 25.5734 268.439C25.0144 270.257 24.5775 271.674 24.2748 272.66C24.126 273.126 24.0108 273.49 23.9265 273.754C23.844 274.001 23.7915 274.124 23.7915 274.124Z" fill="#455A64"/>
<path d="M65.6347 127.444C65.6347 127.444 65.664 127.574 65.7001 127.831C65.7354 128.107 65.7844 128.486 65.8472 128.974C65.9091 129.484 65.9839 130.105 66.0725 130.835C66.1602 131.571 66.1782 132.427 66.2427 133.387C66.2703 133.868 66.2986 134.375 66.3287 134.909C66.3305 135.444 66.3313 136.003 66.3331 136.588C66.3339 137.174 66.3339 137.786 66.3339 138.42C66.3279 139.056 66.2772 139.714 66.2488 140.397C66.2127 141.08 66.1757 141.787 66.137 142.516C66.0682 143.244 65.9968 143.994 65.9246 144.765C65.8076 146.313 65.5358 147.932 65.3217 149.64C64.7868 153.042 64.079 156.75 63.182 160.701C62.2782 164.65 61.2169 168.847 60.1135 173.264C59.0153 177.681 57.8758 182.321 56.9238 187.174C55.9907 192.03 55.1797 197.087 54.5003 202.287C53.8132 207.488 53.2344 212.578 52.6762 217.495C52.1224 222.412 51.5608 227.154 50.9735 231.665C50.6544 233.917 50.3439 236.115 50.0412 238.249C49.6843 240.375 49.3652 242.445 49.0058 244.437C48.6127 246.424 48.2722 248.35 47.8731 250.188C47.4492 252.021 47.0647 253.785 46.6562 255.459C46.2047 257.122 45.7748 258.707 45.368 260.206C44.9337 261.698 44.4521 263.085 44.0401 264.391C43.8243 265.042 43.6368 265.676 43.4183 266.275C43.1896 266.87 42.9703 267.442 42.7596 267.992C42.3382 269.087 41.9521 270.089 41.6046 270.992C40.8427 272.768 40.1856 274.122 39.7651 275.048C39.5544 275.495 39.3901 275.843 39.2714 276.096C39.1579 276.331 39.0891 276.446 39.0891 276.446C39.0891 276.446 39.1295 276.318 39.2293 276.076C39.3385 275.819 39.489 275.466 39.6825 275.012C40.0755 274.074 40.7059 272.712 41.4421 270.93C41.7783 270.024 42.1507 269.019 42.5583 267.921C42.763 267.371 42.9763 266.798 43.1982 266.202C43.4106 265.603 43.5921 264.968 43.8019 264.317C44.2018 263.009 44.6714 261.623 45.0936 260.131C45.4901 258.632 45.9089 257.049 46.3492 255.386C46.7268 253.708 47.1232 251.951 47.5352 250.121C47.9248 248.284 48.2559 246.36 48.6403 244.376C48.9912 242.385 49.3025 240.318 49.6516 238.193C49.9475 236.06 50.2519 233.865 50.5641 231.614C51.1403 227.106 51.6924 222.366 52.2402 217.448C52.7924 212.531 53.3686 207.438 54.0566 202.231C54.7368 197.026 55.5521 191.96 56.4929 187.094C57.4527 182.23 58.6034 177.586 59.7119 173.17C60.8256 168.754 61.8998 164.564 62.8182 160.624C63.7298 156.683 64.454 152.986 65.0078 149.596C65.2314 147.894 65.5126 146.28 65.6399 144.739C65.7182 143.97 65.7947 143.222 65.8687 142.497C65.9125 141.771 65.9555 141.067 65.9968 140.386C66.0312 139.705 66.0879 139.049 66.1 138.415C66.106 137.781 66.112 137.172 66.1172 136.588C66.1224 136.004 66.1275 135.446 66.1318 134.913C66.1086 134.381 66.0871 133.874 66.0656 133.394C66.0148 132.436 66.0106 131.581 65.9366 130.846C65.8652 130.115 65.8041 129.494 65.7543 128.984C65.7104 128.495 65.676 128.114 65.6511 127.837C65.6339 127.579 65.6347 127.444 65.6347 127.444Z" fill="#455A64"/>
<path d="M61.8018 279.436C61.8018 279.436 61.7631 279.308 61.7106 279.053C61.6564 278.779 61.5825 278.402 61.4879 277.919C61.3924 277.412 61.2763 276.796 61.1396 276.071C61.008 275.34 60.824 274.5 60.7328 273.538C60.6184 272.578 60.4911 271.512 60.3527 270.348C60.1893 269.184 60.1798 267.906 60.0775 266.539C60.0405 265.855 59.9863 265.147 59.9597 264.415C59.9545 263.683 59.9502 262.929 59.9442 262.152C59.939 261.374 59.9347 260.575 59.9287 259.754C59.9597 258.933 59.9915 258.092 60.0242 257.23C60.0594 256.368 60.0964 255.486 60.1334 254.584C60.2074 253.683 60.283 252.764 60.3604 251.826C60.4877 249.945 60.7311 248.001 60.9727 245.986C61.1903 243.967 61.5584 241.9 61.8594 239.759C62.2361 237.63 62.5835 235.431 63.029 233.193C64.7232 224.221 67.0762 214.46 69.2184 204.156C71.3529 193.848 72.8425 183.928 73.7369 174.861C74.6622 165.798 75.02 157.595 75.1369 150.708C75.1774 147.265 75.1662 144.149 75.1232 141.413C75.0682 138.677 75.0002 136.321 74.9151 134.395C74.8557 132.469 74.7517 130.977 74.713 129.963C74.6923 129.471 74.6768 129.087 74.6657 128.809C74.6571 128.549 74.6648 128.415 74.6648 128.415C74.6648 128.415 74.688 128.547 74.7112 128.806C74.7336 129.084 74.7637 129.466 74.8033 129.957C74.8712 130.969 75.0036 132.461 75.0896 134.387C75.2014 136.312 75.2943 138.669 75.3735 141.407C75.4405 144.145 75.4741 147.263 75.4534 150.712C75.376 157.606 75.0518 165.82 74.1471 174.899C73.2742 183.979 71.795 193.919 69.657 204.24C67.5122 214.554 65.148 224.31 63.4341 233.265C62.9843 235.499 62.6308 237.692 62.2481 239.817C61.9411 241.953 61.5661 244.016 61.3408 246.029C61.0923 248.038 60.8395 249.979 60.7044 251.853C60.6227 252.789 60.5427 253.706 60.4636 254.604C60.4215 255.503 60.3802 256.383 60.3398 257.243C60.3019 258.102 60.265 258.942 60.2297 259.76C60.2297 260.578 60.2289 261.375 60.2289 262.151C60.228 262.925 60.2271 263.679 60.2271 264.409C60.2478 265.138 60.2959 265.844 60.3269 266.527C60.4172 267.891 60.4137 269.167 60.5642 270.33C60.6881 271.493 60.8025 272.558 60.9048 273.517C60.9822 274.478 61.1525 275.319 61.2703 276.051C61.3898 276.778 61.4922 277.396 61.5756 277.904C61.6522 278.391 61.7115 278.77 61.7545 279.045C61.7932 279.302 61.8018 279.436 61.8018 279.436Z" fill="#455A64"/>
<path d="M81.0718 128.146C81.0718 128.146 81.1226 128.269 81.1991 128.517C81.2791 128.784 81.3892 129.151 81.5302 129.621C81.6738 130.115 81.8493 130.716 82.0548 131.421C82.2819 132.128 82.4676 132.962 82.6611 133.904C82.8512 134.846 83.1135 135.886 83.3044 137.04C83.4738 138.199 83.657 139.456 83.8539 140.806C83.9666 142.167 84.0861 143.622 84.2134 145.164C84.2375 146.711 84.3424 148.347 84.3046 150.065C84.2753 153.501 84.0199 157.26 83.5572 161.274C83.0653 165.284 82.3945 169.552 81.5638 174.017C80.7038 178.476 79.8008 183.156 78.8651 188.007C77.9234 192.856 77.0952 197.899 76.3496 203.08C75.5893 208.26 74.9891 213.336 74.4903 218.246C73.9743 223.155 73.6311 227.903 73.3327 232.427C73.0738 236.953 72.8623 241.257 72.7771 245.288C72.6636 249.318 72.643 253.074 72.6559 256.503C72.6757 259.932 72.7247 263.034 72.8158 265.756C72.8795 268.48 73.0033 270.823 73.0773 272.74C73.1736 274.639 73.2493 276.122 73.3017 277.151C73.3232 277.64 73.3396 278.021 73.3516 278.299C73.3602 278.558 73.3533 278.691 73.3533 278.691C73.3533 278.691 73.3293 278.559 73.306 278.302C73.2828 278.024 73.2519 277.645 73.2114 277.156C73.1383 276.148 73.0145 274.663 72.9036 272.747C72.8029 270.831 72.6533 268.487 72.5664 265.762C72.4521 263.039 72.3807 259.935 72.3403 256.504C72.3067 253.073 72.3093 249.313 72.4065 245.279C72.4761 241.243 72.6731 236.934 72.9216 232.403C73.2097 227.873 73.5442 223.119 74.0542 218.204C74.547 213.287 75.1456 208.205 75.9067 203.019C76.654 197.833 77.4865 192.781 78.4342 187.93C79.3785 183.081 80.2901 178.402 81.1587 173.945C82.0006 169.486 82.6835 165.23 83.19 161.232C83.6673 157.23 83.9399 153.484 83.9898 150.06C84.038 148.348 83.9434 146.718 83.9313 145.176C83.817 143.638 83.7086 142.187 83.6071 140.83C83.4239 139.482 83.2528 138.228 83.0954 137.071C82.9174 135.919 82.6688 134.88 82.4917 133.937C82.3119 132.994 82.14 132.16 81.9267 131.451C81.7375 130.742 81.5766 130.138 81.4442 129.643C81.3212 129.168 81.2258 128.798 81.1561 128.528C81.0925 128.278 81.0718 128.146 81.0718 128.146Z" fill="#455A64"/>
</svg>
