<svg width="430" height="416" viewBox="0 0 430 416" fill="none" xmlns="http://www.w3.org/2000/svg">
<path d="M91.264 228.904C91.264 228.904 83.4535 230.903 90.0221 247.213C96.5908 263.522 101.46 271.754 101.46 271.754C101.46 271.754 102.537 275.496 99.3454 275.751C96.1539 276.006 89.3642 274.27 87.5823 277.843C85.7342 281.55 88.2454 285.46 93.7717 289.214C99.2981 292.968 111.093 301.622 112.157 302.408C113.201 303.18 114.143 304.965 111.998 305.476C109.852 305.987 94.1691 306.043 94.6421 313.242C95.1159 320.439 112.287 328.45 114.147 329.36C116.006 330.27 116.387 331.109 116.122 332.122C115.857 333.133 110.585 332.672 106.125 332.865C101.665 333.058 96.528 334.038 97.161 338.169C97.794 342.3 107.472 351.791 132.855 356.715L144.771 358.252L152.293 349.113C167.158 328.608 167.397 315.278 164.91 311.865C162.423 308.452 158.005 311.17 154.639 314.007C151.272 316.843 147.784 320.697 146.871 320.141C145.957 319.585 145.635 318.724 146.332 316.824C147.03 314.923 153.749 297.664 148.96 292.137C144.169 286.61 132.774 297.036 130.858 298.098C128.941 299.16 128.35 297.239 128.555 295.984C128.764 294.705 131.133 280.567 132.457 274.162C133.782 267.756 132.811 263.249 128.83 261.799C124.992 260.401 121.314 266.189 118.822 268.135C116.33 270.081 114.441 266.652 114.441 266.652C114.441 266.652 112.097 257.443 105.223 241.251C98.3487 225.06 91.11 228.954 91.11 228.954" fill="#EBEBEB"/>
<path d="M145.108 361.033C140.108 349.123 131.589 327.81 124.176 309.548C116.766 291.293 110.042 274.771 105.105 262.837C102.634 256.884 100.633 252.061 99.2431 248.711C98.5568 247.054 98.0219 245.761 97.6521 244.869C97.4784 244.439 97.3433 244.105 97.247 243.866C97.1576 243.64 97.1206 243.52 97.1206 243.52C97.1206 243.52 97.1808 243.631 97.2823 243.852C97.3872 244.088 97.5334 244.417 97.7217 244.841C98.1062 245.728 98.6634 247.012 99.3781 248.658C100.813 251.974 102.853 256.786 105.351 262.743C110.351 274.653 117.115 291.161 124.525 309.417C131.937 327.678 140.416 349.005 145.354 360.939" fill="#E0E0E0"/>
<path d="M96.9796 280.642C96.9908 280.619 97.2789 280.729 97.7897 280.948C98.3023 281.164 99.0333 281.498 99.9328 281.918C101.73 282.761 104.181 283.989 106.861 285.389C109.499 286.78 111.883 288.037 113.707 289C114.532 289.428 115.229 289.79 115.789 290.081C116.281 290.334 116.549 290.484 116.538 290.507C116.527 290.53 116.238 290.423 115.725 290.207C115.213 289.989 114.481 289.655 113.586 289.226C111.797 288.365 109.363 287.108 106.684 285.707C104.038 284.335 101.644 283.094 99.8133 282.145C98.9851 281.721 98.2876 281.362 97.7261 281.073C97.235 280.817 96.9684 280.665 96.9796 280.642Z" fill="#E0E0E0"/>
<path d="M117.433 289.847C117.34 289.804 119.732 284.802 122.774 278.678C125.817 272.551 128.358 267.622 128.451 267.665C128.544 267.708 126.153 272.708 123.11 278.834C120.068 284.96 117.526 289.89 117.433 289.847Z" fill="#E0E0E0"/>
<path d="M127.506 318.382C127.488 318.364 127.688 318.128 128.066 317.715C128.498 317.249 129.037 316.668 129.678 315.977C131.036 314.509 132.902 312.474 134.876 310.155C136.857 307.84 138.573 305.685 139.803 304.115C140.383 303.376 140.871 302.755 141.263 302.256C141.61 301.819 141.812 301.584 141.833 301.598C141.854 301.612 141.693 301.875 141.381 302.338C141.07 302.8 140.607 303.462 140.017 304.266C138.839 305.878 137.15 308.064 135.164 310.386C133.185 312.711 131.282 314.725 129.871 316.151C129.163 316.862 128.584 317.43 128.171 317.812C127.761 318.196 127.525 318.399 127.506 318.382Z" fill="#E0E0E0"/>
<path d="M107.113 313.996C107.118 313.971 107.408 314.006 107.928 314.089C108.525 314.194 109.259 314.323 110.123 314.474C111.973 314.814 114.523 315.309 117.336 315.878C120.149 316.447 122.691 316.981 124.527 317.385C125.382 317.582 126.107 317.747 126.698 317.883C127.208 318.008 127.488 318.089 127.483 318.113C127.478 318.137 127.188 318.103 126.668 318.02C126.071 317.915 125.338 317.787 124.473 317.635C122.623 317.295 120.072 316.799 117.259 316.23C114.447 315.662 111.905 315.127 110.069 314.723C109.214 314.527 108.488 314.361 107.898 314.225C107.387 314.101 107.108 314.02 107.113 313.996Z" fill="#E0E0E0"/>
<path d="M112.698 340.28C112.703 340.256 113.074 340.303 113.74 340.409C114.474 340.535 115.42 340.698 116.555 340.893C118.929 341.316 122.203 341.926 125.814 342.621C129.427 343.317 132.692 343.966 135.053 344.454C136.178 344.695 137.117 344.895 137.844 345.05C138.502 345.199 138.862 345.292 138.858 345.317C138.853 345.341 138.482 345.295 137.816 345.188C137.082 345.063 136.137 344.899 135.001 344.705C132.627 344.281 129.353 343.671 125.741 342.976C122.129 342.28 118.863 341.631 116.503 341.144C115.378 340.903 114.439 340.703 113.712 340.548C113.054 340.398 112.693 340.304 112.698 340.28Z" fill="#E0E0E0"/>
<path d="M138.266 345.025C138.247 345.008 138.493 344.702 138.954 344.163C139.459 343.576 140.119 342.811 140.914 341.889C142.567 339.968 144.84 337.306 147.264 334.299C149.692 331.294 151.817 328.519 153.34 326.5C154.072 325.53 154.679 324.726 155.146 324.108C155.575 323.545 155.822 323.241 155.843 323.255C155.865 323.269 155.657 323.601 155.265 324.188C154.873 324.777 154.292 325.619 153.555 326.647C152.085 328.706 149.991 331.511 147.558 334.52C145.131 337.533 142.822 340.174 141.115 342.055C140.259 342.993 139.559 343.745 139.063 344.255C138.568 344.767 138.286 345.042 138.266 345.025Z" fill="#E0E0E0"/>
<path d="M326.407 384.123L266.696 288.512C264.844 285.546 265.828 281.689 268.894 279.897L329.276 244.603C332.342 242.811 336.33 243.763 338.182 246.729L397.892 342.34C399.744 345.306 398.76 349.164 395.695 350.955L335.312 386.249C332.246 388.041 328.259 387.09 326.407 384.123Z" fill="#EBEBEB"/>
<path d="M374.832 341.762C370.641 344.212 365.192 342.91 362.659 338.857C360.128 334.802 361.473 329.53 365.663 327.081C369.854 324.632 375.303 325.933 377.835 329.986C380.367 334.041 379.023 339.313 374.832 341.762Z" fill="white"/>
<path d="M375.789 352.263C375.042 352.263 374.29 352.175 373.546 351.998C371.135 351.422 369.101 349.973 367.817 347.918C365.167 343.672 366.579 338.134 370.966 335.571C375.355 333.008 381.079 334.373 383.728 338.616C386.377 342.862 384.964 348.401 380.579 350.964C379.109 351.823 377.463 352.263 375.789 352.263ZM375.756 335.104C374.238 335.104 372.743 335.503 371.41 336.282C369.481 337.409 368.121 339.195 367.582 341.312C367.042 343.428 367.387 345.621 368.551 347.487C370.958 351.338 376.15 352.58 380.133 350.252C384.113 347.925 385.395 342.899 382.991 339.046C381.826 337.181 379.98 335.866 377.792 335.344C377.117 335.183 376.435 335.104 375.756 335.104Z" fill="white"/>
<path d="M295.014 277.57L288.912 281.136L288.533 280.53L294.076 277.29L293.207 275.897L293.764 275.571L295.014 277.57Z" fill="white"/>
<path d="M293.262 286.882L292.704 287.208L290.118 283.068L290.564 282.809L294.579 283.811C295.675 284.078 296.164 283.966 296.583 283.722C297.288 283.309 297.424 282.574 296.86 281.671C296.428 280.98 295.878 280.576 295.174 280.458L295.29 279.805C296.132 279.933 296.904 280.484 297.467 281.386C298.214 282.584 298.061 283.709 297.041 284.305C296.457 284.646 295.825 284.776 294.528 284.452L291.235 283.637L293.262 286.882Z" fill="white"/>
<path d="M298.188 292.485L297.451 291.304L295.848 292.241L295.468 291.633L297.072 290.697L294.992 287.366L295.445 287.102L301.443 287.865L301.864 288.54L296.04 287.825L297.64 290.388L299.053 289.563L299.422 290.153L298.01 290.978L298.747 292.159L298.188 292.485Z" fill="white"/>
<path d="M303.838 301.533L303.101 300.352L301.498 301.289L301.119 300.681L302.723 299.744L300.642 296.414L301.095 296.149L307.093 296.913L307.514 297.588L301.691 296.873L303.291 299.437L304.703 298.612L305.072 299.201L303.66 300.026L304.397 301.207L303.838 301.533Z" fill="white"/>
<path d="M307.254 306.582C306.216 307.188 304.969 306.962 304.068 305.52C303.537 304.67 303.336 303.681 303.531 302.946L304.212 302.95C304.039 303.569 304.164 304.417 304.639 305.176C305.266 306.179 306.102 306.415 306.843 305.983C307.627 305.524 307.822 304.766 306.884 303.265L306.099 302.008L309.347 300.523L311.365 303.753L310.807 304.079L309.122 301.382L307.052 302.315L307.527 303.075C308.636 304.852 308.334 305.95 307.254 306.582Z" fill="white"/>
<path d="M310.924 312.401C309.782 313.068 308.507 312.627 307.791 311.482C306.812 309.913 307.404 308.404 309.33 307.277C311.404 306.065 313.17 306.53 314.17 308.132C314.502 308.664 314.717 309.218 314.714 309.725L314.055 309.778C314.074 309.351 313.9 308.901 313.627 308.463C312.831 307.189 311.475 306.866 309.819 307.833C309.68 307.916 309.511 308.025 309.338 308.149C310.193 308.052 311 308.524 311.51 309.342C312.243 310.513 312.04 311.749 310.924 312.401ZM310.532 311.813C311.335 311.344 311.49 310.471 310.921 309.56C310.359 308.658 309.399 308.378 308.641 308.821C307.97 309.213 307.67 310.124 308.307 311.145C308.84 311.996 309.721 312.286 310.532 311.813Z" fill="white"/>
<path d="M315.899 320.52C314.879 321.117 313.647 320.858 312.758 319.433C312.226 318.582 312.02 317.585 312.214 316.85L312.896 316.855C312.724 317.474 312.853 318.33 313.333 319.097C313.944 320.075 314.751 320.34 315.509 319.896C316.242 319.468 316.41 318.691 315.726 317.595L315.462 317.172L315.924 316.903L319.063 317.301L317.178 314.281L317.736 313.955L320.106 317.75L319.661 318.01L316.448 317.609C317.168 318.915 316.876 319.95 315.899 320.52Z" fill="white"/>
<path d="M319.665 326.398C318.524 327.066 317.249 326.625 316.532 325.479C315.553 323.911 316.145 322.402 318.072 321.275C320.146 320.063 321.912 320.529 322.912 322.129C323.244 322.661 323.459 323.215 323.455 323.723L322.797 323.775C322.816 323.348 322.641 322.897 322.368 322.46C321.573 321.187 320.217 320.863 318.56 321.831C318.421 321.913 318.252 322.022 318.079 322.146C318.934 322.049 319.742 322.521 320.252 323.339C320.985 324.511 320.782 325.746 319.665 326.398ZM319.274 325.809C320.076 325.341 320.232 324.468 319.664 323.557C319.1 322.655 318.141 322.376 317.382 322.818C316.711 323.211 316.412 324.122 317.048 325.143C317.581 325.995 318.463 326.284 319.274 325.809Z" fill="white"/>
<path d="M327.337 329.328L326.891 329.588L319.692 330.425L319.281 329.766L326.342 328.954L324.445 325.919L323.304 326.587L322.93 325.988L324.629 324.995L327.337 329.328Z" fill="white"/>
<path d="M332.608 337.768L332.163 338.028L324.964 338.864L324.553 338.206L331.613 337.394L329.716 334.359L328.575 335.027L328.201 334.428L329.9 333.435L332.608 337.768Z" fill="white"/>
<path d="M331.834 346.151C330.753 346.782 329.53 346.29 328.65 344.881C327.766 343.465 327.899 342.212 328.98 341.581C329.713 341.152 330.479 341.256 331.19 341.843C331.06 341.102 331.317 340.503 331.953 340.131C332.946 339.551 334.077 340.006 334.857 341.254C335.636 342.502 335.539 343.699 334.545 344.279C333.909 344.651 333.236 344.584 332.613 344.12C332.823 345.009 332.558 345.727 331.834 346.151ZM331.454 345.521C332.203 345.084 332.284 344.184 331.632 343.139C330.978 342.093 330.123 341.753 329.373 342.191C328.615 342.634 328.529 343.524 329.182 344.569C329.835 345.617 330.696 345.965 331.454 345.521ZM332.128 342.849C332.701 343.767 333.47 344.067 334.133 343.679C334.822 343.277 334.877 342.45 334.324 341.565C333.767 340.672 332.995 340.351 332.315 340.749C331.644 341.141 331.554 341.929 332.128 342.849Z" fill="white"/>
<path d="M336.819 351.065C334.745 352.278 332.978 351.812 331.979 350.211C331.646 349.68 331.431 349.126 331.435 348.618L332.093 348.566C332.074 348.992 332.249 349.443 332.523 349.882C333.317 351.154 334.673 351.478 336.33 350.51C336.469 350.428 336.638 350.319 336.811 350.195C335.956 350.292 335.149 349.819 334.639 349.001C333.906 347.829 334.111 346.593 335.226 345.941C336.368 345.273 337.643 345.715 338.359 346.862C339.338 348.43 338.745 349.938 336.819 351.065ZM337.509 349.521C338.18 349.129 338.48 348.218 337.842 347.197C337.311 346.347 336.429 346.056 335.618 346.53C334.815 346.998 334.659 347.872 335.228 348.783C335.791 349.685 336.75 349.964 337.509 349.521Z" fill="white"/>
<path d="M343.555 355.299L337.455 358.865L337.076 358.257L342.619 355.017L341.749 353.626L342.307 353.3L343.555 355.299Z" fill="white"/>
<path d="M341.804 364.611L341.247 364.937L338.661 360.797L339.107 360.538L343.122 361.539C344.218 361.807 344.707 361.695 345.126 361.451C345.831 361.038 345.967 360.302 345.404 359.4C344.971 358.708 344.421 358.305 343.717 358.187L343.832 357.533C344.674 357.662 345.447 358.212 346.01 359.114C346.757 360.312 346.603 361.437 345.584 362.034C345 362.375 344.367 362.503 343.069 362.18L339.777 361.365L341.804 364.611Z" fill="white"/>
<path d="M346.305 369.207C345.285 369.804 344.053 369.545 343.164 368.12C342.632 367.268 342.426 366.271 342.621 365.537L343.302 365.541C343.129 366.16 343.26 367.015 343.739 367.783C344.35 368.761 345.158 369.025 345.915 368.582C346.648 368.154 346.816 367.378 346.131 366.28L345.868 365.858L346.33 365.588L349.469 365.987L347.584 362.969L348.142 362.643L350.511 366.437L350.066 366.697L346.853 366.296C347.575 367.602 347.281 368.637 346.305 369.207Z" fill="white"/>
<path d="M311.696 327.475L309.046 329.024L338.583 376.312L341.233 374.763L311.696 327.475Z" fill="white"/>
<path d="M320.794 353.596L318.144 355.146L333.293 379.399L335.943 377.85L320.794 353.596Z" fill="white"/>
<path d="M308.17 287.143L300.192 274.369C298.973 272.417 299.621 269.879 301.639 268.699L309.654 264.015C311.672 262.836 314.296 263.462 315.515 265.414L323.492 278.187C324.71 280.139 324.063 282.678 322.046 283.857L314.032 288.542C312.014 289.722 309.389 289.096 308.17 287.143Z" fill="#E0E0E0"/>
<path d="M302.227 268.355L303.211 267.781L309.591 277.997C310.327 279.176 311.918 279.556 313.137 278.844C314.356 278.131 314.752 276.571 314.011 275.414L307.631 265.197L308.614 264.623L314.994 274.839C316.057 276.542 315.491 278.765 313.731 279.795C311.97 280.824 309.672 280.275 308.608 278.572L302.227 268.355Z" fill="#EBEBEB"/>
<path d="M313.949 279.028L312.965 279.602L317.338 286.618L318.322 286.045L313.949 279.028Z" fill="#EBEBEB"/>
<path d="M359.262 307.877L327.395 256.848L322.868 259.494L354.735 310.523L359.262 307.877Z" fill="white"/>
<path d="M179.995 27.9658C179.344 36.9523 180.001 53.6854 176.616 62.077C173.23 70.4685 168.721 79.1155 160.257 82.8687C149.833 87.4904 137.584 85.5319 126.465 88.2401C109.037 92.4841 96.436 107.951 91.0567 124.541C85.6774 141.13 86.2734 158.903 86.9219 176.279L175.87 188.219C175.87 188.219 176.338 153.253 184.095 143.71C191.852 134.168 228.704 125.577 240.876 99.4421C251.83 75.9231 255.134 38.6229 255.134 38.6229L179.995 27.9658Z" fill="#F5F5F5"/>
<path d="M201.719 51.5928L200.573 49.5386C200.414 49.5369 200.257 49.5261 200.084 49.5053L198.452 49.3106L198.214 51.1735L197.572 51.0969L198.323 45.2222L200.597 45.4942C202.14 45.6789 202.98 46.5459 202.82 47.8039C202.702 48.7274 202.116 49.3131 201.197 49.4845L202.422 51.676L201.719 51.5928ZM202.177 47.729C202.298 46.7888 201.724 46.1756 200.51 46.03L198.896 45.8378L198.52 48.7823L200.134 48.9753C201.348 49.1201 202.059 48.6517 202.177 47.729Z" fill="#E0E0E0"/>
<path d="M208.205 51.8224L208.136 52.3599L203.842 51.8466L204.593 45.9727L208.757 46.4702L208.688 47.0077L205.167 46.5867L204.9 48.6758L208.039 49.0511L207.971 49.5802L204.832 49.205L204.554 51.3865L208.205 51.8224Z" fill="#E0E0E0"/>
<path d="M209.449 49.5351C209.669 47.8145 211.184 46.7096 213.013 46.9284C213.898 47.0341 214.66 47.4151 215.125 48.05L214.667 48.3952C214.235 47.8494 213.655 47.5674 212.961 47.4842C211.495 47.3086 210.26 48.218 210.082 49.6116C209.904 51.0044 210.873 52.1758 212.339 52.3514C213.034 52.4346 213.667 52.2973 214.225 51.8613L214.582 52.3048C213.971 52.8107 213.136 53.0095 212.243 52.903C210.42 52.6842 209.228 51.2548 209.449 49.5351Z" fill="#E0E0E0"/>
<path d="M220.209 53.2575L220.141 53.795L215.847 53.2816L216.598 47.4077L220.761 47.9061L220.692 48.4436L217.171 48.0226L216.903 50.1117L220.042 50.4869L219.975 51.0161L216.836 50.6409L216.557 52.8224L220.209 53.2575Z" fill="#E0E0E0"/>
<path d="M222.4 48.1016L223.042 48.1781L222.292 54.052L221.65 53.9755L222.4 48.1016Z" fill="#E0E0E0"/>
<path d="M229.516 50.9962C229.355 52.2467 228.323 52.8899 226.779 52.7052L225.148 52.5105L224.911 54.365L224.269 54.2885L225.019 48.4146L227.293 48.6866C228.836 48.8713 229.676 49.7383 229.516 50.9962ZM228.874 50.9197C228.995 49.9795 228.421 49.3664 227.206 49.2208L225.593 49.0286L225.218 51.9655L226.831 52.1577C228.045 52.3041 228.756 51.8432 228.874 50.9197Z" fill="#E0E0E0"/>
<path d="M232.072 49.8031L229.938 49.5477L230.007 49.0103L234.917 49.5976L234.848 50.1351L232.713 49.8797L232.032 55.217L231.391 55.1404L232.072 49.8031Z" fill="#E0E0E0"/>
<path d="M222.46 65.9383C222.444 66.0573 214.34 65.0864 204.364 63.771C194.384 62.4547 186.309 61.2924 186.327 61.1743C186.343 61.0561 194.445 62.0263 204.425 63.3417C214.401 64.657 222.478 65.8193 222.46 65.9383Z" fill="#E0E0E0"/>
<path d="M221.488 72.9447C221.471 73.0637 213.368 72.0927 203.392 70.7773C193.411 69.4611 185.337 68.2988 185.354 68.1806C185.37 68.0625 193.472 69.0326 203.452 70.348C213.429 71.6634 221.504 72.8265 221.488 72.9447Z" fill="#E0E0E0"/>
<path d="M218.175 80.0882C218.159 80.2072 210.055 79.2363 200.079 77.9209C190.099 76.6046 182.025 75.4423 182.041 75.3242C182.058 75.2061 190.16 76.1762 200.139 77.4916C210.115 78.8069 218.191 79.9701 218.175 80.0882Z" fill="#E0E0E0"/>
<path d="M212.142 87.2957C212.126 87.4147 204.022 86.4438 194.046 85.1284C184.066 83.8122 175.991 82.6499 176.008 82.5317C176.025 82.4136 184.127 83.3837 194.106 84.6991C204.083 86.0145 212.159 87.1776 212.142 87.2957Z" fill="#E0E0E0"/>
<path d="M202.541 94.4876C202.525 94.6066 194.421 93.6357 184.445 92.3203C174.465 91.0049 166.391 89.8418 166.407 89.7236C166.424 89.6055 174.526 90.5756 184.505 91.891C194.481 93.2064 202.557 94.3687 202.541 94.4876Z" fill="#E0E0E0"/>
<path d="M238.662 68.2743C238.642 68.3925 236.65 68.177 234.214 67.7934C231.777 67.4099 229.818 67.003 229.838 66.8849C229.857 66.7668 231.849 66.9822 234.286 67.3658C236.722 67.7494 238.682 68.1562 238.662 68.2743Z" fill="#E0E0E0"/>
<path d="M238.346 74.5195C238.327 74.6376 236.335 74.4221 233.898 74.0386C231.461 73.655 229.502 73.2473 229.522 73.13C229.542 73.0119 231.533 73.2274 233.971 73.6109C236.406 73.9945 238.366 74.4021 238.346 74.5195Z" fill="#E0E0E0"/>
<path d="M236.157 83.164C236.136 83.2822 234.142 83.0559 231.702 82.664C229.268 82.2746 227.284 81.8619 227.332 81.7737C227.319 81.6256 229.342 81.8478 231.776 82.2372C234.216 82.6282 236.177 83.0459 236.157 83.164Z" fill="#E0E0E0"/>
<path d="M232.992 90.4775C232.971 90.5956 230.977 90.3693 228.537 89.9775C226.103 89.5881 224.119 89.1754 224.168 89.0872C224.154 88.9391 226.177 89.1613 228.611 89.5498C231.052 89.9417 233.013 90.3594 232.992 90.4775Z" fill="#E0E0E0"/>
<path d="M226.188 97.4287C226.167 97.5468 224.173 97.3205 221.733 96.9286C219.299 96.5393 217.315 96.1266 217.363 96.0384C217.35 95.8903 219.374 96.1124 221.807 96.5018C224.247 96.8929 226.208 97.3113 226.188 97.4287Z" fill="#E0E0E0"/>
<path d="M194.329 103.277C194.312 103.396 182.149 101.828 167.165 99.7766C152.177 97.7249 140.044 95.9661 140.061 95.8471C140.078 95.7289 152.239 97.2956 167.228 99.3473C182.212 101.399 194.346 103.159 194.329 103.277Z" fill="#E0E0E0"/>
<path d="M188.048 110.628C188.046 110.643 187.839 110.626 187.447 110.581C187.011 110.525 186.444 110.453 185.737 110.362C184.203 110.146 182.07 109.846 179.458 109.478C174.117 108.682 166.825 107.594 158.769 106.393C150.692 105.161 143.384 104.017 138.1 103.161C135.499 102.727 133.376 102.373 131.847 102.118C131.11 101.986 130.539 101.885 130.152 101.803C129.763 101.721 129.564 101.671 129.568 101.657C129.573 101.643 129.782 101.665 130.17 101.718C130.605 101.778 131.171 101.855 131.876 101.952C133.409 102.174 135.539 102.482 138.15 102.858C143.49 103.66 150.781 104.755 158.839 105.964C166.886 107.215 174.171 108.346 179.507 109.175C182.11 109.599 184.235 109.945 185.764 110.195C186.466 110.318 187.029 110.418 187.462 110.494C187.848 110.568 188.051 110.614 188.048 110.628Z" fill="#E0E0E0"/>
<path d="M176.696 117.359C176.773 117.433 175.901 117.342 174.461 117.168C173.002 116.989 170.895 116.705 168.293 116.34C163.09 115.61 155.91 114.555 147.986 113.356C140.059 112.157 132.888 111.04 127.701 110.21C125.149 109.791 123.065 109.449 121.564 109.203C120.876 109.081 120.323 108.983 119.899 108.908C119.518 108.835 119.321 108.79 119.322 108.775C119.325 108.76 119.528 108.777 119.912 108.821C120.342 108.876 120.898 108.948 121.591 109.037C123.098 109.25 125.189 109.545 127.751 109.907C132.993 110.687 140.148 111.751 148.056 112.928C155.954 114.138 163.104 115.234 168.342 116.037C173.071 116.786 175.597 117.185 176.696 117.359Z" fill="#E0E0E0"/>
<path d="M214.821 107.318C214.8 107.436 212.806 107.21 210.366 106.819C207.932 106.429 205.948 106.017 205.996 105.929C205.982 105.78 208.006 106.003 210.439 106.392C212.881 106.782 214.842 107.2 214.821 107.318Z" fill="#E0E0E0"/>
<path d="M206.058 112.034C206.037 112.152 204.043 111.926 201.603 111.535C199.169 111.146 197.185 110.733 197.233 110.645C197.219 110.497 199.244 110.719 201.677 111.108C204.117 111.498 206.078 111.916 206.058 112.034Z" fill="#E0E0E0"/>
<path d="M194.26 119.985C194.24 120.103 192.245 119.877 189.805 119.485C187.372 119.095 185.388 118.683 185.435 118.595C185.421 118.446 187.446 118.669 189.879 119.058C192.319 119.449 194.281 119.867 194.26 119.985Z" fill="#E0E0E0"/>
<path d="M171.704 132.532C171.685 132.651 156.651 130.512 138.131 127.754C119.603 124.996 104.603 122.666 104.621 122.548C104.64 122.429 119.671 124.569 138.198 127.327C156.719 130.082 171.722 132.413 171.704 132.532Z" fill="#E0E0E0"/>
<path d="M162.7 148.276C162.68 148.394 157.752 147.721 151.694 146.772C145.635 145.824 140.74 144.959 140.76 144.841C140.779 144.723 145.706 145.396 151.766 146.345C157.824 147.293 162.72 148.157 162.7 148.276Z" fill="#E0E0E0"/>
<path d="M400.257 385.843C400.257 385.962 317.308 386.059 215.01 386.059C112.676 386.059 29.744 385.962 29.744 385.843C29.744 385.724 112.676 385.626 215.01 385.626C317.307 385.625 400.257 385.723 400.257 385.843Z" fill="#263238"/>
<path d="M375.33 177.178L289.29 188.93C286.097 189.366 283.143 187.216 282.691 184.126L271.253 105.758C270.803 102.669 273.026 99.8107 276.219 99.3739L362.259 87.6211C365.452 87.1851 368.406 89.3358 368.857 92.425L380.295 170.794C380.746 173.884 378.523 176.742 375.33 177.178Z" fill="#E8505B"/>
<path d="M344.092 149.518C344.094 149.532 343.87 149.577 343.442 149.65C342.974 149.725 342.348 149.824 341.558 149.95C339.875 150.201 337.504 150.552 334.574 150.988C328.608 151.835 320.373 153.004 311.107 154.321L310.915 154.348L310.861 154.168C310.508 152.99 310.135 151.743 309.757 150.48C306.562 139.678 303.712 130.038 301.849 123.738L302.005 123.835C299.356 124.176 297.24 124.449 295.743 124.642C295.044 124.724 294.49 124.79 294.074 124.838C293.695 124.878 293.497 124.893 293.496 124.879C293.494 124.866 293.687 124.827 294.063 124.762C294.477 124.696 295.027 124.607 295.721 124.495C297.214 124.272 299.323 123.958 301.965 123.563L302.086 123.545L302.121 123.661C304.022 129.95 306.93 139.574 310.187 150.359C310.565 151.622 310.937 152.87 311.288 154.046L311.043 153.893C320.318 152.632 328.56 151.511 334.531 150.698C337.47 150.318 339.847 150.01 341.535 149.791C342.329 149.697 342.959 149.622 343.43 149.567C343.862 149.522 344.089 149.505 344.092 149.518Z" fill="#EBEBEB"/>
<path d="M309.136 147.625C309.135 147.619 309.19 147.605 309.298 147.584C309.429 147.561 309.588 147.534 309.783 147.499C310.242 147.426 310.869 147.328 311.667 147.202C313.345 146.954 315.736 146.602 318.724 146.16C324.786 145.298 333.264 144.092 343.078 142.696L342.894 142.895C343.026 138.827 343.17 134.428 343.319 129.875C343.398 127.533 343.475 125.233 343.549 123.039L343.802 123.257C332.396 124.814 322.328 126.189 315.073 127.179C311.483 127.65 308.591 128.03 306.561 128.296C305.586 128.416 304.819 128.51 304.264 128.577C304.021 128.603 303.825 128.624 303.668 128.64C303.534 128.652 303.464 128.655 303.463 128.649C303.462 128.642 303.529 128.626 303.662 128.601C303.818 128.574 304.012 128.54 304.253 128.499C304.805 128.413 305.568 128.294 306.538 128.144C308.564 127.847 311.45 127.423 315.032 126.897C322.281 125.872 332.342 124.447 343.739 122.834L344.001 122.797L343.992 123.054C343.92 125.248 343.844 127.549 343.767 129.89C343.612 134.443 343.462 138.842 343.324 142.91L343.318 143.085L343.14 143.109C333.316 144.443 324.831 145.596 318.763 146.42C315.768 146.811 313.371 147.123 311.688 147.343C310.887 147.44 310.256 147.516 309.794 147.572C309.597 147.592 309.437 147.608 309.304 147.622C309.193 147.63 309.136 147.632 309.136 147.625Z" fill="#EBEBEB"/>
<path d="M320.617 161.632C320.576 161.638 320.532 161.353 320.316 160.898C320.104 160.451 319.664 159.821 318.858 159.408C318.076 158.988 316.886 158.866 315.841 159.423C314.8 159.946 314.026 161.205 314.234 162.518C314.417 163.836 315.526 164.833 316.677 165.052C317.841 165.302 318.948 164.86 319.576 164.245C320.229 163.628 320.468 162.904 320.542 162.418C320.617 161.922 320.575 161.636 320.617 161.632C320.636 161.627 320.739 161.906 320.715 162.434C320.691 162.951 320.489 163.752 319.802 164.459C319.143 165.163 317.918 165.702 316.593 165.442C315.285 165.22 313.999 164.088 313.791 162.579C313.553 161.075 314.456 159.64 315.647 159.07C316.842 158.459 318.174 158.643 319.012 159.139C319.877 159.631 320.304 160.344 320.477 160.833C320.654 161.335 320.636 161.631 320.617 161.632Z" fill="#EBEBEB"/>
<path d="M341.865 158.678C341.825 158.685 341.781 158.399 341.565 157.944C341.353 157.498 340.913 156.868 340.107 156.454C339.325 156.035 338.135 155.913 337.09 156.469C336.049 156.992 335.275 158.251 335.483 159.564C335.666 160.881 336.775 161.879 337.926 162.098C339.09 162.348 340.197 161.905 340.825 161.291C341.478 160.674 341.717 159.949 341.791 159.464C341.866 158.968 341.825 158.682 341.865 158.678C341.885 158.673 341.988 158.953 341.964 159.481C341.94 159.998 341.738 160.798 341.051 161.506C340.391 162.211 339.168 162.749 337.842 162.489C336.533 162.267 335.248 161.136 335.039 159.627C334.801 158.122 335.704 156.687 336.895 156.117C338.09 155.507 339.422 155.69 340.26 156.186C341.125 156.678 341.552 157.391 341.725 157.88C341.903 158.381 341.886 158.677 341.865 158.678Z" fill="#EBEBEB"/>
<path d="M349.411 125.133C352.311 120.891 351.107 115.178 346.722 112.372C342.338 109.567 336.432 110.732 333.533 114.974C330.633 119.216 331.837 124.929 336.222 127.734C340.606 130.54 346.512 129.375 349.411 125.133Z" fill="#FAFAFA"/>
<path d="M346.095 115.951C346.146 115.986 345.759 116.61 345.092 117.591C344.426 118.572 343.48 119.911 342.412 121.373C342.013 121.915 341.628 122.437 341.266 122.928L341.146 123.091L340.975 122.982C338.684 121.52 337.062 120.412 337.117 120.329C337.171 120.248 338.885 121.218 341.208 122.633L340.917 122.688C341.274 122.193 341.654 121.667 342.047 121.122C343.114 119.659 344.101 118.349 344.833 117.413C345.566 116.478 346.044 115.916 346.095 115.951Z" fill="#E8505B"/>
<path d="M351.491 280.1L285.378 263.977C282.251 263.214 280.355 260.143 281.143 257.118L296.802 197.021C297.591 193.995 300.764 192.161 303.892 192.924L370.005 209.047C373.132 209.81 375.028 212.88 374.239 215.906L358.58 276.003C357.792 279.028 354.618 280.863 351.491 280.1Z" fill="#455A64"/>
<path d="M309.953 226.399L310.555 242.292L340.672 249.637L349.123 236.591C349.123 236.591 346.21 234.844 344.086 234.771L347.628 218.881C347.972 217.339 346.6 215.946 344.991 216.204L341.746 216.724L324.76 212.581L323.05 211.159C321.76 210.084 319.752 210.707 319.348 212.307L315.404 227.924C315.404 227.924 312.977 226.545 309.953 226.399Z" fill="#FAFAFA"/>
<path d="M318.327 236.65C319.491 238.836 321.499 240.544 323.783 241.623C326.067 242.702 328.619 243.18 331.159 243.277C332.546 243.33 334.081 243.214 335.059 242.263C336.068 241.282 336.15 239.749 336.17 238.365C336.195 236.591 336.218 234.789 335.731 233.079C335.244 231.368 334.17 229.731 332.522 228.954C330.286 227.9 327.578 228.642 325.413 229.825C322.571 231.376 320.165 233.664 318.512 236.385" fill="#E0E0E0"/>
<path d="M312.117 242.687L310.527 242.299L307.016 255.774L308.605 256.162L312.117 242.687Z" fill="#263238"/>
<path d="M317.71 244.034L316.121 243.646L314.328 250.526L315.918 250.913L317.71 244.034Z" fill="#263238"/>
<path d="M333.675 247.928L332.086 247.54L330.293 254.42L331.883 254.807L333.675 247.928Z" fill="#263238"/>
<path d="M340.716 249.645L339.126 249.257L335.616 262.732L337.205 263.12L340.716 249.645Z" fill="#263238"/>
<path d="M319.132 235.272C319.013 235.243 320.23 230.172 321.852 223.949C323.474 217.723 324.886 212.702 325.005 212.731C325.125 212.76 323.908 217.83 322.286 224.055C320.664 230.278 319.252 235.301 319.132 235.272Z" fill="#263238"/>
<path d="M336.146 239.421C336.026 239.392 337.243 234.322 338.865 228.098C340.487 221.872 341.899 216.851 342.019 216.88C342.139 216.91 340.922 221.979 339.299 228.205C337.677 234.427 336.265 239.45 336.146 239.421Z" fill="#263238"/>
<path d="M344.086 234.771C344.084 234.793 343.789 234.804 343.247 234.807C343.106 234.807 342.956 234.807 342.795 234.807C342.627 234.826 342.447 234.847 342.258 234.869C342.062 234.892 341.854 234.916 341.636 234.941C341.418 234.995 341.19 235.052 340.952 235.111C340.004 235.368 338.89 235.893 337.968 236.866C337.042 237.818 336.335 239.222 336.071 240.782L336.034 241.002L335.82 240.95C333.381 240.362 330.645 239.701 327.761 239.006C324.489 238.198 321.409 237.438 318.743 236.78L318.556 236.734L318.6 236.551C318.943 235.111 318.851 233.71 318.516 232.546C318.202 231.37 317.657 230.426 317.138 229.712C316.068 228.285 315.106 227.776 315.156 227.72C315.165 227.706 315.397 227.829 315.802 228.108C316.199 228.397 316.755 228.865 317.324 229.578C317.885 230.291 318.475 231.249 318.828 232.461C319.201 233.66 319.326 235.12 318.983 236.638L318.839 236.409C321.508 237.052 324.593 237.795 327.87 238.585C330.75 239.295 333.481 239.968 335.918 240.568L335.667 240.736C335.968 239.064 336.723 237.637 337.72 236.642C338.712 235.635 339.899 235.115 340.888 234.883C341.136 234.83 341.374 234.78 341.6 234.733C341.824 234.716 342.037 234.701 342.24 234.686C342.434 234.674 342.617 234.663 342.79 234.652C342.953 234.662 343.106 234.672 343.248 234.681C343.797 234.719 344.088 234.749 344.086 234.771Z" fill="#263238"/>
<path d="M318.438 236.61C318.433 236.681 317.833 236.644 316.902 236.811C315.978 236.971 314.713 237.39 313.598 238.259C312.484 239.13 311.793 240.238 311.436 241.079C311.071 241.924 310.981 242.5 310.909 242.489C310.859 242.487 310.836 241.886 311.139 240.972C311.434 240.067 312.123 238.854 313.317 237.922C314.511 236.991 315.881 236.595 316.858 236.508C317.844 236.414 318.446 236.563 318.438 236.61Z" fill="#263238"/>
<path d="M340.293 249.873C340.22 249.858 340.37 249.231 340.367 248.215C340.37 247.207 340.163 245.79 339.449 244.415C338.734 243.039 337.683 242.033 336.846 241.433C336.005 240.824 335.397 240.567 335.426 240.501C335.441 240.456 336.104 240.615 337.026 241.181C337.942 241.738 339.094 242.765 339.85 244.221C340.606 245.677 340.77 247.183 340.685 248.225C340.604 249.278 340.34 249.887 340.293 249.873Z" fill="#263238"/>
<path d="M363.309 330.98C365.935 332.082 367.867 334.431 368.837 337.037C369.806 339.644 369.894 342.491 369.571 345.243C368.948 350.568 365.82 355.944 362.452 360.199C357.817 356.286 356.75 349.459 356.435 345.963C355.934 340.436 358.5 330.156 363.309 330.98Z" fill="#E8505B"/>
<path d="M367.839 368.988C367.097 365.978 368.392 362.676 370.78 360.618C373.168 358.559 376.504 357.688 379.693 357.925C381.168 358.034 382.761 358.45 383.605 359.624C384.394 360.723 384.306 362.255 383.665 363.44C383.024 364.626 381.916 365.512 380.745 366.222C376.73 368.661 372.381 370.307 367.839 368.988Z" fill="#E8505B"/>
<path d="M361.896 385.316C361.867 385.31 361.932 384.921 362.061 384.222C362.206 383.453 362.395 382.459 362.622 381.266C363.134 378.794 363.792 375.254 365.776 371.818C367.734 368.39 370.476 365.866 372.784 364.613C373.931 363.972 374.933 363.59 375.642 363.39C375.992 363.276 376.277 363.233 376.465 363.188C376.655 363.15 376.756 363.135 376.759 363.149C376.792 363.235 375.154 363.521 372.931 364.848C370.703 366.138 368.054 368.637 366.128 372.007C364.182 375.372 363.482 378.863 362.9 381.32C362.62 382.559 362.392 383.563 362.215 384.253C362.037 384.944 361.922 385.321 361.896 385.316Z" fill="#263238"/>
<path d="M362.07 338.975C362.083 338.975 362.102 339.139 362.126 339.453C362.148 339.807 362.176 340.262 362.211 340.825C362.277 342.018 362.349 343.744 362.42 345.877C362.562 350.144 362.674 356.042 362.647 362.556C362.616 369.073 362.451 374.97 362.271 379.236C362.18 381.369 362.093 383.094 362.016 384.285C361.977 384.847 361.945 385.303 361.92 385.656C361.934 385.657 361.893 385.97 361.92 385.656C361.981 385.179 361.839 385.967 361.839 385.653C361.844 385.298 361.851 384.842 361.861 384.278C361.892 383.037 361.934 381.323 361.988 379.226C362.096 374.961 362.216 369.067 362.246 362.554C362.273 356.044 362.207 350.151 362.137 345.883C362.103 343.786 362.075 342.072 362.055 340.83C362.051 340.266 362.048 339.81 362.046 339.455C362.048 339.141 362.056 338.976 362.07 338.975Z" fill="#263238"/>
<path d="M359.82 372.23C358.765 365.787 354.277 359.962 348.195 357.143C346.646 356.426 344.624 355.957 343.351 357.071C342.075 358.188 342.361 360.191 342.985 361.742C345.582 368.194 352.555 372.748 359.711 372.668" fill="#E8505B"/>
<path d="M348.947 362.194C348.959 362.17 349.307 362.318 349.931 362.61C350.244 362.753 350.625 362.93 351.042 363.183C351.458 363.434 351.961 363.68 352.456 364.041C352.962 364.387 353.526 364.755 354.075 365.22C354.651 365.655 355.211 366.179 355.798 366.735C356.94 367.873 358.089 369.232 359.071 370.803C360.037 372.384 360.738 374.006 361.228 375.521C361.448 376.286 361.66 377.012 361.772 377.711C361.928 378.402 361.987 379.057 362.05 379.654C362.135 380.249 362.106 380.794 362.127 381.268C362.149 381.744 362.118 382.152 362.089 382.486C362.039 383.153 361.998 383.519 361.971 383.518C361.88 383.514 362.038 382.037 361.768 379.681C361.688 379.095 361.614 378.45 361.445 377.773C361.321 377.087 361.099 376.376 360.874 375.625C360.374 374.141 359.676 372.555 358.727 371.002C357.762 369.459 356.642 368.117 355.533 366.983C354.962 366.43 354.42 365.904 353.861 365.466C353.329 364.996 352.782 364.621 352.293 364.265C350.302 362.884 348.906 362.269 348.947 362.194Z" fill="#263238"/>
</svg>
