<svg width="500" height="373" viewBox="0 0 500 373" fill="none" xmlns="http://www.w3.org/2000/svg">
<path d="M384.094 139.879C384.094 136.975 386.449 134.62 389.353 134.62C389.878 134.62 390.385 134.699 390.863 134.843C390.786 134.316 390.745 133.777 390.745 133.228C390.745 127.078 395.731 122.092 401.881 122.092C402.582 122.092 403.267 122.16 403.932 122.284C405.643 119.483 408.72 117.606 412.243 117.606C417.575 117.606 421.901 121.891 421.98 127.204C422.034 127.203 422.088 127.196 422.142 127.196C427.096 127.196 431.113 131.212 431.113 136.167C431.113 141.121 427.097 145.138 422.142 145.138H389.197L389.204 145.131C386.369 145.052 384.094 142.734 384.094 139.879Z" fill="#F0F0F0"/>
<path d="M89.4492 116.129C89.4492 113.225 91.8042 110.87 94.7082 110.87C95.2332 110.87 95.7402 110.949 96.2182 111.093C96.1412 110.566 96.1002 110.027 96.1002 109.479C96.1002 103.329 101.086 98.3429 107.236 98.3429C107.937 98.3429 108.622 98.4109 109.287 98.5349C110.999 95.7339 114.075 93.8569 117.599 93.8569C122.931 93.8569 127.257 98.1419 127.336 103.455C127.39 103.454 127.443 103.447 127.498 103.447C132.452 103.447 136.469 107.463 136.469 112.418C136.469 117.372 132.453 121.389 127.498 121.389H94.5532L94.5602 121.381C91.7252 121.301 89.4492 118.984 89.4492 116.129Z" fill="#F0F0F0"/>
<path d="M224.688 40.0239H205.513C205.564 39.5639 205.595 39.0989 205.595 38.6249C205.595 31.6539 199.944 26.0039 192.973 26.0039C192.818 26.0039 192.667 26.0219 192.514 26.0269C190.932 21.7829 186.855 18.7539 182.059 18.7539C175.892 18.7539 170.893 23.7529 170.893 29.9199C170.893 29.9289 170.894 29.9369 170.894 29.9449C165.426 30.1999 161.045 34.5629 160.761 40.0229H160.254C157.168 40.0229 154.643 42.5479 154.643 45.6339C154.643 48.7199 157.168 51.2449 160.254 51.2449H224.688C227.774 51.2449 230.299 48.7199 230.299 45.6339C230.3 42.5489 227.775 40.0239 224.688 40.0239Z" fill="#F0F0F0"/>
<path d="M366.715 48.0359C363.719 43.2559 358.419 40.0659 352.361 40.0659C346.203 40.0659 340.828 43.3619 337.861 48.2759C337.082 48.0579 336.264 47.9329 335.416 47.9329C330.403 47.9329 326.338 51.9969 326.338 57.0109C326.338 57.0149 326.339 57.0189 326.339 57.0229H321.553C319.06 57.0229 317.02 59.0629 317.02 61.5559C317.02 64.0489 319.06 66.0889 321.553 66.0889H338.069C341.076 70.8129 346.346 73.9559 352.361 73.9559C357.104 73.9559 361.386 72.0019 364.462 68.8619C364.748 68.8849 365.035 68.9059 365.327 68.9059C371.118 68.9059 375.813 64.2109 375.813 58.4199C375.813 53.0999 371.849 48.7169 366.715 48.0359Z" fill="#F0F0F0"/>
<path d="M265.824 112.147C262.828 107.367 257.528 104.177 251.47 104.177C245.312 104.177 239.937 107.473 236.97 112.387C236.191 112.169 235.373 112.044 234.525 112.044C229.512 112.044 225.447 116.108 225.447 121.122C225.447 121.126 225.448 121.13 225.448 121.134H220.662C218.169 121.134 216.129 123.174 216.129 125.667C216.129 128.16 218.169 130.2 220.662 130.2H237.178C240.185 134.924 245.455 138.067 251.47 138.067C256.213 138.067 260.495 136.113 263.571 132.973C263.857 132.996 264.144 133.017 264.436 133.017C270.227 133.017 274.922 128.322 274.922 122.531C274.922 117.211 270.958 112.827 265.824 112.147Z" fill="#F0F0F0"/>
</svg>
