<svg width="500" height="374" viewBox="0 0 500 374" fill="none" xmlns="http://www.w3.org/2000/svg">
<path d="M500 328.398H0V328.648H500V328.398Z" fill="#EBEBEB"/>
<path d="M449.901 344.494H416.779V344.744H449.901V344.494Z" fill="#EBEBEB"/>
<path d="M331.22 347.208H322.527V347.458H331.22V347.208Z" fill="#EBEBEB"/>
<path d="M415.778 335.208H396.586V335.458H415.778V335.208Z" fill="#EBEBEB"/>
<path d="M95.652 336.888H52.459V337.138H95.652V336.888Z" fill="#EBEBEB"/>
<path d="M110.89 336.888H104.557V337.138H110.89V336.888Z" fill="#EBEBEB"/>
<path d="M225.147 341.111H131.471V341.361H225.147V341.111Z" fill="#EBEBEB"/>
<path d="M237.014 283.8H43.915C40.768 283.8 38.207 281.239 38.207 278.092V6.66015C38.207 3.51315 40.768 0.952148 43.915 0.952148H237.014C240.16 0.952148 242.721 3.51315 242.721 6.66015V278.092C242.721 281.239 240.16 283.8 237.014 283.8ZM43.915 1.20315C40.905 1.20315 38.457 3.65115 38.457 6.66115V278.093C38.457 281.103 40.905 283.551 43.915 283.551H237.014C240.023 283.551 242.471 281.103 242.471 278.093V6.66015C242.471 3.65115 240.023 1.20215 237.014 1.20215L43.915 1.20315Z" fill="#EBEBEB"/>
<path d="M453.311 283.8H260.213C257.066 283.8 254.506 281.239 254.506 278.092V6.66015C254.506 3.51315 257.067 0.952148 260.213 0.952148H453.311C456.459 0.952148 459.019 3.51315 459.019 6.66015V278.092C459.02 281.239 456.459 283.8 453.311 283.8ZM260.213 1.20315C257.204 1.20315 254.756 3.65115 254.756 6.66115V278.093C254.756 281.103 257.204 283.551 260.213 283.551H453.311C456.321 283.551 458.769 281.103 458.769 278.093V6.66015C458.769 3.65115 456.321 1.20215 453.311 1.20215L260.213 1.20315Z" fill="#EBEBEB"/>
<path d="M56.4375 328.25V280.453H60.5245V257.68H66.4985V178.498H75.1345V168.281L93.5735 159.682V149.38H96.1275V178.498H99.7035V257.68H103.279V216.046H112.986V194.59H115.694V257.68H123.066V233.67H127.919V227.54H139.158V206.595H145.312V191.78H152.878V170.197H155.577V191.78H163.143V206.595H169.298V227.54H180.536V233.67H185.391V257.68H191.145V227.54H202.384V162.662H205.96V155.51H229.97V162.662H235.078V209.66H255.514V214.258H263.175V217.834H255.514V236.224H276.968V174.922H281.566V161.895H291.528V115.663H294.338V161.895H301.489V174.922H343.419V170.635H345.973V199.753H349.549V200.264H351.697V229.382H355.273V237.3H362.831V215.845H365.54V266.93H368.555V245.474H371.264V278.935H372.911V254.925H377.765V248.795H389.003V227.85H395.158V213.035H402.723V191.452H405.423V213.035H412.989V227.85H419.143V248.795H430.382V254.925H435.234V278.424H436.105V278.935H438.509V328.25H56.4375Z" fill="#E6E6E6"/>
<path d="M320.024 177.787H317.129V180.682H320.024V177.787Z" fill="#F0F0F0"/>
<path d="M320.024 182.64H317.129V185.535H320.024V182.64Z" fill="#F0F0F0"/>
<path d="M320.024 202.052H317.129V204.947H320.024V202.052Z" fill="#F0F0F0"/>
<path d="M320.024 206.905H317.129V209.8H320.024V206.905Z" fill="#F0F0F0"/>
<path d="M320.024 211.758H317.129V214.653H320.024V211.758Z" fill="#F0F0F0"/>
<path d="M320.024 226.318H317.129V229.213H320.024V226.318Z" fill="#F0F0F0"/>
<path d="M320.024 231.171H317.129V234.066H320.024V231.171Z" fill="#F0F0F0"/>
<path d="M315.426 197.199H312.531V200.094H315.426V197.199Z" fill="#F0F0F0"/>
<path d="M315.426 202.052H312.531V204.947H315.426V202.052Z" fill="#F0F0F0"/>
<path d="M315.426 206.905H312.531V209.8H315.426V206.905Z" fill="#F0F0F0"/>
<path d="M315.426 211.758H312.531V214.653H315.426V211.758Z" fill="#F0F0F0"/>
<path d="M315.426 216.611H312.531V219.506H315.426V216.611Z" fill="#F0F0F0"/>
<path d="M315.426 226.318H312.531V229.213H315.426V226.318Z" fill="#F0F0F0"/>
<path d="M315.426 231.171H312.531V234.066H315.426V231.171Z" fill="#F0F0F0"/>
<path d="M310.829 177.787H307.934V180.682H310.829V177.787Z" fill="#F0F0F0"/>
<path d="M310.829 182.64H307.934V185.535H310.829V182.64Z" fill="#F0F0F0"/>
<path d="M310.829 187.493H307.934V190.388H310.829V187.493Z" fill="#F0F0F0"/>
<path d="M310.829 192.346H307.934V195.241H310.829V192.346Z" fill="#F0F0F0"/>
<path d="M310.829 197.199H307.934V200.094H310.829V197.199Z" fill="#F0F0F0"/>
<path d="M310.829 202.052H307.934V204.947H310.829V202.052Z" fill="#F0F0F0"/>
<path d="M310.829 206.905H307.934V209.8H310.829V206.905Z" fill="#F0F0F0"/>
<path d="M310.829 211.758H307.934V214.653H310.829V211.758Z" fill="#F0F0F0"/>
<path d="M310.829 216.611H307.934V219.506H310.829V216.611Z" fill="#F0F0F0"/>
<path d="M310.829 221.465H307.934V224.36H310.829V221.465Z" fill="#F0F0F0"/>
<path d="M310.829 231.171H307.934V234.066H310.829V231.171Z" fill="#F0F0F0"/>
<path d="M306.231 177.787H303.336V180.682H306.231V177.787Z" fill="#F0F0F0"/>
<path d="M306.231 182.64H303.336V185.535H306.231V182.64Z" fill="#F0F0F0"/>
<path d="M306.231 187.493H303.336V190.388H306.231V187.493Z" fill="#F0F0F0"/>
<path d="M306.231 192.346H303.336V195.241H306.231V192.346Z" fill="#F0F0F0"/>
<path d="M306.231 197.199H303.336V200.094H306.231V197.199Z" fill="#F0F0F0"/>
<path d="M306.231 202.052H303.336V204.947H306.231V202.052Z" fill="#F0F0F0"/>
<path d="M306.231 206.905H303.336V209.8H306.231V206.905Z" fill="#F0F0F0"/>
<path d="M306.231 250.583H303.336V253.478H306.231V250.583Z" fill="#F0F0F0"/>
<path d="M301.633 177.787H298.738V180.682H301.633V177.787Z" fill="#F0F0F0"/>
<path d="M301.633 182.64H298.738V185.535H301.633V182.64Z" fill="#F0F0F0"/>
<path d="M301.633 187.493H298.738V190.388H301.633V187.493Z" fill="#F0F0F0"/>
<path d="M301.633 192.346H298.738V195.241H301.633V192.346Z" fill="#F0F0F0"/>
<path d="M301.633 197.199H298.738V200.094H301.633V197.199Z" fill="#F0F0F0"/>
<path d="M301.633 202.052H298.738V204.947H301.633V202.052Z" fill="#F0F0F0"/>
<path d="M301.633 206.905H298.738V209.8H301.633V206.905Z" fill="#F0F0F0"/>
<path d="M301.633 211.758H298.738V214.653H301.633V211.758Z" fill="#F0F0F0"/>
<path d="M301.633 240.877H298.738V243.772H301.633V240.877Z" fill="#F0F0F0"/>
<path d="M301.633 245.73H298.738V248.625H301.633V245.73Z" fill="#F0F0F0"/>
<path d="M301.633 250.583H298.738V253.478H301.633V250.583Z" fill="#F0F0F0"/>
<path d="M301.633 255.436H298.738V258.331H301.633V255.436Z" fill="#F0F0F0"/>
<path d="M301.633 274.849H298.738V277.744H301.633V274.849Z" fill="#F0F0F0"/>
<path d="M297.036 177.787H294.141V180.682H297.036V177.787Z" fill="#F0F0F0"/>
<path d="M297.036 182.64H294.141V185.535H297.036V182.64Z" fill="#F0F0F0"/>
<path d="M297.036 187.493H294.141V190.388H297.036V187.493Z" fill="#F0F0F0"/>
<path d="M297.036 192.346H294.141V195.241H297.036V192.346Z" fill="#F0F0F0"/>
<path d="M297.036 197.199H294.141V200.094H297.036V197.199Z" fill="#F0F0F0"/>
<path d="M297.036 202.052H294.141V204.947H297.036V202.052Z" fill="#F0F0F0"/>
<path d="M297.036 206.905H294.141V209.8H297.036V206.905Z" fill="#F0F0F0"/>
<path d="M297.036 211.758H294.141V214.653H297.036V211.758Z" fill="#F0F0F0"/>
<path d="M297.036 216.611H294.141V219.506H297.036V216.611Z" fill="#F0F0F0"/>
<path d="M297.036 221.465H294.141V224.36H297.036V221.465Z" fill="#F0F0F0"/>
<path d="M297.036 236.024H294.141V238.919H297.036V236.024Z" fill="#F0F0F0"/>
<path d="M297.036 240.877H294.141V243.772H297.036V240.877Z" fill="#F0F0F0"/>
<path d="M297.036 245.73H294.141V248.625H297.036V245.73Z" fill="#F0F0F0"/>
<path d="M297.036 250.583H294.141V253.478H297.036V250.583Z" fill="#F0F0F0"/>
<path d="M297.036 255.436H294.141V258.331H297.036V255.436Z" fill="#F0F0F0"/>
<path d="M297.036 274.849H294.141V277.744H297.036V274.849Z" fill="#F0F0F0"/>
<path d="M292.438 177.787H289.543V180.682H292.438V177.787Z" fill="#F0F0F0"/>
<path d="M292.438 182.64H289.543V185.535H292.438V182.64Z" fill="#F0F0F0"/>
<path d="M292.438 187.493H289.543V190.388H292.438V187.493Z" fill="#F0F0F0"/>
<path d="M292.438 192.346H289.543V195.241H292.438V192.346Z" fill="#F0F0F0"/>
<path d="M292.438 197.199H289.543V200.094H292.438V197.199Z" fill="#F0F0F0"/>
<path d="M292.438 202.052H289.543V204.947H292.438V202.052Z" fill="#F0F0F0"/>
<path d="M292.438 206.905H289.543V209.8H292.438V206.905Z" fill="#F0F0F0"/>
<path d="M292.438 211.758H289.543V214.653H292.438V211.758Z" fill="#F0F0F0"/>
<path d="M292.438 216.611H289.543V219.506H292.438V216.611Z" fill="#F0F0F0"/>
<path d="M292.438 221.465H289.543V224.36H292.438V221.465Z" fill="#F0F0F0"/>
<path d="M292.438 226.318H289.543V229.213H292.438V226.318Z" fill="#F0F0F0"/>
<path d="M292.438 231.171H289.543V234.066H292.438V231.171Z" fill="#F0F0F0"/>
<path d="M292.438 236.024H289.543V238.919H292.438V236.024Z" fill="#F0F0F0"/>
<path d="M292.438 240.877H289.543V243.772H292.438V240.877Z" fill="#F0F0F0"/>
<path d="M292.438 245.73H289.543V248.625H292.438V245.73Z" fill="#F0F0F0"/>
<path d="M292.438 250.583H289.543V253.478H292.438V250.583Z" fill="#F0F0F0"/>
<path d="M292.438 255.436H289.543V258.331H292.438V255.436Z" fill="#F0F0F0"/>
<path d="M292.438 260.289H289.543V263.184H292.438V260.289Z" fill="#F0F0F0"/>
<path d="M287.84 177.787H284.945V180.682H287.84V177.787Z" fill="#F0F0F0"/>
<path d="M287.84 182.64H284.945V185.535H287.84V182.64Z" fill="#F0F0F0"/>
<path d="M287.84 187.493H284.945V190.388H287.84V187.493Z" fill="#F0F0F0"/>
<path d="M287.84 192.346H284.945V195.241H287.84V192.346Z" fill="#F0F0F0"/>
<path d="M287.84 197.199H284.945V200.094H287.84V197.199Z" fill="#F0F0F0"/>
<path d="M287.84 202.052H284.945V204.947H287.84V202.052Z" fill="#F0F0F0"/>
<path d="M287.84 206.905H284.945V209.8H287.84V206.905Z" fill="#F0F0F0"/>
<path d="M287.84 211.758H284.945V214.653H287.84V211.758Z" fill="#F0F0F0"/>
<path d="M287.84 216.611H284.945V219.506H287.84V216.611Z" fill="#F0F0F0"/>
<path d="M287.84 221.465H284.945V224.36H287.84V221.465Z" fill="#F0F0F0"/>
<path d="M287.84 236.024H284.945V238.919H287.84V236.024Z" fill="#F0F0F0"/>
<path d="M287.84 240.877H284.945V243.772H287.84V240.877Z" fill="#F0F0F0"/>
<path d="M287.84 245.73H284.945V248.625H287.84V245.73Z" fill="#F0F0F0"/>
<path d="M287.84 250.583H284.945V253.478H287.84V250.583Z" fill="#F0F0F0"/>
<path d="M283.243 177.787H280.348V180.682H283.243V177.787Z" fill="#F0F0F0"/>
<path d="M283.243 182.64H280.348V185.535H283.243V182.64Z" fill="#F0F0F0"/>
<path d="M283.243 187.493H280.348V190.388H283.243V187.493Z" fill="#F0F0F0"/>
<path d="M283.243 192.346H280.348V195.241H283.243V192.346Z" fill="#F0F0F0"/>
<path d="M283.243 197.199H280.348V200.094H283.243V197.199Z" fill="#F0F0F0"/>
<path d="M283.243 202.052H280.348V204.947H283.243V202.052Z" fill="#F0F0F0"/>
<path d="M283.243 206.905H280.348V209.8H283.243V206.905Z" fill="#F0F0F0"/>
<path d="M283.243 211.758H280.348V214.653H283.243V211.758Z" fill="#F0F0F0"/>
<path d="M283.243 216.611H280.348V219.506H283.243V216.611Z" fill="#F0F0F0"/>
<path d="M283.243 221.465H280.348V224.36H283.243V221.465Z" fill="#F0F0F0"/>
<path d="M283.243 236.024H280.348V238.919H283.243V236.024Z" fill="#F0F0F0"/>
<path d="M283.243 240.877H280.348V243.772H283.243V240.877Z" fill="#F0F0F0"/>
<path d="M283.243 245.73H280.348V248.625H283.243V245.73Z" fill="#F0F0F0"/>
<path d="M231.477 165.186H228.582V168.081H231.477V165.186Z" fill="#F0F0F0"/>
<path d="M231.477 170.039H228.582V172.934H231.477V170.039Z" fill="#F0F0F0"/>
<path d="M231.477 174.892H228.582V177.787H231.477V174.892Z" fill="#F0F0F0"/>
<path d="M231.477 179.745H228.582V182.64H231.477V179.745Z" fill="#F0F0F0"/>
<path d="M231.477 184.598H228.582V187.493H231.477V184.598Z" fill="#F0F0F0"/>
<path d="M231.477 189.451H228.582V192.346H231.477V189.451Z" fill="#F0F0F0"/>
<path d="M231.477 194.305H228.582V197.2H231.477V194.305Z" fill="#F0F0F0"/>
<path d="M231.477 199.157H228.582V202.052H231.477V199.157Z" fill="#F0F0F0"/>
<path d="M231.477 213.717H228.582V216.612H231.477V213.717Z" fill="#F0F0F0"/>
<path d="M231.477 218.57H228.582V221.465H231.477V218.57Z" fill="#F0F0F0"/>
<path d="M226.879 165.186H223.984V168.081H226.879V165.186Z" fill="#F0F0F0"/>
<path d="M226.879 170.039H223.984V172.934H226.879V170.039Z" fill="#F0F0F0"/>
<path d="M226.879 174.892H223.984V177.787H226.879V174.892Z" fill="#F0F0F0"/>
<path d="M226.879 179.745H223.984V182.64H226.879V179.745Z" fill="#F0F0F0"/>
<path d="M226.879 184.598H223.984V187.493H226.879V184.598Z" fill="#F0F0F0"/>
<path d="M226.879 189.451H223.984V192.346H226.879V189.451Z" fill="#F0F0F0"/>
<path d="M226.879 194.305H223.984V197.2H226.879V194.305Z" fill="#F0F0F0"/>
<path d="M226.879 199.157H223.984V202.052H226.879V199.157Z" fill="#F0F0F0"/>
<path d="M226.879 218.57H223.984V221.465H226.879V218.57Z" fill="#F0F0F0"/>
<path d="M222.282 165.186H219.387V168.081H222.282V165.186Z" fill="#F0F0F0"/>
<path d="M222.282 170.039H219.387V172.934H222.282V170.039Z" fill="#F0F0F0"/>
<path d="M222.282 174.892H219.387V177.787H222.282V174.892Z" fill="#F0F0F0"/>
<path d="M222.282 179.745H219.387V182.64H222.282V179.745Z" fill="#F0F0F0"/>
<path d="M222.282 184.598H219.387V187.493H222.282V184.598Z" fill="#F0F0F0"/>
<path d="M222.282 189.451H219.387V192.346H222.282V189.451Z" fill="#F0F0F0"/>
<path d="M222.282 194.305H219.387V197.2H222.282V194.305Z" fill="#F0F0F0"/>
<path d="M222.282 199.157H219.387V202.052H222.282V199.157Z" fill="#F0F0F0"/>
<path d="M217.684 165.186H214.789V168.081H217.684V165.186Z" fill="#F0F0F0"/>
<path d="M217.684 170.039H214.789V172.934H217.684V170.039Z" fill="#F0F0F0"/>
<path d="M217.684 174.892H214.789V177.787H217.684V174.892Z" fill="#F0F0F0"/>
<path d="M217.684 179.745H214.789V182.64H217.684V179.745Z" fill="#F0F0F0"/>
<path d="M217.684 184.598H214.789V187.493H217.684V184.598Z" fill="#F0F0F0"/>
<path d="M217.684 189.451H214.789V192.346H217.684V189.451Z" fill="#F0F0F0"/>
<path d="M217.684 199.157H214.789V202.052H217.684V199.157Z" fill="#F0F0F0"/>
<path d="M217.684 204.01H214.789V206.905H217.684V204.01Z" fill="#F0F0F0"/>
<path d="M217.684 218.57H214.789V221.465H217.684V218.57Z" fill="#F0F0F0"/>
<path d="M217.684 223.423H214.789V226.318H217.684V223.423Z" fill="#F0F0F0"/>
<path d="M217.684 228.276H214.789V231.171H217.684V228.276Z" fill="#F0F0F0"/>
<path d="M217.684 233.129H214.789V236.024H217.684V233.129Z" fill="#F0F0F0"/>
<path d="M217.684 237.982H214.789V240.877H217.684V237.982Z" fill="#F0F0F0"/>
<path d="M217.684 242.835H214.789V245.73H217.684V242.835Z" fill="#F0F0F0"/>
<path d="M217.684 247.688H214.789V250.583H217.684V247.688Z" fill="#F0F0F0"/>
<path d="M213.086 165.186H210.191V168.081H213.086V165.186Z" fill="#F0F0F0"/>
<path d="M213.086 170.039H210.191V172.934H213.086V170.039Z" fill="#F0F0F0"/>
<path d="M213.086 174.892H210.191V177.787H213.086V174.892Z" fill="#F0F0F0"/>
<path d="M213.086 179.745H210.191V182.64H213.086V179.745Z" fill="#F0F0F0"/>
<path d="M213.086 184.598H210.191V187.493H213.086V184.598Z" fill="#F0F0F0"/>
<path d="M213.086 189.451H210.191V192.346H213.086V189.451Z" fill="#F0F0F0"/>
<path d="M213.086 204.01H210.191V206.905H213.086V204.01Z" fill="#F0F0F0"/>
<path d="M213.086 208.863H210.191V211.758H213.086V208.863Z" fill="#F0F0F0"/>
<path d="M213.086 213.717H210.191V216.612H213.086V213.717Z" fill="#F0F0F0"/>
<path d="M213.086 218.57H210.191V221.465H213.086V218.57Z" fill="#F0F0F0"/>
<path d="M213.086 223.423H210.191V226.318H213.086V223.423Z" fill="#F0F0F0"/>
<path d="M213.086 228.276H210.191V231.171H213.086V228.276Z" fill="#F0F0F0"/>
<path d="M213.086 233.129H210.191V236.024H213.086V233.129Z" fill="#F0F0F0"/>
<path d="M213.086 237.982H210.191V240.877H213.086V237.982Z" fill="#F0F0F0"/>
<path d="M213.086 242.835H210.191V245.73H213.086V242.835Z" fill="#F0F0F0"/>
<path d="M213.086 247.688H210.191V250.583H213.086V247.688Z" fill="#F0F0F0"/>
<path d="M213.086 252.541H210.191V255.436H213.086V252.541Z" fill="#F0F0F0"/>
<path d="M213.086 262.248H210.191V265.143H213.086V262.248Z" fill="#F0F0F0"/>
<path d="M208.489 165.186H205.594V168.081H208.489V165.186Z" fill="#F0F0F0"/>
<path d="M208.489 170.039H205.594V172.934H208.489V170.039Z" fill="#F0F0F0"/>
<path d="M208.489 174.892H205.594V177.787H208.489V174.892Z" fill="#F0F0F0"/>
<path d="M208.489 179.745H205.594V182.64H208.489V179.745Z" fill="#F0F0F0"/>
<path d="M208.489 184.598H205.594V187.493H208.489V184.598Z" fill="#F0F0F0"/>
<path d="M208.489 189.451H205.594V192.346H208.489V189.451Z" fill="#F0F0F0"/>
<path d="M208.489 204.01H205.594V206.905H208.489V204.01Z" fill="#F0F0F0"/>
<path d="M208.489 208.863H205.594V211.758H208.489V208.863Z" fill="#F0F0F0"/>
<path d="M208.489 213.717H205.594V216.612H208.489V213.717Z" fill="#F0F0F0"/>
<path d="M208.489 218.57H205.594V221.465H208.489V218.57Z" fill="#F0F0F0"/>
<path d="M208.489 233.129H205.594V236.024H208.489V233.129Z" fill="#F0F0F0"/>
<path d="M208.489 237.982H205.594V240.877H208.489V237.982Z" fill="#F0F0F0"/>
<path d="M208.489 242.835H205.594V245.73H208.489V242.835Z" fill="#F0F0F0"/>
<path d="M208.489 247.688H205.594V250.583H208.489V247.688Z" fill="#F0F0F0"/>
<path d="M208.489 252.541H205.594V255.436H208.489V252.541Z" fill="#F0F0F0"/>
<path d="M208.489 262.248H205.594V265.143H208.489V262.248Z" fill="#F0F0F0"/>
<path d="M208.489 267.101H205.594V269.996H208.489V267.101Z" fill="#F0F0F0"/>
<path d="M166.77 210.311H163.875V213.206H166.77V210.311Z" fill="#F0F0F0"/>
<path d="M166.77 215.164H163.875V218.059H166.77V215.164Z" fill="#F0F0F0"/>
<path d="M166.77 220.017H163.875V222.912H166.77V220.017Z" fill="#F0F0F0"/>
<path d="M166.77 224.87H163.875V227.765H166.77V224.87Z" fill="#F0F0F0"/>
<path d="M166.77 229.724H163.875V232.619H166.77V229.724Z" fill="#F0F0F0"/>
<path d="M166.77 234.577H163.875V237.472H166.77V234.577Z" fill="#F0F0F0"/>
<path d="M166.77 239.43H163.875V242.325H166.77V239.43Z" fill="#F0F0F0"/>
<path d="M166.77 253.989H163.875V256.884H166.77V253.989Z" fill="#F0F0F0"/>
<path d="M166.77 258.842H163.875V261.737H166.77V258.842Z" fill="#F0F0F0"/>
<path d="M166.77 263.695H163.875V266.59H166.77V263.695Z" fill="#F0F0F0"/>
<path d="M162.172 210.311H159.277V213.206H162.172V210.311Z" fill="#F0F0F0"/>
<path d="M162.172 215.164H159.277V218.059H162.172V215.164Z" fill="#F0F0F0"/>
<path d="M162.172 220.017H159.277V222.912H162.172V220.017Z" fill="#F0F0F0"/>
<path d="M162.172 224.87H159.277V227.765H162.172V224.87Z" fill="#F0F0F0"/>
<path d="M162.172 229.724H159.277V232.619H162.172V229.724Z" fill="#F0F0F0"/>
<path d="M162.172 234.577H159.277V237.472H162.172V234.577Z" fill="#F0F0F0"/>
<path d="M162.172 239.43H159.277V242.325H162.172V239.43Z" fill="#F0F0F0"/>
<path d="M157.575 210.311H154.68V213.206H157.575V210.311Z" fill="#F0F0F0"/>
<path d="M157.575 215.164H154.68V218.059H157.575V215.164Z" fill="#F0F0F0"/>
<path d="M157.575 220.017H154.68V222.912H157.575V220.017Z" fill="#F0F0F0"/>
<path d="M157.575 224.87H154.68V227.765H157.575V224.87Z" fill="#F0F0F0"/>
<path d="M157.575 229.724H154.68V232.619H157.575V229.724Z" fill="#F0F0F0"/>
<path d="M157.575 234.577H154.68V237.472H157.575V234.577Z" fill="#F0F0F0"/>
<path d="M157.575 239.43H154.68V242.325H157.575V239.43Z" fill="#F0F0F0"/>
<path d="M152.975 210.311H150.08V213.206H152.975V210.311Z" fill="#F0F0F0"/>
<path d="M152.975 215.164H150.08V218.059H152.975V215.164Z" fill="#F0F0F0"/>
<path d="M152.975 220.017H150.08V222.912H152.975V220.017Z" fill="#F0F0F0"/>
<path d="M152.975 224.87H150.08V227.765H152.975V224.87Z" fill="#F0F0F0"/>
<path d="M152.975 229.724H150.08V232.619H152.975V229.724Z" fill="#F0F0F0"/>
<path d="M152.975 234.577H150.08V237.472H152.975V234.577Z" fill="#F0F0F0"/>
<path d="M152.975 239.43H150.08V242.325H152.975V239.43Z" fill="#F0F0F0"/>
<path d="M152.975 244.283H150.08V247.178H152.975V244.283Z" fill="#F0F0F0"/>
<path d="M152.975 249.136H150.08V252.031H152.975V249.136Z" fill="#F0F0F0"/>
<path d="M152.975 253.989H150.08V256.884H152.975V253.989Z" fill="#F0F0F0"/>
<path d="M152.975 258.842H150.08V261.737H152.975V258.842Z" fill="#F0F0F0"/>
<path d="M148.379 210.311H145.484V213.206H148.379V210.311Z" fill="#F0F0F0"/>
<path d="M148.379 215.164H145.484V218.059H148.379V215.164Z" fill="#F0F0F0"/>
<path d="M148.379 220.017H145.484V222.912H148.379V220.017Z" fill="#F0F0F0"/>
<path d="M148.379 224.87H145.484V227.765H148.379V224.87Z" fill="#F0F0F0"/>
<path d="M148.379 229.724H145.484V232.619H148.379V229.724Z" fill="#F0F0F0"/>
<path d="M148.379 234.577H145.484V237.472H148.379V234.577Z" fill="#F0F0F0"/>
<path d="M148.379 239.43H145.484V242.325H148.379V239.43Z" fill="#F0F0F0"/>
<path d="M148.379 244.283H145.484V247.178H148.379V244.283Z" fill="#F0F0F0"/>
<path d="M148.379 249.136H145.484V252.031H148.379V249.136Z" fill="#F0F0F0"/>
<path d="M148.379 253.989H145.484V256.884H148.379V253.989Z" fill="#F0F0F0"/>
<path d="M148.379 258.842H145.484V261.737H148.379V258.842Z" fill="#F0F0F0"/>
<path d="M148.379 263.695H145.484V266.59H148.379V263.695Z" fill="#F0F0F0"/>
<path d="M148.379 278.254H145.484V281.149H148.379V278.254Z" fill="#F0F0F0"/>
<path d="M148.379 283.107H145.484V286.002H148.379V283.107Z" fill="#F0F0F0"/>
<path d="M143.782 210.311H140.887V213.206H143.782V210.311Z" fill="#F0F0F0"/>
<path d="M143.782 215.164H140.887V218.059H143.782V215.164Z" fill="#F0F0F0"/>
<path d="M143.782 220.017H140.887V222.912H143.782V220.017Z" fill="#F0F0F0"/>
<path d="M143.782 234.577H140.887V237.472H143.782V234.577Z" fill="#F0F0F0"/>
<path d="M143.782 239.43H140.887V242.325H143.782V239.43Z" fill="#F0F0F0"/>
<path d="M143.782 244.283H140.887V247.178H143.782V244.283Z" fill="#F0F0F0"/>
<path d="M143.782 249.136H140.887V252.031H143.782V249.136Z" fill="#F0F0F0"/>
<path d="M143.782 253.989H140.887V256.884H143.782V253.989Z" fill="#F0F0F0"/>
<path d="M143.782 258.842H140.887V261.737H143.782V258.842Z" fill="#F0F0F0"/>
<path d="M143.782 263.695H140.887V266.59H143.782V263.695Z" fill="#F0F0F0"/>
<path d="M143.782 278.254H140.887V281.149H143.782V278.254Z" fill="#F0F0F0"/>
<path d="M143.782 283.107H140.887V286.002H143.782V283.107Z" fill="#F0F0F0"/>
<path d="M143.782 287.96H140.887V290.855H143.782V287.96Z" fill="#F0F0F0"/>
<path d="M95.5903 181.193H92.6953V184.088H95.5903V181.193Z" fill="#F0F0F0"/>
<path d="M95.5903 186.046H92.6953V188.941H95.5903V186.046Z" fill="#F0F0F0"/>
<path d="M95.5903 190.899H92.6953V193.794H95.5903V190.899Z" fill="#F0F0F0"/>
<path d="M95.5903 195.752H92.6953V198.647H95.5903V195.752Z" fill="#F0F0F0"/>
<path d="M95.5903 200.605H92.6953V203.5H95.5903V200.605Z" fill="#F0F0F0"/>
<path d="M95.5903 205.458H92.6953V208.353H95.5903V205.458Z" fill="#F0F0F0"/>
<path d="M95.5903 210.311H92.6953V213.206H95.5903V210.311Z" fill="#F0F0F0"/>
<path d="M95.5903 215.164H92.6953V218.059H95.5903V215.164Z" fill="#F0F0F0"/>
<path d="M95.5903 220.017H92.6953V222.912H95.5903V220.017Z" fill="#F0F0F0"/>
<path d="M95.5903 224.87H92.6953V227.765H95.5903V224.87Z" fill="#F0F0F0"/>
<path d="M95.5903 229.724H92.6953V232.619H95.5903V229.724Z" fill="#F0F0F0"/>
<path d="M95.5903 234.577H92.6953V237.472H95.5903V234.577Z" fill="#F0F0F0"/>
<path d="M95.5903 239.43H92.6953V242.325H95.5903V239.43Z" fill="#F0F0F0"/>
<path d="M95.5903 244.283H92.6953V247.178H95.5903V244.283Z" fill="#F0F0F0"/>
<path d="M95.5903 249.136H92.6953V252.031H95.5903V249.136Z" fill="#F0F0F0"/>
<path d="M95.5903 253.989H92.6953V256.884H95.5903V253.989Z" fill="#F0F0F0"/>
<path d="M95.5903 258.842H92.6953V261.737H95.5903V258.842Z" fill="#F0F0F0"/>
<path d="M95.5903 263.695H92.6953V266.59H95.5903V263.695Z" fill="#F0F0F0"/>
<path d="M95.5903 268.548H92.6953V271.443H95.5903V268.548Z" fill="#F0F0F0"/>
<path d="M95.5903 273.401H92.6953V276.296H95.5903V273.401Z" fill="#F0F0F0"/>
<path d="M95.5903 278.254H92.6953V281.149H95.5903V278.254Z" fill="#F0F0F0"/>
<path d="M95.5903 283.107H92.6953V286.002H95.5903V283.107Z" fill="#F0F0F0"/>
<path d="M95.5903 287.96H92.6953V290.855H95.5903V287.96Z" fill="#F0F0F0"/>
<path d="M90.9927 181.193H88.0977V184.088H90.9927V181.193Z" fill="#F0F0F0"/>
<path d="M90.9927 186.046H88.0977V188.941H90.9927V186.046Z" fill="#F0F0F0"/>
<path d="M90.9927 190.899H88.0977V193.794H90.9927V190.899Z" fill="#F0F0F0"/>
<path d="M90.9927 195.752H88.0977V198.647H90.9927V195.752Z" fill="#F0F0F0"/>
<path d="M90.9927 200.605H88.0977V203.5H90.9927V200.605Z" fill="#F0F0F0"/>
<path d="M90.9927 205.458H88.0977V208.353H90.9927V205.458Z" fill="#F0F0F0"/>
<path d="M90.9927 210.311H88.0977V213.206H90.9927V210.311Z" fill="#F0F0F0"/>
<path d="M90.9927 215.164H88.0977V218.059H90.9927V215.164Z" fill="#F0F0F0"/>
<path d="M90.9927 220.017H88.0977V222.912H90.9927V220.017Z" fill="#F0F0F0"/>
<path d="M90.9927 224.87H88.0977V227.765H90.9927V224.87Z" fill="#F0F0F0"/>
<path d="M90.9927 229.724H88.0977V232.619H90.9927V229.724Z" fill="#F0F0F0"/>
<path d="M90.9927 234.577H88.0977V237.472H90.9927V234.577Z" fill="#F0F0F0"/>
<path d="M90.9927 239.43H88.0977V242.325H90.9927V239.43Z" fill="#F0F0F0"/>
<path d="M90.9927 244.283H88.0977V247.178H90.9927V244.283Z" fill="#F0F0F0"/>
<path d="M90.9927 249.136H88.0977V252.031H90.9927V249.136Z" fill="#F0F0F0"/>
<path d="M90.9927 253.989H88.0977V256.884H90.9927V253.989Z" fill="#F0F0F0"/>
<path d="M90.9927 258.842H88.0977V261.737H90.9927V258.842Z" fill="#F0F0F0"/>
<path d="M90.9927 263.695H88.0977V266.59H90.9927V263.695Z" fill="#F0F0F0"/>
<path d="M90.9927 268.548H88.0977V271.443H90.9927V268.548Z" fill="#F0F0F0"/>
<path d="M86.397 181.193H83.502V184.088H86.397V181.193Z" fill="#F0F0F0"/>
<path d="M86.397 186.046H83.502V188.941H86.397V186.046Z" fill="#F0F0F0"/>
<path d="M86.397 190.899H83.502V193.794H86.397V190.899Z" fill="#F0F0F0"/>
<path d="M86.397 195.752H83.502V198.647H86.397V195.752Z" fill="#F0F0F0"/>
<path d="M86.397 200.605H83.502V203.5H86.397V200.605Z" fill="#F0F0F0"/>
<path d="M86.397 205.458H83.502V208.353H86.397V205.458Z" fill="#F0F0F0"/>
<path d="M86.397 210.311H83.502V213.206H86.397V210.311Z" fill="#F0F0F0"/>
<path d="M86.397 215.164H83.502V218.059H86.397V215.164Z" fill="#F0F0F0"/>
<path d="M86.397 220.017H83.502V222.912H86.397V220.017Z" fill="#F0F0F0"/>
<path d="M86.397 224.87H83.502V227.765H86.397V224.87Z" fill="#F0F0F0"/>
<path d="M86.397 229.724H83.502V232.619H86.397V229.724Z" fill="#F0F0F0"/>
<path d="M86.397 234.577H83.502V237.472H86.397V234.577Z" fill="#F0F0F0"/>
<path d="M86.397 239.43H83.502V242.325H86.397V239.43Z" fill="#F0F0F0"/>
<path d="M86.397 244.283H83.502V247.178H86.397V244.283Z" fill="#F0F0F0"/>
<path d="M86.397 249.136H83.502V252.031H86.397V249.136Z" fill="#F0F0F0"/>
<path d="M86.397 253.989H83.502V256.884H86.397V253.989Z" fill="#F0F0F0"/>
<path d="M86.397 258.842H83.502V261.737H86.397V258.842Z" fill="#F0F0F0"/>
<path d="M86.397 263.695H83.502V266.59H86.397V263.695Z" fill="#F0F0F0"/>
<path d="M86.397 268.548H83.502V271.443H86.397V268.548Z" fill="#F0F0F0"/>
<path d="M81.7973 181.193H78.9023V184.088H81.7973V181.193Z" fill="#F0F0F0"/>
<path d="M81.7973 186.046H78.9023V188.941H81.7973V186.046Z" fill="#F0F0F0"/>
<path d="M81.7973 190.899H78.9023V193.794H81.7973V190.899Z" fill="#F0F0F0"/>
<path d="M81.7973 195.752H78.9023V198.647H81.7973V195.752Z" fill="#F0F0F0"/>
<path d="M81.7973 200.605H78.9023V203.5H81.7973V200.605Z" fill="#F0F0F0"/>
<path d="M81.7973 205.458H78.9023V208.353H81.7973V205.458Z" fill="#F0F0F0"/>
<path d="M81.7973 210.311H78.9023V213.206H81.7973V210.311Z" fill="#F0F0F0"/>
<path d="M81.7973 215.164H78.9023V218.059H81.7973V215.164Z" fill="#F0F0F0"/>
<path d="M81.7973 220.017H78.9023V222.912H81.7973V220.017Z" fill="#F0F0F0"/>
<path d="M81.7973 224.87H78.9023V227.765H81.7973V224.87Z" fill="#F0F0F0"/>
<path d="M81.7973 229.724H78.9023V232.619H81.7973V229.724Z" fill="#F0F0F0"/>
<path d="M81.7973 234.577H78.9023V237.472H81.7973V234.577Z" fill="#F0F0F0"/>
<path d="M81.7973 239.43H78.9023V242.325H81.7973V239.43Z" fill="#F0F0F0"/>
<path d="M81.7973 244.283H78.9023V247.178H81.7973V244.283Z" fill="#F0F0F0"/>
<path d="M81.7973 249.136H78.9023V252.031H81.7973V249.136Z" fill="#F0F0F0"/>
<path d="M77.1997 181.193H74.3047V184.088H77.1997V181.193Z" fill="#F0F0F0"/>
<path d="M77.1997 186.046H74.3047V188.941H77.1997V186.046Z" fill="#F0F0F0"/>
<path d="M77.1997 190.899H74.3047V193.794H77.1997V190.899Z" fill="#F0F0F0"/>
<path d="M77.1997 195.752H74.3047V198.647H77.1997V195.752Z" fill="#F0F0F0"/>
<path d="M77.1997 200.605H74.3047V203.5H77.1997V200.605Z" fill="#F0F0F0"/>
<path d="M77.1997 205.458H74.3047V208.353H77.1997V205.458Z" fill="#F0F0F0"/>
<path d="M77.1997 210.311H74.3047V213.206H77.1997V210.311Z" fill="#F0F0F0"/>
<path d="M77.1997 215.164H74.3047V218.059H77.1997V215.164Z" fill="#F0F0F0"/>
<path d="M77.1997 220.017H74.3047V222.912H77.1997V220.017Z" fill="#F0F0F0"/>
<path d="M77.1997 224.87H74.3047V227.765H77.1997V224.87Z" fill="#F0F0F0"/>
<path d="M77.1997 229.724H74.3047V232.619H77.1997V229.724Z" fill="#F0F0F0"/>
<path d="M77.1997 234.577H74.3047V237.472H77.1997V234.577Z" fill="#F0F0F0"/>
<path d="M77.1997 239.43H74.3047V242.325H77.1997V239.43Z" fill="#F0F0F0"/>
<path d="M72.602 181.193H69.707V184.088H72.602V181.193Z" fill="#F0F0F0"/>
<path d="M72.602 186.046H69.707V188.941H72.602V186.046Z" fill="#F0F0F0"/>
<path d="M72.602 190.899H69.707V193.794H72.602V190.899Z" fill="#F0F0F0"/>
<path d="M72.602 195.752H69.707V198.647H72.602V195.752Z" fill="#F0F0F0"/>
<path d="M72.602 200.605H69.707V203.5H72.602V200.605Z" fill="#F0F0F0"/>
<path d="M72.602 205.458H69.707V208.353H72.602V205.458Z" fill="#F0F0F0"/>
<path d="M72.602 210.311H69.707V213.206H72.602V210.311Z" fill="#F0F0F0"/>
<path d="M72.602 215.164H69.707V218.059H72.602V215.164Z" fill="#F0F0F0"/>
<path d="M72.602 220.017H69.707V222.912H72.602V220.017Z" fill="#F0F0F0"/>
<path d="M72.602 224.87H69.707V227.765H72.602V224.87Z" fill="#F0F0F0"/>
<path d="M72.602 229.724H69.707V232.619H72.602V229.724Z" fill="#F0F0F0"/>
<path d="M72.602 234.577H69.707V237.472H72.602V234.577Z" fill="#F0F0F0"/>
<path d="M410.446 216.611H407.551V219.506H410.446V216.611Z" fill="#F0F0F0"/>
<path d="M410.446 221.465H407.551V224.36H410.446V221.465Z" fill="#F0F0F0"/>
<path d="M410.446 226.318H407.551V229.213H410.446V226.318Z" fill="#F0F0F0"/>
<path d="M410.446 231.171H407.551V234.066H410.446V231.171Z" fill="#F0F0F0"/>
<path d="M410.446 236.024H407.551V238.919H410.446V236.024Z" fill="#F0F0F0"/>
<path d="M410.446 240.877H407.551V243.772H410.446V240.877Z" fill="#F0F0F0"/>
<path d="M410.446 245.73H407.551V248.625H410.446V245.73Z" fill="#F0F0F0"/>
<path d="M410.446 250.583H407.551V253.478H410.446V250.583Z" fill="#F0F0F0"/>
<path d="M410.446 255.436H407.551V258.331H410.446V255.436Z" fill="#F0F0F0"/>
<path d="M410.446 260.289H407.551V263.184H410.446V260.289Z" fill="#F0F0F0"/>
<path d="M410.446 265.142H407.551V268.037H410.446V265.142Z" fill="#F0F0F0"/>
<path d="M410.446 269.995H407.551V272.89H410.446V269.995Z" fill="#F0F0F0"/>
<path d="M410.446 274.849H407.551V277.744H410.446V274.849Z" fill="#F0F0F0"/>
<path d="M410.446 279.702H407.551V282.597H410.446V279.702Z" fill="#F0F0F0"/>
<path d="M410.446 284.555H407.551V287.45H410.446V284.555Z" fill="#F0F0F0"/>
<path d="M410.446 289.408H407.551V292.303H410.446V289.408Z" fill="#F0F0F0"/>
<path d="M410.446 294.261H407.551V297.156H410.446V294.261Z" fill="#F0F0F0"/>
<path d="M410.446 299.114H407.551V302.009H410.446V299.114Z" fill="#F0F0F0"/>
<path d="M410.446 303.967H407.551V306.862H410.446V303.967Z" fill="#F0F0F0"/>
<path d="M410.446 308.82H407.551V311.715H410.446V308.82Z" fill="#F0F0F0"/>
<path d="M405.846 216.611H402.951V219.506H405.846V216.611Z" fill="#F0F0F0"/>
<path d="M405.846 221.465H402.951V224.36H405.846V221.465Z" fill="#F0F0F0"/>
<path d="M405.846 226.318H402.951V229.213H405.846V226.318Z" fill="#F0F0F0"/>
<path d="M405.846 231.171H402.951V234.066H405.846V231.171Z" fill="#F0F0F0"/>
<path d="M405.846 236.024H402.951V238.919H405.846V236.024Z" fill="#F0F0F0"/>
<path d="M405.846 240.877H402.951V243.772H405.846V240.877Z" fill="#F0F0F0"/>
<path d="M405.846 245.73H402.951V248.625H405.846V245.73Z" fill="#F0F0F0"/>
<path d="M405.846 250.583H402.951V253.478H405.846V250.583Z" fill="#F0F0F0"/>
<path d="M405.846 255.436H402.951V258.331H405.846V255.436Z" fill="#F0F0F0"/>
<path d="M405.846 260.289H402.951V263.184H405.846V260.289Z" fill="#F0F0F0"/>
<path d="M405.846 265.142H402.951V268.037H405.846V265.142Z" fill="#F0F0F0"/>
<path d="M405.846 269.995H402.951V272.89H405.846V269.995Z" fill="#F0F0F0"/>
<path d="M405.846 274.849H402.951V277.744H405.846V274.849Z" fill="#F0F0F0"/>
<path d="M405.846 279.702H402.951V282.597H405.846V279.702Z" fill="#F0F0F0"/>
<path d="M405.846 284.555H402.951V287.45H405.846V284.555Z" fill="#F0F0F0"/>
<path d="M405.846 289.408H402.951V292.303H405.846V289.408Z" fill="#F0F0F0"/>
<path d="M405.846 294.261H402.951V297.156H405.846V294.261Z" fill="#F0F0F0"/>
<path d="M405.846 299.114H402.951V302.009H405.846V299.114Z" fill="#F0F0F0"/>
<path d="M401.25 216.611H398.355V219.506H401.25V216.611Z" fill="#F0F0F0"/>
<path d="M401.25 221.465H398.355V224.36H401.25V221.465Z" fill="#F0F0F0"/>
<path d="M401.25 226.318H398.355V229.213H401.25V226.318Z" fill="#F0F0F0"/>
<path d="M401.25 231.171H398.355V234.066H401.25V231.171Z" fill="#F0F0F0"/>
<path d="M401.25 236.024H398.355V238.919H401.25V236.024Z" fill="#F0F0F0"/>
<path d="M401.25 240.877H398.355V243.772H401.25V240.877Z" fill="#F0F0F0"/>
<path d="M401.25 245.73H398.355V248.625H401.25V245.73Z" fill="#F0F0F0"/>
<path d="M401.25 250.583H398.355V253.478H401.25V250.583Z" fill="#F0F0F0"/>
<path d="M401.25 255.436H398.355V258.331H401.25V255.436Z" fill="#F0F0F0"/>
<path d="M401.25 260.289H398.355V263.184H401.25V260.289Z" fill="#F0F0F0"/>
<path d="M401.25 265.142H398.355V268.037H401.25V265.142Z" fill="#F0F0F0"/>
<path d="M401.25 269.995H398.355V272.89H401.25V269.995Z" fill="#F0F0F0"/>
<path d="M401.25 274.849H398.355V277.744H401.25V274.849Z" fill="#F0F0F0"/>
<path d="M401.25 279.702H398.355V282.597H401.25V279.702Z" fill="#F0F0F0"/>
<path d="M401.25 284.555H398.355V287.45H401.25V284.555Z" fill="#F0F0F0"/>
<path d="M401.25 289.408H398.355V292.303H401.25V289.408Z" fill="#F0F0F0"/>
<path d="M401.25 294.261H398.355V297.156H401.25V294.261Z" fill="#F0F0F0"/>
<path d="M401.25 299.114H398.355V302.009H401.25V299.114Z" fill="#F0F0F0"/>
<path d="M427.645 252.03H424.75V254.925H427.645V252.03Z" fill="#F0F0F0"/>
<path d="M427.645 256.884H424.75V259.779H427.645V256.884Z" fill="#F0F0F0"/>
<path d="M427.645 261.737H424.75V264.632H427.645V261.737Z" fill="#F0F0F0"/>
<path d="M427.645 266.59H424.75V269.485H427.645V266.59Z" fill="#F0F0F0"/>
<path d="M427.645 271.443H424.75V274.338H427.645V271.443Z" fill="#F0F0F0"/>
<path d="M427.645 276.296H424.75V279.191H427.645V276.296Z" fill="#F0F0F0"/>
<path d="M427.645 281.149H424.75V284.044H427.645V281.149Z" fill="#F0F0F0"/>
<path d="M427.645 286.002H424.75V288.897H427.645V286.002Z" fill="#F0F0F0"/>
<path d="M427.645 290.855H424.75V293.75H427.645V290.855Z" fill="#F0F0F0"/>
<path d="M427.645 295.708H424.75V298.603H427.645V295.708Z" fill="#F0F0F0"/>
<path d="M427.645 300.561H424.75V303.456H427.645V300.561Z" fill="#F0F0F0"/>
<path d="M427.645 305.414H424.75V308.309H427.645V305.414Z" fill="#F0F0F0"/>
<path d="M427.645 310.267H424.75V313.162H427.645V310.267Z" fill="#F0F0F0"/>
<path d="M423.045 252.03H420.15V254.925H423.045V252.03Z" fill="#F0F0F0"/>
<path d="M423.045 256.884H420.15V259.779H423.045V256.884Z" fill="#F0F0F0"/>
<path d="M423.045 261.737H420.15V264.632H423.045V261.737Z" fill="#F0F0F0"/>
<path d="M423.045 266.59H420.15V269.485H423.045V266.59Z" fill="#F0F0F0"/>
<path d="M423.045 271.443H420.15V274.338H423.045V271.443Z" fill="#F0F0F0"/>
<path d="M423.045 276.296H420.15V279.191H423.045V276.296Z" fill="#F0F0F0"/>
<path d="M423.045 281.149H420.15V284.044H423.045V281.149Z" fill="#F0F0F0"/>
<path d="M423.045 286.002H420.15V288.897H423.045V286.002Z" fill="#F0F0F0"/>
<path d="M423.045 290.855H420.15V293.75H423.045V290.855Z" fill="#F0F0F0"/>
<path d="M423.045 295.708H420.15V298.603H423.045V295.708Z" fill="#F0F0F0"/>
<path d="M423.045 300.561H420.15V303.456H423.045V300.561Z" fill="#F0F0F0"/>
<path d="M423.045 305.414H420.15V308.309H423.045V305.414Z" fill="#F0F0F0"/>
<path d="M423.045 310.267H420.15V313.162H423.045V310.267Z" fill="#F0F0F0"/>
<path d="M418.448 252.03H415.553V254.925H418.448V252.03Z" fill="#F0F0F0"/>
<path d="M418.448 256.884H415.553V259.779H418.448V256.884Z" fill="#F0F0F0"/>
<path d="M418.448 261.737H415.553V264.632H418.448V261.737Z" fill="#F0F0F0"/>
<path d="M418.448 266.59H415.553V269.485H418.448V266.59Z" fill="#F0F0F0"/>
<path d="M418.448 271.443H415.553V274.338H418.448V271.443Z" fill="#F0F0F0"/>
<path d="M418.448 276.296H415.553V279.191H418.448V276.296Z" fill="#F0F0F0"/>
<path d="M418.448 281.149H415.553V284.044H418.448V281.149Z" fill="#F0F0F0"/>
<path d="M418.448 286.002H415.553V288.897H418.448V286.002Z" fill="#F0F0F0"/>
<path d="M418.448 290.855H415.553V293.75H418.448V290.855Z" fill="#F0F0F0"/>
<path d="M418.448 295.708H415.553V298.603H418.448V295.708Z" fill="#F0F0F0"/>
<path d="M418.448 300.561H415.553V303.456H418.448V300.561Z" fill="#F0F0F0"/>
<path d="M418.448 305.414H415.553V308.309H418.448V305.414Z" fill="#F0F0F0"/>
<path d="M418.448 310.267H415.553V313.162H418.448V310.267Z" fill="#F0F0F0"/>
<path d="M418.448 315.121H415.553V318.016H418.448V315.121Z" fill="#F0F0F0"/>
<path d="M392.907 253.478H390.012V256.373H392.907V253.478Z" fill="#F0F0F0"/>
<path d="M392.907 258.331H390.012V261.226H392.907V258.331Z" fill="#F0F0F0"/>
<path d="M392.907 263.184H390.012V266.079H392.907V263.184Z" fill="#F0F0F0"/>
<path d="M392.907 268.037H390.012V270.932H392.907V268.037Z" fill="#F0F0F0"/>
<path d="M392.907 272.89H390.012V275.785H392.907V272.89Z" fill="#F0F0F0"/>
<path d="M392.907 277.743H390.012V280.638H392.907V277.743Z" fill="#F0F0F0"/>
<path d="M392.907 282.596H390.012V285.491H392.907V282.596Z" fill="#F0F0F0"/>
<path d="M392.907 287.449H390.012V290.344H392.907V287.449Z" fill="#F0F0F0"/>
<path d="M392.907 292.302H390.012V295.197H392.907V292.302Z" fill="#F0F0F0"/>
<path d="M392.907 297.156H390.012V300.051H392.907V297.156Z" fill="#F0F0F0"/>
<path d="M392.907 311.715H390.012V314.61H392.907V311.715Z" fill="#F0F0F0"/>
<path d="M388.307 253.478H385.412V256.373H388.307V253.478Z" fill="#F0F0F0"/>
<path d="M388.307 258.331H385.412V261.226H388.307V258.331Z" fill="#F0F0F0"/>
<path d="M388.307 263.184H385.412V266.079H388.307V263.184Z" fill="#F0F0F0"/>
<path d="M388.307 268.037H385.412V270.932H388.307V268.037Z" fill="#F0F0F0"/>
<path d="M388.307 272.89H385.412V275.785H388.307V272.89Z" fill="#F0F0F0"/>
<path d="M388.307 277.743H385.412V280.638H388.307V277.743Z" fill="#F0F0F0"/>
<path d="M388.307 282.596H385.412V285.491H388.307V282.596Z" fill="#F0F0F0"/>
<path d="M388.307 287.449H385.412V290.344H388.307V287.449Z" fill="#F0F0F0"/>
<path d="M388.307 292.302H385.412V295.197H388.307V292.302Z" fill="#F0F0F0"/>
<path d="M388.307 306.862H385.412V309.757H388.307V306.862Z" fill="#F0F0F0"/>
<path d="M388.307 311.715H385.412V314.61H388.307V311.715Z" fill="#F0F0F0"/>
<path d="M383.709 253.478H380.814V256.373H383.709V253.478Z" fill="#F0F0F0"/>
<path d="M383.709 258.331H380.814V261.226H383.709V258.331Z" fill="#F0F0F0"/>
<path d="M383.709 263.184H380.814V266.079H383.709V263.184Z" fill="#F0F0F0"/>
<path d="M383.709 268.037H380.814V270.932H383.709V268.037Z" fill="#F0F0F0"/>
<path d="M383.709 272.89H380.814V275.785H383.709V272.89Z" fill="#F0F0F0"/>
<path d="M383.709 277.743H380.814V280.638H383.709V277.743Z" fill="#F0F0F0"/>
<path d="M383.709 282.596H380.814V285.491H383.709V282.596Z" fill="#F0F0F0"/>
<path d="M383.709 287.449H380.814V290.344H383.709V287.449Z" fill="#F0F0F0"/>
<path d="M383.709 302.009H380.814V304.904H383.709V302.009Z" fill="#F0F0F0"/>
<path d="M383.709 306.862H380.814V309.757H383.709V306.862Z" fill="#F0F0F0"/>
<path d="M383.709 311.715H380.814V314.61H383.709V311.715Z" fill="#F0F0F0"/>
<path d="M340.969 179.745H338.074V182.64H340.969V179.745Z" fill="#F0F0F0"/>
<path d="M340.969 184.598H338.074V187.493H340.969V184.598Z" fill="#F0F0F0"/>
<path d="M340.969 189.451H338.074V192.346H340.969V189.451Z" fill="#F0F0F0"/>
<path d="M340.969 194.305H338.074V197.2H340.969V194.305Z" fill="#F0F0F0"/>
<path d="M340.969 199.157H338.074V202.052H340.969V199.157Z" fill="#F0F0F0"/>
<path d="M340.969 204.01H338.074V206.905H340.969V204.01Z" fill="#F0F0F0"/>
<path d="M340.969 208.863H338.074V211.758H340.969V208.863Z" fill="#F0F0F0"/>
<path d="M340.969 213.717H338.074V216.612H340.969V213.717Z" fill="#F0F0F0"/>
<path d="M340.969 218.57H338.074V221.465H340.969V218.57Z" fill="#F0F0F0"/>
<path d="M340.969 223.423H338.074V226.318H340.969V223.423Z" fill="#F0F0F0"/>
<path d="M340.969 228.276H338.074V231.171H340.969V228.276Z" fill="#F0F0F0"/>
<path d="M340.969 233.129H338.074V236.024H340.969V233.129Z" fill="#F0F0F0"/>
<path d="M340.969 237.982H338.074V240.877H340.969V237.982Z" fill="#F0F0F0"/>
<path d="M340.969 242.835H338.074V245.73H340.969V242.835Z" fill="#F0F0F0"/>
<path d="M340.969 247.688H338.074V250.583H340.969V247.688Z" fill="#F0F0F0"/>
<path d="M340.969 252.541H338.074V255.436H340.969V252.541Z" fill="#F0F0F0"/>
<path d="M340.969 257.394H338.074V260.289H340.969V257.394Z" fill="#F0F0F0"/>
<path d="M340.969 267.101H338.074V269.996H340.969V267.101Z" fill="#F0F0F0"/>
<path d="M340.969 271.954H338.074V274.849H340.969V271.954Z" fill="#F0F0F0"/>
<path d="M340.969 276.807H338.074V279.702H340.969V276.807Z" fill="#F0F0F0"/>
<path d="M340.969 281.66H338.074V284.555H340.969V281.66Z" fill="#F0F0F0"/>
<path d="M340.969 286.513H338.074V289.408H340.969V286.513Z" fill="#F0F0F0"/>
<path d="M336.372 179.745H333.477V182.64H336.372V179.745Z" fill="#F0F0F0"/>
<path d="M336.372 184.598H333.477V187.493H336.372V184.598Z" fill="#F0F0F0"/>
<path d="M336.372 189.451H333.477V192.346H336.372V189.451Z" fill="#F0F0F0"/>
<path d="M336.372 194.305H333.477V197.2H336.372V194.305Z" fill="#F0F0F0"/>
<path d="M336.372 199.157H333.477V202.052H336.372V199.157Z" fill="#F0F0F0"/>
<path d="M336.372 204.01H333.477V206.905H336.372V204.01Z" fill="#F0F0F0"/>
<path d="M336.372 208.863H333.477V211.758H336.372V208.863Z" fill="#F0F0F0"/>
<path d="M336.372 213.717H333.477V216.612H336.372V213.717Z" fill="#F0F0F0"/>
<path d="M336.372 218.57H333.477V221.465H336.372V218.57Z" fill="#F0F0F0"/>
<path d="M336.372 223.423H333.477V226.318H336.372V223.423Z" fill="#F0F0F0"/>
<path d="M336.372 228.276H333.477V231.171H336.372V228.276Z" fill="#F0F0F0"/>
<path d="M336.372 233.129H333.477V236.024H336.372V233.129Z" fill="#F0F0F0"/>
<path d="M336.372 237.982H333.477V240.877H336.372V237.982Z" fill="#F0F0F0"/>
<path d="M336.372 242.835H333.477V245.73H336.372V242.835Z" fill="#F0F0F0"/>
<path d="M336.372 247.688H333.477V250.583H336.372V247.688Z" fill="#F0F0F0"/>
<path d="M336.372 252.541H333.477V255.436H336.372V252.541Z" fill="#F0F0F0"/>
<path d="M336.372 281.66H333.477V284.555H336.372V281.66Z" fill="#F0F0F0"/>
<path d="M336.372 286.513H333.477V289.408H336.372V286.513Z" fill="#F0F0F0"/>
<path d="M331.774 179.745H328.879V182.64H331.774V179.745Z" fill="#F0F0F0"/>
<path d="M331.774 184.598H328.879V187.493H331.774V184.598Z" fill="#F0F0F0"/>
<path d="M331.774 189.451H328.879V192.346H331.774V189.451Z" fill="#F0F0F0"/>
<path d="M331.774 194.305H328.879V197.2H331.774V194.305Z" fill="#F0F0F0"/>
<path d="M331.774 199.157H328.879V202.052H331.774V199.157Z" fill="#F0F0F0"/>
<path d="M331.774 204.01H328.879V206.905H331.774V204.01Z" fill="#F0F0F0"/>
<path d="M331.774 208.863H328.879V211.758H331.774V208.863Z" fill="#F0F0F0"/>
<path d="M331.774 213.717H328.879V216.612H331.774V213.717Z" fill="#F0F0F0"/>
<path d="M331.774 218.57H328.879V221.465H331.774V218.57Z" fill="#F0F0F0"/>
<path d="M331.774 223.423H328.879V226.318H331.774V223.423Z" fill="#F0F0F0"/>
<path d="M331.774 228.276H328.879V231.171H331.774V228.276Z" fill="#F0F0F0"/>
<path d="M331.774 233.129H328.879V236.024H331.774V233.129Z" fill="#F0F0F0"/>
<path d="M331.774 237.982H328.879V240.877H331.774V237.982Z" fill="#F0F0F0"/>
<path d="M331.774 242.835H328.879V245.73H331.774V242.835Z" fill="#F0F0F0"/>
<path d="M331.774 247.688H328.879V250.583H331.774V247.688Z" fill="#F0F0F0"/>
<path d="M331.774 252.541H328.879V255.436H331.774V252.541Z" fill="#F0F0F0"/>
<path d="M331.774 262.248H328.879V265.143H331.774V262.248Z" fill="#F0F0F0"/>
<path d="M331.774 267.101H328.879V269.996H331.774V267.101Z" fill="#F0F0F0"/>
<path d="M331.774 271.954H328.879V274.849H331.774V271.954Z" fill="#F0F0F0"/>
<path d="M331.774 276.807H328.879V279.702H331.774V276.807Z" fill="#F0F0F0"/>
<path d="M331.774 286.513H328.879V289.408H331.774V286.513Z" fill="#F0F0F0"/>
<path d="M357.657 240.877H354.762V243.772H357.657V240.877Z" fill="#F0F0F0"/>
<path d="M357.657 245.73H354.762V248.625H357.657V245.73Z" fill="#F0F0F0"/>
<path d="M357.657 250.583H354.762V253.478H357.657V250.583Z" fill="#F0F0F0"/>
<path d="M357.657 255.436H354.762V258.331H357.657V255.436Z" fill="#F0F0F0"/>
<path d="M357.657 260.289H354.762V263.184H357.657V260.289Z" fill="#F0F0F0"/>
<path d="M357.657 265.142H354.762V268.037H357.657V265.142Z" fill="#F0F0F0"/>
<path d="M357.657 269.995H354.762V272.89H357.657V269.995Z" fill="#F0F0F0"/>
<path d="M357.657 279.702H354.762V282.597H357.657V279.702Z" fill="#F0F0F0"/>
<path d="M357.657 284.555H354.762V287.45H357.657V284.555Z" fill="#F0F0F0"/>
<path d="M357.657 289.408H354.762V292.303H357.657V289.408Z" fill="#F0F0F0"/>
<path d="M357.657 294.261H354.762V297.156H357.657V294.261Z" fill="#F0F0F0"/>
<path d="M357.657 299.114H354.762V302.009H357.657V299.114Z" fill="#F0F0F0"/>
<path d="M357.657 303.967H354.762V306.862H357.657V303.967Z" fill="#F0F0F0"/>
<path d="M357.657 308.82H354.762V311.715H357.657V308.82Z" fill="#F0F0F0"/>
<path d="M357.657 313.673H354.762V316.568H357.657V313.673Z" fill="#F0F0F0"/>
<path d="M353.059 240.877H350.164V243.772H353.059V240.877Z" fill="#F0F0F0"/>
<path d="M353.059 245.73H350.164V248.625H353.059V245.73Z" fill="#F0F0F0"/>
<path d="M353.059 250.583H350.164V253.478H353.059V250.583Z" fill="#F0F0F0"/>
<path d="M353.059 255.436H350.164V258.331H353.059V255.436Z" fill="#F0F0F0"/>
<path d="M353.059 260.289H350.164V263.184H353.059V260.289Z" fill="#F0F0F0"/>
<path d="M353.059 265.142H350.164V268.037H353.059V265.142Z" fill="#F0F0F0"/>
<path d="M353.059 279.702H350.164V282.597H353.059V279.702Z" fill="#F0F0F0"/>
<path d="M353.059 284.555H350.164V287.45H353.059V284.555Z" fill="#F0F0F0"/>
<path d="M353.059 289.408H350.164V292.303H353.059V289.408Z" fill="#F0F0F0"/>
<path d="M353.059 294.261H350.164V297.156H353.059V294.261Z" fill="#F0F0F0"/>
<path d="M353.059 299.114H350.164V302.009H353.059V299.114Z" fill="#F0F0F0"/>
<path d="M353.059 303.967H350.164V306.862H353.059V303.967Z" fill="#F0F0F0"/>
<path d="M353.059 308.82H350.164V311.715H353.059V308.82Z" fill="#F0F0F0"/>
<path d="M353.059 313.673H350.164V316.568H353.059V313.673Z" fill="#F0F0F0"/>
<path d="M348.461 240.877H345.566V243.772H348.461V240.877Z" fill="#F0F0F0"/>
<path d="M348.461 245.73H345.566V248.625H348.461V245.73Z" fill="#F0F0F0"/>
<path d="M348.461 250.583H345.566V253.478H348.461V250.583Z" fill="#F0F0F0"/>
<path d="M348.461 255.436H345.566V258.331H348.461V255.436Z" fill="#F0F0F0"/>
<path d="M348.461 260.289H345.566V263.184H348.461V260.289Z" fill="#F0F0F0"/>
<path d="M348.461 265.142H345.566V268.037H348.461V265.142Z" fill="#F0F0F0"/>
<path d="M348.461 274.849H345.566V277.744H348.461V274.849Z" fill="#F0F0F0"/>
<path d="M348.461 279.702H345.566V282.597H348.461V279.702Z" fill="#F0F0F0"/>
<path d="M348.461 284.555H345.566V287.45H348.461V284.555Z" fill="#F0F0F0"/>
<path d="M348.461 289.408H345.566V292.303H348.461V289.408Z" fill="#F0F0F0"/>
<path d="M348.461 294.261H345.566V297.156H348.461V294.261Z" fill="#F0F0F0"/>
<path d="M348.461 299.114H345.566V302.009H348.461V299.114Z" fill="#F0F0F0"/>
<path d="M348.461 303.967H345.566V306.862H348.461V303.967Z" fill="#F0F0F0"/>
<path d="M348.461 308.82H345.566V311.715H348.461V308.82Z" fill="#F0F0F0"/>
<path d="M348.461 313.673H345.566V316.568H348.461V313.673Z" fill="#F0F0F0"/>
<path d="M251.571 213.717H248.676V216.612H251.571V213.717Z" fill="#F0F0F0"/>
<path d="M251.571 218.57H248.676V221.465H251.571V218.57Z" fill="#F0F0F0"/>
<path d="M251.571 223.423H248.676V226.318H251.571V223.423Z" fill="#F0F0F0"/>
<path d="M251.571 228.276H248.676V231.171H251.571V228.276Z" fill="#F0F0F0"/>
<path d="M251.571 233.129H248.676V236.024H251.571V233.129Z" fill="#F0F0F0"/>
<path d="M251.571 237.982H248.676V240.877H251.571V237.982Z" fill="#F0F0F0"/>
<path d="M251.571 242.835H248.676V245.73H251.571V242.835Z" fill="#F0F0F0"/>
<path d="M251.571 247.688H248.676V250.583H251.571V247.688Z" fill="#F0F0F0"/>
<path d="M251.571 252.541H248.676V255.436H251.571V252.541Z" fill="#F0F0F0"/>
<path d="M251.571 257.394H248.676V260.289H251.571V257.394Z" fill="#F0F0F0"/>
<path d="M251.571 262.248H248.676V265.143H251.571V262.248Z" fill="#F0F0F0"/>
<path d="M251.571 267.101H248.676V269.996H251.571V267.101Z" fill="#F0F0F0"/>
<path d="M251.571 271.954H248.676V274.849H251.571V271.954Z" fill="#F0F0F0"/>
<path d="M251.571 281.66H248.676V284.555H251.571V281.66Z" fill="#F0F0F0"/>
<path d="M251.571 286.513H248.676V289.408H251.571V286.513Z" fill="#F0F0F0"/>
<path d="M251.571 291.366H248.676V294.261H251.571V291.366Z" fill="#F0F0F0"/>
<path d="M251.571 296.219H248.676V299.114H251.571V296.219Z" fill="#F0F0F0"/>
<path d="M251.571 305.925H248.676V308.82H251.571V305.925Z" fill="#F0F0F0"/>
<path d="M251.571 310.778H248.676V313.673H251.571V310.778Z" fill="#F0F0F0"/>
<path d="M251.571 315.632H248.676V318.527H251.571V315.632Z" fill="#F0F0F0"/>
<path d="M246.973 213.717H244.078V216.612H246.973V213.717Z" fill="#F0F0F0"/>
<path d="M246.973 218.57H244.078V221.465H246.973V218.57Z" fill="#F0F0F0"/>
<path d="M246.973 223.423H244.078V226.318H246.973V223.423Z" fill="#F0F0F0"/>
<path d="M246.973 228.276H244.078V231.171H246.973V228.276Z" fill="#F0F0F0"/>
<path d="M246.973 233.129H244.078V236.024H246.973V233.129Z" fill="#F0F0F0"/>
<path d="M246.973 237.982H244.078V240.877H246.973V237.982Z" fill="#F0F0F0"/>
<path d="M246.973 242.835H244.078V245.73H246.973V242.835Z" fill="#F0F0F0"/>
<path d="M246.973 247.688H244.078V250.583H246.973V247.688Z" fill="#F0F0F0"/>
<path d="M246.973 252.541H244.078V255.436H246.973V252.541Z" fill="#F0F0F0"/>
<path d="M246.973 257.394H244.078V260.289H246.973V257.394Z" fill="#F0F0F0"/>
<path d="M246.973 262.248H244.078V265.143H246.973V262.248Z" fill="#F0F0F0"/>
<path d="M246.973 267.101H244.078V269.996H246.973V267.101Z" fill="#F0F0F0"/>
<path d="M246.973 271.954H244.078V274.849H246.973V271.954Z" fill="#F0F0F0"/>
<path d="M246.973 286.513H244.078V289.408H246.973V286.513Z" fill="#F0F0F0"/>
<path d="M246.973 291.366H244.078V294.261H246.973V291.366Z" fill="#F0F0F0"/>
<path d="M246.973 301.072H244.078V303.967H246.973V301.072Z" fill="#F0F0F0"/>
<path d="M246.973 305.925H244.078V308.82H246.973V305.925Z" fill="#F0F0F0"/>
<path d="M246.973 310.778H244.078V313.673H246.973V310.778Z" fill="#F0F0F0"/>
<path d="M246.973 315.632H244.078V318.527H246.973V315.632Z" fill="#F0F0F0"/>
<path d="M242.375 213.717H239.48V216.612H242.375V213.717Z" fill="#F0F0F0"/>
<path d="M242.375 218.57H239.48V221.465H242.375V218.57Z" fill="#F0F0F0"/>
<path d="M242.375 223.423H239.48V226.318H242.375V223.423Z" fill="#F0F0F0"/>
<path d="M242.375 228.276H239.48V231.171H242.375V228.276Z" fill="#F0F0F0"/>
<path d="M242.375 233.129H239.48V236.024H242.375V233.129Z" fill="#F0F0F0"/>
<path d="M242.375 237.982H239.48V240.877H242.375V237.982Z" fill="#F0F0F0"/>
<path d="M242.375 242.835H239.48V245.73H242.375V242.835Z" fill="#F0F0F0"/>
<path d="M242.375 247.688H239.48V250.583H242.375V247.688Z" fill="#F0F0F0"/>
<path d="M242.375 252.541H239.48V255.436H242.375V252.541Z" fill="#F0F0F0"/>
<path d="M242.375 257.394H239.48V260.289H242.375V257.394Z" fill="#F0F0F0"/>
<path d="M242.375 262.248H239.48V265.143H242.375V262.248Z" fill="#F0F0F0"/>
<path d="M242.375 267.101H239.48V269.996H242.375V267.101Z" fill="#F0F0F0"/>
<path d="M242.375 271.954H239.48V274.849H242.375V271.954Z" fill="#F0F0F0"/>
<path d="M242.375 276.807H239.48V279.702H242.375V276.807Z" fill="#F0F0F0"/>
<path d="M242.375 286.513H239.48V289.408H242.375V286.513Z" fill="#F0F0F0"/>
<path d="M242.375 296.219H239.48V299.114H242.375V296.219Z" fill="#F0F0F0"/>
<path d="M242.375 301.072H239.48V303.967H242.375V301.072Z" fill="#F0F0F0"/>
<path d="M242.375 305.925H239.48V308.82H242.375V305.925Z" fill="#F0F0F0"/>
<path d="M242.375 310.778H239.48V313.673H242.375V310.778Z" fill="#F0F0F0"/>
<path d="M242.375 315.632H239.48V318.527H242.375V315.632Z" fill="#F0F0F0"/>
<path d="M270.301 241.388H267.406V244.283H270.301V241.388Z" fill="#F0F0F0"/>
<path d="M270.301 246.241H267.406V249.136H270.301V246.241Z" fill="#F0F0F0"/>
<path d="M270.301 251.094H267.406V253.989H270.301V251.094Z" fill="#F0F0F0"/>
<path d="M270.301 255.947H267.406V258.842H270.301V255.947Z" fill="#F0F0F0"/>
<path d="M270.301 260.8H267.406V263.695H270.301V260.8Z" fill="#F0F0F0"/>
<path d="M270.301 265.653H267.406V268.548H270.301V265.653Z" fill="#F0F0F0"/>
<path d="M270.301 280.212H267.406V283.107H270.301V280.212Z" fill="#F0F0F0"/>
<path d="M270.301 285.066H267.406V287.961H270.301V285.066Z" fill="#F0F0F0"/>
<path d="M270.301 289.919H267.406V292.814H270.301V289.919Z" fill="#F0F0F0"/>
<path d="M270.301 294.772H267.406V297.667H270.301V294.772Z" fill="#F0F0F0"/>
<path d="M270.301 299.625H267.406V302.52H270.301V299.625Z" fill="#F0F0F0"/>
<path d="M270.301 304.478H267.406V307.373H270.301V304.478Z" fill="#F0F0F0"/>
<path d="M270.301 309.331H267.406V312.226H270.301V309.331Z" fill="#F0F0F0"/>
<path d="M265.704 241.388H262.809V244.283H265.704V241.388Z" fill="#F0F0F0"/>
<path d="M265.704 246.241H262.809V249.136H265.704V246.241Z" fill="#F0F0F0"/>
<path d="M265.704 251.094H262.809V253.989H265.704V251.094Z" fill="#F0F0F0"/>
<path d="M265.704 255.947H262.809V258.842H265.704V255.947Z" fill="#F0F0F0"/>
<path d="M265.704 260.8H262.809V263.695H265.704V260.8Z" fill="#F0F0F0"/>
<path d="M265.704 265.653H262.809V268.548H265.704V265.653Z" fill="#F0F0F0"/>
<path d="M265.704 280.212H262.809V283.107H265.704V280.212Z" fill="#F0F0F0"/>
<path d="M265.704 285.066H262.809V287.961H265.704V285.066Z" fill="#F0F0F0"/>
<path d="M265.704 289.919H262.809V292.814H265.704V289.919Z" fill="#F0F0F0"/>
<path d="M265.704 294.772H262.809V297.667H265.704V294.772Z" fill="#F0F0F0"/>
<path d="M265.704 299.625H262.809V302.52H265.704V299.625Z" fill="#F0F0F0"/>
<path d="M265.704 304.478H262.809V307.373H265.704V304.478Z" fill="#F0F0F0"/>
<path d="M265.704 314.184H262.809V317.079H265.704V314.184Z" fill="#F0F0F0"/>
<path d="M112.959 220.017H110.064V222.912H112.959V220.017Z" fill="#F0F0F0"/>
<path d="M112.959 224.87H110.064V227.765H112.959V224.87Z" fill="#F0F0F0"/>
<path d="M112.959 229.724H110.064V232.619H112.959V229.724Z" fill="#F0F0F0"/>
<path d="M112.959 234.577H110.064V237.472H112.959V234.577Z" fill="#F0F0F0"/>
<path d="M112.959 239.43H110.064V242.325H112.959V239.43Z" fill="#F0F0F0"/>
<path d="M112.959 244.283H110.064V247.178H112.959V244.283Z" fill="#F0F0F0"/>
<path d="M112.959 249.136H110.064V252.031H112.959V249.136Z" fill="#F0F0F0"/>
<path d="M112.959 253.989H110.064V256.884H112.959V253.989Z" fill="#F0F0F0"/>
<path d="M112.959 258.842H110.064V261.737H112.959V258.842Z" fill="#F0F0F0"/>
<path d="M112.959 263.695H110.064V266.59H112.959V263.695Z" fill="#F0F0F0"/>
<path d="M112.959 268.548H110.064V271.443H112.959V268.548Z" fill="#F0F0F0"/>
<path d="M112.959 278.254H110.064V281.149H112.959V278.254Z" fill="#F0F0F0"/>
<path d="M112.959 283.107H110.064V286.002H112.959V283.107Z" fill="#F0F0F0"/>
<path d="M112.959 287.96H110.064V290.855H112.959V287.96Z" fill="#F0F0F0"/>
<path d="M112.959 292.813H110.064V295.708H112.959V292.813Z" fill="#F0F0F0"/>
<path d="M112.959 297.667H110.064V300.562H112.959V297.667Z" fill="#F0F0F0"/>
<path d="M112.959 302.52H110.064V305.415H112.959V302.52Z" fill="#F0F0F0"/>
<path d="M112.959 307.373H110.064V310.268H112.959V307.373Z" fill="#F0F0F0"/>
<path d="M112.959 312.226H110.064V315.121H112.959V312.226Z" fill="#F0F0F0"/>
<path d="M108.362 220.017H105.467V222.912H108.362V220.017Z" fill="#F0F0F0"/>
<path d="M108.362 224.87H105.467V227.765H108.362V224.87Z" fill="#F0F0F0"/>
<path d="M108.362 229.724H105.467V232.619H108.362V229.724Z" fill="#F0F0F0"/>
<path d="M108.362 234.577H105.467V237.472H108.362V234.577Z" fill="#F0F0F0"/>
<path d="M108.362 239.43H105.467V242.325H108.362V239.43Z" fill="#F0F0F0"/>
<path d="M108.362 244.283H105.467V247.178H108.362V244.283Z" fill="#F0F0F0"/>
<path d="M108.362 249.136H105.467V252.031H108.362V249.136Z" fill="#F0F0F0"/>
<path d="M108.362 253.989H105.467V256.884H108.362V253.989Z" fill="#F0F0F0"/>
<path d="M108.362 258.842H105.467V261.737H108.362V258.842Z" fill="#F0F0F0"/>
<path d="M108.362 263.695H105.467V266.59H108.362V263.695Z" fill="#F0F0F0"/>
<path d="M108.362 268.548H105.467V271.443H108.362V268.548Z" fill="#F0F0F0"/>
<path d="M108.362 273.401H105.467V276.296H108.362V273.401Z" fill="#F0F0F0"/>
<path d="M108.362 278.254H105.467V281.149H108.362V278.254Z" fill="#F0F0F0"/>
<path d="M108.362 283.107H105.467V286.002H108.362V283.107Z" fill="#F0F0F0"/>
<path d="M108.362 287.96H105.467V290.855H108.362V287.96Z" fill="#F0F0F0"/>
<path d="M108.362 292.813H105.467V295.708H108.362V292.813Z" fill="#F0F0F0"/>
<path d="M108.362 297.667H105.467V300.562H108.362V297.667Z" fill="#F0F0F0"/>
<path d="M108.362 302.52H105.467V305.415H108.362V302.52Z" fill="#F0F0F0"/>
<path d="M108.362 307.373H105.467V310.268H108.362V307.373Z" fill="#F0F0F0"/>
<path d="M108.362 312.226H105.467V315.121H108.362V312.226Z" fill="#F0F0F0"/>
<path d="M135.608 238.919H132.713V241.814H135.608V238.919Z" fill="#F0F0F0"/>
<path d="M135.608 243.772H132.713V246.667H135.608V243.772Z" fill="#F0F0F0"/>
<path d="M135.608 248.625H132.713V251.52H135.608V248.625Z" fill="#F0F0F0"/>
<path d="M135.608 253.478H132.713V256.373H135.608V253.478Z" fill="#F0F0F0"/>
<path d="M135.608 258.331H132.713V261.226H135.608V258.331Z" fill="#F0F0F0"/>
<path d="M135.608 263.184H132.713V266.079H135.608V263.184Z" fill="#F0F0F0"/>
<path d="M135.608 268.037H132.713V270.932H135.608V268.037Z" fill="#F0F0F0"/>
<path d="M135.608 272.89H132.713V275.785H135.608V272.89Z" fill="#F0F0F0"/>
<path d="M135.608 277.743H132.713V280.638H135.608V277.743Z" fill="#F0F0F0"/>
<path d="M135.608 282.596H132.713V285.491H135.608V282.596Z" fill="#F0F0F0"/>
<path d="M131.01 238.919H128.115V241.814H131.01V238.919Z" fill="#F0F0F0"/>
<path d="M131.01 243.772H128.115V246.667H131.01V243.772Z" fill="#F0F0F0"/>
<path d="M131.01 248.625H128.115V251.52H131.01V248.625Z" fill="#F0F0F0"/>
<path d="M131.01 253.478H128.115V256.373H131.01V253.478Z" fill="#F0F0F0"/>
<path d="M131.01 258.331H128.115V261.226H131.01V258.331Z" fill="#F0F0F0"/>
<path d="M131.01 263.184H128.115V266.079H131.01V263.184Z" fill="#F0F0F0"/>
<path d="M131.01 268.037H128.115V270.932H131.01V268.037Z" fill="#F0F0F0"/>
<path d="M131.01 272.89H128.115V275.785H131.01V272.89Z" fill="#F0F0F0"/>
<path d="M131.01 277.743H128.115V280.638H131.01V277.743Z" fill="#F0F0F0"/>
<path d="M250 373.561C357.082 373.561 443.889 368.492 443.889 362.238C443.889 355.985 357.082 350.915 250 350.915C142.918 350.915 56.1113 355.985 56.1113 362.238C56.1113 368.492 142.918 373.561 250 373.561Z" fill="#F5F5F5"/>
<path d="M282.19 88.272C282.19 88.272 275.466 96.613 268.642 95.92C261.818 95.228 258.33 97.997 258.33 97.997L257.664 101.326L261.323 100.832C261.323 100.832 261.323 98.194 268.444 98.491C275.565 98.788 280.905 92.666 282.982 89.891L282.19 88.272Z" fill="#FF725E"/>
<path d="M330.493 74.4083L330.351 73.7523C330.279 73.4923 330.318 73.4583 330.072 72.8103C329.681 71.7963 329.023 70.9613 328.442 70.4383C327.238 69.3623 326.247 68.9823 325.383 68.6413C323.672 68.0353 322.309 67.8443 320.96 67.6793C319.624 67.5273 318.358 67.4613 317.111 67.4283C314.622 67.3563 312.223 67.4803 309.845 67.6293C305.076 67.9443 300.489 68.5073 295.773 69.3223L297.489 79.1743C301.801 78.4873 306.297 77.8583 310.648 77.4073C312.83 77.1853 315.005 77.0493 317.092 76.9823C318.132 76.9553 319.156 76.9593 320.099 77.0173C320.762 77.0563 321.418 77.1313 321.91 77.2163C321.941 77.5553 321.954 77.9263 321.942 78.3203C321.879 80.0203 321.453 82.0103 320.872 83.9933C319.698 87.9763 317.857 92.1133 315.951 95.9783L320.696 99.1433C323.728 95.3093 326.223 91.3263 328.289 86.7443C329.276 84.4343 330.149 81.9963 330.545 79.1353C330.736 77.7013 330.804 76.1383 330.493 74.4083Z" fill="#FF725E"/>
<path opacity="0.7" d="M330.543 79.1372C330.223 81.4972 329.563 83.5772 328.793 85.5272C328.633 85.9372 328.463 86.3472 328.293 86.7472C326.223 91.3272 323.723 95.3072 320.693 99.1372L315.953 95.9772C317.853 92.1072 319.693 87.9772 320.873 83.9872C321.273 82.6172 321.603 81.2372 321.783 79.9572C321.873 79.3872 321.923 78.8372 321.943 78.3172C321.953 77.9272 321.943 77.5572 321.913 77.2172C321.423 77.1272 320.763 77.0572 320.103 77.0172C319.153 76.9572 318.133 76.9572 317.093 76.9772C317.013 76.9772 316.943 76.9872 316.863 76.9872C314.843 77.0572 312.753 77.1972 310.643 77.4072C306.423 77.8472 302.083 78.4472 297.893 79.1172C297.753 79.1372 297.623 79.1572 297.493 79.1772L295.773 69.3172C300.493 68.5072 305.073 67.9472 309.843 67.6272C312.223 67.4772 314.623 67.3572 317.113 67.4272C318.363 67.4572 319.623 67.5272 320.963 67.6772C322.313 67.8472 323.673 68.0372 325.383 68.6372C326.243 68.9772 327.233 69.3572 328.443 70.4372C329.023 70.9572 329.683 71.7972 330.073 72.8072C330.313 73.4572 330.283 73.4872 330.353 73.7472L330.493 74.4072C330.803 76.1372 330.733 77.6972 330.543 79.1372Z" fill="white"/>
<path opacity="0.1" d="M316.865 76.9871C314.845 77.0571 312.755 77.1971 310.645 77.4071C306.425 77.8471 302.085 78.4471 297.895 79.1171C299.425 75.3571 300.995 71.5571 300.995 71.5571C300.995 71.5571 307.995 72.2271 316.865 76.9871Z" fill="black"/>
<path opacity="0.1" d="M328.795 85.527C328.635 85.937 328.465 86.347 328.295 86.747C326.225 91.327 323.725 95.307 320.695 99.137L315.955 95.977C317.855 92.107 319.695 87.977 320.875 83.987C321.275 82.617 321.605 81.237 321.785 79.957C324.095 81.507 326.455 83.347 328.795 85.527Z" fill="black"/>
<path d="M264.883 76.3893C265.156 76.7353 265.194 77.1603 264.968 77.3383C264.742 77.5173 264.337 77.3813 264.064 77.0353C263.791 76.6893 263.753 76.2643 263.979 76.0863C264.205 75.9083 264.61 76.0433 264.883 76.3893Z" fill="#263238"/>
<path d="M265.227 77.1353C265.227 77.1353 266.016 79.7513 265.911 81.3973C266.974 81.4853 267.807 80.4023 267.807 80.4023L265.227 77.1353Z" fill="#DE5753"/>
<path d="M264.633 73.4692C264.673 73.4212 264.697 73.3582 264.694 73.2902C264.688 73.1472 264.567 73.0372 264.424 73.0432C262.994 73.1062 262.376 74.1272 262.349 74.1722C262.276 74.2952 262.317 74.4542 262.44 74.5262C262.563 74.5982 262.722 74.5562 262.794 74.4362C262.814 74.4022 263.306 73.6112 264.447 73.5602C264.522 73.5572 264.588 73.5222 264.633 73.4692Z" fill="#263238"/>
<path d="M274.844 71.0391C278.148 73.4201 284.475 77.1881 288.065 75.7601C288.065 75.7601 291.292 78.4461 288.192 85.1931C284.783 92.6121 282.88 87.0461 282.88 87.0461C283.774 82.5531 280.722 81.2761 277.576 80.6851L274.844 71.0391Z" fill="#E4897B"/>
<path d="M275.837 66.547C278.931 70.999 280.967 73.448 280.544 77.321C279.908 83.148 273.131 85.343 268.769 81.905C264.843 78.81 260.444 72.049 263.265 67.076C266.045 62.177 272.743 62.094 275.837 66.547Z" fill="#E4897B"/>
<path d="M280.808 73.895C280.344 76.418 271.852 79.87 267.998 74.43C267.998 74.43 263.162 74.391 260.253 71.476C257.344 68.561 257.968 65.399 260.575 63.679C262.873 62.163 268.813 50.995 275.731 58.965C283.241 58.659 281.387 70.746 280.808 73.895Z" fill="#263238"/>
<path d="M266.459 62.4773C266.459 62.4773 261.999 62.2613 259.428 64.3053C256.857 66.3493 257.582 72.6193 258.571 73.8033C259.56 74.9863 260.615 74.9863 260.615 74.9863C260.615 74.9863 259.099 74.2003 259.099 73.0433C259.099 73.0433 259.758 74.5903 262.791 74.9863C262.791 74.9863 261.926 74.2953 262.062 73.4213C262.062 73.4213 263.705 75.5483 267.501 73.4213C271.295 71.2943 266.459 62.4773 266.459 62.4773Z" fill="#263238"/>
<path d="M270.253 73.4928C271.073 74.6528 271.393 76.1048 271.319 77.2808C271.209 79.0488 269.729 79.1878 268.565 78.0728C267.518 77.0688 266.313 74.9388 266.997 73.4638C267.673 72.0108 269.316 72.1668 270.253 73.4928Z" fill="#E4897B"/>
<path d="M279.131 88.2718C279.131 88.2718 278.3 78.2038 284.874 72.5498L292.702 73.2668C292.702 73.2668 288.191 84.2758 279.131 88.2718Z" fill="#FF725E"/>
<path opacity="0.6" d="M279.131 88.2718C279.131 88.2718 278.3 78.2038 284.874 72.5498L292.702 73.2668C292.702 73.2668 288.191 84.2758 279.131 88.2718Z" fill="white"/>
<path d="M301.701 110.917C301.701 110.917 289.862 99.2933 276.775 91.1563C276.775 91.1563 285.494 70.6903 296.531 68.8633C296.531 68.8633 325.065 77.4803 333.344 100.832L301.701 110.917Z" fill="#FF725E"/>
<path d="M303.205 181.823L298.096 183.99L292.568 172.377L297.676 170.209L303.205 181.823Z" fill="#E4897B"/>
<path d="M333.343 100.832L330.329 132.798C328.673 134.024 326.034 134.977 322.849 135.72C316.612 137.172 308.29 137.831 301.103 138.216C293.031 138.656 286.402 138.74 285.803 139.204C284.399 140.296 302.172 177.004 302.172 177.004L293.689 178.061C293.689 178.061 271.395 147.485 268.509 136.862C267.446 132.941 266.375 128.03 273.575 123.441C279.913 119.401 303.515 116.369 303.515 116.369L301.699 110.916L333.343 100.832Z" fill="#263238"/>
<path opacity="0.2" d="M322.85 135.72C316.613 137.172 308.291 137.831 301.104 138.216C300.131 126.42 306.067 115.101 306.067 115.101L314.508 112.935L322.85 135.72Z" fill="black"/>
<path d="M377.593 177.115L378.497 182.59L365.907 185.228L365.004 179.753L377.593 177.115Z" fill="#E4897B"/>
<path d="M378.766 182.791C378.729 182.751 378.671 182.738 378.62 182.759C378.569 182.78 378.537 182.83 378.539 182.885C378.542 182.98 378.618 185.211 379.316 185.865C379.459 185.999 379.621 186.064 379.796 186.058C380.109 186.048 380.238 185.894 380.291 185.766C380.442 185.402 380.165 184.765 379.792 184.158C379.443 183.594 379.012 183.055 378.766 182.791ZM378.824 183.256C379.489 184.058 380.218 185.257 380.048 185.665C380.026 185.718 379.975 185.789 379.787 185.796C379.683 185.799 379.587 185.759 379.495 185.673C379.438 185.619 379.385 185.551 379.336 185.472C378.996 184.92 378.869 183.833 378.824 183.256Z" fill="#FF725E"/>
<path d="M378.719 182.759C378.676 182.741 378.626 182.747 378.589 182.775C378.538 182.814 377.344 183.725 377.221 184.63C377.184 184.906 377.247 185.154 377.411 185.369C377.632 185.657 377.842 185.65 377.981 185.593C378.568 185.35 378.895 183.591 378.799 182.863C378.796 182.844 378.79 182.827 378.781 182.811C378.766 182.789 378.745 182.77 378.719 182.759ZM377.481 184.666C377.562 184.072 378.22 183.434 378.554 183.145C378.563 183.942 378.232 185.204 377.88 185.35C377.851 185.362 377.764 185.398 377.62 185.209C377.604 185.188 377.589 185.166 377.575 185.144C377.488 185.002 377.457 184.845 377.481 184.666Z" fill="#FF725E"/>
<path d="M377.812 182.716L374.634 177.556C374.515 177.363 374.546 177.113 374.709 176.955L378.334 173.435C378.71 173.07 379.326 173.147 379.593 173.597C380.708 175.478 382.255 178.235 383.696 180.574C385.381 183.31 386.985 185.58 388.961 188.788C390.156 190.728 388.526 192.474 387.849 191.771C384.764 188.573 382.818 185.608 378.882 183.627C378.454 183.412 378.064 183.124 377.812 182.716Z" fill="#263238"/>
<path d="M333.343 100.832C333.343 100.832 343.508 126.964 326.358 137.104C326.358 137.104 326.14 167.299 330.475 170.838C335.75 175.144 374.384 177.335 374.384 177.335L374.048 186.929C374.048 186.929 332.688 190.314 320.166 185.822C305.503 180.561 302.238 111.371 302.238 111.371L333.343 100.832Z" fill="#263238"/>
<path opacity="0.2" d="M321.592 116.874L327.766 115.006C327.766 115.006 328.615 120.318 328.603 123.161L325.74 125.62L323.031 124.757C323.031 124.757 322.291 119.079 321.592 116.874Z" fill="black"/>
<path d="M303.737 110.938L304.536 113.478L302.253 114.186L301.449 111.668L303.737 110.938Z" fill="#263238"/>
<path d="M314.274 107.558L315.134 110.193L305.679 113.124L304.844 110.58L314.274 107.558Z" fill="#263238"/>
<path d="M326.04 103.787L326.898 106.544L316.329 109.818L315.49 107.168L326.04 103.787Z" fill="#263238"/>
<path d="M334.639 104.14L328.13 106.158L328.123 106.159L327.25 103.397L333.711 101.326L334.639 104.14Z" fill="#263238"/>
<g opacity="0.2">
<path d="M303.737 110.938L304.536 113.478L302.253 114.186L301.449 111.668L303.737 110.938Z" fill="white"/>
<path d="M314.274 107.558L315.134 110.193L305.679 113.124L304.844 110.58L314.274 107.558Z" fill="white"/>
<path d="M326.04 103.787L326.898 106.544L316.329 109.818L315.49 107.168L326.04 103.787Z" fill="white"/>
<path d="M334.639 104.14L328.13 106.158L328.123 106.159L327.25 103.397L333.711 101.326L334.639 104.14Z" fill="white"/>
</g>
<path d="M296.528 182.368C296.581 182.356 296.622 182.312 296.629 182.258C296.637 182.204 296.61 182.151 296.562 182.124C296.479 182.079 294.514 181.02 293.596 181.293C293.408 181.349 293.27 181.456 293.187 181.61C293.038 181.885 293.106 182.075 293.19 182.185C293.428 182.499 294.118 182.581 294.83 182.564C295.494 182.549 296.176 182.447 296.528 182.368ZM296.097 182.184C295.069 182.354 293.667 182.379 293.4 182.027C293.365 181.981 293.33 181.901 293.419 181.736C293.469 181.644 293.551 181.582 293.672 181.546C293.748 181.524 293.833 181.512 293.925 181.51C294.573 181.494 295.576 181.932 296.097 182.184Z" fill="#FF725E"/>
<path d="M296.58 182.345C296.617 182.317 296.637 182.271 296.631 182.225C296.623 182.162 296.438 180.671 295.719 180.108C295.499 179.936 295.254 179.866 294.985 179.9C294.625 179.945 294.525 180.131 294.504 180.279C294.417 180.909 295.772 182.077 296.449 182.362C296.466 182.369 296.485 182.373 296.503 182.372C296.53 182.371 296.557 182.362 296.58 182.345ZM295.557 180.315C296.03 180.684 296.248 181.574 296.33 182.008C295.637 181.614 294.714 180.692 294.766 180.314C294.77 180.283 294.783 180.19 295.019 180.16C295.045 180.157 295.072 180.155 295.098 180.154C295.263 180.151 295.415 180.203 295.557 180.315Z" fill="#FF725E"/>
<path d="M297.074 181.584L303.132 181.441C303.359 181.436 303.559 181.588 303.613 181.809L304.826 186.714C304.952 187.222 304.575 187.716 304.051 187.72C301.865 187.735 298.704 187.681 295.957 187.746C292.745 187.822 289.975 188.063 286.209 188.152C283.932 188.206 283.245 185.918 284.193 185.687C288.511 184.635 292.052 184.449 295.747 182.048C296.15 181.787 296.596 181.595 297.074 181.584Z" fill="#263238"/>
<path opacity="0.7" d="M333.345 100.837L301.705 110.917C301.705 110.917 296.125 105.447 288.395 99.3772C286.925 98.2272 285.385 97.0572 283.785 95.8972C281.535 94.2572 279.175 92.6472 276.775 91.1572C276.775 91.1572 285.495 70.6872 296.535 68.8672C296.535 68.8672 325.065 77.4772 333.345 100.837Z" fill="black"/>
<path opacity="0.1" d="M288.395 99.3769C286.925 98.2269 285.385 97.0569 283.785 95.8969L284.405 94.0269C284.405 94.0269 287.065 96.2669 288.395 99.3769Z" fill="black"/>
<path d="M242.677 120.257L240.496 120.777C239.952 120.907 239.539 121.351 239.45 121.903L238.957 124.94C238.853 125.581 239.208 126.208 239.811 126.449L241.405 127.085C241.405 127.085 246.007 130.405 249.898 128.261L248.217 123.81L244.927 120.833C244.318 120.282 243.476 120.067 242.677 120.257Z" fill="#E4897B"/>
<path d="M282.386 91.9641C285.182 93.6421 285.426 97.1021 285.426 97.1021C285.426 97.1021 283.229 103.063 281.954 106.029C281.088 108.042 280.189 110.062 279.143 112.071C278.062 114.097 277.023 116.083 275.258 118.277L274.914 118.692L274.504 119.133C274.257 119.411 273.891 119.742 273.535 120.049C273.384 120.191 273.107 120.385 272.874 120.548C272.647 120.704 272.331 120.914 272.239 120.949L271.393 121.388C270.292 121.943 269.261 122.376 268.226 122.802C266.171 123.644 264.137 124.376 262.097 125.077C258.005 126.446 253.934 127.697 249.755 128.75L247.771 123.402C251.52 121.481 255.341 119.662 259.071 117.787C260.939 116.861 262.799 115.929 264.585 114.989C265.465 114.514 266.342 114.028 267.099 113.568L267.637 113.228C267.782 113.145 267.671 113.184 267.661 113.19C267.639 113.193 267.592 113.251 267.625 113.202C267.656 113.148 267.689 113.131 267.78 113L267.9 112.85L268.044 112.639C268.853 111.463 269.77 109.664 270.561 107.9C271.354 106.095 272.147 104.233 272.877 102.324C274.329 98.5221 275.724 94.5571 277.024 90.7161C277.022 90.7171 279.419 90.1841 282.386 91.9641Z" fill="#FF725E"/>
<path opacity="0.7" d="M282.386 91.9641C285.182 93.6421 285.426 97.1021 285.426 97.1021C285.426 97.1021 283.229 103.063 281.954 106.029C281.088 108.042 280.189 110.062 279.143 112.071C278.062 114.097 277.023 116.083 275.258 118.277L274.914 118.692L274.504 119.133C274.257 119.411 273.891 119.742 273.535 120.049C273.384 120.191 273.107 120.385 272.874 120.548C272.647 120.704 272.331 120.914 272.239 120.949L271.393 121.388C270.292 121.943 269.261 122.376 268.226 122.802C266.171 123.644 264.137 124.376 262.097 125.077C258.005 126.446 253.934 127.697 249.755 128.75L247.771 123.402C251.52 121.481 255.341 119.662 259.071 117.787C260.939 116.861 262.799 115.929 264.585 114.989C265.465 114.514 266.342 114.028 267.099 113.568L267.637 113.228C267.782 113.145 267.671 113.184 267.661 113.19C267.639 113.193 267.592 113.251 267.625 113.202C267.656 113.148 267.689 113.131 267.78 113L267.9 112.85L268.044 112.639C268.853 111.463 269.77 109.664 270.561 107.9C271.354 106.095 272.147 104.233 272.877 102.324C274.329 98.5221 275.724 94.5571 277.024 90.7161C277.022 90.7171 279.419 90.1841 282.386 91.9641Z" fill="white"/>
<path d="M99.5059 357.316H268.389L357.766 285.119L361.685 289.971H383.699L406.125 186.74L384.102 186.784L384.112 186.74L278.472 186.95L291.084 202.562L99.5059 357.316Z" fill="#FF725E"/>
<path opacity="0.2" d="M99.5059 357.316H246.376L349.074 274.359L361.685 289.971L384.112 186.74L278.472 186.95L291.084 202.562L99.5059 357.316Z" fill="white"/>
</svg>
