<svg width="500" height="373" viewBox="0 0 500 373" fill="none" xmlns="http://www.w3.org/2000/svg">
<path d="M63.9141 318.37C63.9141 315.466 66.2691 313.111 69.1731 313.111C69.6981 313.111 70.2051 313.19 70.6831 313.334C70.6061 312.807 70.5651 312.268 70.5651 311.72C70.5651 305.57 75.5511 300.584 81.7011 300.584C82.4021 300.584 83.0871 300.652 83.7521 300.776C85.4641 297.974 88.5401 296.098 92.0641 296.098C97.3961 296.098 101.722 300.383 101.801 305.696C101.855 305.695 101.908 305.688 101.963 305.688C106.918 305.688 110.934 309.704 110.934 314.659C110.934 319.613 106.918 323.63 101.963 323.63H69.0181L69.0251 323.622C66.1891 323.543 63.9141 321.225 63.9141 318.37Z" fill="#FF725E"/>
<path opacity="0.8" d="M63.9141 318.37C63.9141 315.466 66.2691 313.111 69.1731 313.111C69.6981 313.111 70.2051 313.19 70.6831 313.334C70.6061 312.807 70.5651 312.268 70.5651 311.72C70.5651 305.57 75.5511 300.584 81.7011 300.584C82.4021 300.584 83.0871 300.652 83.7521 300.776C85.4641 297.974 88.5401 296.098 92.0641 296.098C97.3961 296.098 101.722 300.383 101.801 305.696C101.855 305.695 101.908 305.688 101.963 305.688C106.918 305.688 110.934 309.704 110.934 314.659C110.934 319.613 106.918 323.63 101.963 323.63H69.0181L69.0251 323.622C66.1891 323.543 63.9141 321.225 63.9141 318.37Z" fill="white"/>
<path d="M96.0678 350.406H217.327C217.27 349.893 217.236 349.372 217.236 348.844C217.236 341.058 223.548 334.747 231.333 334.747C231.506 334.747 231.674 334.767 231.846 334.773C233.613 330.032 238.167 326.649 243.523 326.649C250.411 326.649 255.995 332.233 255.995 339.121C255.995 339.131 255.994 339.14 255.994 339.149C262.101 339.434 266.994 344.307 267.312 350.406H267.879C271.326 350.406 274.147 353.226 274.147 356.674C274.147 360.121 271.327 362.941 267.879 362.941H96.0678C92.6208 362.941 89.8008 360.121 89.8008 356.674C89.8008 353.226 92.6208 350.406 96.0678 350.406Z" fill="#FF725E"/>
<path opacity="0.7" d="M96.0678 350.406H217.327C217.27 349.893 217.236 349.372 217.236 348.844C217.236 341.058 223.548 334.747 231.333 334.747C231.506 334.747 231.674 334.767 231.846 334.773C233.613 330.032 238.167 326.649 243.523 326.649C250.411 326.649 255.995 332.233 255.995 339.121C255.995 339.131 255.994 339.14 255.994 339.149C262.101 339.434 266.994 344.307 267.312 350.406H267.879C271.326 350.406 274.147 353.226 274.147 356.674C274.147 360.121 271.327 362.941 267.879 362.941H96.0678C92.6208 362.941 89.8008 360.121 89.8008 356.674C89.8008 353.226 92.6208 350.406 96.0678 350.406Z" fill="white"/>
<path d="M358.609 323.514C355.613 318.734 350.313 315.544 344.255 315.544C338.097 315.544 332.721 318.84 329.755 323.754C328.976 323.536 328.158 323.411 327.31 323.411C322.297 323.411 318.232 327.475 318.232 332.489C318.232 332.493 318.233 332.497 318.233 332.501H313.447C310.954 332.501 308.914 334.541 308.914 337.034C308.914 339.527 310.954 341.567 313.447 341.567H329.963C332.97 346.291 338.24 349.434 344.255 349.434C348.998 349.434 353.28 347.48 356.356 344.34C356.642 344.363 356.929 344.384 357.221 344.384C363.012 344.384 367.707 339.689 367.707 333.898C367.707 328.578 363.743 324.195 358.609 323.514Z" fill="#FF725E"/>
<path opacity="0.8" d="M358.609 323.514C355.613 318.734 350.313 315.544 344.255 315.544C338.097 315.544 332.721 318.84 329.755 323.754C328.976 323.536 328.158 323.411 327.31 323.411C322.297 323.411 318.232 327.475 318.232 332.489C318.232 332.493 318.233 332.497 318.233 332.501H313.447C310.954 332.501 308.914 334.541 308.914 337.034C308.914 339.527 310.954 341.567 313.447 341.567H329.963C332.97 346.291 338.24 349.434 344.255 349.434C348.998 349.434 353.28 347.48 356.356 344.34C356.642 344.363 356.929 344.384 357.221 344.384C363.012 344.384 367.707 339.689 367.707 333.898C367.707 328.578 363.743 324.195 358.609 323.514Z" fill="white"/>
</svg>
