<svg width="500" height="373" viewBox="0 0 500 373" fill="none" xmlns="http://www.w3.org/2000/svg">
<path d="M245.471 180.157L247.154 182.24L87.4219 309.472L94.2259 317.895L95.1589 319.051L254.891 191.819L256.573 193.902L259.565 180.129L245.471 180.157Z" fill="#FF725E"/>
<path opacity="0.7" d="M245.471 180.157L247.154 182.24L87.4219 309.472L94.2259 317.895L95.1589 319.051L254.891 191.819L256.573 193.902L259.565 180.129L245.471 180.157Z" fill="white"/>
<path d="M398.751 260.758L402.74 265.697L328.494 325.672L344.625 345.643L346.839 348.384L421.085 288.409L425.075 293.348L432.169 260.692L398.751 260.758Z" fill="#FF725E"/>
<path opacity="0.5" d="M398.751 260.758L402.74 265.697L328.494 325.672L344.625 345.643L346.839 348.384L421.085 288.409L425.075 293.348L432.169 260.692L398.751 260.758Z" fill="white"/>
<path d="M247.141 120.6L245.699 119.081C245.311 118.672 244.742 118.49 244.189 118.596L242.032 119.01C241.327 119.145 240.79 119.72 240.703 120.432L239.598 129.471L242.944 130.754C247.017 128.982 246.806 123.601 246.806 123.601L247.392 122.53C247.736 121.901 247.635 121.121 247.141 120.6Z" fill="#FFB573"/>
<path d="M206.773 147.687C206.773 147.687 209.976 147.881 211.855 147.835C213.749 147.809 215.635 147.775 217.488 147.669C219.334 147.551 221.168 147.421 222.851 147.188C223.685 147.071 224.495 146.921 225.133 146.747C225.432 146.661 225.721 146.57 225.854 146.516C226.069 146.417 225.831 146.591 225.952 146.523C226.265 146.257 226.872 145.534 227.403 144.863C227.951 144.167 228.503 143.417 229.049 142.654C230.146 141.124 231.235 139.534 232.322 137.935L238.854 128.243L243.958 130.961C243.208 132.828 242.394 134.627 241.579 136.448C240.735 138.249 239.875 140.045 238.988 141.841C238.087 143.63 237.151 145.408 236.134 147.188C235.619 148.078 235.09 148.969 234.508 149.879C233.902 150.808 233.345 151.676 232.292 152.824C231.725 153.455 230.686 154.22 230.016 154.55C229.278 154.953 228.644 155.204 228.016 155.441C226.788 155.884 225.676 156.164 224.581 156.409C222.4 156.895 220.323 157.184 218.254 157.382C214.111 157.793 210.135 157.947 205.982 157.854L206.773 147.687Z" fill="#FF725E"/>
<path opacity="0.7" d="M243.954 130.965C243.204 132.825 242.394 134.625 241.584 136.445C240.734 138.245 239.874 140.045 238.984 141.845C238.084 143.625 237.154 145.405 236.134 147.185C235.624 148.075 235.094 148.965 234.504 149.875C233.904 150.805 233.344 151.675 232.294 152.825C231.724 153.455 230.684 154.215 230.014 154.545C229.274 154.955 228.644 155.205 228.014 155.445C226.784 155.885 225.674 156.165 224.584 156.405C222.404 156.895 220.324 157.185 218.254 157.385C217.364 157.475 216.484 157.545 215.614 157.615C212.404 157.845 209.244 157.925 205.984 157.855L206.144 155.755L206.774 147.685C206.774 147.685 209.974 147.885 211.854 147.835C213.754 147.805 215.634 147.775 217.494 147.665C219.334 147.555 221.174 147.425 222.854 147.185C223.684 147.075 224.494 146.925 225.134 146.745C225.434 146.665 225.724 146.575 225.854 146.515C226.074 146.415 225.834 146.595 225.954 146.525C226.264 146.255 226.874 145.535 227.404 144.865C227.954 144.165 228.504 143.415 229.044 142.655C230.144 141.125 231.234 139.535 232.324 137.935L238.854 128.245L243.954 130.965Z" fill="white"/>
<path opacity="0.1" d="M215.614 157.615C212.404 157.845 209.244 157.925 205.984 157.855L206.144 155.755L206.924 153.915C206.924 153.915 212.164 153.845 215.614 157.615Z" fill="black"/>
<path d="M153.29 327.078C153.29 327.078 144.237 320.85 144.792 316.666C144.847 316.255 144.606 315.892 144.171 315.826L136.497 314.665C136.139 314.611 135.756 314.774 135.544 315.072L131.01 321.426L133.047 322.163L134.14 321.396L134.654 322.744C145.709 326.743 150.529 328.354 152.966 328.456C153.639 327.595 153.29 327.078 153.29 327.078Z" fill="black"/>
<path d="M204.274 209.445C204.274 209.445 203.814 210.645 203.004 212.725C202.134 214.975 200.854 218.255 199.314 222.155C198.284 224.755 197.144 227.635 195.914 230.665C190.264 244.705 182.964 262.075 178.134 270.845C168.884 287.625 144.784 319.495 144.784 319.495L135.154 315.975C135.154 315.975 152.494 283.155 161.244 266.525C163.914 261.455 166.984 253.995 170.024 245.855C171.474 241.985 172.914 237.955 174.304 233.965C174.934 232.165 175.554 230.365 176.154 228.595C177.744 223.915 179.234 219.405 180.544 215.385C180.704 214.885 180.864 214.385 181.024 213.905C181.554 212.255 182.054 210.695 182.504 209.255C184.384 203.335 185.554 199.435 185.594 199.285C185.604 199.285 185.604 199.285 185.604 199.285L194.194 203.965L204.274 209.445Z" fill="#263238"/>
<path opacity="0.3" d="M203.005 212.725C202.135 214.975 200.855 218.255 199.315 222.155C198.285 224.755 197.145 227.635 195.915 230.665C188.055 232.245 180.055 233.315 174.305 233.965C174.935 232.165 175.555 230.365 176.155 228.595C177.745 223.915 179.235 219.405 180.545 215.385C180.705 214.885 180.865 214.385 181.025 213.905C181.555 212.255 182.055 210.695 182.505 209.255C188.285 210.045 196.015 211.225 203.005 212.725Z" fill="black"/>
<path d="M173.5 153.012C173.5 153.02 173.507 153.027 173.507 153.034C174.893 157.686 175.706 163.092 176.16 168.422C176.51 172.568 176.643 176.651 176.661 180.313C176.675 184.003 176.564 187.269 176.444 189.77C176.283 192.982 176.093 194.961 176.093 194.961L206.476 196.522C215.593 163.483 206.777 147.686 206.777 147.686C206.777 147.686 202.991 147.304 198.63 147.499C198.068 147.516 197.497 147.56 196.912 147.605C193.196 147.915 187.276 149.09 183.323 149.983C182.508 150.162 181.69 150.374 180.891 150.59C176.921 151.673 173.5 153.012 173.5 153.012Z" fill="black"/>
<path opacity="0.7" d="M206.474 196.525L176.094 194.965C176.094 194.965 176.284 192.985 176.444 189.765C176.484 188.825 176.524 187.755 176.564 186.595C176.624 184.725 176.664 182.605 176.664 180.315C176.654 179.205 176.634 178.055 176.604 176.875C176.604 176.685 176.594 176.495 176.594 176.305C176.544 174.435 176.454 172.495 176.324 170.525C176.264 169.825 176.214 169.125 176.154 168.425C176.114 167.875 176.064 167.315 176.014 166.765C175.864 165.365 175.704 163.965 175.504 162.585C175.454 162.205 175.394 161.825 175.334 161.455C175.244 160.825 175.144 160.215 175.034 159.595C174.624 157.315 174.124 155.095 173.514 153.025C173.514 153.025 173.504 153.015 173.494 153.015C173.494 153.015 176.924 151.675 180.894 150.585C181.684 150.375 182.504 150.165 183.314 149.985C187.274 149.095 193.194 147.915 196.904 147.605C197.494 147.565 198.064 147.515 198.634 147.505C202.984 147.305 206.774 147.685 206.774 147.685C206.774 147.685 215.594 163.475 206.474 196.525Z" fill="white"/>
<path d="M225.266 275.589C225.266 275.589 216.586 268.851 217.381 264.706C217.459 264.299 217.24 263.923 216.81 263.832L209.216 262.232C208.861 262.157 208.47 262.298 208.241 262.583L203.35 268.666L205.341 269.519L206.477 268.817L206.913 270.192C217.72 274.821 222.439 276.705 224.867 276.948C225.584 276.125 225.266 275.589 225.266 275.589Z" fill="black"/>
<path d="M190.622 222.336C191.078 222.36 191.332 222.361 191.332 222.361L227.756 227.656L207.022 262.053L217.404 266.005C217.404 266.005 254.947 225.526 246.56 216.296C239.662 208.705 205.863 204.087 205.863 204.087L206.972 196.164L175.709 190.009C162.344 219.264 186.148 222.062 190.622 222.336Z" fill="#263238"/>
<path d="M175.337 193.119L174.674 192.991L175.28 190.884L175.87 190.998L175.337 193.119Z" fill="#263238"/>
<path d="M199.929 197.878L186.582 195.295L187.103 193.176L200.395 195.754L199.929 197.878Z" fill="#263238"/>
<path d="M201.425 195.954L207.068 197.048L206.692 199.187L200.979 198.081L201.425 195.954Z" fill="#263238"/>
<path d="M176.901 191.198L186.078 192.978L185.536 195.093L176.389 193.323L176.901 191.198Z" fill="#263238"/>
<g opacity="0.2">
<path d="M175.337 193.119L174.674 192.991L175.28 190.884L175.87 190.998L175.337 193.119Z" fill="white"/>
<path d="M199.929 197.878L186.582 195.295L187.103 193.176L200.395 195.754L199.929 197.878Z" fill="white"/>
<path d="M201.425 195.954L207.068 197.048L206.692 199.187L200.979 198.081L201.425 195.954Z" fill="white"/>
<path d="M176.901 191.198L186.078 192.978L185.536 195.093L176.389 193.323L176.901 191.198Z" fill="white"/>
</g>
<path d="M196.224 195.364L195.923 196.654C195.875 196.859 195.675 196.991 195.468 196.954L192.126 196.361C191.9 196.321 191.755 196.097 191.811 195.875L192.146 194.536C192.197 194.332 192.399 194.203 192.606 194.243L195.913 194.884C196.134 194.928 196.276 195.145 196.224 195.364Z" stroke="white" stroke-width="0.5891" stroke-miterlimit="10"/>
<path d="M193.456 195.469L192.436 195.29" stroke="white" stroke-width="0.5891" stroke-miterlimit="10" stroke-linecap="round" stroke-linejoin="round"/>
<path d="M186.469 136.198L194.405 142.776C193.629 145.996 194.976 148.965 196.54 149.515C196.54 149.515 197.699 152.276 195.468 152.741C190.945 153.684 185.785 149.303 185.785 149.303C188.177 146.731 187.312 140.308 186.469 136.198Z" fill="#EBB376"/>
<path opacity="0.2" d="M189.704 138.882L194.401 142.772C194.215 143.534 194.071 144.306 194.023 145.055C192.261 144.833 189.828 142.947 189.627 141.111C189.526 140.194 189.557 139.312 189.704 138.882Z" fill="black"/>
<path d="M193.474 123.2C195.394 124.397 197.996 128.006 194.769 128.874C191.541 129.741 190.173 121.143 193.474 123.2Z" fill="#263238"/>
<path d="M183.562 135.534C186.92 139.962 188.661 142.728 192.561 143.52C198.427 144.713 202.693 138.738 200.72 133.381C198.944 128.558 193.752 122.127 188.029 123.347C182.389 124.551 180.204 131.106 183.562 135.534Z" fill="#FFB573"/>
<path d="M184.554 130.713L180.521 126.007C180.521 126.007 175.193 129.927 177.612 132.3C176.016 136.053 182.354 141.291 187.894 140.215C188.536 136.83 183.601 131.049 183.601 131.049C183.906 130.957 184.227 130.84 184.554 130.713Z" fill="#263238"/>
<path d="M184.342 140.569C185.502 141.512 186.989 141.824 188.208 141.669C190.041 141.436 190.254 139.609 189.155 138.242C188.166 137.011 186.02 135.649 184.463 136.571C182.93 137.481 183.015 139.491 184.342 140.569Z" fill="#FFB573"/>
<path d="M191.394 132.085C191.644 132.461 192.046 132.631 192.29 132.465C192.535 132.299 192.53 131.859 192.28 131.483C192.03 131.107 191.628 130.937 191.384 131.103C191.139 131.269 191.144 131.708 191.394 132.085Z" fill="#263238"/>
<path d="M195.625 129.208C195.875 129.584 196.277 129.754 196.521 129.588C196.766 129.422 196.761 128.982 196.511 128.606C196.261 128.23 195.859 128.06 195.615 128.226C195.37 128.392 195.374 128.832 195.625 129.208Z" fill="#263238"/>
<path d="M194.404 130.31C194.404 130.31 196.667 131.806 198.288 132.178C198.026 133.21 196.711 133.69 196.711 133.69L194.404 130.31Z" fill="#ED893E"/>
<path d="M193.23 136.239C193.065 136.328 192.899 136.432 192.731 136.555C192.672 136.598 192.658 136.682 192.701 136.741C192.744 136.801 192.828 136.813 192.885 136.771C194.493 135.602 196.045 136.182 196.06 136.188C196.128 136.215 196.205 136.179 196.231 136.111C196.257 136.042 196.224 135.965 196.156 135.938C196.094 135.914 194.755 135.414 193.23 136.239Z" fill="#263238"/>
<path d="M188.501 130.849C188.593 130.854 188.686 130.81 188.74 130.726C189.383 129.725 190.361 129.7 190.371 129.7C190.518 129.698 190.636 129.577 190.636 129.431C190.635 129.285 190.515 129.167 190.369 129.169C190.317 129.169 189.091 129.2 188.293 130.443C188.213 130.567 188.249 130.731 188.372 130.81C188.412 130.834 188.456 130.847 188.501 130.849Z" fill="#263238"/>
<path d="M195.675 125.794C195.69 125.746 195.692 125.693 195.677 125.64C195.637 125.498 195.49 125.415 195.35 125.454C193.938 125.845 193.572 127.011 193.549 127.061C193.506 127.201 193.584 127.351 193.724 127.396C193.863 127.44 194.011 127.364 194.055 127.225C194.068 127.176 194.361 126.282 195.495 125.968C195.584 125.943 195.649 125.875 195.675 125.794Z" fill="#263238"/>
<path d="M183.602 131.048C183.602 131.048 194.16 126.612 194.807 121.548C195.454 116.484 190.993 118.559 190.993 118.559C190.993 118.559 193.058 118.418 192.856 119.922C192.856 119.922 189.29 117.489 185.892 119.58C185.892 119.58 187.48 119.549 188.316 120.727C188.316 120.727 185.089 121.357 181.468 124.041C177.848 126.725 171.345 136.334 183.602 131.048Z" fill="#263238"/>
<path opacity="0.3" d="M205.863 204.087L188.654 202.111C188.654 202.111 195.467 200.992 206.241 201.387L205.863 204.087Z" fill="black"/>
<path opacity="0.1" d="M176.324 170.525C176.264 169.825 176.214 169.125 176.154 168.425C176.114 167.875 176.064 167.315 176.014 166.765C175.864 165.365 175.704 163.965 175.504 162.585C175.454 162.205 175.394 161.825 175.334 161.455C175.794 161.085 176.304 160.745 176.844 160.445C176.844 160.445 177.824 165.495 176.324 170.525Z" fill="black"/>
<path d="M147.646 195.093L144.656 202.111L151.131 203.712C151.131 203.712 153.911 199.1 151.197 195.583L147.646 195.093Z" fill="#EBB376"/>
<path d="M145.12 207.521L150.232 207.559L151.129 203.712L144.654 202.111L145.12 207.521Z" fill="#EBB376"/>
<path d="M176.761 157.869C177.206 162.27 175.704 164.059 175.704 164.059C175.704 164.059 171.442 166.737 169.593 168.109C168.021 169.294 166.48 170.497 165.019 171.702C164.297 172.308 163.6 172.921 162.961 173.528C162.329 174.128 161.737 174.753 161.363 175.237C161.196 175.43 161.028 175.744 160.849 176.024C160.667 176.318 160.477 176.758 160.28 177.114C159.889 177.921 159.501 178.774 159.133 179.67C158.394 181.456 157.695 183.319 157.03 185.209C155.645 188.968 154.355 192.844 153.027 196.655L147.121 195.251C147.722 191.102 148.533 187.058 149.469 182.962C149.963 180.925 150.51 178.885 151.138 176.81C151.45 175.775 151.805 174.72 152.205 173.638C152.444 173.069 152.636 172.556 152.935 171.947C153.25 171.33 153.54 170.726 153.974 170.087C154.774 168.891 155.559 167.989 156.349 167.119C157.139 166.259 157.932 165.466 158.731 164.701C160.321 163.174 161.953 161.783 163.606 160.444C166.916 157.753 170.24 155.295 173.801 152.92C173.801 152.92 176.358 153.886 176.761 157.869Z" fill="#FF725E"/>
<path opacity="0.7" d="M176.761 157.869C177.206 162.27 175.704 164.059 175.704 164.059C175.704 164.059 171.442 166.737 169.593 168.109C168.021 169.294 166.48 170.497 165.019 171.702C164.297 172.308 163.6 172.921 162.961 173.528C162.329 174.128 161.737 174.753 161.363 175.237C161.196 175.43 161.028 175.744 160.849 176.024C160.667 176.318 160.477 176.758 160.28 177.114C159.889 177.921 159.501 178.774 159.133 179.67C158.394 181.456 157.695 183.319 157.03 185.209C155.645 188.968 154.355 192.844 153.027 196.655L147.121 195.251C147.722 191.102 148.533 187.058 149.469 182.962C149.963 180.925 150.51 178.885 151.138 176.81C151.45 175.775 151.805 174.72 152.205 173.638C152.444 173.069 152.636 172.556 152.935 171.947C153.25 171.33 153.54 170.726 153.974 170.087C154.774 168.891 155.559 167.989 156.349 167.119C157.139 166.259 157.932 165.466 158.731 164.701C160.321 163.174 161.953 161.783 163.606 160.444C166.916 157.753 170.24 155.295 173.801 152.92C173.801 152.92 176.358 153.886 176.761 157.869Z" fill="white"/>
<path d="M190.188 151.969L192.412 155.462C192.412 155.462 184.659 164.858 169.822 167.958L168.832 170.978L171.987 171.804C171.987 171.804 188.012 167.657 194.406 155.637L197.709 151.958L193.816 150.651L190.188 151.969Z" fill="#FF725E"/>
<path d="M183.004 149.865L186.617 146.704L193.816 150.652L194.648 146.335L198.449 148.522L199.537 154.105L194.233 151.81L189.486 156.043L183.004 149.865Z" fill="#FF725E"/>
<path opacity="0.6" d="M183.004 149.865L186.617 146.704L193.816 150.652L194.648 146.335L198.449 148.522L199.537 154.105L194.233 151.81L189.486 156.043L183.004 149.865Z" fill="white"/>
</svg>
