<svg width="430" height="398" viewBox="0 0 430 398" fill="none" xmlns="http://www.w3.org/2000/svg">
<path d="M155.115 36.7951L163.852 45.0393L176.142 40.7401L176.628 43.5619L171.305 53.652L176.211 61.1837L175.8 63.4317L163.907 61.5786L156.876 68.7227L155.226 67.5613L153.769 58.4789L142.673 53.1314L142.188 51.0594L153.359 48.2281L155.115 36.7951Z" fill="#FF725E"/>
<g opacity="0.3">
<path d="M155.115 36.7951L163.852 45.0393L176.142 40.7401L176.628 43.5619L171.305 53.652L176.211 61.1837L175.8 63.4317L163.907 61.5786L156.876 68.7227L155.226 67.5613L153.769 58.4789L142.673 53.1314L142.188 51.0594L153.359 48.2281L155.115 36.7951Z" fill="black"/>
</g>
<path d="M155.115 34.4827L163.852 42.7277L176.142 40.7401L170.371 50.9782L176.211 61.1838L163.907 59.267L155.226 67.5613L153.393 56.1379L142.188 51.0594L153.359 45.9165L155.115 34.4827Z" fill="#FF725E"/>
</svg>
