<svg width="430" height="398" viewBox="0 0 430 398" fill="none" xmlns="http://www.w3.org/2000/svg">
<path d="M21.8986 2.8208L29.1647 15.9596L45.9296 15.0474L45.3611 18.6612L34.7143 29.0952L37.6005 40.0139L36.1746 42.612L22.4266 36.1581L10.9086 42.3955L9.37267 40.3976L11.3326 28.8022L-0.00390625 18.3667L0.255815 15.6674L15.0513 16.1514L21.8986 2.8208Z" fill="#FF725E"/>
<g opacity="0.3">
<path d="M21.8986 2.8208L29.1647 15.9596L45.9296 15.0474L45.3611 18.6612L34.7143 29.0952L37.6005 40.0139L36.1746 42.612L22.4266 36.1581L10.9086 42.3955L9.37267 40.3976L11.3326 28.8022L-0.00390625 18.3667L0.255815 15.6674L15.0513 16.1514L21.8986 2.8208Z" fill="black"/>
</g>
<path d="M22.8498 0L30.1159 13.1396L45.9296 15.0476L34.6748 25.5046L37.6005 40.0141L23.3778 33.3381L9.37272 40.3978L11.8375 25.8143L0.255859 15.6677L16.0025 13.3306L22.8498 0Z" fill="#FF725E"/>
</svg>
