<svg width="430" height="398" viewBox="0 0 430 398" fill="none" xmlns="http://www.w3.org/2000/svg">
<path d="M22.4426 3.28027L13.7058 11.5244L1.41559 7.22525L0.929688 10.0471L6.25309 20.1372L1.34677 27.6689L1.75785 29.9168L13.6508 28.0637L20.6813 35.2078L22.3316 34.0465L23.7885 24.9641L34.8842 19.6166L35.3701 17.5446L24.1987 14.7132L22.4426 3.28027Z" fill="#FF725E"/>
<g opacity="0.3">
<path d="M22.4426 3.28027L13.7058 11.5244L1.41559 7.22525L0.929688 10.0471L6.25309 20.1372L1.34677 27.6689L1.75785 29.9168L13.6508 28.0637L20.6813 35.2078L22.3316 34.0465L23.7885 24.9641L34.8842 19.6166L35.3701 17.5446L24.1987 14.7132L22.4426 3.28027Z" fill="black"/>
</g>
<path d="M22.4426 0.967773L13.7059 9.21274L1.41562 7.22513L7.18708 17.4633L1.3468 27.6688L13.6508 25.752L22.3317 34.0463L24.1643 22.623L35.3701 17.5445L24.1987 12.4015L22.4426 0.967773Z" fill="#FF725E"/>
</svg>
