<svg width="430" height="398" viewBox="0 0 430 398" fill="none" xmlns="http://www.w3.org/2000/svg">
<path d="M245.63 36.7951L236.893 45.0393L224.603 40.7401L224.117 43.5619L229.441 53.652L224.534 61.1837L224.945 63.4317L236.838 61.5786L243.869 68.7227L245.519 67.5613L246.976 58.4789L258.072 53.1314L258.558 51.0594L247.386 48.2281L245.63 36.7951Z" fill="#FF725E"/>
<g opacity="0.3">
<path d="M245.63 36.7951L236.893 45.0393L224.603 40.7401L224.117 43.5619L229.441 53.652L224.534 61.1837L224.945 63.4317L236.838 61.5786L243.869 68.7227L245.519 67.5613L246.976 58.4789L258.072 53.1314L258.558 51.0594L247.386 48.2281L245.63 36.7951Z" fill="black"/>
</g>
<path d="M245.631 34.4827L236.894 42.7277L224.604 40.7401L230.375 50.9782L224.535 61.1838L236.839 59.267L245.52 67.5613L247.353 56.1379L258.558 51.0594L247.387 45.9165L245.631 34.4827Z" fill="#FF725E"/>
</svg>
