<svg width="430" height="398" viewBox="0 0 430 398" fill="none" xmlns="http://www.w3.org/2000/svg">
<path d="M200.086 22.3358L207.352 35.4745L224.117 34.5623L223.549 38.1762L212.902 48.6101L215.788 59.5289L214.362 62.127L200.614 55.673L189.096 61.9105L187.56 59.9125L189.52 48.3172L178.184 37.8816L178.443 35.1824L193.239 35.6664L200.086 22.3358Z" fill="#FF725E"/>
<g opacity="0.3">
<path d="M200.086 22.3358L207.352 35.4745L224.117 34.5623L223.549 38.1762L212.902 48.6101L215.788 59.5289L214.362 62.127L200.614 55.673L189.096 61.9105L187.56 59.9125L189.52 48.3172L178.184 37.8816L178.443 35.1824L193.239 35.6664L200.086 22.3358Z" fill="black"/>
</g>
<path d="M201.035 19.5147L208.301 32.6543L224.115 34.5623L212.86 45.0194L215.786 59.5289L201.563 52.8528L187.558 59.9125L190.023 45.329L178.441 35.1824L194.188 32.8454L201.035 19.5147Z" fill="#FF725E"/>
</svg>
