<svg width="430" height="398" viewBox="0 0 430 398" fill="none" xmlns="http://www.w3.org/2000/svg">
<path d="M337.335 213.681L274.792 191.788C270.471 190.275 268.291 185.806 269.926 181.806L302.665 101.681C304.299 97.6804 309.128 95.6641 313.45 97.1765L353.115 111.061L371.85 151.1L348.12 209.177C346.485 213.178 341.657 215.194 337.335 213.681Z" fill="#F5F5F5"/>
<path d="M353.114 111.061L343.9 133.612C342.379 137.332 344.406 141.489 348.424 142.896L371.849 151.1L353.114 111.061Z" fill="#EBEBEB"/>
<path d="M343.411 135.703C343.411 135.703 340.868 141.064 346.86 145.217C347.086 145.373 347.324 145.514 347.565 145.647C350.417 147.223 369.198 157.587 369.374 157.159C369.563 156.696 371.849 151.099 371.849 151.099L348.423 142.899C348.423 142.899 342.65 140.667 343.411 135.703Z" fill="#E0E0E0"/>
<path d="M339.034 130.856C338.915 131.146 332.341 129.114 324.353 126.316C316.362 123.519 309.981 121.017 310.099 120.727C310.218 120.437 316.79 122.469 324.782 125.267C332.771 128.064 339.153 130.566 339.034 130.856Z" fill="#E0E0E0"/>
<path d="M352.509 150.147C352.391 150.437 341.634 146.94 328.485 142.338C315.332 137.733 304.769 133.767 304.888 133.477C305.006 133.188 315.762 136.684 328.914 141.288C342.063 145.89 352.628 149.857 352.509 150.147Z" fill="#E0E0E0"/>
<path d="M352.447 162.295C352.328 162.585 340.61 158.751 326.278 153.735C311.941 148.716 300.417 144.414 300.536 144.124C300.655 143.834 312.37 147.667 326.707 152.686C341.039 157.702 352.565 162.005 352.447 162.295Z" fill="#E0E0E0"/>
<path d="M348.345 172.34C348.226 172.629 336.509 168.797 322.177 163.779C307.839 158.761 296.316 154.458 296.435 154.169C296.552 153.879 308.268 157.712 322.605 162.73C336.937 167.747 348.463 172.051 348.345 172.34Z" fill="#E0E0E0"/>
<path d="M344.24 182.384C344.122 182.674 332.404 178.841 318.071 173.824C303.733 168.805 292.21 164.503 292.329 164.213C292.448 163.924 304.163 167.756 318.5 172.775C332.833 177.792 344.359 182.095 344.24 182.384Z" fill="#E0E0E0"/>
<path d="M340.134 192.43C340.015 192.72 328.298 188.886 313.966 183.87C299.628 178.851 288.105 174.548 288.224 174.259C288.342 173.969 300.057 177.801 314.395 182.821C328.726 187.837 340.252 192.14 340.134 192.43Z" fill="#E0E0E0"/>
<path d="M173.772 249.401L91.3221 276.124C88.4695 277.049 85.3477 275.658 84.3493 273.018L42.9807 163.675C41.9822 161.035 43.4847 158.145 46.3373 157.221L128.787 130.498C131.64 129.574 134.762 130.964 135.76 133.604L177.128 242.946C178.127 245.587 176.624 248.477 173.772 249.401Z" fill="#EBEBEB"/>
<path d="M129.845 137.294L50.0859 163.145L91.0895 271.524L170.848 245.672L129.845 137.294Z" fill="#E0E0E0"/>
<path d="M128.419 136.781L48.6602 162.632L88.8807 268.941L168.639 243.09L128.419 136.781Z" fill="#FAFAFA"/>
<path d="M168.639 243.092C168.302 242.204 152.107 199.525 128.311 136.816L128.457 136.881C104.268 144.725 77.2034 153.5 48.7107 162.739L48.7012 162.742L48.7778 162.594C63.8114 202.527 77.8045 239.404 88.975 268.912L88.846 268.855C137.36 253.192 167.857 243.345 168.639 243.092C167.859 243.346 137.386 253.26 88.9131 269.031L88.8177 269.062L88.7841 268.974C77.6144 239.469 63.6523 202.588 48.5413 162.671L48.5 162.562L48.6187 162.523L48.6281 162.52C77.1234 153.288 104.19 144.519 128.382 136.682L128.49 136.647L128.528 136.746C152.195 199.496 168.305 242.204 168.639 243.092Z" fill="#E0E0E0"/>
<path d="M140.348 252.262C140.348 252.262 158.11 238.397 161.188 223.956C161.188 223.956 156.257 231.111 146.004 232.418C146.004 232.418 145.648 247.58 140.348 252.262Z" fill="#E0E0E0"/>
<path d="M79.3369 195.346L75.1367 196.707C73.6041 197.203 71.9271 196.456 71.3905 195.038L69.9199 191.15C69.3832 189.731 70.1908 188.179 71.7233 187.682L75.9236 186.321C77.4561 185.824 79.1331 186.571 79.6697 187.99L81.1403 191.877C81.6769 193.297 80.8694 194.849 79.3369 195.346Z" fill="#EBEBEB"/>
<path d="M75.4113 193.014C75.4088 193.015 75.4062 193.016 75.4036 193.016C75.3391 193.036 75.2694 193.028 75.211 192.997L73.288 191.964C73.1728 191.903 73.134 191.766 73.2003 191.659C73.2673 191.553 73.4144 191.517 73.5297 191.578L75.2256 192.488L77.2569 188.467C77.3128 188.355 77.4564 188.307 77.5768 188.359C77.6972 188.411 77.7497 188.544 77.6929 188.655L75.5506 192.897C75.5223 192.953 75.4724 192.994 75.4113 193.014Z" fill="white"/>
<path d="M130.488 169.869C130.511 169.929 120.153 173.342 107.355 177.49C94.5531 181.639 84.16 184.952 84.1368 184.892C84.1135 184.831 94.4697 181.42 107.272 177.27C120.069 173.122 130.465 169.808 130.488 169.869Z" fill="#E0E0E0"/>
<path d="M106.166 185.162C106.172 185.177 105.903 185.28 105.414 185.454C104.883 185.636 104.183 185.876 103.335 186.167C101.575 186.759 99.1386 187.563 96.4425 188.436C93.7456 189.31 91.2997 190.09 89.5256 190.642C88.6673 190.904 87.9578 191.121 87.4203 191.285C86.9215 191.432 86.6428 191.506 86.6368 191.491C86.6308 191.476 86.8991 191.374 87.3876 191.2C87.9182 191.018 88.6191 190.777 89.4671 190.487C91.2266 189.895 93.663 189.091 96.36 188.217C99.0561 187.343 101.502 186.564 103.276 186.011C104.134 185.749 104.845 185.532 105.382 185.368C105.881 185.221 106.16 185.147 106.166 185.162Z" fill="#E0E0E0"/>
<path d="M131.596 172.793C131.619 172.854 121.26 176.266 108.464 180.414C95.6616 184.564 85.2685 187.877 85.2461 187.816C85.2229 187.756 95.579 184.344 108.381 180.195C121.178 176.047 131.573 172.734 131.596 172.793Z" fill="#E0E0E0"/>
<path d="M85.3299 211.186L81.1297 212.547C79.5972 213.044 77.9202 212.296 77.3827 210.878L75.9121 206.99C75.3754 205.572 76.183 204.02 77.7155 203.523L81.9157 202.162C83.4483 201.665 85.1253 202.412 85.6619 203.831L87.1325 207.719C87.67 209.136 86.8625 210.689 85.3299 211.186Z" fill="#EBEBEB"/>
<path d="M81.4044 208.854C81.4018 208.854 81.3992 208.855 81.3966 208.856C81.3321 208.875 81.2625 208.867 81.204 208.836L79.2802 207.804C79.1649 207.742 79.1262 207.606 79.1925 207.499C79.2595 207.393 79.4066 207.356 79.5218 207.418L81.2178 208.327L83.2491 204.306C83.305 204.195 83.4486 204.147 83.569 204.199C83.6894 204.25 83.7419 204.383 83.6851 204.495L81.542 208.737C81.5153 208.792 81.4654 208.834 81.4044 208.854Z" fill="white"/>
<path d="M136.483 185.708C136.507 185.769 126.148 189.181 113.35 193.329C100.548 197.479 90.1552 200.792 90.1329 200.731C90.1096 200.671 100.466 197.259 113.268 193.11C126.065 188.962 136.46 185.648 136.483 185.708Z" fill="#E0E0E0"/>
<path d="M112.158 201.002C112.164 201.017 111.896 201.12 111.407 201.293C110.876 201.476 110.176 201.716 109.328 202.006C107.568 202.599 105.132 203.403 102.436 204.276C99.7386 205.15 97.2928 205.929 95.5186 206.482C94.6603 206.743 93.9508 206.961 93.4125 207.125C92.9137 207.272 92.635 207.346 92.629 207.331C92.623 207.316 92.8913 207.213 93.3798 207.04C93.9104 206.857 94.6113 206.617 95.4593 206.326C97.2188 205.734 99.6552 204.93 102.352 204.056C105.048 203.182 107.494 202.404 109.268 201.85C110.127 201.589 110.836 201.371 111.374 201.207C111.874 201.061 112.153 200.987 112.158 201.002Z" fill="#E0E0E0"/>
<path d="M137.589 188.634C137.612 188.694 127.253 192.107 114.456 196.255C101.654 200.404 91.2607 203.717 91.2383 203.657C91.2151 203.596 101.571 200.184 114.373 196.036C127.17 191.888 137.566 188.573 137.589 188.634Z" fill="#E0E0E0"/>
<path d="M91.3252 227.026L87.1249 228.387C85.5924 228.883 83.9154 228.136 83.3788 226.718L81.9082 222.83C81.3715 221.411 82.1791 219.859 83.7116 219.363L87.9118 218.001C89.4444 217.505 91.1214 218.252 91.658 219.671L93.1286 223.558C93.6644 224.977 92.8577 226.529 91.3252 227.026Z" fill="#EBEBEB"/>
<path d="M87.3996 224.694C87.397 224.695 87.3944 224.696 87.3919 224.696C87.3274 224.716 87.2577 224.708 87.1992 224.677L85.2763 223.644C85.161 223.583 85.1223 223.446 85.1886 223.339C85.2556 223.233 85.4027 223.197 85.5179 223.258L87.2138 224.168L89.2452 220.147C89.3019 220.036 89.4447 219.987 89.5651 220.039C89.6855 220.091 89.738 220.224 89.6812 220.335L87.5381 224.577C87.5106 224.632 87.4607 224.674 87.3996 224.694Z" fill="white"/>
<path d="M142.476 201.549C142.499 201.609 132.14 205.022 119.342 209.17C106.54 213.319 96.1474 216.632 96.125 216.572C96.1018 216.511 106.458 213.1 119.26 208.951C132.058 204.802 142.452 201.488 142.476 201.549Z" fill="#E0E0E0"/>
<path d="M118.15 216.842C118.156 216.857 117.888 216.959 117.398 217.133C116.868 217.315 116.167 217.556 115.319 217.846C113.559 218.438 111.123 219.242 108.427 220.116C105.73 220.99 103.284 221.769 101.51 222.321C100.652 222.583 99.9421 222.8 99.4046 222.964C98.9058 223.112 98.6272 223.186 98.6212 223.171C98.6152 223.155 98.8835 223.053 99.372 222.879C99.9026 222.697 100.603 222.457 101.451 222.166C103.211 221.574 105.647 220.77 108.344 219.896C111.04 219.022 113.486 218.243 115.26 217.69C116.119 217.428 116.828 217.211 117.367 217.047C117.866 216.901 118.145 216.827 118.15 216.842Z" fill="#E0E0E0"/>
<path d="M143.585 204.473C143.608 204.534 133.249 207.946 120.452 212.094C107.65 216.244 97.2568 219.557 97.2344 219.496C97.2112 219.436 107.567 216.024 120.369 211.875C133.167 207.727 143.562 204.413 143.585 204.473Z" fill="#E0E0E0"/>
<path d="M97.3174 242.865L93.1171 244.226C91.5846 244.723 89.9076 243.976 89.371 242.557L87.9004 238.669C87.3637 237.251 88.1713 235.699 89.7038 235.202L93.904 233.841C95.4365 233.344 97.1135 234.092 97.6502 235.51L99.1208 239.398C99.6574 240.816 98.8499 242.368 97.3174 242.865Z" fill="#EBEBEB"/>
<path d="M93.3918 240.534C93.3892 240.534 93.3866 240.535 93.3841 240.536C93.3196 240.554 93.2499 240.547 93.1914 240.516L91.2685 239.484C91.1532 239.422 91.1145 239.286 91.1807 239.179C91.247 239.072 91.3949 239.036 91.5101 239.098L93.206 240.008L95.2374 235.986C95.2933 235.875 95.4377 235.827 95.5573 235.879C95.6777 235.931 95.7301 236.063 95.6734 236.175L93.5303 240.417C93.5027 240.472 93.452 240.514 93.3918 240.534Z" fill="white"/>
<path d="M148.471 217.388C148.494 217.449 138.135 220.861 125.339 225.009C112.537 229.159 102.143 232.472 102.121 232.411C102.098 232.351 112.454 228.939 125.256 224.79C138.053 220.642 148.448 217.328 148.471 217.388Z" fill="#E0E0E0"/>
<path d="M124.143 232.682C124.149 232.697 123.881 232.8 123.391 232.973C122.861 233.156 122.16 233.396 121.312 233.686C119.552 234.279 117.116 235.083 114.42 235.956C111.723 236.83 109.277 237.609 107.503 238.162C106.645 238.423 105.935 238.641 105.397 238.805C104.898 238.952 104.619 239.026 104.613 239.011C104.607 238.996 104.876 238.893 105.364 238.72C105.895 238.537 106.596 238.297 107.444 238.006C109.203 237.414 111.64 236.61 114.337 235.736C117.033 234.862 119.478 234.084 121.253 233.53C122.111 233.269 122.82 233.051 123.359 232.887C123.858 232.741 124.137 232.667 124.143 232.682Z" fill="#E0E0E0"/>
<path d="M149.577 220.314C149.6 220.374 139.242 223.787 126.444 227.935C113.642 232.084 103.249 235.397 103.227 235.337C103.203 235.276 113.559 231.864 126.361 227.716C139.159 223.567 149.554 220.253 149.577 220.314Z" fill="#E0E0E0"/>
<path d="M57.6953 152.276L59.8006 157.841C61.0227 161.071 64.8411 162.772 68.3301 161.641L112.446 147.342C115.935 146.211 117.773 142.677 116.551 139.448L114.45 133.894L57.6953 152.276Z" fill="#E0E0E0"/>
<path d="M86.6589 144.733C83.3926 145.791 79.8055 144.193 78.6617 141.171C77.5179 138.147 79.2448 134.827 82.5111 133.769C85.7774 132.71 89.3644 134.308 90.5082 137.331C91.652 140.354 89.9251 143.674 86.6589 144.733ZM83.3066 135.871C81.2933 136.524 80.2286 138.571 80.9338 140.434C81.639 142.298 83.8501 143.283 85.8642 142.63C87.8775 141.978 88.9422 139.931 88.237 138.068C87.5309 136.204 85.3198 135.218 83.3066 135.871Z" fill="#E0E0E0"/>
<path d="M121.924 159.169C121.964 159.275 110.332 163.141 95.9455 167.804C81.5551 172.469 69.86 176.163 69.8204 176.057C69.78 175.951 81.4098 172.086 95.801 167.421C110.186 162.758 121.883 159.063 121.924 159.169Z" fill="#E0E0E0"/>
<path d="M107.022 161.149C107.062 161.255 101.941 163.011 95.5858 165.071C89.2286 167.131 84.0437 168.715 84.0041 168.61C83.9637 168.504 89.0842 166.748 95.4413 164.688C101.797 162.628 106.982 161.044 107.022 161.149Z" fill="#E0E0E0"/>
<path d="M229.988 137.414L242.135 138.653C245.058 134.8 249.131 131.624 254.146 129.626C268.568 123.881 285.29 130.046 291.496 143.394C297.703 156.743 291.043 172.22 276.622 177.965C262.2 183.71 245.478 177.545 239.271 164.197C236.68 158.624 236.339 152.681 237.862 147.227L237.855 147.24L229.988 137.414Z" fill="#FAFAFA"/>
<path d="M229.988 137.414C230.465 137.999 232.92 141.013 237.944 147.179L237.758 147.19L237.765 147.177C237.795 147.127 237.863 147.11 237.917 147.137C237.962 147.16 237.983 147.209 237.971 147.253C236.966 150.888 236.579 155.678 238.159 160.843C238.562 162.124 239.05 163.435 239.731 164.709C240.077 165.344 240.405 165.999 240.779 166.643C241.198 167.263 241.624 167.891 242.055 168.528C243.9 170.999 246.302 173.317 249.236 175.2C252.163 177.085 255.614 178.532 259.377 179.294C263.134 180.054 267.204 180.142 271.21 179.344C275.207 178.542 279.132 176.909 282.537 174.488C285.925 172.067 288.863 168.899 290.752 165.156C292.692 161.357 293.731 157.205 293.57 153.148C293.447 149.093 292.299 145.173 290.384 141.748C288.471 138.323 285.809 135.374 282.699 133.17C279.599 130.952 276.122 129.42 272.63 128.556C269.133 127.688 265.626 127.487 262.364 127.791C259.092 128.106 256.119 129.014 253.462 130.07C248.169 132.317 244.522 135.708 242.224 138.709C242.202 138.74 242.162 138.755 242.125 138.751C234.437 137.905 230.739 137.497 229.988 137.414C230.741 137.485 234.446 137.832 242.147 138.554L242.047 138.596C244.334 135.553 247.992 132.107 253.33 129.81C256.009 128.731 259.013 127.8 262.325 127.47C265.626 127.151 269.18 127.343 272.727 128.215C276.269 129.081 279.799 130.626 282.95 132.871C286.109 135.101 288.818 138.09 290.765 141.565C292.714 145.039 293.885 149.02 294.012 153.138C294.178 157.26 293.125 161.478 291.153 165.337C289.235 169.139 286.249 172.357 282.805 174.814C279.345 177.272 275.358 178.926 271.298 179.735C267.229 180.541 263.097 180.445 259.287 179.667C255.471 178.887 251.974 177.412 249.013 175.493C246.045 173.577 243.618 171.22 241.761 168.711C241.327 168.065 240.899 167.427 240.477 166.799C240.101 166.146 239.772 165.481 239.425 164.838C238.743 163.546 238.255 162.218 237.855 160.921C236.284 155.69 236.709 150.856 237.754 147.2L237.96 147.277L237.952 147.289C237.923 147.34 237.855 147.357 237.801 147.33C237.787 147.323 237.774 147.312 237.765 147.301C232.854 141.058 230.454 138.006 229.988 137.414Z" fill="#263238"/>
<path d="M254.906 144.429C254.914 144.437 254.921 144.56 254.928 144.793C254.934 145.054 254.941 145.391 254.95 145.814C254.962 146.733 254.979 148.019 255.001 149.64C255.025 152.94 255.059 157.593 255.1 163.162L254.906 162.983C260.797 162.975 267.737 162.966 275.143 162.956C275.194 162.911 274.721 163.346 274.921 163.159V163.155V163.144V163.124V163.084V163.003V162.842V162.522V161.883C274.921 161.457 274.921 161.034 274.922 160.612C274.923 159.769 274.923 158.934 274.924 158.108C274.925 156.455 274.928 154.839 274.93 153.266C274.937 150.122 274.945 147.155 274.952 144.429L275.145 144.609C269.127 144.571 264.1 144.539 260.535 144.517C258.785 144.497 257.394 144.481 256.402 144.47C255.946 144.461 255.581 144.454 255.3 144.449C255.047 144.443 254.914 144.436 254.906 144.429C254.899 144.423 255.018 144.416 255.257 144.41C255.529 144.404 255.881 144.398 256.322 144.389C257.304 144.378 258.679 144.362 260.411 144.342C264.007 144.32 269.076 144.288 275.145 144.25L275.338 144.249L275.339 144.429C275.346 147.155 275.354 150.122 275.361 153.266C275.363 154.839 275.365 156.455 275.367 158.108C275.368 158.934 275.368 159.769 275.369 160.612C275.369 161.033 275.369 161.457 275.369 161.883V162.522V162.842V163.003V163.084V163.124V163.144V163.155V163.159C275.569 162.975 275.097 163.416 275.143 163.369C267.737 163.359 260.797 163.35 254.906 163.342H254.711L254.712 163.162C254.752 157.546 254.787 152.853 254.811 149.525C254.832 147.922 254.849 146.649 254.861 145.74C254.871 145.332 254.878 145.007 254.884 144.754C254.892 144.533 254.899 144.422 254.906 144.429Z" fill="#263238"/>
<path d="M272.96 147.526C273.251 147.739 270.528 151.368 266.878 155.631C266.15 156.482 265.44 157.294 264.779 158.031L264.346 158.515L263.862 158.112C260.701 155.477 258.556 153.454 258.75 153.246C258.945 153.038 261.419 154.708 264.696 157.219L263.779 157.299C264.404 156.536 265.096 155.71 265.824 154.859C269.475 150.596 272.67 147.313 272.96 147.526Z" fill="#FF725E"/>
</svg>
