<svg width="430" height="398" viewBox="0 0 430 398" fill="none" xmlns="http://www.w3.org/2000/svg">
<path d="M250.62 213.518C250.242 211.182 242.697 203.455 242.697 203.455C242.697 203.455 238.924 189.439 237.792 185.306C237.509 184.273 236.903 183.1 236.151 181.921C233.518 177.787 229.657 174.439 225.136 172.086L214.694 166.651L212.195 161.505L187.105 149.574L180.302 160.682C180.302 160.682 163.781 165.542 161.595 169.013C159.408 172.484 162.68 219 162.68 219C162.68 219 155.765 245.845 154.307 251.399C152.849 256.953 154.776 263.581 154.776 263.581L167.081 249.287C170.904 244.846 179.3 242.805 185.328 242.884L236.851 243.094L234.802 229.737L276.462 237.236C276.462 237.236 283.63 224.298 284.196 224.037C284.763 223.779 250.62 213.518 250.62 213.518Z" fill="#FF725E"/>
<path d="M186.035 165.049C185.673 164.708 188.947 174.94 193.055 185.361C195.269 190.975 196.378 196.93 196.378 202.927V225.867V240.655L221.084 239.102L217.39 214.249C217.39 214.249 214.378 198.216 213.535 192.119C212.763 186.536 210.11 171.396 210.11 171.396C210.11 171.396 196.379 174.799 186.035 165.049Z" fill="white"/>
<path d="M240.853 222.893C240.825 222.89 240.816 222.685 240.852 222.317C240.886 221.949 240.981 221.419 241.177 220.78C241.558 219.508 242.437 217.793 244 216.343C245.563 214.893 247.415 214.075 248.789 213.72C249.478 213.538 250.051 213.45 250.448 213.416C250.847 213.383 251.068 213.391 251.07 213.417C251.08 213.488 250.204 213.574 248.885 214C247.572 214.417 245.817 215.245 244.317 216.636C242.818 218.027 241.927 219.652 241.479 220.869C241.022 222.091 240.93 222.902 240.853 222.893Z" fill="#263238"/>
<path d="M242.126 213.841C242.072 213.75 243.696 212.99 245.897 212.83C248.099 212.655 249.835 213.159 249.797 213.256C249.771 213.38 248.053 213.072 245.934 213.243C243.815 213.395 242.174 213.959 242.126 213.841Z" fill="#263238"/>
<g opacity="0.3">
<path d="M160.191 234.428L158.047 236.678C160.344 239.15 163.329 241.225 166.751 242.005C170.172 242.784 173.728 242.876 177.252 242.884C178.678 242.887 180.127 242.876 181.498 242.51C182.896 242.138 184.199 241.402 185.651 241.322C186.623 241.268 187.581 241.514 188.533 241.703C189.485 241.892 190.493 242.023 191.42 241.746C192.347 241.469 193.158 240.674 193.1 239.774C182.387 236.882 171.328 235.085 160.191 234.428Z" fill="black"/>
</g>
<path d="M230.712 237.314L224.651 231.355L212.183 228.434C212.183 228.434 200.757 231.603 200.483 231.594C200.21 231.585 190.539 229.148 190.539 229.148L187.16 240.622L204.577 241.726L224.464 240.989C224.464 240.989 225.501 240.095 224.886 239.484C224.271 238.873 228.211 240.517 228.674 240.537C229.129 240.556 230.037 240.886 230.651 240.199C231.07 239.731 231.639 238.224 230.712 237.314Z" fill="#FFBE9D"/>
<path d="M224.888 239.485C224.865 239.541 224.115 239.317 222.906 238.962C221.698 238.607 220.025 238.133 218.155 237.689C216.283 237.246 214.569 236.917 213.327 236.687C212.083 236.457 211.312 236.312 211.32 236.254C211.328 236.199 212.116 236.241 213.379 236.398C214.642 236.555 216.379 236.841 218.266 237.287C220.152 237.734 221.824 238.257 223.011 238.685C224.2 239.114 224.909 239.434 224.888 239.485Z" fill="#EB996E"/>
<path d="M230.714 237.314C230.689 237.371 229.646 237.012 227.948 236.488C226.25 235.957 223.878 235.309 221.241 234.627C218.606 233.902 216.26 233.178 214.48 233.082C212.708 232.942 211.627 233.266 211.61 233.186C211.603 233.163 211.861 233.062 212.356 232.953C212.85 232.842 213.588 232.76 214.498 232.789C216.336 232.812 218.754 233.511 221.362 234.228C224.001 234.91 226.375 235.607 228.054 236.211C228.895 236.509 229.565 236.774 230.022 236.969C230.48 237.163 230.726 237.288 230.714 237.314Z" fill="#EB996E"/>
<path d="M161.596 169.014C161.596 169.014 152.607 174.799 150.42 183.13C148.234 191.461 138.759 225.481 140.702 230.572C142.646 235.663 180.44 240.655 180.44 240.655L184.918 223.167L165.725 218.307C165.725 218.307 165.968 202.108 166.211 195.397C166.453 188.685 161.596 169.014 161.596 169.014Z" fill="#FF725E"/>
<path d="M184.668 225.775L190.853 227.185L187.132 240.385L181.055 239.485L184.668 225.775Z" fill="white"/>
<path d="M140.559 228.771C140.591 228.771 140.541 229.063 140.651 229.595C140.773 230.12 141.139 230.881 141.968 231.581C143.611 232.996 146.746 234.175 150.725 234.838L150.738 234.84L150.753 234.845C152.571 235.397 154.641 235.836 156.856 236.301C159.075 236.76 161.454 237.229 163.969 237.703C168.997 238.655 174.561 239.656 180.457 240.677L180.2 240.831C180.627 239.208 181.078 237.493 181.537 235.755C182.597 231.741 183.624 227.853 184.598 224.168L184.75 224.408C178.402 222.73 172.61 221.2 167.692 219.901L167.682 219.898L167.673 219.894C165.069 218.907 162.478 218.547 160.233 218.688C157.977 218.784 156.086 219.343 154.618 219.909C153.147 220.492 152.095 221.125 151.392 221.563C151.067 221.782 150.809 221.956 150.611 222.09C150.434 222.208 150.34 222.265 150.334 222.259C150.328 222.253 150.412 222.183 150.579 222.051C150.748 221.923 150.992 221.723 151.333 221.485C152.02 221.02 153.064 220.356 154.54 219.741C156.013 219.143 157.923 218.55 160.217 218.429C162.499 218.261 165.144 218.605 167.807 219.595L167.788 219.589C172.713 220.867 178.512 222.372 184.868 224.021L185.069 224.073L185.02 224.261C184.051 227.948 183.029 231.837 181.974 235.852C181.515 237.59 181.062 239.305 180.635 240.927L180.585 241.116L180.378 241.081C174.481 240.053 168.919 239.037 163.891 238.063C161.377 237.578 158.999 237.095 156.779 236.621C154.561 236.141 152.502 235.689 150.652 235.108L150.679 235.115C146.658 234.406 143.513 233.179 141.856 231.691C141.022 230.955 140.665 230.151 140.568 229.609C140.482 229.059 140.559 228.771 140.559 228.771Z" fill="#263238"/>
<path d="M166.763 219.466C166.711 219.518 166.07 218.975 164.917 218.26C163.768 217.544 162.065 216.702 160.037 216.151C158.005 215.608 156.081 215.472 154.695 215.505C153.308 215.535 152.452 215.675 152.438 215.605C152.426 215.564 153.267 215.32 154.68 215.213C156.087 215.103 158.075 215.195 160.161 215.754C162.245 216.32 163.975 217.229 165.099 218.022C166.23 218.813 166.797 219.437 166.763 219.466Z" fill="#263238"/>
<path d="M169.278 190.971C169.309 190.972 169.312 191.352 169.291 192.037C169.275 192.724 169.21 193.714 169.11 194.937C168.898 197.382 168.504 200.754 167.814 204.443C167.136 208.135 166.269 211.44 165.43 213.774C165.219 214.356 165.002 214.877 164.817 215.333C164.612 215.761 164.43 216.141 164.267 216.479C163.913 217.087 163.705 217.414 163.679 217.4C163.652 217.386 163.807 217.033 164.109 216.413C164.249 216.07 164.406 215.684 164.583 215.251C164.744 214.79 164.938 214.268 165.128 213.685C165.884 211.347 166.697 208.051 167.372 204.372C168.06 200.696 168.502 197.34 168.794 194.909C168.923 193.754 169.031 192.788 169.117 192.025C169.192 191.346 169.248 190.969 169.278 190.971Z" fill="#263238"/>
<path d="M191.196 181.948C191.167 181.955 191.107 181.731 190.898 181.36C190.687 180.995 190.303 180.472 189.606 180.052C188.93 179.635 187.885 179.339 186.809 179.673C185.753 179.989 184.712 180.908 184.45 182.146L184.329 182.711L184.066 182.188C183.16 180.385 182.234 178.3 181.438 176.042C179.984 171.943 179.357 168.017 179.495 165.183C179.491 164.474 179.603 163.837 179.646 163.277C179.751 162.722 179.827 162.243 179.92 161.857C180.138 161.091 180.272 160.673 180.301 160.681C180.412 160.701 179.792 162.38 179.812 165.188C179.757 167.985 180.423 171.848 181.864 175.914C182.653 178.153 183.559 180.228 184.434 182.031L184.051 182.074C184.37 180.679 185.535 179.702 186.706 179.375C187.911 179.03 189.047 179.395 189.742 179.866C190.464 180.342 190.832 180.913 191.013 181.308C191.103 181.508 191.155 181.668 191.176 181.779C191.201 181.888 191.207 181.946 191.196 181.948Z" fill="#263238"/>
<path d="M212.166 183.74C212.137 183.742 212.079 183.406 211.968 182.793C211.876 182.18 211.657 181.279 211.785 180.124C211.958 178.991 212.537 177.617 213.859 176.599C214.512 176.098 215.409 175.763 216.359 175.768C217.298 175.767 218.323 176.105 218.991 176.858L218.612 177.059C218.351 176.449 218.075 175.809 217.796 175.157C216.192 171.407 214.763 168.004 213.75 165.534C213.275 164.352 212.879 163.367 212.571 162.601C212.302 161.906 212.168 161.516 212.196 161.506C212.226 161.496 212.416 161.867 212.735 162.545C213.077 163.299 213.517 164.268 214.046 165.432C215.135 167.876 216.611 171.263 218.216 175.013C218.493 175.664 218.767 176.305 219.027 176.916L219.552 178.145L218.648 177.117C218.086 176.477 217.197 176.168 216.356 176.161C215.507 176.152 214.713 176.433 214.102 176.885C212.874 177.793 212.272 179.104 212.078 180.161C211.916 181.25 212.083 182.157 212.127 182.774C212.189 183.394 212.194 183.738 212.166 183.74Z" fill="#263238"/>
<path d="M228.115 185.715C228.238 185.699 230.181 197.8 232.456 212.741C234.731 227.687 236.476 239.813 236.353 239.828C236.23 239.844 234.287 227.745 232.012 212.799C229.737 197.859 227.993 185.731 228.115 185.715Z" fill="#263238"/>
<g opacity="0.3">
<path d="M181.703 176.172C181.808 179.262 182.54 182.331 183.845 185.162C184.782 184.092 185.82 182.959 187.245 182.644C189.021 182.25 190.817 183.267 192.101 184.501C191.829 183.27 191.38 182.045 190.55 181.067C189.72 180.089 188.461 179.384 187.141 179.418C185.821 179.451 184.508 180.346 184.271 181.584L181.806 176.225" fill="black"/>
</g>
<path d="M167.18 184.92C167.097 184.919 167.125 184.086 166.864 182.785C166.607 181.489 165.981 179.729 164.773 178.052C164.164 177.219 163.482 176.496 162.807 175.889C162.112 175.303 161.446 174.811 160.836 174.469C159.628 173.763 158.776 173.491 158.805 173.419C158.816 173.392 159.033 173.442 159.422 173.558C159.619 173.612 159.854 173.69 160.115 173.808C160.379 173.92 160.687 174.038 160.998 174.217C161.647 174.537 162.355 175.019 163.087 175.609C163.799 176.22 164.516 176.961 165.145 177.822C166.395 179.556 166.995 181.398 167.177 182.739C167.269 183.411 167.294 183.96 167.261 184.338C167.238 184.714 167.21 184.921 167.18 184.92Z" fill="#263238"/>
<path d="M217.095 128.113C216.078 119.275 207.895 112.646 198.296 112.874L197.342 112.897C187.07 113.698 182.067 122.22 183.216 131.701L186.035 165.05L187.228 166.405C192.75 172.679 202.142 174.728 210.11 171.397L209.321 160.669C209.321 160.669 219.17 159.01 219.039 149.856C218.974 145.433 218.042 136.336 217.095 128.113Z" fill="#FFBE9D"/>
<path d="M209.397 160.654C209.397 160.654 203.092 161.156 196.344 157.452C196.344 157.452 199.574 163.966 209.417 162.907L209.397 160.654Z" fill="#EB996E"/>
<path d="M213.967 135.685C214.013 136.374 213.419 136.978 212.643 137.035C211.867 137.092 211.2 136.581 211.155 135.892C211.109 135.202 211.703 134.596 212.478 134.54C213.255 134.483 213.921 134.995 213.967 135.685Z" fill="#263238"/>
<path d="M214.597 130.708C214.485 130.869 213.363 130.979 212.027 131.648C210.688 132.306 209.886 133.152 209.698 133.14C209.608 133.138 209.689 132.908 210.035 132.535C210.375 132.165 211.014 131.651 211.847 131.237C212.682 130.823 213.462 130.632 213.946 130.593C214.439 130.55 214.654 130.632 214.597 130.708Z" fill="#263238"/>
<path d="M199.694 136.379C199.74 137.068 199.147 137.672 198.369 137.73C197.593 137.787 196.927 137.276 196.881 136.586C196.836 135.896 197.429 135.291 198.205 135.234C198.982 135.177 199.649 135.689 199.694 136.379Z" fill="#263238"/>
<path d="M199.479 132.633C199.281 132.672 198.36 132.096 196.887 131.76C195.417 131.416 194.218 131.502 194.086 131.386C194.019 131.333 194.24 131.23 194.767 131.187C195.283 131.143 196.126 131.178 197.043 131.389C197.961 131.602 198.681 131.927 199.072 132.182C199.469 132.438 199.573 132.617 199.479 132.633Z" fill="#263238"/>
<path d="M205.438 143.563C205.429 143.483 206.37 143.309 207.894 143.092C208.281 143.046 208.647 142.966 208.705 142.719C208.79 142.457 208.616 142.074 208.417 141.661C208.029 140.8 207.621 139.899 207.194 138.954C205.492 135.098 204.25 131.925 204.418 131.862C204.586 131.8 206.101 134.874 207.803 138.73C208.214 139.681 208.606 140.587 208.979 141.455C209.137 141.859 209.403 142.316 209.22 142.86C209.123 143.13 208.843 143.333 208.596 143.4C208.349 143.477 208.131 143.485 207.94 143.5C206.402 143.613 205.446 143.642 205.438 143.563Z" fill="#263238"/>
<path d="M199.5 127.198C199.331 127.573 197.824 127.324 196.033 127.443C194.239 127.528 192.777 127.946 192.558 127.593C192.461 127.424 192.731 127.077 193.331 126.733C193.926 126.39 194.862 126.079 195.937 126.018C197.012 125.957 197.983 126.159 198.619 126.433C199.261 126.705 199.574 127.02 199.5 127.198Z" fill="#263238"/>
<path d="M214.561 127.511C214.23 127.834 212.921 127.514 211.352 127.514C209.782 127.471 208.455 127.756 208.146 127.424C208.01 127.263 208.215 126.941 208.793 126.633C209.363 126.326 210.317 126.071 211.396 126.085C212.475 126.1 213.412 126.381 213.963 126.703C214.52 127.027 214.706 127.354 214.561 127.511Z" fill="#263238"/>
<path d="M219.977 120.018C219.788 119.187 218.903 118.485 217.996 118.61C218.48 118.45 218.977 118.283 219.36 117.966C219.743 117.65 219.989 117.142 219.827 116.69C219.574 115.983 218.595 115.837 217.82 115.633C216.808 115.368 215.892 114.802 215.241 114.04C214.301 112.941 213.939 111.512 213.127 110.328C212.076 108.796 210.249 107.742 208.3 107.544C206.352 107.345 204.32 108.005 202.935 109.288C201.424 107.852 199.146 107.144 197.004 107.446C194.864 107.748 192.916 109.052 191.936 110.84C189.312 109.829 186.11 110.247 183.889 111.889C181.669 113.531 180.522 116.33 181.009 118.922L187.168 122.415C187.269 120.653 189.393 119.254 191.224 119.744C193.083 120.241 194.272 122.234 196.202 122.369C197.704 122.475 198.983 121.397 200.438 121.036C202.205 120.598 204.069 121.252 205.662 122.083C207.255 122.914 208.768 123.947 210.541 124.361C212.618 124.847 214.833 124.421 216.816 123.67C217.665 123.348 218.507 122.955 219.139 122.34C219.77 121.724 220.165 120.849 219.977 120.018Z" fill="#263238"/>
<path d="M188.24 119.729L216.444 119.579C215.514 117.802 213.906 116.401 212.17 115.252C208.429 112.775 203.878 111.285 199.28 111.329C194.68 111.372 185.478 116.796 182.236 119.815C179.642 122.231 179.72 124.262 179.72 124.262C179.398 127.655 181.559 131.448 182.472 134.748C182.942 136.45 183.907 141.612 183.907 141.612H183.908C185.461 141.567 186.004 140.408 185.725 138.993L185.268 133.425C185.268 133.425 190.446 129.814 187.752 123.52C187.334 123.024 186.408 120.722 188.24 119.729Z" fill="#263238"/>
<path d="M184.828 133.054C183.392 128.431 182.074 123.477 183.599 118.879C183.32 118.868 183.041 118.857 182.762 118.847L182.413 119.082C180.835 118.591 178.947 119.148 177.966 120.393C176.986 121.638 176.991 123.472 177.979 124.712C176.308 124.639 174.705 125.933 174.553 127.475C174.448 128.539 174.948 129.567 175.46 130.524C175.973 131.482 176.524 132.473 176.532 133.542C176.54 134.61 175.801 135.771 174.655 135.897C175.167 136.992 176.603 137.637 177.85 137.334C177.454 138.237 176.773 139.033 175.913 139.595C177.75 140.754 180.272 140.358 182.271 139.457C183.457 138.923 184.62 138.161 185.104 137.026C185.639 135.768 185.231 134.354 184.828 133.054Z" fill="#263238"/>
<path d="M184.367 138.44C184.197 138.377 177.521 136.742 177.911 142.993C178.301 149.245 185.002 147.594 185.002 147.414C185.002 147.234 184.367 138.44 184.367 138.44Z" fill="#FFBE9D"/>
<path d="M183.386 145.14C183.355 145.122 183.273 145.223 183.079 145.318C182.891 145.41 182.561 145.485 182.201 145.381C181.473 145.177 180.806 144.161 180.703 143.036C180.651 142.468 180.745 141.919 180.935 141.459C181.113 140.991 181.413 140.654 181.768 140.576C182.121 140.48 182.387 140.666 182.481 140.837C182.582 141.007 182.547 141.134 182.584 141.143C182.604 141.157 182.723 141.03 182.652 140.775C182.616 140.652 182.528 140.509 182.362 140.398C182.193 140.284 181.95 140.235 181.702 140.274C181.183 140.335 180.742 140.803 180.533 141.308C180.296 141.817 180.174 142.435 180.234 143.072C180.356 144.33 181.125 145.471 182.119 145.68C182.601 145.769 182.989 145.615 183.184 145.457C183.383 145.292 183.411 145.15 183.386 145.14Z" fill="#EB996E"/>
<path d="M177.354 133.255C177.334 133.268 177.164 133.02 177.23 132.528C177.293 132.05 177.667 131.357 178.492 130.899C179.309 130.438 180.438 130.326 181.587 130.207C182.723 130.093 184.02 129.795 184.67 128.758C185.319 127.748 185.337 126.511 185.199 125.477C185.038 124.427 184.738 123.473 184.589 122.652C184.232 120.998 184.574 119.942 184.635 119.97C184.716 119.981 184.515 120.994 184.953 122.583C185.144 123.381 185.48 124.308 185.678 125.414C185.845 126.504 185.87 127.827 185.118 129.013C184.743 129.595 184.142 130.039 183.509 130.273C182.873 130.512 182.233 130.594 181.642 130.653C180.463 130.749 179.423 130.825 178.673 131.201C177.932 131.562 177.544 132.151 177.431 132.566C177.311 132.991 177.401 133.247 177.354 133.255Z" fill="#455A64"/>
<path d="M175.722 130.529C175.695 130.538 175.573 130.351 175.514 129.964C175.458 129.583 175.49 128.987 175.85 128.355C176.03 128.043 176.292 127.726 176.653 127.463C177.008 127.188 177.49 127.019 177.949 126.902C178.41 126.778 178.888 126.668 179.232 126.415C179.575 126.164 179.73 125.75 179.74 125.27C179.76 124.793 179.682 124.292 179.694 123.79C179.701 123.293 179.764 122.816 179.866 122.371C180.077 121.478 180.426 120.724 180.835 120.136C181.242 119.531 181.893 119.235 182.33 119.257C182.778 119.261 182.965 119.447 182.944 119.463C182.926 119.501 182.719 119.392 182.346 119.446C181.972 119.49 181.482 119.759 181.15 120.32C180.815 120.877 180.511 121.62 180.341 122.459C180.258 122.88 180.209 123.329 180.209 123.794C180.202 124.255 180.284 124.745 180.265 125.289C180.263 125.819 180.051 126.442 179.551 126.789C179.062 127.13 178.527 127.221 178.077 127.335C177.151 127.502 176.533 127.979 176.171 128.526C175.457 129.646 175.824 130.533 175.722 130.529Z" fill="#455A64"/>
<path d="M215.25 114.045C215.292 114.054 214.74 114.386 213.855 114.001C213.422 113.822 212.994 113.446 212.58 112.995C212.166 112.539 211.696 112.052 211.011 111.707C209.692 111.013 207.557 110.833 205.917 112.02C205.082 112.581 204.343 113.363 203.371 114.018C202.885 114.34 202.321 114.626 201.68 114.742C201.04 114.858 200.361 114.775 199.757 114.573C198.54 114.169 197.579 113.478 196.528 113.125C195.481 112.75 194.39 112.585 193.356 112.597C191.272 112.601 189.471 113.327 188.24 114.225C186.989 115.122 186.257 116.132 185.825 116.845C185.405 117.571 185.252 118.013 185.209 117.999C185.191 117.994 185.215 117.88 185.276 117.666C185.339 117.453 185.456 117.145 185.642 116.76C186.027 116.003 186.733 114.927 188.008 113.956C189.259 112.984 191.15 112.177 193.349 112.148C194.44 112.122 195.596 112.287 196.712 112.679C197.845 113.061 198.826 113.754 199.93 114.113C200.479 114.295 201.044 114.361 201.583 114.265C202.121 114.17 202.618 113.926 203.072 113.629C203.98 113.028 204.737 112.245 205.632 111.656C206.516 111.04 207.601 110.741 208.583 110.751C209.572 110.756 210.477 111.014 211.196 111.407C211.925 111.799 212.423 112.358 212.805 112.819C213.196 113.283 213.565 113.642 213.948 113.831C214.726 114.237 215.253 113.998 215.25 114.045Z" fill="#455A64"/>
<path d="M201.684 145.201C201.898 145.155 202.144 146.492 203.553 147.248C204.96 148.007 206.471 147.617 206.517 147.803C206.552 147.884 206.221 148.116 205.575 148.234C204.941 148.353 203.976 148.308 203.114 147.846C202.254 147.382 201.788 146.656 201.639 146.115C201.483 145.565 201.584 145.209 201.684 145.201Z" fill="#263238"/>
<path d="M290.687 269.574C288.132 267.466 284.602 266.488 281.185 266.673L275.375 283.768C279.634 283.941 283.882 285.974 287.994 284.932C291.295 284.096 293.799 281.225 294.258 278.086C294.717 274.946 293.242 271.681 290.687 269.574Z" fill="#FF725E"/>
<path d="M281.287 266.27C281.299 266.131 281.919 266.025 283.048 266.035C284.17 266.064 285.836 266.182 287.804 266.865C289.778 267.541 291.931 268.924 293.597 271.028C294.43 272.078 295.126 273.33 295.529 274.735C295.938 276.138 296.011 277.702 295.673 279.22C295.336 280.74 294.615 282.167 293.56 283.301C292.506 284.447 291.153 285.239 289.811 285.708C287.099 286.65 284.493 286.5 282.5 286.145C280.486 285.779 278.971 285.235 277.944 284.836C276.919 284.427 276.384 284.127 276.428 283.991C276.473 283.852 277.1 283.893 278.19 284.061C279.278 284.221 280.831 284.535 282.721 284.693C284.596 284.849 286.869 284.797 289.036 283.938C290.108 283.511 291.108 282.87 291.879 281.997C292.658 281.123 293.212 280.009 293.479 278.804C294.035 276.374 293.241 273.951 291.905 272.121C290.568 270.271 288.815 268.953 287.17 268.207C285.509 267.44 283.978 267.101 282.93 266.834C281.874 266.582 281.274 266.416 281.287 266.27Z" fill="#F5F5F5"/>
<path d="M227.432 330.392L214.789 363.177L258.777 377.944C260.044 373.969 240.347 358.52 240.347 358.52L249.378 337.822L227.432 330.392Z" fill="#FF725E"/>
<g opacity="0.6">
<path d="M227.439 352.189C226.503 352.119 225.567 352.808 225.453 353.67C225.339 354.532 226.087 355.419 227.021 355.505C227.955 355.59 229.105 354.796 229.115 353.927C229.124 353.058 228.184 352.061 227.255 352.186" fill="white"/>
</g>
<path d="M214.789 363.177L216.065 359.868L257.85 375.295C257.85 375.295 259.5 376.741 258.778 377.944L214.789 363.177Z" fill="white"/>
<path d="M241.142 358.553C241.057 358.749 239.947 358.479 238.64 358.764C237.324 359.016 236.443 359.694 236.276 359.549C236.093 359.444 236.88 358.363 238.468 358.045C240.054 357.712 241.26 358.385 241.142 358.553Z" fill="#263238"/>
<path d="M245.062 361.867C245.036 362.077 243.973 362.102 242.914 362.698C241.836 363.265 241.295 364.113 241.086 364.032C240.871 363.996 241.179 362.782 242.511 362.064C243.836 361.335 245.132 361.676 245.062 361.867Z" fill="#263238"/>
<path d="M245.68 367.858C245.468 367.835 245.559 366.741 246.536 365.838C247.508 364.927 248.689 364.838 248.715 365.034C248.772 365.238 247.891 365.603 247.1 366.357C246.291 367.092 245.901 367.91 245.68 367.858Z" fill="#263238"/>
<path d="M242.633 353.624C242.472 353.775 241.594 353.17 240.35 352.838C239.113 352.484 238.02 352.544 237.975 352.336C237.907 352.15 239.118 351.725 240.578 352.134C242.04 352.532 242.8 353.503 242.633 353.624Z" fill="#263238"/>
<path d="M243.479 348.441C243.45 348.524 242.552 348.362 241.28 347.69C240.647 347.356 239.932 346.884 239.232 346.262C238.883 345.95 238.537 345.601 238.21 345.216C238.056 345.027 237.862 344.825 237.733 344.513C237.577 344.225 237.648 343.653 238.049 343.422C238.396 343.185 238.848 343.183 239.168 343.284C239.496 343.382 239.735 343.531 239.953 343.667C240.4 343.941 240.8 344.245 241.153 344.561C241.854 345.197 242.362 345.874 242.701 346.477C243.378 347.694 243.436 348.554 243.347 348.568C243.224 348.6 242.971 347.811 242.215 346.741C241.838 346.207 241.322 345.614 240.652 345.056C240.315 344.779 239.941 344.513 239.528 344.271C239.107 344.001 238.711 343.865 238.517 344.017C238.444 344.075 238.427 344.102 238.475 344.261C238.53 344.412 238.675 344.588 238.827 344.775C239.124 345.141 239.436 345.477 239.75 345.782C240.379 346.391 241.018 346.879 241.583 347.252C242.717 348.002 243.524 348.335 243.479 348.441Z" fill="#263238"/>
<path d="M243.09 348.632C243.001 348.638 242.855 347.782 243.281 346.468C243.495 345.817 243.869 345.067 244.456 344.336C244.751 343.973 245.1 343.616 245.502 343.286C245.918 342.97 246.443 342.537 247.311 342.728C247.752 342.86 247.99 343.295 248.008 343.605C248.045 343.93 247.982 344.176 247.941 344.429C247.835 344.932 247.644 345.395 247.405 345.803C246.926 346.624 246.261 347.215 245.638 347.594C244.365 348.361 243.375 348.297 243.384 348.224C243.351 348.1 244.251 347.967 245.305 347.175C245.826 346.784 246.372 346.221 246.753 345.493C246.944 345.13 247.094 344.728 247.174 344.301C247.275 343.845 247.236 343.437 247.044 343.423C246.827 343.347 246.327 343.547 246.012 343.832C245.643 344.121 245.317 344.435 245.034 344.755C244.469 345.398 244.073 346.062 243.81 346.646C243.281 347.82 243.218 348.641 243.09 348.632Z" fill="#263238"/>
<path d="M184.811 242.825C178.138 242.969 171.809 243.841 167.213 248.321C161.117 254.262 153.579 262.725 153.151 268.595C152.511 277.368 158.229 279.975 162.404 282.114C164.25 283.061 166.355 283.487 168.464 283.412L245.59 282.87L248.011 270.779L198.128 259.4L200.2 242.022L184.811 242.825Z" fill="#263238"/>
<path d="M200.201 242.024L224.463 240.99C224.463 240.99 266.375 243.146 275.315 250.731C284.254 258.316 283.137 266.936 280.157 275.211C277.178 283.485 250.917 336.409 250.917 336.409C250.917 336.409 253.046 339.773 251.848 343.132C249.994 348.331 244.999 349.169 244.999 349.169L221.676 341.236C221.676 341.236 218.509 340.202 220.744 337.443C222.979 334.685 224.469 334.167 224.469 334.167V328.651C224.469 328.651 232.664 314.859 233.409 312.963C234.153 311.067 242.009 282.999 242.009 282.999L247.226 274.699C247.226 274.699 234.608 269.207 223.671 265.227L198.129 259.401L200.201 242.024Z" fill="#263238"/>
<path d="M239.554 340.236C239.507 340.288 238.771 339.75 237.507 338.994C236.246 338.237 234.424 337.298 232.283 336.541C230.138 335.789 228.103 335.372 226.616 335.161C225.129 334.949 224.193 334.899 224.195 334.831C224.195 334.785 225.139 334.73 226.657 334.87C228.172 335.008 230.258 335.387 232.441 336.152C234.621 336.923 236.453 337.922 237.684 338.751C238.921 339.58 239.587 340.201 239.554 340.236Z" fill="#455A64"/>
<path d="M251.21 336.446C251.163 336.482 250.641 335.98 249.855 335.126C249.068 334.271 248.021 333.059 246.924 331.68C245.827 330.299 244.889 329.013 244.241 328.063C243.593 327.114 243.231 326.504 243.282 326.474C243.335 326.442 243.789 326.994 244.503 327.899C245.318 328.933 246.252 330.122 247.285 331.434C248.331 332.736 249.279 333.916 250.104 334.943C250.823 335.843 251.258 336.409 251.21 336.446Z" fill="#455A64"/>
<path d="M259.758 267.121C259.772 267.189 258.902 267.36 257.548 267.776C256.195 268.189 254.37 268.894 252.526 269.955C250.685 271.022 249.201 272.23 248.206 273.174C247.208 274.118 246.659 274.766 246.6 274.724C246.56 274.698 247.02 273.984 247.974 272.975C248.924 271.965 250.409 270.693 252.29 269.604C254.173 268.519 256.06 267.843 257.457 267.496C258.855 267.146 259.751 267.076 259.758 267.121Z" fill="#455A64"/>
<path d="M235.898 304.597C235.883 304.593 235.916 304.433 235.993 304.131C236.087 303.786 236.206 303.351 236.351 302.815C236.697 301.624 237.17 299.992 237.749 297.998C238.984 293.893 240.665 288.313 242.523 282.147C243.49 279.056 244.321 276.107 245.254 273.437C246.338 270.789 248.056 268.746 249.645 267.236C251.249 265.72 252.75 264.701 253.814 264.055C254.354 263.738 254.775 263.498 255.073 263.353C255.367 263.204 255.525 263.131 255.533 263.143C255.553 263.175 254.949 263.51 253.913 264.188C252.885 264.871 251.427 265.917 249.874 267.438C248.334 268.954 246.675 270.984 245.641 273.57C244.746 276.202 243.916 279.185 242.952 282.266C241.047 288.417 239.322 293.984 238.053 298.079C237.418 300.058 236.898 301.678 236.519 302.859C236.34 303.386 236.195 303.814 236.08 304.153C235.975 304.449 235.913 304.601 235.898 304.597Z" fill="#455A64"/>
<path d="M214.441 264.169C214.318 264.179 213.808 259.98 213.302 254.792C212.796 249.601 212.486 245.387 212.609 245.377C212.732 245.366 213.242 249.564 213.748 254.754C214.254 259.943 214.564 264.158 214.441 264.169Z" fill="#455A64"/>
<path d="M174.057 275.379C173.989 275.41 173.614 274.73 172.854 273.734C172.099 272.738 170.908 271.453 169.331 270.307C167.748 269.167 166.113 268.409 164.885 267.972C163.658 267.531 162.855 267.359 162.871 267.29C162.879 267.247 163.711 267.318 164.992 267.696C166.271 268.07 167.98 268.808 169.606 269.981C171.227 271.157 172.416 272.514 173.117 273.572C173.825 274.63 174.1 275.361 174.057 275.379Z" fill="#455A64"/>
<path d="M188.923 260.136C188.88 260.2 187.851 259.589 186.069 258.839C184.293 258.086 181.72 257.261 178.768 256.864C175.812 256.476 173.094 256.599 171.16 256.86C169.222 257.116 168.05 257.434 168.028 257.361C168.019 257.334 168.304 257.235 168.832 257.079C169.356 256.915 170.135 256.736 171.11 256.57C173.055 256.232 175.824 256.059 178.832 256.454C181.837 256.857 184.441 257.745 186.205 258.575C187.089 258.988 187.783 259.362 188.237 259.656C188.695 259.943 188.94 260.111 188.923 260.136Z" fill="#455A64"/>
<path d="M247.015 270.767C247.011 270.781 246.803 270.749 246.41 270.675C245.975 270.587 245.406 270.474 244.698 270.331C243.163 270.012 241.028 269.568 238.411 269.023C233.103 267.922 225.759 266.447 217.618 264.954C209.474 263.463 202.076 262.237 196.715 261.383C194.072 260.963 191.916 260.621 190.365 260.375C189.651 260.256 189.078 260.161 188.64 260.089C188.246 260.019 188.04 259.975 188.043 259.962C188.046 259.948 188.255 259.963 188.654 260.007C189.096 260.06 189.673 260.13 190.392 260.216C191.9 260.405 194.078 260.704 196.767 261.094C202.144 261.875 209.556 263.057 217.705 264.548C225.852 266.042 233.19 267.564 238.483 268.738C241.129 269.325 243.267 269.817 244.738 270.174C245.439 270.348 246.002 270.487 246.432 270.594C246.817 270.694 247.018 270.754 247.015 270.767Z" fill="#455A64"/>
<path d="M198.129 261.45C198.043 261.474 197.863 260.507 197.061 259.169C196.655 258.506 196.07 257.772 195.296 257.056C194.532 256.336 193.594 255.619 192.596 254.895C190.583 253.467 188.538 252.459 187.071 251.719C185.597 250.988 184.682 250.531 184.712 250.477C184.737 250.428 185.698 250.791 187.215 251.458C188.723 252.134 190.814 253.11 192.87 254.566C193.883 255.302 194.82 256.033 195.594 256.791C196.372 257.541 196.958 258.326 197.341 259.03C197.722 259.737 197.926 260.349 198.03 260.776C198.132 261.203 198.156 261.445 198.129 261.45Z" fill="#455A64"/>
<path d="M284.029 272.244C284.128 272.332 282.838 273.539 281.834 275.374C280.809 277.199 280.501 278.873 280.366 278.85C280.255 278.85 280.37 277.086 281.436 275.184C282.483 273.276 283.965 272.16 284.029 272.244Z" fill="#263238"/>
<g opacity="0.3">
<path d="M228.828 190.67L234.348 226.665L234.625 227.24C235.928 214.857 233.92 202.186 228.828 190.67Z" fill="black"/>
</g>
<path d="M258.562 211.356L240.61 240.415L196.38 241.305L196.27 243.159L239.097 242.864L240.455 242.821L285.68 242.904L294.819 228.316L306.493 212.829C307.259 211.814 306.47 210.422 305.133 210.426L259.989 210.585C259.399 210.588 258.854 210.882 258.562 211.356Z" fill="#E0E0E0"/>
<path d="M294.819 228.316C294.819 228.316 297.143 230.287 296.776 231.962C296.409 233.637 296.532 234.883 294.819 234.996C294.819 234.996 294.941 237.147 292.495 237.487C292.495 237.487 293.02 240.113 289.717 240.566C289.717 240.566 288.703 243.374 286.625 242.695C284.545 242.016 283.2 241.223 283.2 241.223L282.589 240.204C282.589 240.204 279.525 239.138 280.28 237.537C280.738 236.565 282.322 236.313 282.322 236.313C282.322 236.313 281.663 234.887 282.518 233.823C283.253 232.909 285.644 233.664 285.644 233.664C285.644 233.664 285.503 232.485 286.402 231.497C287.216 230.604 291.024 233.032 291.024 233.032L293.101 230.736L294.819 228.316Z" fill="#FFBE9D"/>
<path d="M289.718 240.566C289.653 240.663 287.944 239.789 285.902 238.615C283.86 237.44 282.258 236.41 282.322 236.313C282.388 236.215 284.095 237.089 286.138 238.263C288.18 239.437 289.784 240.468 289.718 240.566Z" fill="#EB996E"/>
<path d="M292.494 237.487C292.431 237.585 290.845 236.808 288.953 235.753C287.061 234.697 285.579 233.762 285.643 233.664C285.706 233.566 287.292 234.342 289.184 235.398C291.076 236.453 292.558 237.389 292.494 237.487Z" fill="#EB996E"/>
<path d="M288.708 231.724C288.777 231.607 290.197 232.299 291.848 233.267C293.501 234.244 294.833 235.003 294.801 235.08C294.739 235.216 293.262 234.596 291.611 233.619C289.952 232.647 288.659 231.809 288.708 231.724Z" fill="#EB996E"/>
<path d="M306.502 211.527C306.502 211.535 306.429 211.542 306.285 211.549C306.116 211.555 305.907 211.562 305.651 211.57C305.056 211.579 304.241 211.592 303.208 211.609C301.05 211.625 297.991 211.647 294.227 211.675C286.611 211.691 276.152 211.712 264.598 211.735C263.874 211.735 263.155 211.735 262.441 211.735C261.762 211.687 261.147 211.963 260.796 212.454C260.115 213.59 259.444 214.709 258.786 215.809C257.464 218.017 256.189 220.148 254.973 222.179C252.539 226.227 250.345 229.876 248.495 232.952C246.65 235.988 245.151 238.455 244.093 240.197C243.579 241.025 243.173 241.679 242.877 242.157C242.746 242.361 242.638 242.526 242.551 242.661C242.476 242.774 242.434 242.83 242.427 242.826C242.42 242.823 242.449 242.76 242.511 242.641C242.588 242.501 242.682 242.328 242.798 242.116C243.076 241.63 243.458 240.963 243.941 240.118C244.969 238.361 246.426 235.872 248.218 232.808C250.044 229.72 252.209 226.057 254.613 221.992C255.821 219.957 257.089 217.823 258.403 215.611C259.066 214.501 259.74 213.373 260.424 212.227C260.842 211.609 261.689 211.261 262.44 211.321C263.154 211.321 263.873 211.321 264.597 211.321C276.151 211.345 286.611 211.367 294.226 211.382C297.99 211.41 301.049 211.432 303.207 211.448C304.239 211.465 305.055 211.477 305.65 211.487C305.907 211.495 306.115 211.502 306.284 211.508C306.428 211.514 306.502 211.52 306.502 211.527Z" fill="#263238"/>
<path d="M274.674 226.136C273.875 226.956 273.856 228.146 274.632 228.793C275.408 229.441 276.684 229.301 277.483 228.481C278.282 227.662 278.301 226.472 277.525 225.824C276.749 225.177 275.473 225.317 274.674 226.136Z" fill="white"/>
<g opacity="0.3">
<path d="M149.122 214.898C148.738 215.041 148.301 215.277 148.297 215.66C148.293 215.97 148.605 216.22 148.932 216.285C149.26 216.35 150.443 215.897 150.769 215.83C155.418 214.879 159.251 215.79 163.681 217.401L163.825 217.265C162.057 213.812 154.123 213.033 149.122 214.898Z" fill="black"/>
</g>
</svg>
