<svg width="430" height="398" viewBox="0 0 430 398" fill="none" xmlns="http://www.w3.org/2000/svg">
<path d="M141.854 175.39H14.8992V269.097H141.854V175.39Z" fill="#E0E0E0"/>
<g opacity="0.3">
<path d="M24.1484 175.587C39.0952 180.524 55.5814 181.576 71.6222 181.854C74.9435 181.911 78.3078 181.906 81.5225 182.682C84.7372 183.457 87.8486 185.126 89.4998 187.794C91.2972 190.699 91.1055 194.337 90.0855 197.549C89.0655 200.76 87.2974 203.721 86.0194 206.852C83.7774 212.347 83.0808 218.376 84.0165 224.185C84.4138 226.654 85.1285 229.139 86.6696 231.188C88.2107 233.236 90.6944 234.795 93.3905 234.831C98.2151 234.895 101.519 230.505 103.912 226.626C113.723 210.718 124.338 192.631 130.616 175.26L24.1484 175.587Z" fill="black"/>
</g>
<path d="M58.1563 268.595C58.0325 268.595 57.9327 247.826 57.9327 222.212C57.9327 196.589 58.0334 175.823 58.1563 175.823C58.2802 175.823 58.3799 196.589 58.3799 222.212C58.3799 247.825 58.2793 268.595 58.1563 268.595Z" fill="#455A64"/>
<path d="M110.179 106.141C109.801 103.804 102.255 96.0775 102.255 96.0775C102.255 96.0775 98.4826 82.0616 97.3508 77.9287C97.0679 76.8955 96.4616 75.7222 95.7099 74.5433C93.0766 70.4089 89.2152 67.0609 84.695 64.7088L74.2529 59.2737L71.7538 54.1275L46.6633 42.1963L39.8607 53.3045C39.8607 53.3045 23.3401 58.1641 21.1539 61.6354C18.967 65.1068 22.2384 111.623 22.2384 111.623C22.2384 111.623 15.324 138.468 13.8654 144.021C12.4077 149.575 14.335 156.203 14.335 156.203L26.6399 141.91C30.4626 137.469 38.8587 135.428 44.8865 135.507L96.4099 135.717L94.3606 122.359L136.021 129.858C136.021 129.858 143.189 116.92 143.755 116.66C144.321 116.401 110.179 106.141 110.179 106.141Z" fill="#FF725E"/>
<path d="M45.5926 57.6714C45.2305 57.3307 48.5045 67.5625 52.6128 77.9829C54.8264 83.5971 55.9358 89.552 55.9358 95.549V118.49V133.278L80.641 131.725L76.9473 106.871C76.9473 106.871 73.9356 90.8383 73.0928 84.7417C72.3205 79.1586 69.6674 64.0187 69.6674 64.0187C69.6674 64.0187 55.9367 67.4216 45.5926 57.6714Z" fill="white"/>
<path d="M100.412 115.515C100.383 115.513 100.374 115.307 100.41 114.94C100.444 114.572 100.539 114.041 100.735 113.403C101.116 112.131 101.996 110.415 103.558 108.966C105.121 107.515 106.973 106.698 108.347 106.343C109.037 106.161 109.609 106.072 110.007 106.039C110.405 106.005 110.626 106.013 110.628 106.04C110.639 106.11 109.762 106.196 108.443 106.622C107.13 107.039 105.375 107.867 103.876 109.259C102.376 110.649 101.485 112.275 101.038 113.491C100.58 114.714 100.488 115.525 100.412 115.515Z" fill="#263238"/>
<path d="M101.684 106.463C101.63 106.372 103.254 105.612 105.455 105.452C107.657 105.277 109.392 105.782 109.355 105.879C109.329 106.002 107.611 105.694 105.492 105.865C103.373 106.017 101.732 106.582 101.684 106.463Z" fill="#263238"/>
<g opacity="0.3">
<path d="M19.7487 127.05L17.6047 129.3C19.9018 131.773 22.8869 133.848 26.3088 134.627C29.7299 135.406 33.286 135.499 36.8094 135.507C38.2361 135.51 39.6852 135.498 41.0561 135.133C42.4536 134.76 43.7573 134.025 45.209 133.944C46.1808 133.89 47.1389 134.137 48.0909 134.326C49.0429 134.515 50.0508 134.645 50.9779 134.368C51.905 134.091 52.7159 133.296 52.6583 132.397C41.9445 129.505 30.8857 127.708 19.7487 127.05Z" fill="black"/>
</g>
<path d="M90.2704 129.936L84.2091 123.977L71.7408 121.057C71.7408 121.057 60.3149 124.225 60.0414 124.216C59.7679 124.207 50.0972 121.771 50.0972 121.771L46.7183 133.244L64.135 134.348L84.0216 133.611C84.0216 133.611 85.0588 132.717 84.4439 132.106C83.829 131.496 87.7686 133.139 88.2322 133.159C88.6871 133.178 89.5953 133.509 90.2093 132.821C90.6281 132.353 91.1975 130.847 90.2704 129.936Z" fill="#FFBE9D"/>
<path d="M84.4439 132.107C84.4207 132.164 83.6708 131.94 82.4625 131.585C81.2542 131.23 79.5814 130.755 77.7109 130.311C75.8396 129.869 74.1256 129.54 72.8829 129.309C71.6393 129.079 70.8679 128.935 70.8765 128.876C70.8843 128.822 71.672 128.863 72.9354 129.02C74.1979 129.178 75.9351 129.464 77.8219 129.909C79.7079 130.357 81.3797 130.88 82.5674 131.308C83.7559 131.737 84.4654 132.057 84.4439 132.107Z" fill="#EB996E"/>
<path d="M90.2704 129.936C90.2455 129.994 89.2032 129.635 87.5047 129.11C85.807 128.58 83.4352 127.931 80.7975 127.25C78.1625 126.525 75.8164 125.8 74.0371 125.704C72.2646 125.565 71.1836 125.889 71.1664 125.808C71.1595 125.785 71.4184 125.685 71.9129 125.575C72.4065 125.464 73.1444 125.382 74.0551 125.411C75.893 125.435 78.3113 126.134 80.9188 126.85C83.5581 127.532 85.9317 128.23 87.6105 128.834C88.4515 129.132 89.1215 129.397 89.579 129.592C90.0365 129.786 90.2825 129.91 90.2704 129.936Z" fill="#EB996E"/>
<path d="M21.1547 61.6362C21.1547 61.6362 12.166 67.4216 9.97905 75.7525C7.79293 84.0834 -1.68255 118.103 0.261048 123.194C2.20465 128.285 39.9982 133.278 39.9982 133.278L44.4762 115.789L25.2836 110.929C25.2836 110.929 25.527 94.7299 25.7695 88.0189C26.012 81.3078 21.1547 61.6362 21.1547 61.6362Z" fill="#FF725E"/>
<path d="M44.226 118.397L50.4111 119.807L46.6908 133.007L40.6132 132.107L44.226 118.397Z" fill="white"/>
<path d="M0.119147 121.393C0.150967 121.393 0.101082 121.685 0.211162 122.217C0.333282 122.742 0.69964 123.504 1.52868 124.203C3.17128 125.619 6.30685 126.797 10.2852 127.46L10.2981 127.462L10.3136 127.467C12.1316 128.019 14.2016 128.459 16.4161 128.923C18.6349 129.382 21.0146 129.852 23.5292 130.325C28.5576 131.277 34.1218 132.278 40.0171 133.299L39.7608 133.453C40.1874 131.831 40.6389 130.115 41.0973 128.377C42.1577 124.363 43.1845 120.476 44.1589 116.79L44.3102 117.03C37.9626 115.353 32.1705 113.823 27.2521 112.523L27.2427 112.52L27.2332 112.516C24.6291 111.529 22.0388 111.169 19.7934 111.31C17.5376 111.406 15.6464 111.965 14.1784 112.531C12.7078 113.114 11.6552 113.747 10.9526 114.185C10.6275 114.405 10.3695 114.578 10.1717 114.712C9.99452 114.83 9.90079 114.888 9.89477 114.881C9.88875 114.875 9.97217 114.805 10.139 114.674C10.3084 114.545 10.5527 114.345 10.8932 114.107C11.5804 113.642 12.6244 112.978 14.1002 112.363C15.5733 111.765 17.4834 111.172 19.777 111.051C22.0595 110.883 24.7048 111.228 27.3674 112.217L27.3485 112.211C32.2737 113.489 38.0727 114.994 44.4289 116.644L44.6293 116.695L44.5803 116.883C43.6111 120.57 42.5894 124.459 41.5342 128.474C41.0758 130.212 40.6226 131.928 40.1952 133.549L40.1453 133.739L39.9389 133.703C34.041 132.675 28.4794 131.659 23.4518 130.685C20.9372 130.2 18.5593 129.717 16.3396 129.244C14.1217 128.764 12.062 128.311 10.2121 127.73L10.2396 127.737C6.21827 127.028 3.07324 125.802 1.41602 124.313C0.582683 123.578 0.224928 122.774 0.128608 122.232C0.0426079 121.681 0.119147 121.393 0.119147 121.393Z" fill="#263238"/>
<path d="M26.3207 112.088C26.2683 112.141 25.6276 111.597 24.4743 110.882C23.3253 110.166 21.6226 109.324 19.5938 108.774C17.5625 108.23 15.6378 108.094 14.2524 108.127C12.8652 108.158 12.0095 108.298 11.9949 108.228C11.9837 108.186 12.8239 107.942 14.2369 107.835C15.6447 107.725 17.6321 107.818 19.7185 108.376C21.8023 108.942 23.5326 109.851 24.6566 110.644C25.7875 111.435 26.3543 112.06 26.3207 112.088Z" fill="#263238"/>
<path d="M28.8372 83.593C28.8681 83.5946 28.8707 83.9743 28.8501 84.6597C28.8337 85.3458 28.7692 86.336 28.6686 87.5595C28.457 90.004 28.0632 93.3759 27.3726 97.0653C26.6949 100.757 25.828 104.062 24.9886 106.396C24.7779 106.979 24.5612 107.499 24.3755 107.955C24.1708 108.383 23.9885 108.763 23.8259 109.102C23.4716 109.709 23.2644 110.036 23.2377 110.022C23.211 110.008 23.3658 109.656 23.6677 109.036C23.8079 108.693 23.9652 108.306 24.1415 107.873C24.3032 107.413 24.4967 106.89 24.6868 106.307C25.4427 103.969 26.2563 100.674 26.9314 96.9945C27.6185 93.3185 28.0614 89.9626 28.353 87.5308C28.482 86.3766 28.5903 85.4103 28.6763 84.6477C28.7511 83.9679 28.8071 83.5914 28.8372 83.593Z" fill="#263238"/>
<path d="M50.7559 74.5703C50.7267 74.5775 50.6665 74.353 50.4575 73.9821C50.2468 73.6175 49.8624 73.0945 49.1658 72.6742C48.4898 72.2571 47.4449 71.961 46.3691 72.2954C45.313 72.6114 44.2715 73.53 44.0092 74.7677L43.8888 75.3337L43.6257 74.8099C42.7201 73.007 41.7939 70.9223 40.9975 68.664C39.5441 64.5654 38.9172 60.6395 39.0548 57.805C39.0505 57.0965 39.1623 56.4589 39.2061 55.8993C39.3102 55.3445 39.3867 54.8653 39.4796 54.4793C39.6972 53.7127 39.8314 53.2956 39.8606 53.3036C39.9715 53.3235 39.3515 55.0023 39.3713 57.8097C39.3162 60.6077 39.9827 64.4699 41.4232 68.5358C42.2127 70.775 43.1183 72.8502 43.9938 74.6531L43.6102 74.6961C43.9301 73.3015 45.0946 72.324 46.2659 71.9976C47.4707 71.6522 48.6068 72.0176 49.3017 72.488C50.0232 72.964 50.3913 73.5355 50.5728 73.9303C50.6622 74.1301 50.7147 74.2901 50.7353 74.4008C50.7602 74.5106 50.7671 74.5679 50.7559 74.5703Z" fill="#263238"/>
<path d="M71.7237 76.3622C71.6944 76.3646 71.6368 76.0287 71.525 75.415C71.4338 74.8021 71.2145 73.9018 71.3427 72.7468C71.5155 71.6133 72.0943 70.2394 73.4161 69.2213C74.0697 68.7207 74.9667 68.3855 75.9162 68.3903C76.8553 68.3895 77.8804 68.7278 78.5486 69.48L78.1693 69.6814C77.9079 69.0709 77.6327 68.4309 77.3532 67.779C75.7493 64.029 74.32 60.6261 73.3069 58.1561C72.8322 56.9741 72.4366 55.9894 72.1287 55.2237C71.8595 54.528 71.7254 54.1387 71.7538 54.1284C71.783 54.118 71.973 54.489 72.2921 55.1672C72.6344 55.921 73.0747 56.8905 73.6036 58.0542C74.6924 60.498 76.1681 63.885 77.7729 67.6349C78.0507 68.2868 78.3241 68.9276 78.5847 69.5381L79.1093 70.7672L78.2055 69.7395C77.643 69.0996 76.7546 68.7907 75.9136 68.7835C75.0639 68.774 74.2701 69.0558 73.6595 69.5071C72.4314 70.4153 71.8294 71.7263 71.6351 72.7834C71.4734 73.8724 71.6402 74.7798 71.6841 75.3967C71.7469 76.0168 71.7512 76.3607 71.7237 76.3622Z" fill="#263238"/>
<path d="M87.6741 78.3372C87.7962 78.3213 89.7398 90.4228 92.0145 105.364C94.2892 120.309 96.0342 132.435 95.9112 132.451C95.7891 132.467 93.8455 120.368 91.5708 105.422C89.2961 90.481 87.5511 78.3531 87.6741 78.3372Z" fill="#263238"/>
<g opacity="0.3">
<path d="M41.2616 68.7947C41.3665 71.8847 42.0984 74.9533 43.4039 77.7839C44.3404 76.7141 45.3784 75.5814 46.8034 75.2661C48.5793 74.8721 50.3759 75.8894 51.659 77.1232C51.3872 75.8926 50.9383 74.6676 50.1084 73.6893C49.2785 72.711 48.0195 72.0065 46.6994 72.04C45.3793 72.0734 44.0669 72.9681 43.8296 74.2059L41.3648 68.8472" fill="black"/>
</g>
<path d="M26.7387 77.542C26.6553 77.5412 26.6837 76.7086 26.4231 75.4079C26.1659 74.1112 25.5398 72.3512 24.3315 70.6741C23.7227 69.8415 23.0407 69.1187 22.3656 68.5113C21.6707 67.9255 21.0051 67.4336 20.3945 67.0913C19.187 66.3852 18.3348 66.1138 18.364 66.0414C18.3743 66.0143 18.5919 66.0644 18.9806 66.1806C19.1776 66.234 19.4123 66.3128 19.6738 66.4306C19.9378 66.5428 20.2457 66.6606 20.557 66.8397C21.2055 67.1589 21.9132 67.6413 22.646 68.2311C23.358 68.8425 24.0744 69.5835 24.7039 70.444C25.9535 72.1785 26.5538 74.0205 26.7353 75.3617C26.8273 76.0335 26.8522 76.5828 26.8195 76.9601C26.7963 77.3366 26.7688 77.5436 26.7387 77.542Z" fill="#263238"/>
<path d="M76.6531 20.7353C75.6357 11.8973 67.4528 5.26824 57.8535 5.4967L56.8997 5.51977C46.6279 6.32055 41.6253 14.8425 42.7742 24.3237L45.5924 57.6721L46.7861 59.0277C52.3082 65.301 61.7002 67.3499 69.6681 64.0194L68.8787 53.2909C68.8787 53.2909 78.7282 51.6321 78.5967 42.4781C78.5322 38.0555 77.5999 28.958 76.6531 20.7353Z" fill="#FFBE9D"/>
<path d="M68.9562 53.276C68.9562 53.276 62.6515 53.7783 55.9031 50.0745C55.9031 50.0745 59.1332 56.5881 68.9759 55.5294L68.9562 53.276Z" fill="#EB996E"/>
<path d="M73.5271 28.307C73.5726 28.9963 72.9792 29.6005 72.2027 29.6578C71.4269 29.7143 70.7596 29.2033 70.7149 28.5139C70.6693 27.8246 71.2627 27.2188 72.0384 27.1623C72.815 27.105 73.4815 27.6176 73.5271 28.307Z" fill="#263238"/>
<path d="M74.1556 23.3303C74.0438 23.4911 72.9215 23.6009 71.5859 24.2704C70.2469 24.9286 69.4445 25.774 69.2571 25.7621C69.1668 25.7605 69.2476 25.5304 69.5942 25.1571C69.9339 24.787 70.5729 24.2735 71.4062 23.8588C72.2404 23.4457 73.0204 23.2539 73.5046 23.2149C73.9974 23.1727 74.2132 23.2547 74.1556 23.3303Z" fill="#263238"/>
<path d="M59.2536 29.0011C59.2992 29.6904 58.7058 30.2946 57.9284 30.3519C57.1526 30.4092 56.4862 29.8982 56.4406 29.208C56.395 28.5187 56.9884 27.9137 57.7641 27.8564C58.5415 27.7991 59.208 28.3117 59.2536 29.0011Z" fill="#263238"/>
<path d="M59.0368 25.255C58.839 25.2948 57.9179 24.7185 56.4448 24.3826C54.975 24.0379 53.7762 24.1247 53.6437 24.0085C53.5775 23.9552 53.7986 23.8525 54.3249 23.8095C54.8409 23.7649 55.6837 23.7999 56.6013 24.0117C57.5189 24.2242 58.2387 24.5498 58.63 24.8045C59.0274 25.0608 59.1314 25.2391 59.0368 25.255Z" fill="#263238"/>
<path d="M64.9984 36.185C64.9889 36.1054 65.9298 35.9318 67.4546 35.7145C67.8416 35.6684 68.2071 35.588 68.2655 35.3412C68.3498 35.0793 68.1761 34.6964 67.9774 34.2833C67.5887 33.4228 67.1811 32.521 66.7536 31.5761C65.0517 27.7203 63.8099 24.5475 63.9776 24.4846C64.1461 24.4225 65.6614 27.4966 67.3634 31.3524C67.7736 32.3037 68.1658 33.2095 68.539 34.0772C68.6973 34.4815 68.963 34.9384 68.7798 35.4821C68.6826 35.7527 68.4031 35.9549 68.1563 36.0226C67.9095 36.099 67.6911 36.1077 67.5001 36.1229C65.9616 36.2351 65.0061 36.2646 64.9984 36.185Z" fill="#263238"/>
<path d="M59.0592 19.8209C58.8898 20.1958 57.3831 19.9467 55.5917 20.0653C53.7977 20.1505 52.3357 20.5683 52.1173 20.2157C52.0201 20.047 52.2901 19.6991 52.8896 19.3552C53.4847 19.0122 54.4212 18.7017 55.4962 18.6404C56.5712 18.5799 57.5422 18.7813 58.1777 19.0552C58.8201 19.3274 59.1332 19.6426 59.0592 19.8209Z" fill="#263238"/>
<path d="M74.1178 20.1337C73.7875 20.4561 72.4786 20.1369 70.9091 20.1361C69.3396 20.0939 68.0126 20.3781 67.703 20.0462C67.5672 19.8854 67.7727 19.563 68.3506 19.2558C68.9199 18.9485 69.8745 18.6938 70.953 18.7073C72.0323 18.7224 72.9697 19.0034 73.5201 19.3258C74.0774 19.649 74.2631 19.9761 74.1178 20.1337Z" fill="#263238"/>
<path d="M79.5375 12.6401C79.3492 11.8091 78.4643 11.107 77.557 11.232C78.0411 11.072 78.5382 10.9056 78.9209 10.5888C79.3036 10.272 79.5496 9.76413 79.3879 9.3128C79.1351 8.60516 78.1564 8.4595 77.3807 8.25572C76.3693 7.99065 75.4534 7.4239 74.8015 6.66213C73.8615 5.56365 73.4995 4.13403 72.6877 2.95038C71.6367 1.41887 69.8101 0.364171 67.8613 0.165967C65.9126 -0.0330331 63.8813 0.627648 62.4958 1.9108C60.9848 0.474816 58.7066 -0.23362 56.5652 0.0688596C54.4247 0.370544 52.4768 1.67439 51.4973 3.46221C48.8734 2.45129 45.6707 2.86918 43.4502 4.51133C41.2297 6.15348 40.0833 8.95222 40.5701 11.544L46.7294 15.0376C46.83 13.2753 48.9542 11.8767 50.7852 12.3663C52.6436 12.8638 53.833 14.8561 55.7628 14.9915C57.2653 15.0973 58.5441 14.0195 59.9992 13.6582C61.7657 13.2204 63.6301 13.8747 65.2228 14.7057C66.8156 15.5367 68.3292 16.5691 70.1016 16.9839C72.1794 17.4694 74.3939 17.0436 76.377 16.2921C77.2259 15.9705 78.0678 15.5773 78.6999 14.962C79.3312 14.3467 79.7259 13.4711 79.5375 12.6401Z" fill="#263238"/>
<path d="M47.7992 12.3511L76.0038 12.2014C75.0732 10.424 73.465 9.023 71.7296 7.87437C67.9886 5.39722 63.4374 3.90711 58.839 3.95089C54.2397 3.99467 45.0377 9.41782 41.7955 12.437C39.2009 14.8529 39.2792 16.8843 39.2792 16.8843C38.9575 20.2776 41.1179 24.0706 42.0312 27.3708C42.5016 29.0726 43.4665 34.2339 43.4665 34.2339H43.4674C45.0205 34.1893 45.5632 33.0304 45.2846 31.6151L44.827 26.0471C44.827 26.0471 50.0051 22.4364 47.3116 16.1424C46.8936 15.6465 45.9674 13.3445 47.7992 12.3511Z" fill="#263238"/>
<path d="M44.3868 25.6763C42.9514 21.0531 41.633 16.0996 43.1587 11.5011C42.8792 11.4907 42.6005 11.4796 42.321 11.4692L41.9719 11.7049C40.3946 11.2137 38.5061 11.7701 37.5257 13.0151C36.5453 14.26 36.5504 16.094 37.5386 17.3342C35.8676 17.2617 34.2646 18.5552 34.1123 20.0971C34.0074 21.1613 34.5071 22.189 35.0196 23.1466C35.5322 24.1042 36.0835 25.0952 36.0912 26.1642C36.0989 27.2324 35.3602 28.393 34.2138 28.5196C34.7264 29.6149 36.1617 30.2596 37.4087 29.9563C37.0131 30.8598 36.332 31.655 35.472 32.2178C37.309 33.376 39.8313 32.9804 41.83 32.0793C43.0159 31.5452 44.1795 30.7834 44.6628 29.6483C45.1986 28.3906 44.7901 26.9761 44.3868 25.6763Z" fill="#263238"/>
<path d="M43.9258 31.0626C43.7555 30.9989 37.0802 29.3647 37.4698 35.6157C37.8594 41.8675 44.5605 40.2158 44.5605 40.0359C44.5613 39.856 43.9258 31.0626 43.9258 31.0626Z" fill="#FFBE9D"/>
<path d="M42.9454 37.7627C42.9144 37.7444 42.8319 37.8455 42.6384 37.9402C42.45 38.0326 42.1198 38.1074 41.7603 38.0039C41.0319 37.7993 40.3654 36.7836 40.2622 35.6581C40.2097 35.0906 40.3043 34.5413 40.4944 34.0812C40.6724 33.6132 40.9717 33.2765 41.3269 33.1985C41.6795 33.1029 41.9461 33.2884 42.0398 33.4596C42.1413 33.6299 42.106 33.7565 42.143 33.7652C42.1628 33.7796 42.2815 33.6522 42.2109 33.3975C42.1748 33.2749 42.0871 33.1316 41.9211 33.0202C41.7517 32.9063 41.5092 32.857 41.2607 32.896C40.7421 32.9573 40.3009 33.4253 40.0919 33.9308C39.8545 34.4394 39.7333 35.0571 39.7926 35.6947C39.9148 36.9524 40.6845 38.0939 41.6778 38.3024C42.1602 38.3916 42.5481 38.2379 42.7433 38.0795C42.942 37.914 42.9695 37.7723 42.9454 37.7627Z" fill="#EB996E"/>
<path d="M36.9124 25.8776C36.8927 25.8903 36.7232 25.642 36.7886 25.1508C36.8522 24.6724 37.2255 23.9791 38.0511 23.5214C38.8681 23.0605 39.9973 22.9483 41.1454 22.8297C42.2814 22.7159 43.5792 22.4174 44.2285 21.3802C44.8778 20.37 44.8958 19.1339 44.7574 18.0991C44.5965 17.0491 44.2964 16.0955 44.1476 15.2749C43.7907 13.62 44.133 12.5645 44.1941 12.5923C44.2749 12.6035 44.0737 13.6168 44.5123 15.2056C44.7032 16.0032 45.0386 16.9305 45.2372 18.0362C45.4041 19.1259 45.429 20.4497 44.6765 21.6349C44.3016 22.2176 43.7013 22.6617 43.0675 22.8958C42.4319 23.1346 41.7921 23.2165 41.2013 23.2754C40.0213 23.371 38.9816 23.4474 38.2317 23.8231C37.4904 24.1845 37.1025 24.7735 36.9898 25.1882C36.8703 25.6133 36.9597 25.8696 36.9124 25.8776Z" fill="#455A64"/>
<path d="M35.2829 23.1512C35.2562 23.1607 35.1341 22.9729 35.0747 22.586C35.0188 22.2055 35.0507 21.6093 35.411 20.9773C35.5907 20.6653 35.853 20.3485 36.2134 20.085C36.5686 19.8104 37.051 19.6408 37.5103 19.5246C37.9704 19.4004 38.4485 19.2906 38.7925 19.0374C39.1357 18.7867 39.2905 18.372 39.3008 17.892C39.3206 17.4152 39.2423 16.9145 39.2543 16.4122C39.2621 15.9155 39.3249 15.4387 39.4272 14.993C39.6379 14.0999 39.9871 13.346 40.3956 12.7586C40.8032 12.1536 41.4542 11.8575 41.8911 11.879C42.3383 11.883 42.5258 12.0693 42.5051 12.0852C42.4871 12.1234 42.2798 12.0143 41.9066 12.0685C41.5325 12.1122 41.0431 12.3813 40.7103 12.9425C40.3758 13.4989 40.0713 14.2423 39.9019 15.0813C39.8185 15.5024 39.7695 15.9514 39.7695 16.4162C39.7626 16.8771 39.8452 17.3674 39.8254 17.9111C39.8237 18.4412 39.6121 19.0645 39.1116 19.4116C38.6231 19.7523 38.0873 19.843 37.6375 19.9576C36.7122 20.1248 36.0938 20.6016 35.7318 21.1484C35.018 22.2684 35.3843 23.1552 35.2829 23.1512Z" fill="#455A64"/>
<path d="M74.8075 6.66764C74.8497 6.6764 74.2976 7.00833 73.4126 6.62307C72.9792 6.44476 72.5518 6.06826 72.1372 5.61772C71.7236 5.16161 71.2532 4.67446 70.5686 4.32979C69.2494 3.63568 67.114 3.45578 65.4748 4.64183C64.6389 5.203 63.9002 5.98547 62.9284 6.64058C62.4425 6.96217 61.8783 7.24872 61.2376 7.36414C60.5978 7.48036 59.9184 7.39758 59.3146 7.1954C58.0969 6.79103 57.1363 6.1001 56.0853 5.74748C55.0387 5.37256 53.9474 5.20699 52.9137 5.21893C50.8299 5.22371 49.0282 5.94965 47.7975 6.84754C46.5462 7.74383 45.8144 8.75396 45.3826 9.46717C44.9621 10.1931 44.8099 10.6349 44.766 10.6214C44.7488 10.6166 44.772 10.5028 44.8331 10.2887C44.8967 10.0753 45.0137 9.76727 45.1995 9.38201C45.5847 8.62581 46.2908 7.54882 47.5653 6.57849C48.8166 5.60658 50.7078 4.79944 52.9059 4.76999C53.9973 4.74452 55.1531 4.90929 56.2694 5.30172C57.4029 5.683 58.3833 6.37631 59.4875 6.73531C60.0362 6.91759 60.6012 6.98286 61.1404 6.88734C61.6788 6.79262 62.1759 6.54825 62.6291 6.25134C63.5372 5.65036 64.294 4.86709 65.1893 4.27805C66.0734 3.66195 67.1587 3.36345 68.1408 3.3738C69.1298 3.37857 70.0345 3.63648 70.7535 4.0297C71.4819 4.42134 71.9807 4.98013 72.3626 5.44181C72.7539 5.90508 73.1219 6.26407 73.5055 6.45352C74.2829 6.85948 74.8101 6.62068 74.8075 6.66764Z" fill="#455A64"/>
<path d="M61.2427 37.8231C61.4569 37.7778 61.7028 39.1143 63.1115 39.8705C64.5184 40.6298 66.0303 40.2398 66.0759 40.4253C66.1112 40.5065 65.7801 40.7381 65.1333 40.8559C64.4995 40.9753 63.5346 40.9307 62.6729 40.4683C61.8129 40.0042 61.3468 39.2782 61.198 38.7378C61.0423 38.1869 61.143 37.8311 61.2427 37.8231Z" fill="#263238"/>
<path d="M150.243 162.197C147.688 160.089 144.158 159.111 140.741 159.295L134.931 176.39C139.19 176.564 143.438 178.597 147.55 177.555C150.851 176.718 153.355 173.848 153.814 170.708C154.273 167.568 152.798 164.304 150.243 162.197Z" fill="#FF725E"/>
<path d="M140.844 158.893C140.856 158.754 141.476 158.647 142.605 158.658C143.727 158.686 145.393 158.805 147.361 159.487C149.335 160.164 151.488 161.546 153.154 163.65C153.987 164.701 154.683 165.953 155.086 167.358C155.495 168.761 155.568 170.325 155.23 171.843C154.893 173.363 154.172 174.789 153.117 175.924C152.063 177.069 150.71 177.861 149.368 178.331C146.656 179.272 144.05 179.123 142.057 178.768C140.043 178.402 138.528 177.858 137.501 177.458C136.476 177.049 135.941 176.749 135.985 176.613C136.03 176.475 136.657 176.515 137.747 176.684C138.835 176.843 140.388 177.158 142.278 177.316C144.153 177.472 146.426 177.419 148.593 176.561C149.665 176.134 150.665 175.492 151.436 174.619C152.215 173.746 152.769 172.631 153.036 171.426C153.592 168.996 152.798 166.574 151.462 164.744C150.125 162.893 148.372 161.576 146.727 160.83C145.066 160.063 143.535 159.724 142.487 159.457C141.431 159.205 140.831 159.039 140.844 158.893Z" fill="#F5F5F5"/>
<path d="M86.9894 223.014L74.3466 255.799L118.335 270.566C119.601 266.591 99.904 251.142 99.904 251.142L108.936 230.444L86.9894 223.014Z" fill="#FF725E"/>
<g opacity="0.6">
<path d="M86.9946 244.812C86.0589 244.742 85.1233 245.43 85.0089 246.292C84.8945 247.155 85.6427 248.041 86.5767 248.127C87.5106 248.212 88.6613 247.418 88.6708 246.55C88.6802 245.68 87.7403 244.684 86.8106 244.809" fill="white"/>
</g>
<path d="M74.3474 255.799L75.6237 252.49L117.408 267.917C117.408 267.917 119.058 269.364 118.336 270.566L74.3474 255.799Z" fill="white"/>
<path d="M100.7 251.175C100.614 251.372 99.505 251.101 98.1978 251.386C96.882 251.638 96.0005 252.317 95.8337 252.172C95.6505 252.067 96.4374 250.986 98.0258 250.667C99.6117 250.335 100.817 251.008 100.7 251.175Z" fill="#263238"/>
<path d="M104.621 254.489C104.595 254.699 103.532 254.724 102.473 255.321C101.395 255.887 100.854 256.735 100.644 256.655C100.43 256.618 100.738 255.404 102.07 254.686C103.395 253.958 104.691 254.298 104.621 254.489Z" fill="#263238"/>
<path d="M105.239 260.48C105.027 260.457 105.117 259.363 106.095 258.46C107.067 257.549 108.248 257.46 108.274 257.656C108.331 257.861 107.45 258.225 106.659 258.979C105.85 259.715 105.46 260.532 105.239 260.48Z" fill="#263238"/>
<path d="M102.192 246.246C102.032 246.397 101.154 245.792 99.9092 245.461C98.6725 245.106 97.5794 245.166 97.5347 244.958C97.4668 244.773 98.6776 244.347 100.137 244.756C101.599 245.154 102.359 246.125 102.192 246.246Z" fill="#263238"/>
<path d="M103.038 241.063C103.009 241.146 102.111 240.985 100.839 240.313C100.206 239.979 99.4913 239.507 98.7912 238.884C98.4421 238.572 98.0964 238.223 97.7696 237.838C97.6148 237.649 97.4213 237.447 97.2923 237.135C97.1357 236.848 97.2071 236.276 97.6079 236.045C97.9553 235.807 98.4068 235.806 98.7267 235.906C99.0553 236.005 99.2944 236.154 99.5119 236.289C99.9591 236.564 100.359 236.868 100.712 237.184C101.413 237.82 101.921 238.496 102.26 239.1C102.937 240.317 102.995 241.176 102.906 241.19C102.783 241.223 102.531 240.434 101.775 239.363C101.397 238.83 100.881 238.237 100.211 237.679C99.874 237.402 99.4999 237.135 99.0871 236.893C98.6657 236.623 98.2701 236.487 98.0757 236.639C98.0035 236.697 97.9863 236.724 98.0344 236.884C98.0895 237.034 98.234 237.211 98.3862 237.398C98.6829 237.763 98.9951 238.099 99.309 238.404C99.9385 239.014 100.577 239.501 101.142 239.874C102.276 240.624 103.083 240.958 103.038 241.063Z" fill="#263238"/>
<path d="M102.647 241.255C102.558 241.26 102.412 240.404 102.838 239.09C103.052 238.439 103.426 237.689 104.013 236.959C104.308 236.596 104.656 236.238 105.059 235.909C105.474 235.593 106 235.16 106.867 235.351C107.309 235.482 107.547 235.917 107.565 236.228C107.602 236.553 107.538 236.799 107.498 237.052C107.392 237.555 107.2 238.017 106.961 238.426C106.483 239.246 105.817 239.838 105.195 240.217C103.922 240.983 102.932 240.92 102.941 240.846C102.908 240.722 103.808 240.59 104.862 239.797C105.382 239.406 105.928 238.844 106.309 238.115C106.5 237.752 106.651 237.35 106.731 236.924C106.831 236.467 106.793 236.06 106.601 236.046C106.383 235.969 105.884 236.17 105.569 236.455C105.2 236.744 104.874 237.057 104.59 237.377C104.026 238.02 103.63 238.684 103.366 239.269C102.838 240.443 102.775 241.263 102.647 241.255Z" fill="#263238"/>
<path d="M44.3687 135.448C37.696 135.591 31.3664 136.464 26.7705 140.944C20.6748 146.885 13.1369 155.348 12.7087 161.218C12.0688 169.99 17.787 172.598 21.9614 174.737C23.8078 175.683 25.9131 176.109 28.0218 176.034L105.147 175.492L107.568 163.401L57.6858 152.022L59.7575 134.645L44.3687 135.448Z" fill="#263238"/>
<path d="M59.7592 134.646L84.0215 133.612C84.0215 133.612 125.934 135.769 134.873 143.354C143.813 150.939 142.696 159.559 139.716 167.833C136.736 176.108 110.475 229.031 110.475 229.031C110.475 229.031 112.605 232.396 111.407 235.754C109.552 240.954 104.557 241.792 104.557 241.792L81.2343 233.858C81.2343 233.858 78.0678 232.824 80.3029 230.065C82.538 227.307 84.0276 226.79 84.0276 226.79V221.273C84.0276 221.273 92.2225 207.482 92.9673 205.586C93.712 203.69 101.567 175.621 101.567 175.621L106.785 167.321C106.785 167.321 94.1661 161.83 83.2295 157.85L57.6875 152.023L59.7592 134.646Z" fill="#263238"/>
<path d="M99.1112 232.858C99.0639 232.911 98.3286 232.372 97.0644 231.617C95.8028 230.86 93.9813 229.92 91.8399 229.163C89.695 228.412 87.6603 227.994 86.1733 227.784C84.6864 227.571 83.7499 227.522 83.7524 227.454C83.7524 227.407 84.6959 227.352 86.2138 227.493C87.7291 227.63 89.8155 228.01 91.9981 228.775C94.1782 229.545 96.01 230.544 97.2415 231.373C98.4782 232.202 99.1439 232.823 99.1112 232.858Z" fill="#455A64"/>
<path d="M110.768 229.069C110.721 229.104 110.199 228.603 109.413 227.748C108.626 226.893 107.58 225.682 106.482 224.302C105.385 222.922 104.447 221.636 103.799 220.686C103.151 219.736 102.789 219.127 102.84 219.096C102.893 219.064 103.348 219.617 104.061 220.521C104.876 221.556 105.811 222.744 106.843 224.056C107.889 225.358 108.837 226.538 109.662 227.566C110.381 228.465 110.816 229.031 110.768 229.069Z" fill="#455A64"/>
<path d="M119.315 159.743C119.329 159.811 118.459 159.982 117.105 160.398C115.752 160.812 113.927 161.516 112.083 162.577C110.242 163.644 108.758 164.853 107.763 165.797C106.765 166.74 106.216 167.388 106.157 167.347C106.117 167.32 106.577 166.606 107.531 165.597C108.481 164.588 109.966 163.316 111.847 162.226C113.73 161.142 115.617 160.465 117.014 160.118C118.412 159.768 119.308 159.698 119.315 159.743Z" fill="#455A64"/>
<path d="M95.457 197.22C95.4424 197.216 95.4751 197.056 95.5525 196.753C95.6462 196.409 95.7649 195.973 95.9102 195.438C96.256 194.247 96.729 192.614 97.3077 190.62C98.5436 186.515 100.224 180.935 102.082 174.769C103.049 171.679 103.88 168.729 104.813 166.06C105.897 163.411 107.615 161.369 109.204 159.858C110.808 158.342 112.309 157.323 113.373 156.677C113.913 156.36 114.334 156.12 114.632 155.976C114.926 155.826 115.084 155.754 115.092 155.766C115.112 155.798 114.508 156.133 113.472 156.81C112.444 157.494 110.986 158.539 109.433 160.061C107.893 161.576 106.234 163.606 105.2 166.192C104.305 168.824 103.475 171.807 102.511 174.888C100.606 181.039 98.8807 186.606 97.6122 190.701C96.9775 192.68 96.4572 194.3 96.0779 195.481C95.8991 196.008 95.7537 196.436 95.6393 196.776C95.5344 197.071 95.4725 197.224 95.457 197.22Z" fill="#455A64"/>
<path d="M73.9965 156.791C73.8735 156.801 73.3636 152.602 72.8579 147.414C72.3522 142.223 72.0417 138.009 72.1647 137.999C72.2877 137.989 72.7977 142.187 73.3033 147.377C73.8099 152.565 74.1195 156.781 73.9965 156.791Z" fill="#455A64"/>
<path d="M33.6152 168.001C33.5473 168.032 33.1723 167.352 32.4129 166.356C31.6579 165.361 30.4668 164.075 28.8895 162.93C27.3071 161.79 25.6714 161.031 24.4442 160.594C23.217 160.153 22.4137 159.981 22.4301 159.913C22.4378 159.869 23.2694 159.94 24.5508 160.318C25.8296 160.692 27.5385 161.431 29.1647 162.603C30.7858 163.78 31.9743 165.136 32.6761 166.194C33.3839 167.253 33.6591 167.983 33.6152 168.001Z" fill="#455A64"/>
<path d="M48.4795 152.759C48.4365 152.822 47.4079 152.212 45.626 151.462C43.8492 150.709 41.277 149.883 38.3246 149.486C35.3688 149.099 32.6503 149.222 30.7162 149.482C28.7786 149.739 27.6064 150.056 27.5841 149.984C27.5755 149.957 27.861 149.857 28.3881 149.701C28.9127 149.537 29.6919 149.359 30.6663 149.192C32.6116 148.854 35.3808 148.681 38.3882 149.076C41.3931 149.48 43.998 150.367 45.7619 151.198C46.6459 151.611 47.34 151.985 47.7932 152.279C48.2516 152.565 48.4967 152.734 48.4795 152.759Z" fill="#455A64"/>
<path d="M106.574 163.39C106.571 163.403 106.363 163.372 105.97 163.298C105.534 163.21 104.965 163.096 104.257 162.954C102.722 162.634 100.588 162.19 97.9708 161.646C92.662 160.545 85.3185 159.07 77.1777 157.577C69.0335 156.086 61.6358 154.86 56.2746 154.005C53.6309 153.586 51.4749 153.243 49.9243 152.997C49.2105 152.879 48.6378 152.784 48.1992 152.712C47.8053 152.641 47.5997 152.598 47.6023 152.584C47.6049 152.571 47.8147 152.586 48.2129 152.63C48.655 152.683 49.232 152.752 49.951 152.839C51.4594 153.028 53.6378 153.326 56.3262 153.717C61.7029 154.498 69.1152 155.679 77.2646 157.171C85.4114 158.665 92.7497 160.187 98.0422 161.361C100.688 161.947 102.826 162.439 104.298 162.797C104.999 162.97 105.561 163.11 105.991 163.216C106.376 163.317 106.578 163.376 106.574 163.39Z" fill="#455A64"/>
<path d="M57.6876 154.073C57.6016 154.097 57.421 153.129 56.6194 151.791C56.2135 151.128 55.6279 150.394 54.8547 149.679C54.0902 148.958 53.1519 148.241 52.1543 147.518C50.1411 146.09 48.096 145.082 46.6297 144.342C45.1548 143.61 44.2406 143.153 44.2698 143.099C44.2956 143.05 45.2563 143.413 46.7733 144.081C48.2809 144.756 50.3724 145.732 52.4278 147.189C53.4409 147.924 54.3783 148.656 55.1523 149.414C55.9306 150.164 56.5162 150.948 56.8989 151.653C57.2799 152.36 57.4846 152.972 57.5878 153.398C57.6902 153.826 57.7142 154.067 57.6876 154.073Z" fill="#455A64"/>
<path d="M143.589 164.866C143.688 164.955 142.398 166.162 141.393 167.996C140.368 169.822 140.06 171.496 139.925 171.472C139.814 171.472 139.929 169.709 140.995 167.807C142.042 165.899 143.524 164.783 143.589 164.866Z" fill="#263238"/>
<g opacity="0.3">
<path d="M88.387 83.2922L93.9073 119.287L94.1834 119.863C95.4871 107.479 93.479 94.808 88.387 83.2922Z" fill="black"/>
</g>
<path d="M118.119 103.978L100.167 133.037L55.9366 133.927L55.8265 135.781L98.6537 135.487L100.012 135.444L145.237 135.526L154.376 120.938L166.05 105.451C166.816 104.436 166.027 103.044 164.69 103.048L119.546 103.207C118.956 103.21 118.411 103.504 118.119 103.978Z" fill="#E0E0E0"/>
<path d="M154.376 120.938C154.376 120.938 156.699 122.909 156.333 124.585C155.966 126.259 156.089 127.505 154.376 127.618C154.376 127.618 154.498 129.769 152.052 130.109C152.052 130.109 152.577 132.735 149.274 133.188C149.274 133.188 148.26 135.996 146.182 135.317C144.102 134.638 142.757 133.845 142.757 133.845L142.146 132.826C142.146 132.826 139.082 131.761 139.837 130.159C140.295 129.187 141.879 128.935 141.879 128.935C141.879 128.935 141.22 127.509 142.075 126.445C142.81 125.531 145.201 126.287 145.201 126.287C145.201 126.287 145.06 125.107 145.959 124.12C146.773 123.226 150.581 125.655 150.581 125.655L152.657 123.358L154.376 120.938Z" fill="#FFBE9D"/>
<path d="M149.273 133.188C149.208 133.285 147.499 132.412 145.457 131.238C143.415 130.063 141.813 129.032 141.877 128.935C141.943 128.838 143.651 129.711 145.693 130.886C147.736 132.059 149.339 133.091 149.273 133.188Z" fill="#EB996E"/>
<path d="M152.052 130.109C151.988 130.207 150.402 129.431 148.51 128.375C146.618 127.319 145.137 126.385 145.2 126.287C145.264 126.189 146.85 126.965 148.742 128.02C150.634 129.076 152.116 130.011 152.052 130.109Z" fill="#EB996E"/>
<path d="M148.266 124.346C148.335 124.229 149.755 124.921 151.406 125.889C153.059 126.866 154.391 127.625 154.359 127.703C154.297 127.838 152.82 127.218 151.169 126.241C149.51 125.269 148.217 124.431 148.266 124.346Z" fill="#EB996E"/>
<path d="M166.057 104.15C166.057 104.157 165.984 104.164 165.84 104.171C165.671 104.177 165.462 104.184 165.206 104.192C164.611 104.201 163.796 104.214 162.763 104.231C160.605 104.247 157.546 104.269 153.782 104.297C146.166 104.313 135.707 104.334 124.153 104.357C123.429 104.357 122.71 104.357 121.996 104.357C121.317 104.31 120.702 104.585 120.351 105.076C119.67 106.212 119 107.331 118.341 108.431C117.019 110.639 115.744 112.77 114.528 114.801C112.094 118.849 109.9 122.498 108.05 125.574C106.205 128.61 104.706 131.078 103.649 132.819C103.134 133.647 102.728 134.301 102.432 134.779C102.301 134.983 102.193 135.148 102.107 135.284C102.031 135.396 101.989 135.452 101.982 135.448C101.975 135.445 102.004 135.382 102.066 135.263C102.143 135.123 102.237 134.95 102.353 134.738C102.631 134.252 103.013 133.585 103.496 132.74C104.524 130.984 105.981 128.494 107.773 125.431C109.599 122.342 111.764 118.679 114.168 114.614C115.376 112.579 116.644 110.445 117.958 108.233C118.621 107.124 119.295 105.995 119.979 104.849C120.397 104.232 121.244 103.883 121.995 103.944C122.71 103.944 123.428 103.944 124.152 103.944C135.706 103.967 146.166 103.989 153.781 104.004C157.545 104.032 160.604 104.054 162.762 104.07C163.794 104.087 164.61 104.1 165.205 104.109C165.462 104.117 165.67 104.124 165.839 104.13C165.983 104.136 166.057 104.143 166.057 104.15Z" fill="#263238"/>
<path d="M134.231 118.759C133.432 119.579 133.413 120.768 134.189 121.416C134.965 122.064 136.241 121.924 137.04 121.104C137.839 120.284 137.858 119.095 137.082 118.447C136.306 117.799 135.03 117.939 134.231 118.759Z" fill="white"/>
<g opacity="0.3">
<path d="M8.67877 107.52C8.29521 107.663 7.85833 107.9 7.85403 108.283C7.85059 108.592 8.16191 108.842 8.48957 108.907C8.81723 108.973 9.99973 108.519 10.3265 108.452C14.9748 107.502 18.8078 108.412 23.2386 110.023L23.3822 109.887C21.614 106.434 13.6797 105.656 8.67877 107.52Z" fill="black"/>
</g>
</svg>
