<svg width="430" height="398" viewBox="0 0 430 398" fill="none" xmlns="http://www.w3.org/2000/svg">
<path d="M337.332 213.681L274.79 191.788C270.468 190.275 268.289 185.806 269.924 181.805L302.662 101.681C304.297 97.6802 309.125 95.664 313.448 97.1764L353.113 111.061L371.848 151.1L348.118 209.177C346.483 213.177 341.655 215.194 337.332 213.681Z" fill="#F5F5F5"/>
<path d="M353.113 111.061L343.899 133.612C342.378 137.332 344.404 141.489 348.423 142.896L371.848 151.1L353.113 111.061Z" fill="#EBEBEB"/>
<path d="M343.409 135.703C343.409 135.703 340.866 141.064 346.859 145.217C347.084 145.373 347.322 145.514 347.563 145.647C350.415 147.223 369.196 157.587 369.372 157.159C369.561 156.696 371.848 151.099 371.848 151.099L348.421 142.899C348.421 142.899 342.648 140.667 343.409 135.703Z" fill="#E0E0E0"/>
<path d="M339.03 130.856C338.911 131.146 332.338 129.113 324.349 126.316C316.358 123.519 309.977 121.016 310.095 120.727C310.214 120.437 316.786 122.469 324.778 125.266C332.767 128.063 339.149 130.566 339.03 130.856Z" fill="#E0E0E0"/>
<path d="M352.507 150.147C352.388 150.437 341.632 146.94 328.483 142.338C315.33 137.733 304.767 133.767 304.885 133.477C305.004 133.187 315.759 136.684 328.912 141.288C342.061 145.89 352.626 149.857 352.507 150.147Z" fill="#E0E0E0"/>
<path d="M352.446 162.295C352.327 162.584 340.61 158.751 326.278 153.734C311.94 148.716 300.417 144.414 300.536 144.124C300.654 143.834 312.369 147.667 326.706 152.685C341.039 157.702 352.565 162.005 352.446 162.295Z" fill="#E0E0E0"/>
<path d="M348.342 172.34C348.223 172.629 336.506 168.797 322.174 163.779C307.836 158.761 296.313 154.458 296.432 154.168C296.549 153.879 308.265 157.711 322.602 162.73C336.934 167.747 348.46 172.051 348.342 172.34Z" fill="#E0E0E0"/>
<path d="M344.237 182.384C344.119 182.674 332.401 178.841 318.068 173.824C303.73 168.805 292.207 164.503 292.326 164.213C292.445 163.923 304.16 167.756 318.497 172.775C332.83 177.792 344.356 182.095 344.237 182.384Z" fill="#E0E0E0"/>
<path d="M340.133 192.43C340.015 192.719 328.297 188.886 313.965 183.869C299.627 178.851 288.104 174.548 288.223 174.259C288.342 173.969 300.057 177.801 314.394 182.82C328.726 187.837 340.251 192.14 340.133 192.43Z" fill="#E0E0E0"/>
<path d="M173.771 249.401L91.3208 276.124C88.4682 277.049 85.3464 275.658 84.3479 273.018L42.9794 163.675C41.9809 161.035 43.4833 158.145 46.3359 157.221L128.786 130.498C131.638 129.574 134.76 130.964 135.759 133.604L177.126 242.946C178.126 245.587 176.622 248.477 173.771 249.401Z" fill="#EBEBEB"/>
<path d="M129.846 137.293L50.0879 163.145L91.0915 271.524L170.85 245.672L129.846 137.293Z" fill="#E0E0E0"/>
<path d="M128.419 136.781L48.6604 162.632L88.8809 268.941L168.639 243.09L128.419 136.781Z" fill="#FAFAFA"/>
<path d="M168.64 243.092C168.303 242.204 152.107 199.525 128.312 136.817L128.457 136.881C104.268 144.725 77.2039 153.5 48.7112 162.739L48.7018 162.742L48.7783 162.594C63.812 202.527 77.805 239.404 88.9756 268.912L88.8466 268.855C137.361 253.192 167.857 243.345 168.64 243.092C167.859 243.346 137.387 253.26 88.9137 269.031L88.8182 269.062L88.7847 268.974C77.615 239.469 63.6529 202.588 48.5418 162.671L48.5005 162.562L48.6192 162.523L48.6287 162.52C77.1239 153.288 104.191 144.519 128.383 136.682L128.491 136.647L128.529 136.746C152.196 199.496 168.305 242.204 168.64 243.092Z" fill="#E0E0E0"/>
<path d="M140.348 252.262C140.348 252.262 158.11 238.397 161.188 223.956C161.188 223.956 156.257 231.112 146.004 232.419C146.004 232.419 145.648 247.58 140.348 252.262Z" fill="#E0E0E0"/>
<path d="M79.3384 195.345L75.1382 196.707C73.6057 197.203 71.9287 196.456 71.392 195.037L69.9214 191.15C69.3848 189.731 70.1923 188.179 71.7248 187.682L75.9251 186.32C77.4576 185.824 79.1346 186.571 79.6712 187.99L81.1418 191.877C81.6785 193.297 80.8709 194.849 79.3384 195.345Z" fill="#EBEBEB"/>
<path d="M75.4125 193.014C75.4099 193.015 75.4073 193.016 75.4048 193.016C75.3403 193.035 75.2706 193.028 75.2121 192.996L73.2892 191.964C73.1739 191.903 73.1352 191.766 73.2014 191.659C73.2685 191.553 73.4156 191.517 73.5308 191.578L75.2267 192.488L77.2581 188.466C77.314 188.355 77.4576 188.307 77.578 188.359C77.6984 188.411 77.7508 188.544 77.6941 188.655L75.5518 192.897C75.5234 192.953 75.4736 192.994 75.4125 193.014Z" fill="white"/>
<path d="M130.491 169.869C130.514 169.929 120.156 173.342 107.358 177.49C94.5561 181.639 84.163 184.952 84.1398 184.892C84.1166 184.831 94.4727 181.419 107.275 177.27C120.072 173.122 130.468 169.808 130.491 169.869Z" fill="#E0E0E0"/>
<path d="M106.166 185.162C106.172 185.177 105.904 185.28 105.414 185.454C104.884 185.636 104.183 185.876 103.335 186.167C101.575 186.759 99.1391 187.563 96.443 188.436C93.746 189.31 91.3002 190.09 89.526 190.642C88.6677 190.904 87.9582 191.121 87.4207 191.285C86.9219 191.432 86.6433 191.506 86.6372 191.491C86.6312 191.476 86.8995 191.374 87.388 191.2C87.9186 191.018 88.6195 190.777 89.4675 190.487C91.2271 189.895 93.6634 189.091 96.3604 188.217C99.0565 187.343 101.502 186.564 103.277 186.011C104.135 185.749 104.845 185.532 105.383 185.368C105.881 185.221 106.16 185.147 106.166 185.162Z" fill="#E0E0E0"/>
<path d="M131.597 172.793C131.62 172.854 121.262 176.266 108.465 180.414C95.6629 184.564 85.2698 187.877 85.2475 187.816C85.2243 187.756 95.5804 184.344 108.382 180.195C121.179 176.047 131.575 172.734 131.597 172.793Z" fill="#E0E0E0"/>
<path d="M85.3309 211.186L81.1307 212.547C79.5981 213.044 77.9212 212.296 77.3837 210.878L75.9131 206.99C75.3764 205.572 76.1839 204.02 77.7165 203.523L81.9167 202.162C83.4492 201.665 85.1262 202.412 85.6629 203.831L87.1335 207.719C87.671 209.136 86.8634 210.689 85.3309 211.186Z" fill="#EBEBEB"/>
<path d="M81.405 208.854C81.4024 208.854 81.3998 208.855 81.3973 208.856C81.3328 208.875 81.2631 208.867 81.2046 208.836L79.2808 207.804C79.1655 207.742 79.1268 207.605 79.1931 207.499C79.2601 207.393 79.4072 207.356 79.5225 207.418L81.2184 208.327L83.2497 204.306C83.3056 204.195 83.4492 204.147 83.5696 204.199C83.69 204.25 83.7425 204.383 83.6857 204.495L81.5426 208.737C81.5159 208.792 81.466 208.834 81.405 208.854Z" fill="white"/>
<path d="M136.484 185.708C136.507 185.769 126.148 189.181 113.351 193.329C100.549 197.479 90.1555 200.792 90.1332 200.731C90.1099 200.671 100.466 197.259 113.268 193.11C126.066 188.962 136.46 185.648 136.484 185.708Z" fill="#E0E0E0"/>
<path d="M112.159 201.002C112.165 201.017 111.896 201.12 111.408 201.293C110.877 201.476 110.176 201.716 109.328 202.006C107.569 202.599 105.132 203.403 102.436 204.276C99.7394 205.15 97.2935 205.929 95.5193 206.482C94.6611 206.743 93.9516 206.961 93.4132 207.125C92.9144 207.272 92.6358 207.346 92.6297 207.331C92.6237 207.316 92.892 207.213 93.3805 207.04C93.9111 206.857 94.612 206.617 95.46 206.326C97.2196 205.734 99.6559 204.93 102.353 204.056C105.049 203.182 107.495 202.404 109.269 201.85C110.127 201.589 110.837 201.371 111.375 201.207C111.875 201.061 112.153 200.987 112.159 201.002Z" fill="#E0E0E0"/>
<path d="M137.591 188.634C137.614 188.694 127.255 192.107 114.457 196.255C101.655 200.404 91.2623 203.717 91.24 203.657C91.2167 203.596 101.573 200.184 114.375 196.036C127.172 191.888 137.567 188.573 137.591 188.634Z" fill="#E0E0E0"/>
<path d="M91.3243 227.026L87.124 228.387C85.5915 228.884 83.9145 228.136 83.3779 226.718L81.9073 222.83C81.3706 221.412 82.1782 219.859 83.7107 219.363L87.9109 218.002C89.4434 217.505 91.1204 218.252 91.6571 219.671L93.1277 223.558C93.6635 224.977 92.8568 226.529 91.3243 227.026Z" fill="#EBEBEB"/>
<path d="M87.3975 224.694C87.3949 224.695 87.3923 224.696 87.3897 224.697C87.3252 224.716 87.2556 224.708 87.1971 224.677L85.2741 223.644C85.1589 223.583 85.1202 223.446 85.1864 223.339C85.2535 223.234 85.4006 223.197 85.5158 223.258L87.2117 224.168L89.243 220.147C89.2998 220.036 89.4426 219.988 89.563 220.039C89.6834 220.091 89.7358 220.224 89.6791 220.335L87.5359 224.577C87.5084 224.632 87.4585 224.674 87.3975 224.694Z" fill="white"/>
<path d="M142.476 201.549C142.499 201.609 132.141 205.022 119.343 209.17C106.541 213.319 96.148 216.632 96.1256 216.572C96.1024 216.511 106.459 213.1 119.261 208.951C132.058 204.802 142.453 201.488 142.476 201.549Z" fill="#E0E0E0"/>
<path d="M118.151 216.842C118.157 216.857 117.889 216.959 117.399 217.133C116.869 217.315 116.168 217.556 115.32 217.846C113.56 218.438 111.124 219.242 108.428 220.116C105.731 220.99 103.285 221.769 101.511 222.321C100.653 222.583 99.9432 222.8 99.4057 222.964C98.9069 223.112 98.6283 223.186 98.6222 223.171C98.6162 223.155 98.8845 223.053 99.373 222.879C99.9036 222.697 100.605 222.457 101.452 222.166C103.212 221.574 105.648 220.77 108.345 219.896C111.041 219.022 113.487 218.243 115.262 217.69C116.12 217.428 116.829 217.211 117.368 217.047C117.867 216.901 118.146 216.827 118.151 216.842Z" fill="#E0E0E0"/>
<path d="M143.583 204.473C143.606 204.534 133.248 207.946 120.45 212.094C107.648 216.244 97.2548 219.557 97.2325 219.496C97.2092 219.436 107.565 216.024 120.367 211.875C133.165 207.728 143.56 204.413 143.583 204.473Z" fill="#E0E0E0"/>
<path d="M97.3167 242.865L93.1165 244.227C91.584 244.723 89.907 243.976 89.3703 242.557L87.8997 238.67C87.3631 237.251 88.1706 235.699 89.7032 235.202L93.9034 233.841C95.4359 233.344 97.1129 234.092 97.6496 235.51L99.1202 239.398C99.6568 240.816 98.8493 242.369 97.3167 242.865Z" fill="#EBEBEB"/>
<path d="M93.3908 240.534C93.3882 240.535 93.3857 240.535 93.3831 240.536C93.3186 240.554 93.2489 240.547 93.1904 240.516L91.2675 239.484C91.1522 239.422 91.1135 239.286 91.1798 239.179C91.246 239.072 91.3939 239.037 91.5091 239.098L93.2051 240.008L95.2364 235.986C95.2923 235.875 95.4368 235.827 95.5563 235.879C95.6767 235.931 95.7292 236.063 95.6724 236.175L93.5293 240.417C93.5018 240.472 93.451 240.514 93.3908 240.534Z" fill="white"/>
<path d="M148.469 217.389C148.492 217.449 138.133 220.861 125.336 225.009C112.534 229.159 102.141 232.472 102.119 232.411C102.096 232.351 112.452 228.939 125.254 224.79C138.051 220.643 148.446 217.328 148.469 217.389Z" fill="#E0E0E0"/>
<path d="M124.144 232.682C124.15 232.697 123.882 232.8 123.393 232.973C122.862 233.156 122.161 233.396 121.313 233.687C119.554 234.279 117.117 235.083 114.421 235.956C111.724 236.83 109.279 237.609 107.504 238.162C106.646 238.424 105.937 238.641 105.398 238.805C104.899 238.952 104.621 239.026 104.615 239.011C104.609 238.996 104.877 238.893 105.366 238.72C105.896 238.537 106.597 238.297 107.445 238.007C109.205 237.414 111.641 236.61 114.338 235.736C117.034 234.862 119.48 234.084 121.254 233.531C122.112 233.269 122.822 233.051 123.36 232.887C123.86 232.741 124.138 232.667 124.144 232.682Z" fill="#E0E0E0"/>
<path d="M149.576 220.314C149.599 220.374 139.24 223.787 126.442 227.935C113.64 232.084 103.247 235.397 103.225 235.337C103.202 235.276 113.558 231.865 126.36 227.716C139.157 223.567 149.552 220.253 149.576 220.314Z" fill="#E0E0E0"/>
<path d="M57.694 152.276L59.7992 157.841C61.0213 161.071 64.8397 162.772 68.3287 161.641L112.445 147.342C115.934 146.211 117.772 142.677 116.55 139.448L114.449 133.894L57.694 152.276Z" fill="#E0E0E0"/>
<path d="M86.6579 144.733C83.3916 145.791 79.8046 144.193 78.6608 141.171C77.517 138.147 79.2438 134.827 82.5101 133.769C85.7764 132.71 89.3634 134.308 90.5072 137.331C91.651 140.354 89.9242 143.674 86.6579 144.733ZM83.3056 135.871C81.2923 136.523 80.2277 138.571 80.9329 140.434C81.6381 142.298 83.8491 143.283 85.8633 142.63C87.8765 141.978 88.9412 139.931 88.236 138.068C87.5299 136.203 85.3189 135.218 83.3056 135.871Z" fill="#E0E0E0"/>
<path d="M121.92 159.169C121.961 159.275 110.329 163.141 95.9424 167.804C81.5521 172.469 69.8569 176.163 69.8174 176.057C69.7769 175.951 81.4067 172.086 95.798 167.421C110.183 162.758 121.88 159.063 121.92 159.169Z" fill="#E0E0E0"/>
<path d="M107.022 161.149C107.062 161.255 101.941 163.011 95.5855 165.07C89.2284 167.131 84.0435 168.715 84.0039 168.609C83.9635 168.504 89.0839 166.748 95.441 164.688C101.796 162.627 106.982 161.043 107.022 161.149Z" fill="#E0E0E0"/>
<path d="M336.22 322.445C339.309 320.97 342.946 320.778 346.374 321.302C348.217 321.584 350.137 322.094 351.391 323.375C352.645 324.656 352.882 326.91 351.442 328.01C350.586 328.665 349.391 328.765 348.279 328.753C345.595 328.724 342.616 328.286 340.472 329.781C339.249 330.635 338.434 332.052 336.971 332.472C335.54 332.883 333.925 332.101 333.167 330.905C332.407 329.709 332.382 328.215 332.736 326.867C332.736 326.867 333.108 323.931 336.22 322.445Z" fill="#FF725E"/>
<path d="M329.143 309.801C331.031 312.298 334.702 311.471 336.405 309.947C338.106 308.423 338.826 306.214 339.481 304.108C340.977 299.295 342.486 294.247 341.373 289.346C341.04 287.881 340.448 286.42 339.336 285.333C338.224 284.245 336.513 283.599 334.949 283.982C333.099 284.435 331.948 286.112 331.117 287.709C328.673 292.4 327.38 297.601 327.36 302.81C327.35 305.241 327.66 307.793 329.143 309.801Z" fill="#FF725E"/>
<path d="M323.956 313.384C326.007 311.131 326.396 307.845 325.483 305.023C324.571 302.201 322.509 299.801 320.133 297.84C317.348 295.542 314.073 293.754 310.554 292.608C309.168 292.157 307.707 291.802 306.245 291.931C304.783 292.059 303.311 292.751 302.63 293.956C301.622 295.735 302.588 297.894 303.633 299.655C305.475 302.758 307.582 305.726 309.925 308.524C311.811 310.774 313.971 312.994 316.845 314.012C319.72 315.029 322.706 314.909 324.229 313.064" fill="#FF725E"/>
<path d="M329.015 347.464C329.051 347.465 329.108 347.061 329.187 346.329C329.273 345.504 329.383 344.467 329.512 343.233C329.668 341.93 329.874 340.38 330.265 338.692C330.655 337.007 331.264 335.182 332.049 333.331C332.86 331.491 333.849 329.819 335.006 328.481C336.154 327.138 337.49 326.166 338.745 325.605C339.996 325.032 341.117 324.801 341.893 324.697C342.676 324.623 343.113 324.566 343.113 324.534C343.113 324.501 342.675 324.497 341.872 324.516C341.075 324.566 339.907 324.752 338.588 325.307C337.265 325.85 335.849 326.838 334.644 328.209C333.43 329.574 332.405 331.284 331.579 333.157C330.782 335.04 330.181 336.885 329.808 338.605C329.437 340.323 329.267 341.89 329.156 343.203C329.05 344.518 329.01 345.583 328.99 346.319C328.972 347.054 328.98 347.462 329.015 347.464Z" fill="#263238"/>
<path d="M329.246 345.082C329.263 345.081 329.274 344.9 329.279 344.555C329.278 344.159 329.276 343.661 329.274 343.05C329.27 341.744 329.271 339.853 329.346 337.518C329.471 332.849 329.905 327.824 330.745 320.74C331.539 314.078 332.606 306.325 333.731 301.284C333.972 300.138 334.215 299.106 334.444 298.203C334.662 297.297 334.848 296.517 335.028 295.885C335.182 295.291 335.308 294.807 335.408 294.422C335.489 294.086 335.524 293.907 335.507 293.903C335.49 293.898 335.423 294.069 335.31 294.397C335.186 294.776 335.029 295.253 334.838 295.839C334.628 296.465 334.414 297.24 334.168 298.142C333.913 299.041 333.645 300.071 333.381 301.215C332.267 305.783 331.089 312.166 330.242 319.268C329.401 326.367 329.022 332.832 328.989 337.512C328.959 339.852 329.013 341.747 329.077 343.055C329.118 343.666 329.15 344.164 329.176 344.559C329.205 344.902 329.228 345.083 329.246 345.082Z" fill="#263238"/>
<path d="M329.279 332.614C329.315 332.613 329.309 332.055 329.267 331.041C329.205 330.03 329.055 328.57 328.747 326.781C328.421 324.997 327.965 322.877 327.25 320.574C326.939 319.521 326.211 316.998 324.445 313.228C322.119 308.121 318.959 303.946 316.209 301.359C315.564 300.672 314.846 300.177 314.272 299.692C313.974 299.459 313.712 299.227 313.444 299.043C313.175 298.871 312.925 298.712 312.693 298.564C311.788 297.991 311.281 297.689 311.262 297.716C311.182 297.818 313.289 298.967 315.951 301.587C318.602 304.203 321.674 308.349 323.981 313.414C325.267 316.161 326.164 318.611 326.801 320.692C327.536 322.972 328.025 325.071 328.394 326.838C328.744 328.609 328.947 330.055 329.07 331.056C329.172 332.059 329.244 332.615 329.279 332.614Z" fill="#263238"/>
<path d="M316.26 354.607L317.609 371.722H341.365L342.714 354.607H316.26Z" fill="#263238"/>
<path d="M345.549 347.861H313.965V354.607H345.549V347.861Z" fill="#263238"/>
<path d="M313.965 371.067V372.937H315.449H345.027V371.067H313.965Z" fill="#455A64"/>
<path d="M316.904 376.228L315.449 372.937H343.896L342.198 376.228H316.904Z" fill="#455A64"/>
<path d="M342.273 360.2C342.278 360.204 342.24 360.258 342.162 360.357C342.068 360.472 341.951 360.617 341.807 360.792C341.47 361.192 341.006 361.741 340.423 362.431L340.361 362.505L340.302 362.428C339.432 361.315 338.27 359.827 336.902 358.076H337.098C336.086 359.401 334.96 360.878 333.751 362.463L333.646 362.6L333.528 362.47C332.293 361.11 330.951 359.633 329.558 358.099L329.787 358.096C329.718 358.177 329.643 358.264 329.568 358.35C328.337 359.779 327.146 361.162 326.018 362.469L325.9 362.607L325.79 362.463C324.585 360.885 323.46 359.411 322.442 358.077L322.636 358.086C320.986 359.826 319.585 361.303 318.511 362.435L318.438 362.513L318.382 362.426C317.839 361.581 317.405 360.906 317.091 360.418C316.956 360.199 316.846 360.024 316.76 359.883C316.686 359.76 316.652 359.696 316.658 359.692C316.664 359.688 316.711 359.746 316.796 359.861C316.893 359.996 317.014 360.166 317.163 360.375C317.492 360.855 317.948 361.517 318.518 362.347L318.389 362.338C319.446 361.19 320.824 359.696 322.448 357.935L322.55 357.824L322.643 357.944C323.67 359.271 324.806 360.738 326.022 362.31L325.795 362.304C326.919 360.995 328.107 359.61 329.336 358.179C329.411 358.092 329.486 358.006 329.555 357.925L329.667 357.794L329.783 357.922C331.172 359.459 332.51 360.939 333.742 362.302L333.52 362.31C334.741 360.734 335.879 359.264 336.901 357.946L337 357.818L337.097 357.946C338.436 359.716 339.574 361.22 340.425 362.345L340.304 362.342C340.91 361.67 341.392 361.134 341.743 360.745C341.9 360.578 342.026 360.441 342.129 360.332C342.22 360.242 342.268 360.196 342.273 360.2Z" fill="#E0E0E0"/>
<path d="M343.045 354.494C343.045 354.569 337.093 354.631 329.752 354.631C322.409 354.631 316.458 354.569 316.458 354.494C316.458 354.418 322.409 354.357 329.752 354.357C337.092 354.357 343.045 354.418 343.045 354.494Z" fill="#455A64"/>
<path d="M344.245 373.122C344.245 373.197 337.776 373.259 329.798 373.259C321.817 373.259 315.349 373.197 315.349 373.122C315.349 373.046 321.817 372.985 329.798 372.985C337.776 372.985 344.245 373.046 344.245 373.122Z" fill="#263238"/>
<path d="M109.906 318.518C109.841 318.593 109.299 318.291 108.695 317.844C108.092 317.396 107.655 316.973 107.719 316.897C107.785 316.822 108.326 317.124 108.93 317.571C109.534 318.019 109.971 318.442 109.906 318.518Z" fill="#263238"/>
<path d="M126.38 295.726C126.48 293.597 126.545 291.412 125.819 289.39C125.092 287.367 123.407 285.507 121.152 285.075C118.579 284.581 115.942 286.085 114.5 288.119C113.057 290.152 112.561 292.622 112.135 295.021C109.2 311.562 108.117 328.385 108.907 345.131L119.439 346.498C124.064 329.007 125.54 313.718 126.38 295.726Z" fill="#455A64"/>
<path d="M119.69 285C119.696 285.002 119.68 285.055 119.643 285.155C119.597 285.274 119.539 285.419 119.469 285.597C119.297 286.009 119.064 286.571 118.768 287.28C118.621 287.647 118.425 288.045 118.268 288.498C118.111 288.954 117.94 289.446 117.757 289.975C117.572 290.505 117.375 291.071 117.166 291.67C116.994 292.281 116.813 292.926 116.623 293.602C115.828 296.304 115.169 299.587 114.589 303.249C114.019 306.915 113.646 310.975 113.351 315.241C112.813 323.781 112.729 331.534 112.491 337.139C112.379 339.943 112.276 342.211 112.159 343.776C112.104 344.536 112.06 345.138 112.027 345.579C112.01 345.766 111.995 345.921 111.983 346.047C111.971 346.152 111.962 346.206 111.956 346.206C111.95 346.206 111.945 346.151 111.945 346.045C111.947 345.919 111.949 345.764 111.952 345.575C111.967 345.134 111.987 344.531 112.013 343.77C112.084 342.204 112.147 339.935 112.226 337.132C112.395 331.527 112.436 323.774 112.976 315.22C113.271 310.947 113.656 306.878 114.247 303.204C114.848 299.533 115.537 296.243 116.367 293.539C116.566 292.863 116.757 292.218 116.938 291.607C117.157 291.009 117.363 290.443 117.558 289.914C117.751 289.387 117.933 288.896 118.099 288.442C118.267 287.99 118.473 287.595 118.631 287.231C118.955 286.531 119.211 285.976 119.4 285.569C119.483 285.397 119.552 285.256 119.608 285.141C119.657 285.045 119.684 284.997 119.69 285Z" fill="#263238"/>
<path d="M120.667 285.005C120.667 285.005 121.312 285.619 121.953 287.022C122.616 288.413 123.032 290.627 122.914 293.328C122.634 298.714 122.113 306.136 121.42 314.331C120.723 322.527 119.952 329.936 119.33 335.291C119.02 337.969 118.75 340.134 118.552 341.629C118.451 342.352 118.372 342.926 118.313 343.349C118.284 343.527 118.26 343.674 118.241 343.796C118.223 343.896 118.21 343.947 118.204 343.946C118.198 343.945 118.197 343.893 118.204 343.792C118.213 343.669 118.224 343.522 118.238 343.342C118.279 342.917 118.336 342.341 118.406 341.615C118.566 340.084 118.789 337.923 119.065 335.266C119.619 329.906 120.348 322.497 121.044 314.304C121.736 306.115 122.3 298.689 122.647 293.32C122.797 290.638 122.428 288.461 121.817 287.073C121.227 285.674 120.62 285.03 120.667 285.005Z" fill="#263238"/>
<path d="M127.968 310.233C127.933 310.324 127.039 310.11 125.972 309.756C124.905 309.401 124.068 309.041 124.103 308.95C124.138 308.859 125.032 309.073 126.099 309.428C127.166 309.782 128.003 310.143 127.968 310.233Z" fill="#263238"/>
<path d="M129.236 300.299C129.279 300.387 128.429 300.824 127.338 301.277C126.246 301.729 125.328 302.024 125.285 301.936C125.243 301.848 126.092 301.41 127.184 300.958C128.275 300.507 129.194 300.212 129.236 300.299Z" fill="#263238"/>
<path d="M128.579 292.191C128.572 292.287 127.868 292.32 127.008 292.265C126.148 292.21 125.457 292.088 125.464 291.992C125.471 291.896 126.174 291.863 127.034 291.918C127.895 291.973 128.586 292.095 128.579 292.191Z" fill="#263238"/>
<path d="M117.711 286.996C117.623 287.046 117.161 286.515 116.68 285.808C116.2 285.1 115.881 284.486 115.969 284.435C116.057 284.384 116.518 284.916 117 285.622C117.48 286.329 117.798 286.945 117.711 286.996Z" fill="#263238"/>
<path d="M114.12 291.898C114.118 291.994 113.449 292.059 112.625 292.043C111.801 292.027 111.134 291.935 111.137 291.839C111.139 291.743 111.809 291.678 112.632 291.694C113.456 291.711 114.122 291.802 114.12 291.898Z" fill="#263238"/>
<path d="M111.541 301.708C111.502 301.797 110.797 301.618 109.967 301.308C109.137 300.999 108.495 300.675 108.534 300.586C108.572 300.496 109.277 300.676 110.108 300.985C110.938 301.296 111.58 301.619 111.541 301.708Z" fill="#263238"/>
<path d="M111.266 309.959C111.287 310.052 110.687 310.249 109.926 310.396C109.164 310.544 108.53 310.588 108.509 310.493C108.487 310.4 109.088 310.203 109.849 310.055C110.61 309.908 111.244 309.864 111.266 309.959Z" fill="#263238"/>
<path d="M110.052 323.453C110.071 323.548 109.434 323.732 108.63 323.866C107.826 324 107.159 324.031 107.141 323.936C107.123 323.841 107.76 323.657 108.564 323.523C109.368 323.389 110.034 323.358 110.052 323.453Z" fill="#263238"/>
<path d="M109.247 330.902C109.295 330.987 108.764 331.335 108.061 331.68C107.357 332.024 106.747 332.235 106.698 332.149C106.649 332.064 107.181 331.716 107.884 331.372C108.588 331.027 109.198 330.817 109.247 330.902Z" fill="#263238"/>
<path d="M115.819 339.357C115.728 339.405 115.266 338.813 114.785 338.037C114.304 337.259 113.988 336.59 114.077 336.542C114.168 336.495 114.63 337.086 115.111 337.863C115.593 338.641 115.909 339.309 115.819 339.357Z" fill="#263238"/>
<path d="M117.715 325.307C117.788 325.375 117.272 325.952 116.564 326.596C115.855 327.239 115.221 327.704 115.149 327.636C115.076 327.568 115.592 326.99 116.3 326.347C117.009 325.703 117.643 325.238 117.715 325.307Z" fill="#263238"/>
<path d="M117.295 317.934C117.219 318 116.741 317.637 116.227 317.123C115.713 316.61 115.359 316.141 115.435 316.076C115.512 316.01 115.99 316.373 116.503 316.887C117.017 317.399 117.372 317.869 117.295 317.934Z" fill="#263238"/>
<path d="M118.599 308.515C118.677 308.579 118.247 309.139 117.639 309.767C117.031 310.395 116.477 310.851 116.399 310.786C116.322 310.722 116.752 310.162 117.359 309.534C117.966 308.907 118.522 308.45 118.599 308.515Z" fill="#263238"/>
<path d="M119.333 301.678C119.26 301.747 118.66 301.311 117.994 300.704C117.326 300.098 116.846 299.55 116.918 299.481C116.991 299.413 117.59 299.849 118.257 300.456C118.924 301.062 119.406 301.609 119.333 301.678Z" fill="#263238"/>
<path d="M120.775 292.437C120.864 292.486 120.563 293.106 120.102 293.82C119.641 294.535 119.196 295.075 119.107 295.026C119.017 294.976 119.318 294.357 119.779 293.642C120.24 292.927 120.686 292.388 120.775 292.437Z" fill="#263238"/>
<path d="M123.487 283.874C123.579 283.919 123.313 284.539 122.893 285.259C122.473 285.978 122.059 286.523 121.967 286.478C121.876 286.433 122.141 285.813 122.562 285.093C122.982 284.373 123.396 283.827 123.487 283.874Z" fill="#263238"/>
<path d="M126.564 287.763C126.609 287.85 126.188 288.123 125.624 288.373C125.059 288.623 124.565 288.755 124.52 288.668C124.476 288.581 124.897 288.308 125.461 288.058C126.026 287.809 126.52 287.676 126.564 287.763Z" fill="#263238"/>
<path d="M126.638 318.519C126.618 318.61 125.662 318.488 124.579 318.057C123.492 317.63 122.737 317.076 122.792 317C122.851 316.916 123.674 317.324 124.726 317.736C125.776 318.153 126.663 318.422 126.638 318.519Z" fill="#263238"/>
<path d="M125.381 325.032C125.401 325.127 124.766 325.32 123.965 325.463C123.162 325.606 122.496 325.646 122.477 325.551C122.457 325.457 123.092 325.264 123.893 325.121C124.695 324.978 125.361 324.938 125.381 325.032Z" fill="#263238"/>
<path d="M123.835 336.202C123.774 336.274 122.969 335.764 122.231 334.899C121.488 334.036 121.135 333.194 121.226 333.156C121.323 333.111 121.81 333.853 122.526 334.682C123.235 335.516 123.905 336.125 123.835 336.202Z" fill="#263238"/>
<path d="M106.907 341.31C106.84 341.237 107.267 340.796 107.862 340.324C108.457 339.853 108.995 339.531 109.063 339.603C109.13 339.676 108.702 340.117 108.107 340.589C107.512 341.06 106.975 341.383 106.907 341.31Z" fill="#263238"/>
<path d="M102.04 316.932C101.354 314.951 100.068 312.642 97.8207 312.612C96.4868 312.594 95.288 313.479 94.6611 314.569C94.0341 315.658 93.7684 316.921 93.8071 318.155C94.0642 326.306 95.5899 335.628 98.6368 344.119H106.859C106.755 334.687 105.147 325.916 102.04 316.932Z" fill="#455A64"/>
<path d="M87.1687 304.461C86.0198 300.207 82.591 297.908 78.6083 297.695C74.9739 298.284 73.5644 301.597 73.1327 304.988C72.701 308.38 73.8387 311.757 74.9628 315.009C78.5705 325.454 82.179 335.899 85.7867 346.344C89.1966 345.999 92.6065 345.654 96.0164 345.31C92.7785 331.317 90.9192 318.345 87.1687 304.461Z" fill="#455A64"/>
<path d="M97.8207 312.612C97.8559 312.637 97.4836 312.954 97.1241 313.689C96.768 314.427 96.5969 315.606 96.7397 317.053C96.8988 318.5 97.0776 320.242 97.3399 322.151C97.6083 324.064 97.9798 326.158 98.4425 328.344C99.3721 332.716 100.42 336.64 101.084 339.5C101.422 340.928 101.675 342.089 101.836 342.894C101.904 343.264 101.961 343.57 102.008 343.823C102.043 344.036 102.055 344.149 102.042 344.151C102.03 344.154 101.993 344.046 101.933 343.837C101.868 343.589 101.789 343.287 101.692 342.922C101.474 342.075 101.181 340.937 100.825 339.555C100.094 336.712 99.0049 332.797 98.0727 328.411C97.6091 326.219 97.2462 324.115 96.9959 322.192C96.8652 321.231 96.7784 320.314 96.6941 319.456C96.6184 318.603 96.5178 317.806 96.4739 317.072C96.3621 315.604 96.5797 314.379 96.9908 313.634C97.4062 312.889 97.8207 312.612 97.8207 312.612Z" fill="#263238"/>
<path d="M78.7571 297.426C78.7923 297.454 78.2127 297.906 77.5213 298.963C76.8315 300.009 76.0997 301.714 75.9647 303.918C75.8081 306.121 76.3388 308.736 77.2306 311.54C78.1293 314.358 79.1148 317.45 80.1494 320.697C82.1893 327.186 84.0358 333.059 85.3851 337.355C86.0292 339.463 86.5547 341.182 86.9305 342.414C87.0974 342.987 87.2307 343.446 87.3321 343.794C87.4199 344.111 87.4603 344.279 87.4474 344.282C87.4345 344.285 87.3708 344.124 87.259 343.814C87.1404 343.47 86.9847 343.018 86.7895 342.452C86.3853 341.228 85.8211 339.52 85.1297 337.425C83.7528 333.137 81.8694 327.275 79.7882 320.795C78.7631 317.545 77.787 314.45 76.8969 311.629C76.0197 308.808 75.5054 306.147 75.6989 303.902C75.8709 301.658 76.6578 299.932 77.3974 298.892C78.1387 297.839 78.7571 297.426 78.7571 297.426Z" fill="#263238"/>
<path d="M93.7855 344.299C93.7735 344.303 93.6944 344.147 93.5542 343.845C93.42 343.541 93.2025 343.1 92.9711 342.513C92.4835 341.349 91.8583 339.636 91.2116 337.485C90.5614 335.335 89.9224 332.742 89.3049 329.849C88.7124 326.95 88.0614 323.77 87.3785 320.43C86.6673 317.097 85.8753 313.943 84.9559 311.129C84.0392 308.314 83.0106 305.838 81.9734 303.833C80.9414 301.826 79.9559 300.271 79.2154 299.233C78.8637 298.702 78.5438 298.32 78.3537 298.043C78.1559 297.771 78.057 297.624 78.0673 297.617C78.0776 297.61 78.1972 297.742 78.4148 298.002C78.6255 298.266 78.9652 298.637 79.3367 299.158C80.1167 300.177 81.1444 301.721 82.2125 303.727C83.2867 305.729 84.347 308.212 85.287 311.035C86.2296 313.859 87.0345 317.023 87.7475 320.363C88.42 323.705 89.0607 326.887 89.6446 329.788C90.2423 332.679 90.8529 335.27 91.4678 337.421C92.0793 339.573 92.6632 341.292 93.1079 342.467C93.3168 343.059 93.5121 343.507 93.623 343.819C93.7417 344.129 93.7976 344.294 93.7855 344.299Z" fill="#263238"/>
<path d="M75.146 313.447C75.17 313.54 74.6145 313.745 73.9033 313.905C73.192 314.065 72.5961 314.118 72.572 314.025C72.547 313.932 73.1035 313.727 73.8147 313.567C74.525 313.407 75.121 313.353 75.146 313.447Z" fill="#263238"/>
<path d="M74.0615 306.984C74.0563 307.082 73.2832 307.121 72.3363 307.156C71.3886 307.19 70.6154 307.207 70.6017 307.11C70.5879 307.016 71.355 306.843 72.3217 306.809C73.2883 306.773 74.0675 306.89 74.0615 306.984Z" fill="#263238"/>
<path d="M75.2147 301.082C75.1477 301.156 74.5921 300.821 73.9738 300.336C73.3554 299.851 72.9091 299.398 72.9762 299.325C73.0432 299.252 73.5988 299.586 74.2171 300.071C74.8346 300.556 75.2818 301.009 75.2147 301.082Z" fill="#263238"/>
<path d="M78.3348 295.618C78.438 295.64 78.4096 296.1 78.3941 296.657C78.3752 297.214 78.3743 297.675 78.2694 297.69C78.1697 297.708 77.9977 297.242 78.0174 296.647C78.0355 296.051 78.2359 295.596 78.3348 295.618Z" fill="#263238"/>
<path d="M84.7117 298.193C84.7968 298.248 84.5466 298.714 84.1536 299.235C83.7597 299.755 83.3718 300.132 83.2867 300.077C83.2015 300.022 83.4509 299.556 83.8448 299.035C84.2387 298.514 84.6266 298.138 84.7117 298.193Z" fill="#263238"/>
<path d="M88.8501 304.847C88.8896 304.936 88.3599 305.221 87.6667 305.482C86.9744 305.743 86.381 305.883 86.3414 305.794C86.3019 305.705 86.8316 305.42 87.5248 305.159C88.2171 304.897 88.8105 304.758 88.8501 304.847Z" fill="#263238"/>
<path d="M91.3604 311.693C91.4025 311.777 90.7007 312.148 89.7384 312.348C88.7769 312.552 87.9711 312.498 87.9694 312.405C87.9651 312.305 88.7322 312.205 89.655 312.008C90.5786 311.817 91.3182 311.602 91.3604 311.693Z" fill="#263238"/>
<path d="M79.8338 309.749C79.7349 309.721 79.8063 309.248 79.9946 308.693C80.1821 308.138 80.4152 307.711 80.5141 307.74C80.613 307.769 80.5416 308.242 80.3532 308.796C80.1657 309.351 79.9336 309.778 79.8338 309.749Z" fill="#263238"/>
<path d="M81.442 318.344C81.3465 318.305 81.5538 317.668 81.9047 316.92C82.2556 316.173 82.6168 315.597 82.7122 315.636C82.8077 315.674 82.6004 316.311 82.2495 317.059C81.8995 317.807 81.5375 318.382 81.442 318.344Z" fill="#263238"/>
<path d="M77.4705 320.697C77.4301 320.787 76.7816 320.624 75.9973 320.398C75.213 320.17 74.58 319.963 74.6024 319.867C74.6239 319.775 75.3076 319.832 76.11 320.065C76.9115 320.296 77.51 320.61 77.4705 320.697Z" fill="#263238"/>
<path d="M79.7598 327.705C79.82 327.783 79.3823 328.169 78.7812 328.566C78.18 328.963 77.6442 329.221 77.584 329.143C77.5238 329.065 77.9616 328.68 78.5627 328.282C79.1638 327.885 79.6996 327.626 79.7598 327.705Z" fill="#263238"/>
<path d="M81.5968 334.692C81.6217 334.785 81.0791 334.988 80.3859 335.144C79.6928 335.3 79.1105 335.351 79.0865 335.257C79.0615 335.164 79.6042 334.962 80.2973 334.805C80.9896 334.65 81.5719 334.599 81.5968 334.692Z" fill="#263238"/>
<path d="M91.5625 317.531C91.6149 317.611 91.1514 317.953 90.4763 318.187C89.802 318.424 89.2095 318.45 89.1914 318.358C89.1708 318.262 89.7023 318.087 90.3438 317.862C90.9854 317.639 91.5091 317.446 91.5625 317.531Z" fill="#263238"/>
<path d="M92.9866 328.4C92.9427 328.487 92.3898 328.333 91.7534 328.056C91.1161 327.778 90.6362 327.482 90.6801 327.396C90.7239 327.309 91.2761 327.463 91.9133 327.74C92.5506 328.018 93.0313 328.314 92.9866 328.4Z" fill="#263238"/>
<path d="M95.5004 336.179C95.4626 336.268 94.7333 336.087 93.8716 335.775C93.0098 335.462 92.3425 335.137 92.3803 335.047C92.4182 334.958 93.1474 335.138 94.0092 335.45C94.8709 335.763 95.5382 336.089 95.5004 336.179Z" fill="#263238"/>
<path d="M81.9993 342.273C81.9485 342.185 82.6193 341.768 83.3942 341.201C84.1725 340.639 84.7693 340.134 84.8485 340.201C84.925 340.261 84.4339 340.891 83.6264 341.475C82.8214 342.063 82.0449 342.356 81.9993 342.273Z" fill="#263238"/>
<path d="M88.6445 338.318C88.5378 338.329 88.3934 337.806 88.1362 337.199C87.8851 336.589 87.6125 336.113 87.7002 336.055C87.7793 335.998 88.2153 336.417 88.4871 337.074C88.7632 337.729 88.7442 338.31 88.6445 338.318Z" fill="#263238"/>
<path d="M86.8823 328.962C86.8213 329.04 86.3921 328.852 85.9234 328.54C85.4547 328.227 85.1236 327.912 85.1847 327.834C85.2449 327.756 85.674 327.945 86.1436 328.257C86.6123 328.568 86.9434 328.884 86.8823 328.962Z" fill="#263238"/>
<path d="M102.372 314.302C102.434 314.379 102.016 314.762 101.438 315.156C100.86 315.55 100.342 315.807 100.28 315.73C100.218 315.652 100.636 315.27 101.214 314.875C101.792 314.481 102.311 314.224 102.372 314.302Z" fill="#263238"/>
<path d="M104.707 320.209C104.716 320.302 104.062 320.429 103.252 320.346C102.441 320.267 101.831 320.013 101.862 319.924C101.892 319.83 102.521 319.925 103.292 320C104.063 320.08 104.699 320.111 104.707 320.209Z" fill="#263238"/>
<path d="M94.6722 321.533C94.6946 321.625 94.0883 321.826 93.3057 321.873C92.5222 321.922 91.8927 321.797 91.9021 321.704C91.9099 321.606 92.5282 321.574 93.2807 321.526C94.0332 321.481 94.6498 321.438 94.6722 321.533Z" fill="#263238"/>
<path d="M95.5339 315.949C95.5262 316.042 94.9139 316.057 94.2439 315.769C93.5714 315.486 93.1853 315.046 93.2558 314.981C93.328 314.906 93.789 315.196 94.4013 315.453C95.0093 315.715 95.5477 315.851 95.5339 315.949Z" fill="#263238"/>
<path d="M105.568 326.55C105.513 326.632 104.886 326.359 104.167 325.94C103.448 325.521 102.912 325.116 102.967 325.035C103.022 324.954 103.65 325.227 104.368 325.645C105.086 326.064 105.623 326.469 105.568 326.55Z" fill="#263238"/>
<path d="M130.053 343.126H76.5167V351.909H130.053V343.126Z" fill="#FF725E"/>
<path d="M80.5149 350.167L87.0242 376.412H118.932L126.054 350.167H80.5149Z" fill="#FF725E"/>
<path d="M130.023 351.92C130.023 352.017 117.947 352.095 103.055 352.095C88.1569 352.095 76.0833 352.017 76.0833 351.92C76.0833 351.824 88.1569 351.746 103.055 351.746C117.947 351.746 130.023 351.824 130.023 351.92Z" fill="#263238"/>
<path d="M100.25 321.725C100.162 321.776 99.7961 321.381 99.4332 320.844C99.0703 320.306 98.8467 319.829 98.9353 319.777C99.0238 319.726 99.3893 320.121 99.7523 320.659C100.115 321.197 100.338 321.674 100.25 321.725Z" fill="#263238"/>
<path d="M100.27 328.791C100.171 328.761 100.297 328.164 100.55 327.458C100.804 326.752 101.09 326.203 101.188 326.234C101.286 326.265 101.161 326.862 100.907 327.568C100.653 328.274 100.368 328.821 100.27 328.791Z" fill="#263238"/>
<path d="M102.883 336.21C102.789 336.251 102.389 335.658 101.989 334.885C101.589 334.112 101.342 333.452 101.435 333.41C101.529 333.369 101.929 333.962 102.329 334.735C102.729 335.508 102.976 336.168 102.883 336.21Z" fill="#263238"/>
<path d="M97.2282 342.178C97.1499 342.115 97.469 341.655 97.942 341.151C98.4141 340.647 98.8613 340.29 98.9396 340.353C99.0178 340.416 98.6988 340.875 98.2258 341.38C97.7536 341.884 97.3073 342.241 97.2282 342.178Z" fill="#263238"/>
<path d="M96.0414 331.342C96.0233 331.436 95.5082 331.431 94.8907 331.33C94.2732 331.229 93.7873 331.071 93.8054 330.976C93.8234 330.881 94.3386 330.886 94.956 330.987C95.5735 331.088 96.0594 331.247 96.0414 331.342Z" fill="#263238"/>
<path d="M388.738 376.475C388.738 376.589 310.947 376.681 215.008 376.681C119.036 376.681 41.2611 376.588 41.2611 376.475C41.2611 376.361 119.036 376.268 215.008 376.268C310.947 376.268 388.738 376.36 388.738 376.475Z" fill="#263238"/>
<path d="M125.059 122.75C125.208 122.887 153.765 113.801 153.765 113.801L142.785 90.4766L117.364 99.4722L131.348 106.909L125.059 122.75Z" fill="#455A64"/>
<path d="M138.455 97.5061V65.7465C138.455 65.7465 177.851 59.0808 206.232 59.4732C234.614 59.8656 263.844 64.1784 263.844 64.1784V94.6676C263.844 94.6676 174.885 87.3117 138.455 97.5061Z" fill="#455A64"/>
<path d="M138.25 97.5323L153.765 113.939V94.6675C153.765 94.6675 140.788 96.1043 138.25 97.5323Z" fill="#263238"/>
<path d="M138.455 65.7451C138.579 65.7459 138.633 72.8621 138.576 81.6388C138.519 90.4179 138.373 97.5318 138.249 97.5318C138.125 97.531 138.071 90.4155 138.128 81.6365C138.185 72.8606 138.331 65.7451 138.455 65.7451Z" fill="#263238"/>
<path d="M277.197 120.314C277.048 120.452 248.491 111.365 248.491 111.365L259.471 88.041L284.892 97.0366L270.909 104.474L277.197 120.314Z" fill="#455A64"/>
<path d="M264.005 95.0965L248.49 111.503V93.6255C253.662 93.7855 258.834 94.2758 264.005 95.0965Z" fill="#263238"/>
<path d="M263.844 64.1802C263.968 64.1794 264.104 71.1006 264.149 79.6377C264.194 88.1772 264.13 95.0976 264.006 95.0984C263.882 95.0992 263.747 88.1788 263.701 79.6393C263.656 71.103 263.72 64.181 263.844 64.1802Z" fill="#263238"/>
<path d="M160.672 79.6728C160.293 77.1407 162.122 75.0592 164.948 74.6962C166.517 74.4948 167.906 74.8546 168.905 75.7055L167.729 77.0309C167.023 76.461 166.207 76.2229 165.3 76.34C163.601 76.5581 162.561 77.8165 162.798 79.4006C163.035 80.9846 164.407 81.9342 166.105 81.7161C167.012 81.5999 167.727 81.1653 168.237 80.4274L169.759 81.4057C169.048 82.4875 167.819 83.184 166.236 83.3869C163.422 83.7475 161.051 82.2049 160.672 79.6728Z" fill="white"/>
<path d="M170.058 78.4763C169.78 75.9705 171.683 73.9136 174.559 73.6398C177.423 73.3676 179.749 75.0089 180.029 77.5266C180.309 80.0452 178.392 82.0901 175.528 82.3631C172.652 82.637 170.337 80.9821 170.058 78.4763ZM177.895 77.7304C177.717 76.1281 176.372 75.1474 174.745 75.3026C173.118 75.457 172.016 76.6702 172.194 78.2725C172.372 79.8749 173.717 80.8547 175.345 80.7003C176.971 80.5451 178.073 79.3328 177.895 77.7304Z" fill="white"/>
<path d="M190.326 81.1287L189.96 76.0542L187.561 80.3955L186.608 80.4521L183.649 76.5381L183.994 81.5052L182.009 81.623L181.42 73.1631L183.17 73.0588L186.956 78.1126L189.959 72.6552L191.697 72.5518L192.311 81.0101L190.326 81.1287Z" fill="white"/>
<path d="M202.165 75.3369C202.222 77.2258 200.727 78.4397 198.281 78.5042L196.436 78.5519L196.507 80.8898L194.388 80.9447L194.13 72.4681L198.095 72.3654C200.542 72.3009 202.108 73.436 202.165 75.3369ZM200.02 75.3926C199.991 74.4605 199.32 73.9319 198.025 73.9654L196.298 74.0107L196.388 76.9535L198.115 76.9082C199.41 76.8747 200.047 76.3128 200.02 75.3926Z" fill="white"/>
<path d="M203.775 72.2563H205.894V79.1346H210.487V80.7329H203.775V72.2563Z" fill="white"/>
<path d="M218.744 79.3744L218.695 80.9489L211.604 80.7579L211.87 72.2812L218.792 72.4675L218.742 74.042L213.928 73.9123L213.87 75.7534L218.123 75.868L218.075 77.394L213.822 77.2793L213.76 79.2415L218.744 79.3744Z" fill="white"/>
<path d="M222.66 74.2696L219.736 74.1064L219.84 72.5112L227.805 72.9562L227.701 74.5514L224.776 74.3882L224.329 81.2521L222.214 81.1343L222.66 74.2696Z" fill="white"/>
<path d="M235.519 80.5357L235.361 82.1038L228.299 81.498L229.144 73.0557L236.037 73.6471L235.88 75.2152L231.085 74.8037L230.901 76.6369L235.136 76.9998L234.984 78.5194L230.749 78.1564L230.553 80.1106L235.519 80.5357Z" fill="white"/>
<path d="M238.166 73.8579L242.289 74.3681C245.257 74.7351 247.054 76.6431 246.687 79.1871C246.32 81.7311 244.046 83.1353 241.075 82.7683L236.952 82.2581L238.166 73.8579ZM241.203 81.1596C243.005 81.3825 244.329 80.5324 244.56 78.9244C244.793 77.3157 243.756 76.1743 241.954 75.9514L240.036 75.7142L239.285 80.9224L241.203 81.1596Z" fill="white"/>
<path d="M281.472 67.0675L283.719 69.5144L290.065 67.0675L288.214 64.498L281.472 67.0675Z" fill="#455A64"/>
<path d="M278.563 55.4428C278.563 57.1327 277.083 58.5018 275.258 58.5018C273.434 58.5018 271.953 57.1319 271.953 55.4428C271.953 53.7537 273.434 52.3838 275.258 52.3838C277.084 52.3838 278.563 53.7537 278.563 55.4428Z" fill="#FF725E"/>
<path d="M204.585 101.034C204.585 101.879 203.845 102.564 202.933 102.564C202.02 102.564 201.28 101.88 201.28 101.034C201.28 100.19 202.019 99.5044 202.933 99.5044C203.845 99.5052 204.585 100.19 204.585 101.034Z" fill="#FF725E"/>
<path d="M127.655 78.0634C127.655 78.7042 127.093 79.224 126.401 79.224C125.709 79.224 125.147 78.7042 125.147 78.0634C125.147 77.4226 125.709 76.9028 126.401 76.9028C127.093 76.9028 127.655 77.4226 127.655 78.0634Z" fill="#FF725E"/>
<path d="M122.995 65.2689L126.695 65.4774L128.453 58.748L124.997 58.8778L122.995 65.2689Z" fill="#455A64"/>
<path d="M238.582 119.023L239.826 122.256L247.204 121.113L245.718 118.222L238.582 119.023Z" fill="#FF725E"/>
<path d="M163.947 100.376L161.668 103.083L166.67 108.231L168.508 105.519L163.947 100.376Z" fill="#455A64"/>
<path d="M229.989 137.414L242.136 138.653C245.059 134.8 249.132 131.624 254.146 129.626C268.569 123.881 285.29 130.046 291.497 143.394C297.704 156.743 291.044 172.22 276.622 177.965C262.201 183.709 245.478 177.545 239.272 164.197C236.681 158.624 236.339 152.681 237.863 147.227L237.855 147.24L229.989 137.414Z" fill="#FAFAFA"/>
<path d="M229.989 137.414C230.465 137.999 232.921 141.013 237.945 147.179L237.758 147.19L237.766 147.177C237.796 147.127 237.864 147.109 237.917 147.137C237.963 147.16 237.983 147.209 237.971 147.253C236.967 150.888 236.58 155.678 238.16 160.843C238.563 162.124 239.051 163.435 239.732 164.709C240.078 165.343 240.405 165.999 240.779 166.643C241.199 167.263 241.625 167.891 242.056 168.527C243.9 170.999 246.303 173.317 249.237 175.2C252.163 177.085 255.614 178.532 259.378 179.294C263.134 180.054 267.205 180.142 271.21 179.344C275.208 178.542 279.133 176.909 282.537 174.488C285.926 172.066 288.864 168.899 290.752 165.156C292.692 161.357 293.732 157.205 293.57 153.148C293.447 149.093 292.299 145.173 290.385 141.748C288.471 138.322 285.81 135.374 282.7 133.17C279.6 130.951 276.123 129.42 272.63 128.556C269.134 127.688 265.626 127.486 262.364 127.791C259.092 128.106 256.119 129.014 253.463 130.07C248.169 132.317 244.523 135.708 242.225 138.709C242.203 138.74 242.162 138.755 242.125 138.751C234.438 137.905 230.74 137.497 229.989 137.414C230.741 137.485 234.446 137.832 242.148 138.554L242.048 138.595C244.335 135.553 247.992 132.106 253.331 129.81C256.01 128.731 259.014 127.8 262.326 127.47C265.626 127.151 269.181 127.343 272.727 128.215C276.27 129.081 279.8 130.626 282.95 132.871C286.11 135.101 288.819 138.09 290.766 141.565C292.715 145.039 293.885 149.02 294.012 153.138C294.178 157.26 293.126 161.478 291.154 165.337C289.235 169.139 286.25 172.357 282.806 174.814C279.345 177.272 275.359 178.926 271.298 179.735C267.229 180.541 263.097 180.445 259.287 179.667C255.472 178.887 251.975 177.412 249.014 175.493C246.046 173.576 243.619 171.22 241.761 168.711C241.327 168.065 240.9 167.427 240.477 166.799C240.102 166.146 239.772 165.481 239.426 164.838C238.744 163.546 238.256 162.218 237.855 160.921C236.285 155.69 236.71 150.856 237.755 147.2L237.96 147.277L237.953 147.289C237.923 147.34 237.855 147.357 237.802 147.33C237.787 147.323 237.774 147.312 237.766 147.301C232.854 141.058 230.454 138.006 229.989 137.414Z" fill="#263238"/>
<path d="M254.905 144.429C254.913 144.437 254.919 144.56 254.926 144.793C254.932 145.054 254.939 145.391 254.949 145.814C254.961 146.733 254.978 148.019 254.999 149.64C255.024 152.94 255.058 157.593 255.098 163.163L254.905 162.983C260.796 162.975 267.736 162.966 275.142 162.956C275.193 162.911 274.719 163.346 274.92 163.159V163.155V163.144V163.124V163.084V163.003V162.843V162.522V161.883C274.92 161.458 274.92 161.034 274.92 160.612C274.921 159.769 274.921 158.934 274.922 158.108C274.924 156.455 274.927 154.839 274.928 153.266C274.936 150.122 274.944 147.155 274.951 144.429L275.144 144.609C269.126 144.571 264.099 144.539 260.534 144.517C258.783 144.497 257.393 144.481 256.4 144.47C255.945 144.461 255.58 144.454 255.299 144.449C255.046 144.443 254.913 144.436 254.905 144.429C254.898 144.423 255.017 144.416 255.256 144.41C255.527 144.404 255.88 144.398 256.32 144.389C257.303 144.378 258.678 144.362 260.41 144.342C264.005 144.32 269.075 144.288 275.143 144.25L275.337 144.249L275.338 144.429C275.344 147.155 275.352 150.122 275.36 153.266C275.362 154.839 275.363 156.455 275.366 158.108C275.367 158.934 275.367 159.769 275.368 160.612C275.368 161.033 275.368 161.457 275.368 161.883V162.522V162.843V163.003V163.084V163.124V163.144V163.155V163.159C275.568 162.975 275.096 163.416 275.142 163.37C267.736 163.359 260.796 163.35 254.905 163.342H254.71L254.71 163.163C254.751 157.546 254.785 152.854 254.809 149.525C254.831 147.922 254.848 146.65 254.86 145.74C254.87 145.332 254.876 145.007 254.883 144.754C254.89 144.533 254.898 144.422 254.905 144.429Z" fill="#263238"/>
<path d="M272.96 147.526C273.25 147.739 270.528 151.368 266.878 155.631C266.149 156.482 265.439 157.294 264.779 158.032L264.346 158.516L263.862 158.112C260.7 155.477 258.556 153.454 258.75 153.246C258.944 153.038 261.419 154.708 264.695 157.219L263.778 157.299C264.404 156.536 265.095 155.71 265.823 154.859C269.474 150.596 272.669 147.313 272.96 147.526Z" fill="#FF725E"/>
</svg>
