<svg width="430" height="398" viewBox="0 0 430 398" fill="none" xmlns="http://www.w3.org/2000/svg">
<path d="M336.219 322.444C339.308 320.969 342.945 320.778 346.374 321.302C348.216 321.584 350.137 322.094 351.391 323.375C352.644 324.656 352.882 326.91 351.442 328.01C350.586 328.665 349.39 328.765 348.279 328.753C345.595 328.724 342.616 328.286 340.472 329.781C339.248 330.635 338.434 332.052 336.971 332.472C335.54 332.882 333.925 332.101 333.166 330.904C332.407 329.709 332.382 328.215 332.735 326.867C332.735 326.867 333.108 323.931 336.219 322.444Z" fill="#FF725E"/>
<path d="M329.142 309.801C331.031 312.298 334.701 311.471 336.404 309.947C338.106 308.423 338.826 306.214 339.48 304.108C340.977 299.295 342.485 294.247 341.372 289.346C341.04 287.881 340.448 286.42 339.336 285.333C338.224 284.245 336.513 283.599 334.949 283.982C333.098 284.435 331.948 286.112 331.117 287.709C328.673 292.4 327.379 297.601 327.36 302.81C327.35 305.241 327.66 307.793 329.142 309.801Z" fill="#FF725E"/>
<path d="M323.955 313.384C326.006 311.131 326.394 307.845 325.482 305.023C324.57 302.201 322.508 299.801 320.132 297.84C317.346 295.542 314.072 293.754 310.552 292.608C309.167 292.157 307.706 291.802 306.244 291.931C304.782 292.06 303.309 292.751 302.628 293.956C301.62 295.735 302.587 297.894 303.632 299.655C305.474 302.758 307.58 305.726 309.924 308.524C311.81 310.774 313.97 312.994 316.844 314.012C319.718 315.029 322.704 314.909 324.227 313.064" fill="#FF725E"/>
<path d="M329.015 347.464C329.05 347.465 329.108 347.061 329.186 346.329C329.273 345.504 329.382 344.467 329.512 343.233C329.668 341.93 329.873 340.38 330.265 338.692C330.654 337.007 331.264 335.182 332.048 333.331C332.86 331.491 333.849 329.819 335.006 328.481C336.154 327.138 337.49 326.166 338.744 325.605C339.996 325.032 341.117 324.801 341.893 324.697C342.675 324.623 343.113 324.566 343.113 324.534C343.113 324.501 342.675 324.497 341.871 324.516C341.075 324.566 339.907 324.752 338.588 325.307C337.265 325.85 335.849 326.838 334.644 328.209C333.43 329.574 332.404 331.284 331.579 333.157C330.782 335.04 330.18 336.885 329.808 338.605C329.437 340.323 329.267 341.89 329.156 343.203C329.05 344.518 329.01 345.583 328.99 346.319C328.971 347.054 328.98 347.462 329.015 347.464Z" fill="#263238"/>
<path d="M329.246 345.082C329.263 345.081 329.275 344.9 329.279 344.555C329.278 344.159 329.276 343.661 329.275 343.05C329.27 341.744 329.271 339.853 329.347 337.518C329.471 332.849 329.906 327.824 330.745 320.739C331.54 314.078 332.606 306.325 333.731 301.284C333.973 300.138 334.215 299.106 334.444 298.203C334.662 297.297 334.848 296.517 335.028 295.885C335.183 295.291 335.308 294.807 335.408 294.422C335.49 294.086 335.524 293.907 335.508 293.903C335.491 293.898 335.424 294.069 335.31 294.397C335.186 294.776 335.03 295.253 334.838 295.839C334.628 296.465 334.414 297.24 334.169 298.142C333.913 299.041 333.645 300.071 333.381 301.215C332.267 305.783 331.089 312.166 330.242 319.268C329.401 326.367 329.023 332.831 328.989 337.512C328.959 339.852 329.013 341.747 329.078 343.054C329.118 343.666 329.151 344.164 329.176 344.559C329.205 344.902 329.228 345.083 329.246 345.082Z" fill="#263238"/>
<path d="M329.277 332.614C329.312 332.613 329.306 332.055 329.265 331.041C329.202 330.03 329.053 328.57 328.745 326.781C328.419 324.996 327.963 322.877 327.247 320.574C326.937 319.521 326.209 316.998 324.443 313.228C322.117 308.121 318.956 303.945 316.207 301.358C315.562 300.672 314.844 300.177 314.269 299.692C313.972 299.459 313.709 299.227 313.442 299.043C313.173 298.871 312.922 298.712 312.69 298.564C311.786 297.991 311.279 297.689 311.26 297.716C311.179 297.818 313.287 298.966 315.949 301.587C318.599 304.203 321.672 308.349 323.979 313.414C325.265 316.161 326.162 318.611 326.799 320.692C327.534 322.972 328.022 325.07 328.391 326.838C328.742 328.609 328.945 330.055 329.068 331.056C329.17 332.059 329.242 332.615 329.277 332.614Z" fill="#263238"/>
<path d="M316.258 354.607L317.607 371.722H341.363L342.712 354.607H316.258Z" fill="#263238"/>
<path d="M345.548 347.861H313.965V354.607H345.548V347.861Z" fill="#263238"/>
<path d="M313.965 371.067V372.937H315.448H345.026V371.067H313.965Z" fill="#455A64"/>
<path d="M316.904 376.228L315.449 372.937H343.896L342.199 376.228H316.904Z" fill="#455A64"/>
<path d="M342.272 360.2C342.277 360.204 342.239 360.258 342.161 360.357C342.066 360.473 341.95 360.617 341.806 360.793C341.469 361.192 341.005 361.741 340.422 362.432L340.36 362.505L340.301 362.428C339.431 361.315 338.269 359.827 336.901 358.076H337.097C336.085 359.401 334.959 360.878 333.749 362.463L333.644 362.6L333.527 362.471C332.292 361.11 330.95 359.633 329.557 358.099L329.786 358.097C329.717 358.177 329.642 358.264 329.567 358.35C328.336 359.779 327.145 361.162 326.017 362.469L325.898 362.607L325.789 362.463C324.584 360.885 323.459 359.411 322.44 358.077L322.635 358.086C320.984 359.826 319.584 361.303 318.51 362.436L318.437 362.513L318.381 362.426C317.838 361.581 317.404 360.906 317.089 360.418C316.954 360.2 316.845 360.024 316.758 359.883C316.685 359.76 316.651 359.696 316.657 359.692C316.663 359.689 316.71 359.746 316.795 359.861C316.892 359.997 317.013 360.166 317.162 360.375C317.491 360.855 317.947 361.517 318.517 362.347L318.388 362.338C319.445 361.191 320.823 359.696 322.446 357.935L322.549 357.824L322.642 357.944C323.668 359.271 324.805 360.738 326.021 362.31L325.794 362.304C326.918 360.995 328.106 359.61 329.335 358.179C329.41 358.093 329.485 358.006 329.553 357.925L329.666 357.794L329.782 357.922C331.171 359.459 332.509 360.939 333.741 362.303L333.519 362.311C334.74 360.734 335.878 359.264 336.9 357.946L336.998 357.818L337.096 357.946C338.435 359.716 339.572 361.22 340.424 362.346L340.303 362.342C340.909 361.67 341.391 361.134 341.742 360.745C341.899 360.578 342.025 360.442 342.128 360.332C342.219 360.242 342.267 360.196 342.272 360.2Z" fill="#E0E0E0"/>
<path d="M343.045 354.494C343.045 354.569 337.093 354.631 329.752 354.631C322.408 354.631 316.457 354.569 316.457 354.494C316.457 354.418 322.408 354.357 329.752 354.357C337.092 354.357 343.045 354.418 343.045 354.494Z" fill="#455A64"/>
<path d="M344.244 373.122C344.244 373.197 337.775 373.259 329.797 373.259C321.816 373.259 315.348 373.197 315.348 373.122C315.348 373.046 321.816 372.985 329.797 372.985C337.775 372.985 344.244 373.046 344.244 373.122Z" fill="#263238"/>
<path d="M109.908 318.518C109.843 318.593 109.301 318.291 108.697 317.844C108.094 317.396 107.657 316.973 107.721 316.897C107.787 316.822 108.328 317.124 108.932 317.571C109.536 318.019 109.973 318.442 109.908 318.518Z" fill="#263238"/>
<path d="M126.38 295.726C126.48 293.597 126.544 291.412 125.818 289.39C125.092 287.367 123.407 285.507 121.152 285.075C118.579 284.581 115.941 286.085 114.499 288.119C113.057 290.152 112.561 292.622 112.135 295.021C109.2 311.562 108.116 328.385 108.906 345.131L119.438 346.498C124.064 329.007 125.54 313.718 126.38 295.726Z" fill="#455A64"/>
<path d="M119.69 285C119.696 285.002 119.68 285.055 119.643 285.155C119.597 285.274 119.539 285.419 119.469 285.597C119.297 286.009 119.064 286.571 118.768 287.28C118.621 287.647 118.425 288.045 118.268 288.498C118.111 288.954 117.94 289.446 117.757 289.975C117.572 290.505 117.375 291.071 117.166 291.67C116.994 292.281 116.813 292.926 116.623 293.602C115.828 296.304 115.169 299.587 114.589 303.249C114.019 306.915 113.646 310.975 113.351 315.241C112.813 323.781 112.729 331.534 112.491 337.139C112.379 339.943 112.276 342.211 112.159 343.776C112.104 344.536 112.06 345.138 112.027 345.579C112.01 345.766 111.995 345.921 111.983 346.047C111.971 346.152 111.962 346.206 111.956 346.206C111.95 346.206 111.945 346.151 111.945 346.045C111.947 345.919 111.949 345.764 111.952 345.575C111.967 345.134 111.987 344.531 112.013 343.77C112.084 342.204 112.147 339.935 112.226 337.132C112.395 331.527 112.436 323.774 112.976 315.22C113.271 310.947 113.656 306.878 114.247 303.204C114.848 299.533 115.537 296.243 116.367 293.539C116.566 292.863 116.757 292.218 116.938 291.607C117.157 291.009 117.363 290.443 117.558 289.914C117.751 289.387 117.933 288.896 118.099 288.442C118.267 287.99 118.473 287.595 118.631 287.231C118.955 286.531 119.211 285.976 119.4 285.569C119.483 285.397 119.552 285.256 119.608 285.141C119.657 285.045 119.684 284.997 119.69 285Z" fill="#263238"/>
<path d="M120.666 285.005C120.666 285.005 121.312 285.619 121.953 287.022C122.616 288.413 123.031 290.627 122.914 293.328C122.634 298.714 122.113 306.136 121.42 314.331C120.723 322.527 119.952 329.936 119.33 335.291C119.019 337.969 118.75 340.134 118.552 341.629C118.451 342.352 118.372 342.926 118.313 343.349C118.284 343.527 118.26 343.674 118.241 343.796C118.223 343.896 118.21 343.947 118.204 343.946C118.198 343.945 118.197 343.893 118.203 343.792C118.213 343.669 118.224 343.522 118.238 343.342C118.279 342.917 118.336 342.341 118.406 341.615C118.565 340.084 118.789 337.923 119.065 335.266C119.619 329.906 120.348 322.497 121.044 314.304C121.736 306.115 122.3 298.689 122.647 293.32C122.797 290.638 122.428 288.461 121.817 287.073C121.227 285.674 120.62 285.03 120.666 285.005Z" fill="#263238"/>
<path d="M127.967 310.233C127.932 310.324 127.039 310.11 125.971 309.755C124.904 309.401 124.067 309.041 124.103 308.95C124.138 308.859 125.031 309.073 126.099 309.427C127.166 309.782 128.003 310.143 127.967 310.233Z" fill="#263238"/>
<path d="M129.238 300.299C129.28 300.387 128.431 300.824 127.339 301.276C126.248 301.729 125.33 302.024 125.287 301.936C125.245 301.848 126.094 301.41 127.186 300.958C128.277 300.507 129.196 300.211 129.238 300.299Z" fill="#263238"/>
<path d="M128.58 292.191C128.573 292.286 127.869 292.32 127.009 292.265C126.149 292.21 125.458 292.087 125.465 291.992C125.472 291.896 126.175 291.863 127.035 291.918C127.896 291.973 128.588 292.095 128.58 292.191Z" fill="#263238"/>
<path d="M117.709 286.995C117.622 287.046 117.16 286.515 116.679 285.808C116.198 285.1 115.879 284.486 115.968 284.435C116.056 284.384 116.517 284.915 116.998 285.622C117.479 286.329 117.797 286.944 117.709 286.995Z" fill="#263238"/>
<path d="M114.12 291.898C114.117 291.994 113.448 292.059 112.625 292.043C111.801 292.027 111.134 291.935 111.137 291.839C111.139 291.743 111.808 291.678 112.632 291.694C113.456 291.711 114.122 291.802 114.12 291.898Z" fill="#263238"/>
<path d="M111.54 301.708C111.502 301.797 110.796 301.618 109.967 301.308C109.136 300.999 108.494 300.675 108.533 300.586C108.572 300.496 109.276 300.675 110.107 300.985C110.937 301.296 111.579 301.619 111.54 301.708Z" fill="#263238"/>
<path d="M111.266 309.958C111.287 310.052 110.687 310.249 109.926 310.396C109.164 310.544 108.53 310.588 108.508 310.493C108.487 310.399 109.087 310.203 109.848 310.055C110.609 309.907 111.244 309.864 111.266 309.958Z" fill="#263238"/>
<path d="M110.052 323.453C110.07 323.548 109.434 323.732 108.63 323.866C107.826 324 107.159 324.031 107.141 323.936C107.123 323.841 107.759 323.657 108.563 323.523C109.368 323.389 110.034 323.358 110.052 323.453Z" fill="#263238"/>
<path d="M109.247 330.902C109.295 330.987 108.764 331.335 108.061 331.68C107.357 332.024 106.747 332.234 106.698 332.149C106.649 332.064 107.181 331.716 107.884 331.372C108.588 331.027 109.198 330.817 109.247 330.902Z" fill="#263238"/>
<path d="M115.819 339.357C115.729 339.405 115.266 338.813 114.785 338.037C114.305 337.259 113.988 336.59 114.078 336.542C114.168 336.495 114.631 337.086 115.111 337.863C115.593 338.641 115.909 339.309 115.819 339.357Z" fill="#263238"/>
<path d="M117.714 325.307C117.787 325.375 117.271 325.952 116.562 326.596C115.854 327.239 115.22 327.704 115.148 327.636C115.074 327.568 115.59 326.99 116.299 326.347C117.008 325.703 117.642 325.238 117.714 325.307Z" fill="#263238"/>
<path d="M117.296 317.934C117.22 318 116.742 317.637 116.228 317.123C115.714 316.61 115.36 316.141 115.436 316.076C115.513 316.01 115.991 316.373 116.504 316.887C117.018 317.399 117.373 317.869 117.296 317.934Z" fill="#263238"/>
<path d="M118.6 308.514C118.677 308.579 118.247 309.139 117.64 309.767C117.032 310.395 116.477 310.851 116.4 310.786C116.322 310.722 116.752 310.161 117.359 309.534C117.967 308.907 118.522 308.45 118.6 308.514Z" fill="#263238"/>
<path d="M119.332 301.678C119.259 301.747 118.66 301.311 117.993 300.704C117.326 300.098 116.845 299.55 116.917 299.481C116.99 299.413 117.59 299.849 118.256 300.456C118.924 301.062 119.405 301.609 119.332 301.678Z" fill="#263238"/>
<path d="M120.774 292.437C120.863 292.486 120.562 293.106 120.101 293.82C119.64 294.535 119.195 295.075 119.106 295.025C119.016 294.976 119.317 294.357 119.778 293.642C120.239 292.927 120.685 292.388 120.774 292.437Z" fill="#263238"/>
<path d="M123.488 283.874C123.579 283.919 123.313 284.539 122.893 285.259C122.474 285.978 122.059 286.523 121.967 286.478C121.876 286.433 122.142 285.813 122.562 285.093C122.982 284.373 123.396 283.827 123.488 283.874Z" fill="#263238"/>
<path d="M126.563 287.763C126.608 287.85 126.186 288.123 125.622 288.373C125.058 288.622 124.564 288.755 124.519 288.668C124.474 288.581 124.896 288.308 125.46 288.058C126.025 287.809 126.518 287.676 126.563 287.763Z" fill="#263238"/>
<path d="M126.638 318.519C126.617 318.609 125.662 318.488 124.578 318.057C123.491 317.63 122.736 317.076 122.792 317C122.85 316.916 123.673 317.324 124.725 317.736C125.775 318.153 126.663 318.421 126.638 318.519Z" fill="#263238"/>
<path d="M125.381 325.032C125.401 325.127 124.766 325.32 123.965 325.463C123.162 325.606 122.496 325.646 122.477 325.551C122.457 325.457 123.092 325.264 123.893 325.121C124.695 324.978 125.361 324.938 125.381 325.032Z" fill="#263238"/>
<path d="M123.834 336.202C123.773 336.274 122.968 335.764 122.23 334.899C121.487 334.036 121.135 333.194 121.225 333.156C121.322 333.111 121.81 333.853 122.525 334.682C123.235 335.516 123.905 336.125 123.834 336.202Z" fill="#263238"/>
<path d="M106.905 341.31C106.838 341.236 107.266 340.795 107.861 340.324C108.456 339.853 108.993 339.531 109.061 339.603C109.128 339.676 108.701 340.117 108.106 340.589C107.511 341.06 106.973 341.383 106.905 341.31Z" fill="#263238"/>
<path d="M102.041 316.932C101.356 314.951 100.069 312.642 97.822 312.611C96.4881 312.594 95.2893 313.479 94.6623 314.569C94.0354 315.658 93.7697 316.921 93.8084 318.155C94.0655 326.306 95.5911 335.628 98.6381 344.119H106.861C106.757 334.687 105.148 325.916 102.041 316.932Z" fill="#455A64"/>
<path d="M87.1688 304.461C86.0198 300.207 82.591 297.908 78.6084 297.694C74.974 298.284 73.5645 301.596 73.1327 304.988C72.701 308.38 73.8388 311.757 74.9628 315.009C78.5705 325.454 82.1791 335.898 85.7868 346.344C89.1967 345.999 92.6066 345.654 96.0165 345.31C92.7786 331.317 90.9193 318.345 87.1688 304.461Z" fill="#455A64"/>
<path d="M97.8212 312.611C97.8565 312.637 97.4841 312.954 97.1246 313.688C96.7686 314.427 96.5975 315.606 96.7402 317.053C96.8993 318.5 97.0782 320.242 97.3405 322.151C97.6088 324.064 97.9803 326.158 98.443 328.344C99.3727 332.716 100.42 336.64 101.085 339.5C101.422 340.928 101.676 342.089 101.837 342.894C101.905 343.264 101.961 343.57 102.009 343.823C102.044 344.036 102.056 344.149 102.043 344.151C102.03 344.154 101.993 344.046 101.934 343.837C101.868 343.589 101.789 343.287 101.693 342.922C101.475 342.075 101.181 340.937 100.825 339.555C100.094 336.712 99.0055 332.797 98.0732 328.411C97.6097 326.219 97.2468 324.115 96.9965 322.192C96.8658 321.231 96.7789 320.314 96.6946 319.456C96.619 318.603 96.5183 317.806 96.4745 317.071C96.3627 315.604 96.5803 314.379 96.9913 313.634C97.4067 312.888 97.8212 312.611 97.8212 312.611Z" fill="#263238"/>
<path d="M78.7589 297.425C78.7942 297.454 78.2145 297.905 77.5231 298.963C76.8334 300.008 76.1015 301.713 75.9665 303.918C75.81 306.121 76.3406 308.736 77.2324 311.54C78.1311 314.358 79.1167 317.45 80.1513 320.696C82.1912 327.186 84.0376 333.059 85.3869 337.354C86.0311 339.463 86.5565 341.182 86.9324 342.414C87.0992 342.987 87.2325 343.446 87.334 343.794C87.4217 344.111 87.4621 344.279 87.4492 344.282C87.4363 344.285 87.3727 344.124 87.2609 343.814C87.1422 343.47 86.9865 343.018 86.7913 342.452C86.3871 341.228 85.823 339.519 85.1315 337.424C83.7547 333.137 81.8713 327.275 79.7901 320.795C78.7649 317.545 77.7888 314.45 76.8987 311.628C76.0215 308.807 75.5073 306.146 75.7008 303.902C75.8728 301.658 76.6597 299.932 77.3993 298.892C78.1406 297.839 78.7589 297.425 78.7589 297.425Z" fill="#263238"/>
<path d="M93.7854 344.299C93.7733 344.303 93.6942 344.147 93.554 343.845C93.4199 343.541 93.2023 343.1 92.9709 342.513C92.4833 341.349 91.8581 339.636 91.2114 337.485C90.5612 335.335 89.9222 332.742 89.3048 329.849C88.7122 326.95 88.0612 323.77 87.3784 320.43C86.6671 317.097 85.8751 313.943 84.9557 311.129C84.039 308.314 83.0104 305.838 81.9733 303.833C80.9413 301.826 79.9557 300.271 79.2152 299.233C78.8635 298.702 78.5436 298.32 78.3535 298.043C78.1557 297.771 78.0568 297.624 78.0671 297.617C78.0775 297.61 78.197 297.742 78.4146 298.002C78.6253 298.266 78.965 298.637 79.3365 299.158C80.1165 300.177 81.1442 301.721 82.2123 303.727C83.2865 305.729 84.3469 308.212 85.2868 311.035C86.2294 313.859 87.0344 317.023 87.7473 320.363C88.4198 323.705 89.0605 326.887 89.6445 329.788C90.2422 332.679 90.8528 335.27 91.4677 337.421C92.0791 339.573 92.6631 341.292 93.1077 342.467C93.3167 343.059 93.5119 343.507 93.6228 343.819C93.7415 344.129 93.7974 344.294 93.7854 344.299Z" fill="#263238"/>
<path d="M75.1451 313.446C75.1692 313.54 74.6136 313.745 73.9024 313.905C73.1912 314.065 72.5952 314.118 72.5711 314.025C72.5462 313.932 73.1026 313.727 73.8138 313.567C74.5242 313.407 75.1202 313.353 75.1451 313.446Z" fill="#263238"/>
<path d="M74.0615 306.984C74.0564 307.082 73.2832 307.121 72.3364 307.157C71.3886 307.19 70.6155 307.207 70.6017 307.11C70.588 307.016 71.3551 306.843 72.3217 306.809C73.2884 306.773 74.0675 306.89 74.0615 306.984Z" fill="#263238"/>
<path d="M75.214 301.082C75.1469 301.155 74.5914 300.821 73.973 300.336C73.3547 299.851 72.9083 299.398 72.9754 299.325C73.0425 299.251 73.5981 299.586 74.2164 300.071C74.8339 300.556 75.2811 301.009 75.214 301.082Z" fill="#263238"/>
<path d="M78.3345 295.618C78.4377 295.64 78.4093 296.1 78.3939 296.657C78.3749 297.214 78.3741 297.675 78.2692 297.69C78.1694 297.708 77.9974 297.242 78.0172 296.647C78.0353 296.052 78.2356 295.596 78.3345 295.618Z" fill="#263238"/>
<path d="M84.7112 298.193C84.7964 298.248 84.5461 298.714 84.1531 299.235C83.7592 299.755 83.3713 300.132 83.2862 300.077C83.2011 300.022 83.4505 299.555 83.8443 299.035C84.2382 298.514 84.6261 298.138 84.7112 298.193Z" fill="#263238"/>
<path d="M88.8505 304.847C88.8901 304.936 88.3603 305.221 87.6672 305.482C86.9749 305.743 86.3815 305.883 86.3419 305.794C86.3024 305.705 86.8321 305.42 87.5253 305.159C88.2176 304.897 88.811 304.758 88.8505 304.847Z" fill="#263238"/>
<path d="M91.3597 311.693C91.4019 311.777 90.7001 312.148 89.7378 312.348C88.7763 312.552 87.9705 312.498 87.9688 312.405C87.9645 312.305 88.7316 312.205 89.6544 312.008C90.578 311.817 91.3176 311.602 91.3597 311.693Z" fill="#263238"/>
<path d="M79.8335 309.749C79.7346 309.72 79.806 309.248 79.9944 308.693C80.1818 308.138 80.4149 307.711 80.5138 307.74C80.6127 307.769 80.5413 308.241 80.353 308.796C80.1655 309.351 79.9333 309.778 79.8335 309.749Z" fill="#263238"/>
<path d="M81.4412 318.343C81.3458 318.305 81.553 317.668 81.9039 316.92C82.2548 316.173 82.616 315.597 82.7114 315.635C82.8069 315.674 82.5996 316.311 82.2488 317.059C81.8987 317.807 81.5367 318.382 81.4412 318.343Z" fill="#263238"/>
<path d="M77.4702 320.697C77.4298 320.787 76.7814 320.624 75.9971 320.398C75.2127 320.17 74.5798 319.963 74.6021 319.867C74.6236 319.775 75.3073 319.832 76.1097 320.065C76.9112 320.296 77.5098 320.61 77.4702 320.697Z" fill="#263238"/>
<path d="M79.7595 327.705C79.8197 327.783 79.3819 328.169 78.7808 328.566C78.1796 328.963 77.6439 329.221 77.5837 329.143C77.5235 329.065 77.9612 328.68 78.5623 328.282C79.1635 327.885 79.6993 327.626 79.7595 327.705Z" fill="#263238"/>
<path d="M81.5971 334.692C81.622 334.785 81.0794 334.988 80.3862 335.144C79.6931 335.3 79.1108 335.351 79.0868 335.257C79.0618 335.164 79.6045 334.962 80.2976 334.805C80.9899 334.65 81.5722 334.599 81.5971 334.692Z" fill="#263238"/>
<path d="M91.563 317.531C91.6155 317.611 91.1519 317.953 90.4768 318.187C89.8026 318.424 89.21 318.45 89.192 318.358C89.1713 318.261 89.7028 318.087 90.3444 317.862C90.986 317.639 91.5097 317.446 91.563 317.531Z" fill="#263238"/>
<path d="M92.9851 328.4C92.9412 328.487 92.3882 328.332 91.7518 328.055C91.1146 327.778 90.6347 327.482 90.6786 327.396C90.7224 327.309 91.2745 327.463 91.9118 327.74C92.5491 328.018 93.0298 328.313 92.9851 328.4Z" fill="#263238"/>
<path d="M95.5005 336.179C95.4627 336.268 94.7334 336.087 93.8717 335.775C93.01 335.462 92.3426 335.137 92.3804 335.047C92.4183 334.958 93.1476 335.138 94.0093 335.45C94.871 335.763 95.5384 336.09 95.5005 336.179Z" fill="#263238"/>
<path d="M81.9988 342.273C81.9481 342.185 82.6189 341.768 83.3937 341.201C84.172 340.639 84.7689 340.134 84.848 340.201C84.9245 340.261 84.4335 340.891 83.6259 341.475C82.821 342.063 82.0444 342.356 81.9988 342.273Z" fill="#263238"/>
<path d="M88.6447 338.318C88.538 338.329 88.3935 337.806 88.1364 337.199C87.8853 336.589 87.6127 336.113 87.7004 336.055C87.7795 335.998 88.2155 336.417 88.4873 337.074C88.7633 337.729 88.7444 338.31 88.6447 338.318Z" fill="#263238"/>
<path d="M86.8807 328.962C86.8196 329.04 86.3905 328.851 85.9218 328.539C85.4531 328.227 85.122 327.912 85.183 327.834C85.2432 327.756 85.6724 327.945 86.1419 328.257C86.6106 328.568 86.9417 328.884 86.8807 328.962Z" fill="#263238"/>
<path d="M102.371 314.301C102.433 314.379 102.015 314.761 101.437 315.156C100.859 315.55 100.341 315.807 100.28 315.729C100.218 315.652 100.636 315.27 101.213 314.875C101.791 314.481 102.31 314.224 102.371 314.301Z" fill="#263238"/>
<path d="M104.705 320.209C104.715 320.302 104.06 320.429 103.25 320.346C102.44 320.267 101.83 320.013 101.861 319.924C101.891 319.83 102.519 319.925 103.291 320C104.061 320.08 104.698 320.111 104.705 320.209Z" fill="#263238"/>
<path d="M94.6725 321.533C94.6949 321.625 94.0886 321.826 93.306 321.873C92.5225 321.922 91.893 321.797 91.9024 321.704C91.9102 321.606 92.5285 321.574 93.281 321.526C94.0335 321.481 94.6501 321.438 94.6725 321.533Z" fill="#263238"/>
<path d="M95.5325 315.949C95.5247 316.041 94.9124 316.057 94.2425 315.769C93.57 315.486 93.1838 315.046 93.2543 314.98C93.3266 314.906 93.7875 315.196 94.3999 315.452C95.0079 315.715 95.5462 315.85 95.5325 315.949Z" fill="#263238"/>
<path d="M105.57 326.55C105.515 326.631 104.887 326.358 104.169 325.94C103.45 325.521 102.914 325.116 102.969 325.035C103.024 324.953 103.652 325.226 104.37 325.645C105.088 326.064 105.625 326.469 105.57 326.55Z" fill="#263238"/>
<path d="M130.051 343.126H76.5156V351.908H130.051V343.126Z" fill="#FF725E"/>
<path d="M80.5117 350.167L87.0211 376.412H118.929L126.051 350.167H80.5117Z" fill="#FF725E"/>
<path d="M130.022 351.92C130.022 352.017 117.946 352.095 103.053 352.095C88.1556 352.095 76.082 352.017 76.082 351.92C76.082 351.824 88.1556 351.746 103.053 351.746C117.946 351.746 130.022 351.824 130.022 351.92Z" fill="#263238"/>
<path d="M100.248 321.725C100.161 321.776 99.7943 321.381 99.4314 320.844C99.0685 320.306 98.8449 319.829 98.9334 319.777C99.022 319.726 99.3875 320.121 99.7504 320.659C100.113 321.197 100.336 321.674 100.248 321.725Z" fill="#263238"/>
<path d="M100.268 328.791C100.169 328.761 100.295 328.164 100.549 327.458C100.802 326.752 101.088 326.203 101.186 326.234C101.285 326.264 101.159 326.861 100.905 327.568C100.652 328.274 100.366 328.821 100.268 328.791Z" fill="#263238"/>
<path d="M102.881 336.21C102.788 336.251 102.388 335.658 101.988 334.885C101.588 334.112 101.34 333.452 101.434 333.41C101.528 333.369 101.928 333.962 102.327 334.735C102.727 335.508 102.975 336.168 102.881 336.21Z" fill="#263238"/>
<path d="M97.2266 342.178C97.1484 342.115 97.4675 341.655 97.9405 341.151C98.4126 340.647 98.8598 340.29 98.938 340.353C99.0163 340.416 98.6973 340.875 98.2243 341.38C97.7521 341.884 97.3058 342.241 97.2266 342.178Z" fill="#263238"/>
<path d="M96.0412 331.341C96.0231 331.436 95.508 331.431 94.8905 331.33C94.273 331.229 93.7871 331.071 93.8052 330.976C93.8232 330.881 94.3384 330.886 94.9559 330.987C95.5733 331.088 96.0592 331.247 96.0412 331.341Z" fill="#263238"/>
<path d="M282.295 282.768H155.34V376.475H282.295V282.768Z" fill="#E0E0E0"/>
<g opacity="0.3">
<path d="M164.59 282.964C179.537 287.901 196.023 288.954 212.064 289.231C215.385 289.289 218.749 289.284 221.964 290.059C225.179 290.835 228.29 292.504 229.941 295.172C231.739 298.077 231.547 301.714 230.527 304.926C229.507 308.138 227.739 311.098 226.461 314.23C224.219 319.725 223.522 325.753 224.458 331.563C224.855 334.031 225.57 336.517 227.111 338.565C228.652 340.613 231.136 342.173 233.832 342.208C238.656 342.273 241.961 337.883 244.353 334.004C254.164 318.096 264.779 300.008 271.057 282.637L164.59 282.964Z" fill="black"/>
</g>
<path d="M198.599 375.973C198.475 375.973 198.375 355.204 198.375 329.589C198.375 303.966 198.476 283.201 198.599 283.201C198.722 283.201 198.822 303.966 198.822 329.589C198.822 355.203 198.722 375.973 198.599 375.973Z" fill="#455A64"/>
<path d="M388.739 376.475C388.739 376.589 310.947 376.682 215.008 376.682C119.037 376.682 41.2617 376.588 41.2617 376.475C41.2617 376.361 119.037 376.268 215.008 376.268C310.947 376.268 388.739 376.36 388.739 376.475Z" fill="#263238"/>
<path d="M281.473 67.0678L283.72 69.5147L290.066 67.0678L288.215 64.4983L281.473 67.0678Z" fill="#455A64"/>
<path d="M278.563 55.443C278.563 57.1329 277.083 58.502 275.258 58.502C273.433 58.502 271.953 57.1321 271.953 55.443C271.953 53.7539 273.433 52.384 275.258 52.384C277.084 52.384 278.563 53.7539 278.563 55.443Z" fill="#FF725E"/>
<path d="M204.586 101.035C204.586 101.879 203.847 102.565 202.934 102.565C202.022 102.565 201.281 101.88 201.281 101.035C201.281 100.19 202.021 99.5048 202.934 99.5048C203.847 99.5056 204.586 100.19 204.586 101.035Z" fill="#FF725E"/>
<path d="M127.656 78.0637C127.656 78.7045 127.095 79.2243 126.402 79.2243C125.71 79.2243 125.148 78.7045 125.148 78.0637C125.148 77.423 125.71 76.9032 126.402 76.9032C127.095 76.9032 127.656 77.423 127.656 78.0637Z" fill="#FF725E"/>
<path d="M122.996 65.2688L126.697 65.4774L128.455 58.748L124.998 58.8777L122.996 65.2688Z" fill="#455A64"/>
<path d="M238.582 119.023L239.826 122.256L247.204 121.113L245.718 118.222L238.582 119.023Z" fill="#FF725E"/>
<path d="M163.947 100.376L161.668 103.084L166.67 108.231L168.508 105.519L163.947 100.376Z" fill="#455A64"/>
</svg>
