<svg width="430" height="398" viewBox="0 0 430 398" fill="none" xmlns="http://www.w3.org/2000/svg">
<path d="M125.059 122.75C125.207 122.887 153.764 113.801 153.764 113.801L142.784 90.4766L117.363 99.4722L131.347 106.909L125.059 122.75Z" fill="#455A64"/>
<path d="M138.453 97.506V65.7464C138.453 65.7464 177.849 59.0807 206.231 59.4732C234.612 59.8656 263.842 64.1783 263.842 64.1783V94.6675C263.842 94.6675 174.884 87.3117 138.453 97.506Z" fill="#455A64"/>
<path d="M138.25 97.5323L153.765 113.939V94.6675C153.765 94.6675 140.788 96.1043 138.25 97.5323Z" fill="#263238"/>
<path d="M138.455 65.7448C138.579 65.7456 138.633 72.8618 138.576 81.6385C138.519 90.4176 138.373 97.5315 138.249 97.5315C138.125 97.5307 138.071 90.4152 138.128 81.6362C138.185 72.8603 138.331 65.7448 138.455 65.7448Z" fill="#263238"/>
<path d="M277.194 120.314C277.045 120.452 248.488 111.365 248.488 111.365L259.469 88.0408L284.889 97.0364L270.906 104.473L277.194 120.314Z" fill="#455A64"/>
<path d="M264.004 95.0966L248.488 111.503V93.6255C253.66 93.7855 258.832 94.2759 264.004 95.0966Z" fill="#263238"/>
<path d="M263.845 64.1799C263.968 64.1791 264.105 71.1004 264.15 79.6375C264.195 88.1769 264.131 95.0974 264.007 95.0982C263.883 95.099 263.747 88.1785 263.702 79.6391C263.657 71.1027 263.721 64.1807 263.845 64.1799Z" fill="#263238"/>
<path d="M160.671 79.6724C160.291 77.1404 162.121 75.0588 164.947 74.6958C166.515 74.4945 167.904 74.8543 168.904 75.7052L167.728 77.0305C167.022 76.4606 166.206 76.2226 165.298 76.3396C163.6 76.5577 162.56 77.8162 162.797 79.4002C163.034 80.9843 164.406 81.9339 166.103 81.7158C167.011 81.5996 167.725 81.1649 168.236 80.4271L169.757 81.4053C169.047 82.4871 167.817 83.1836 166.235 83.3866C163.421 83.7472 161.05 82.2045 160.671 79.6724Z" fill="white"/>
<path d="M170.058 78.476C169.78 75.9702 171.683 73.9134 174.559 73.6395C177.423 73.3673 179.75 75.0087 180.029 77.5264C180.309 80.0449 178.392 82.0899 175.528 82.3629C172.652 82.6367 170.337 80.9818 170.058 78.476ZM177.895 77.7302C177.717 76.1278 176.372 75.1472 174.745 75.3024C173.118 75.4568 172.016 76.6699 172.194 78.2723C172.373 79.8746 173.718 80.8545 175.346 80.7001C176.971 80.5448 178.073 79.3325 177.895 77.7302Z" fill="white"/>
<path d="M190.323 81.1283L189.958 76.0538L187.558 80.3952L186.605 80.4517L183.646 76.5378L183.991 81.5048L182.006 81.6226L181.418 73.1627L183.167 73.0584L186.954 78.1122L189.957 72.6549L191.694 72.5514L192.308 81.0097L190.323 81.1283Z" fill="white"/>
<path d="M202.164 75.3366C202.221 77.2255 200.726 78.4394 198.279 78.5039L196.435 78.5517L196.505 80.8895L194.386 80.9444L194.129 72.4678L198.094 72.3652C200.54 72.3007 202.106 73.4358 202.164 75.3366ZM200.018 75.3923C199.99 74.4602 199.319 73.9317 198.024 73.9651L196.297 74.0105L196.386 76.9533L198.113 76.9079C199.408 76.8745 200.046 76.3125 200.018 75.3923Z" fill="white"/>
<path d="M203.773 72.2561H205.892V79.1343H210.485V80.7327H203.773V72.2561Z" fill="white"/>
<path d="M218.742 79.3739L218.693 80.9484L211.602 80.7574L211.868 72.2808L218.789 72.467L218.74 74.0415L213.925 73.9118L213.868 75.7529L218.12 75.8675L218.072 77.3935L213.82 77.2788L213.758 79.241L218.742 79.3739Z" fill="white"/>
<path d="M222.658 74.2692L219.734 74.106L219.838 72.5108L227.804 72.9558L227.7 74.5509L224.775 74.3878L224.328 81.2517L222.212 81.1339L222.658 74.2692Z" fill="white"/>
<path d="M235.517 80.5353L235.359 82.1034L228.297 81.4977L229.141 73.0553L236.035 73.6467L235.878 75.2148L231.082 74.8033L230.899 76.6365L235.134 76.9995L234.982 78.519L230.747 78.1561L230.551 80.1102L235.517 80.5353Z" fill="white"/>
<path d="M238.163 73.8577L242.286 74.3679C245.254 74.7349 247.051 76.6429 246.684 79.1869C246.316 81.7309 244.043 83.135 241.072 82.7681L236.949 82.2578L238.163 73.8577ZM241.199 81.1594C243.002 81.3823 244.325 80.5321 244.557 78.9242C244.79 77.3155 243.753 76.174 241.951 75.9511L240.033 75.7139L239.282 80.9222L241.199 81.1594Z" fill="white"/>
</svg>
